G04 #@! TF.FileFunction,Copper,L2,Bot,Signal*
%FSLAX46Y46*%
G04 Gerber Fmt 4.6, Leading zero omitted, Abs format (unit mm)*
G04 Created by KiCad (PCBNEW 4.0.2+dfsg1-stable) date Fri 07 Oct 2016 10:33:26 BST*
%MOMM*%
G01*
G04 APERTURE LIST*
%ADD10C,0.150000*%
%ADD11C,2.000000*%
%ADD12O,1.727200X1.727200*%
%ADD13R,0.900000X0.500000*%
%ADD14C,2.400000*%
%ADD15R,0.750000X0.800000*%
%ADD16R,0.800000X0.750000*%
%ADD17R,0.800100X0.800100*%
%ADD18R,0.500000X0.900000*%
%ADD19R,0.600000X1.500000*%
%ADD20R,0.650000X1.060000*%
%ADD21R,0.910000X1.220000*%
%ADD22C,1.000000*%
%ADD23C,0.400000*%
%ADD24C,1.000000*%
G04 APERTURE END LIST*
D10*
D11*
X174110000Y-138800000D03*
X174110000Y-133720000D03*
X166490000Y-138800000D03*
X169030000Y-133720000D03*
D12*
X145800000Y-130300000D03*
X145800000Y-127760000D03*
X148340000Y-130300000D03*
X148340000Y-127760000D03*
X150880000Y-130300000D03*
X150880000Y-127760000D03*
X153420000Y-130300000D03*
X153420000Y-127760000D03*
X155960000Y-130300000D03*
X155960000Y-127760000D03*
X158500000Y-130300000D03*
X158500000Y-127760000D03*
X161040000Y-130300000D03*
X161040000Y-127760000D03*
X163580000Y-130300000D03*
X163580000Y-127760000D03*
X166120000Y-130300000D03*
X166120000Y-127760000D03*
X168660000Y-130300000D03*
X168660000Y-127760000D03*
X171200000Y-130300000D03*
X171200000Y-127760000D03*
X173740000Y-130300000D03*
X173740000Y-127760000D03*
X176280000Y-130300000D03*
X176280000Y-127760000D03*
D13*
X162300000Y-124010000D03*
X162300000Y-125510000D03*
D14*
X174250000Y-119500000D03*
X170750000Y-119500000D03*
X132500000Y-135350000D03*
X132500000Y-138850000D03*
X132500000Y-127250000D03*
X132500000Y-130750000D03*
X132500000Y-119150000D03*
X132500000Y-122650000D03*
D15*
X143050000Y-125260000D03*
X143050000Y-123760000D03*
D16*
X141050000Y-131760000D03*
X142550000Y-131760000D03*
X138550000Y-127760000D03*
X137050000Y-127760000D03*
X138550000Y-133760000D03*
X137050000Y-133760000D03*
X138550000Y-139760000D03*
X137050000Y-139760000D03*
D15*
X162300000Y-135010000D03*
X162300000Y-133510000D03*
D16*
X160050000Y-141260000D03*
X158550000Y-141260000D03*
D15*
X162300000Y-139010000D03*
X162300000Y-137510000D03*
D16*
X156550000Y-141260000D03*
X155050000Y-141260000D03*
X151550000Y-141260000D03*
X153050000Y-141260000D03*
D14*
X137000000Y-119500000D03*
X151000000Y-119500000D03*
X140500000Y-119500000D03*
X147500000Y-119500000D03*
X144000000Y-119500000D03*
X166300000Y-119500000D03*
X155500000Y-119500000D03*
X162650000Y-119500000D03*
X159150000Y-119500000D03*
D17*
X153000000Y-125510760D03*
X151100000Y-125510760D03*
X152050000Y-123511780D03*
X147250000Y-125510760D03*
X145350000Y-125510760D03*
X146300000Y-123511780D03*
X166250000Y-125510760D03*
X164350000Y-125510760D03*
X165300000Y-123511780D03*
D18*
X138550000Y-123760000D03*
X137050000Y-123760000D03*
X138550000Y-129760000D03*
X137050000Y-129760000D03*
X138550000Y-135760000D03*
X137050000Y-135760000D03*
X138550000Y-125760000D03*
X137050000Y-125760000D03*
X138550000Y-131760000D03*
X137050000Y-131760000D03*
X138550000Y-137760000D03*
X137050000Y-137760000D03*
D13*
X155050000Y-125510000D03*
X155050000Y-124010000D03*
X149050000Y-125510000D03*
X149050000Y-124010000D03*
X168300000Y-125510000D03*
X168300000Y-124010000D03*
D19*
X160245000Y-138960000D03*
X158975000Y-138960000D03*
X157705000Y-138960000D03*
X156435000Y-138960000D03*
X155165000Y-138960000D03*
X153895000Y-138960000D03*
X152625000Y-138960000D03*
X151355000Y-138960000D03*
X151355000Y-133560000D03*
X152625000Y-133560000D03*
X153895000Y-133560000D03*
X155165000Y-133560000D03*
X156435000Y-133560000D03*
X157705000Y-133560000D03*
X158975000Y-133560000D03*
X160245000Y-133560000D03*
D20*
X140850000Y-127660000D03*
X141800000Y-127660000D03*
X142750000Y-127660000D03*
X142750000Y-129860000D03*
X140850000Y-129860000D03*
D21*
X171935000Y-140760000D03*
X168665000Y-140760000D03*
D22*
X148550000Y-137760000D03*
X140550000Y-136010000D03*
X148550000Y-134760000D03*
X149800000Y-136260000D03*
X149800000Y-133260000D03*
X149800000Y-139260000D03*
D23*
X140850000Y-127660000D02*
X140850000Y-126960000D01*
X141300000Y-126510000D02*
X142750000Y-126510000D01*
X140850000Y-126960000D02*
X141300000Y-126510000D01*
X148340000Y-127760000D02*
X145800000Y-127760000D01*
X143050000Y-125260000D02*
X142750000Y-125560000D01*
X142750000Y-125560000D02*
X142750000Y-126510000D01*
X142750000Y-126510000D02*
X142750000Y-127660000D01*
X142750000Y-127660000D02*
X142850000Y-127760000D01*
X142850000Y-127760000D02*
X145800000Y-127760000D01*
X148550000Y-137760000D02*
X149050000Y-137260000D01*
X157550000Y-137260000D02*
X160245000Y-134565000D01*
X149050000Y-137260000D02*
X157550000Y-137260000D01*
X139800000Y-133760000D02*
X139800000Y-135760000D01*
X160245000Y-133560000D02*
X160245000Y-134565000D01*
X140550000Y-136010000D02*
X140300000Y-135760000D01*
X140300000Y-135760000D02*
X139800000Y-135760000D01*
X139800000Y-135760000D02*
X138550000Y-135760000D01*
X162300000Y-133510000D02*
X160295000Y-133510000D01*
X160295000Y-133510000D02*
X160245000Y-133560000D01*
X138550000Y-123760000D02*
X138750000Y-123560000D01*
X141050000Y-131760000D02*
X140850000Y-131560000D01*
X140850000Y-131560000D02*
X140850000Y-129860000D01*
X139800000Y-133760000D02*
X139800000Y-129860000D01*
X138550000Y-123760000D02*
X139800000Y-125010000D01*
X138550000Y-129760000D02*
X138650000Y-129860000D01*
X138650000Y-129860000D02*
X139800000Y-129860000D01*
X139800000Y-129860000D02*
X140850000Y-129860000D01*
X139800000Y-125010000D02*
X139800000Y-129860000D01*
X174110000Y-138800000D02*
X172150000Y-140760000D01*
X172150000Y-140760000D02*
X171935000Y-140760000D01*
X174110000Y-138800000D02*
X176320000Y-136590000D01*
X176320000Y-136590000D02*
X176320000Y-132790000D01*
X175010000Y-123760000D02*
X170750000Y-119500000D01*
X175010000Y-131480000D02*
X175010000Y-123760000D01*
X176320000Y-132790000D02*
X175010000Y-131480000D01*
X137050000Y-123760000D02*
X137050000Y-125760000D01*
X132500000Y-122650000D02*
X133610000Y-123760000D01*
X133610000Y-123760000D02*
X137050000Y-123760000D01*
X132500000Y-130750000D02*
X132510000Y-130760000D01*
X132510000Y-130760000D02*
X137050000Y-130760000D01*
X137050000Y-131760000D02*
X137050000Y-130760000D01*
X137050000Y-130760000D02*
X137050000Y-129760000D01*
X132500000Y-138850000D02*
X133590000Y-137760000D01*
X133590000Y-137760000D02*
X137050000Y-137760000D01*
X137050000Y-135760000D02*
X137050000Y-137760000D01*
X146300000Y-123511780D02*
X147500000Y-122311780D01*
X147500000Y-122311780D02*
X147500000Y-119500000D01*
X152050000Y-123511780D02*
X151000000Y-122461780D01*
X151000000Y-122461780D02*
X151000000Y-119500000D01*
X160245000Y-138960000D02*
X160245000Y-141065000D01*
X160245000Y-141065000D02*
X160050000Y-141260000D01*
X157705000Y-138960000D02*
X157705000Y-140415000D01*
X157705000Y-140415000D02*
X158550000Y-141260000D01*
X162300000Y-137510000D02*
X159550000Y-137510000D01*
X158975000Y-138085000D02*
X158975000Y-138960000D01*
X159550000Y-137510000D02*
X158975000Y-138085000D01*
X156435000Y-138960000D02*
X156435000Y-141145000D01*
X156435000Y-141145000D02*
X156550000Y-141260000D01*
X155165000Y-138960000D02*
X155165000Y-141145000D01*
X155165000Y-141145000D02*
X155050000Y-141260000D01*
X153895000Y-138960000D02*
X153895000Y-140415000D01*
X153895000Y-140415000D02*
X153050000Y-141260000D01*
X153895000Y-133560000D02*
X153895000Y-131695000D01*
X154690000Y-129030000D02*
X153420000Y-127760000D01*
X154690000Y-130900000D02*
X154690000Y-129030000D01*
X153895000Y-131695000D02*
X154690000Y-130900000D01*
X155165000Y-133560000D02*
X155165000Y-132915000D01*
X155165000Y-132915000D02*
X157230000Y-130850000D01*
X157230000Y-130850000D02*
X157230000Y-129030000D01*
X157230000Y-129030000D02*
X155960000Y-127760000D01*
X148550000Y-134760000D02*
X149050000Y-135260000D01*
X149050000Y-135260000D02*
X155800000Y-135260000D01*
X155800000Y-135260000D02*
X156435000Y-134625000D01*
X156435000Y-134625000D02*
X156435000Y-133560000D01*
X156435000Y-133560000D02*
X156435000Y-134625000D01*
X157705000Y-133560000D02*
X157705000Y-134855000D01*
X156300000Y-136260000D02*
X149800000Y-136260000D01*
X157705000Y-134855000D02*
X156300000Y-136260000D01*
X138300000Y-141760000D02*
X139550000Y-141760000D01*
X146050000Y-135260000D02*
X146050000Y-135010000D01*
X139550000Y-141760000D02*
X146050000Y-135260000D01*
X146050000Y-135010000D02*
X146050000Y-133858530D01*
X150880000Y-130300000D02*
X149420000Y-131760000D01*
X149420000Y-131760000D02*
X148300000Y-131760000D01*
X148300000Y-131760000D02*
X148148530Y-131760000D01*
X148148530Y-131760000D02*
X146050000Y-133858530D01*
X138300000Y-141760000D02*
X131300000Y-141760000D01*
X129800000Y-140260000D02*
X131300000Y-141760000D01*
X137550000Y-128760000D02*
X133600000Y-128760000D01*
X138550000Y-127760000D02*
X137550000Y-128760000D01*
X133375000Y-128985000D02*
X133600000Y-128760000D01*
X129800000Y-130760000D02*
X131575000Y-128985000D01*
X131575000Y-128985000D02*
X133375000Y-128985000D01*
X129800000Y-130760000D02*
X129800000Y-139760000D01*
X129800000Y-139760000D02*
X129800000Y-140260000D01*
X150880000Y-130300000D02*
X150880000Y-130540000D01*
X138550000Y-125760000D02*
X138550000Y-127760000D01*
X150760000Y-130300000D02*
X150880000Y-130300000D01*
X145050000Y-134760000D02*
X145050000Y-135260000D01*
X145050000Y-135260000D02*
X139550000Y-140760000D01*
X139050000Y-140760000D02*
X139550000Y-140760000D01*
X132300000Y-132760000D02*
X130550000Y-134510000D01*
X130550000Y-134510000D02*
X130550000Y-139510000D01*
X130550000Y-139510000D02*
X131550000Y-140510000D01*
X131550000Y-140510000D02*
X131800000Y-140760000D01*
X131800000Y-140760000D02*
X139050000Y-140760000D01*
X138550000Y-132760000D02*
X132300000Y-132760000D01*
X145050000Y-134760000D02*
X145050000Y-134510000D01*
X145050000Y-134510000D02*
X145050000Y-134010000D01*
X145050000Y-134010000D02*
X148340000Y-130720000D01*
X148340000Y-130720000D02*
X148340000Y-130300000D01*
X138550000Y-131760000D02*
X138550000Y-132760000D01*
X138550000Y-132760000D02*
X138550000Y-133760000D01*
X148340000Y-130300000D02*
X148340000Y-130720000D01*
X138550000Y-139760000D02*
X139550000Y-139760000D01*
X144050000Y-135260000D02*
X144050000Y-134010000D01*
X139550000Y-139760000D02*
X144050000Y-135260000D01*
X147070000Y-130010000D02*
X147070000Y-130990000D01*
X152150000Y-129030000D02*
X150620000Y-129030000D01*
X153420000Y-130300000D02*
X152150000Y-129030000D01*
X147720000Y-129030000D02*
X147070000Y-129680000D01*
X147070000Y-129680000D02*
X147070000Y-130010000D01*
X150620000Y-129030000D02*
X147720000Y-129030000D01*
X147070000Y-130990000D02*
X144050000Y-134010000D01*
X138550000Y-139510000D02*
X138550000Y-139760000D01*
X138550000Y-137510000D02*
X138550000Y-137760000D01*
X138550000Y-137760000D02*
X138550000Y-139760000D01*
X151355000Y-133560000D02*
X150100000Y-133560000D01*
X150100000Y-133560000D02*
X149800000Y-133260000D01*
X151355000Y-133560000D02*
X151360000Y-133555000D01*
X149050000Y-125510000D02*
X147250760Y-125510000D01*
X147250760Y-125510000D02*
X147250000Y-125510760D01*
X147050760Y-125460000D02*
X147100760Y-125510000D01*
X149050000Y-125510000D02*
X149930000Y-126390000D01*
X157130000Y-126390000D02*
X158500000Y-127760000D01*
X149930000Y-126390000D02*
X157130000Y-126390000D01*
X156300000Y-125510000D02*
X157550000Y-125510000D01*
X162080000Y-126260000D02*
X163580000Y-127760000D01*
X158300000Y-126260000D02*
X162080000Y-126260000D01*
X157550000Y-125510000D02*
X158300000Y-126260000D01*
X155050000Y-125510000D02*
X155049240Y-125510760D01*
X155049240Y-125510760D02*
X153000000Y-125510760D01*
X153100760Y-125510000D02*
X153050760Y-125460000D01*
X155050000Y-125510000D02*
X156300000Y-125510000D01*
X155000000Y-125460000D02*
X155050000Y-125510000D01*
X163540000Y-127730000D02*
X163350000Y-127540000D01*
X166120000Y-127760000D02*
X166250000Y-127630000D01*
X166250000Y-127630000D02*
X166250000Y-125510760D01*
X168300000Y-125510000D02*
X166250760Y-125510000D01*
X166250760Y-125510000D02*
X166250000Y-125510760D01*
X166350760Y-125510000D02*
X166300760Y-125460000D01*
X166300760Y-127579240D02*
X166120000Y-127760000D01*
X168300000Y-125510000D02*
X168300000Y-125580000D01*
X166150000Y-127660000D02*
X166080000Y-127730000D01*
X151355000Y-138960000D02*
X150100000Y-138960000D01*
X150100000Y-138960000D02*
X149800000Y-139260000D01*
X162300000Y-124010000D02*
X162300000Y-119850000D01*
X162300000Y-119850000D02*
X162650000Y-119500000D01*
D24*
X162300000Y-119850000D02*
X162650000Y-119500000D01*
D23*
X162300000Y-119850000D02*
X162650000Y-119500000D01*
X174110000Y-133720000D02*
X172470000Y-132080000D01*
X172470000Y-132080000D02*
X172470000Y-125060000D01*
X170985000Y-123575000D02*
X169050000Y-121640000D01*
X169050000Y-121640000D02*
X169050000Y-118410000D01*
X170985000Y-123575000D02*
X172470000Y-125060000D01*
X169050000Y-118410000D02*
X167390000Y-116750000D01*
X167390000Y-116750000D02*
X158250000Y-116750000D01*
X158250000Y-116750000D02*
X155500000Y-119500000D01*
X169030000Y-133720000D02*
X169930000Y-132820000D01*
X169930000Y-132820000D02*
X169930000Y-124040000D01*
X167395000Y-118215000D02*
X167950000Y-118770000D01*
X167950000Y-122060000D02*
X169930000Y-124040000D01*
X167950000Y-118770000D02*
X167950000Y-122060000D01*
X167395000Y-118215000D02*
X167020000Y-117840000D01*
X167020000Y-117840000D02*
X160810000Y-117840000D01*
X160810000Y-117840000D02*
X159150000Y-119500000D01*
X168665000Y-140760000D02*
X168450000Y-140760000D01*
X168450000Y-140760000D02*
X166490000Y-138800000D01*
X166490000Y-138800000D02*
X164850000Y-137160000D01*
X164850000Y-137160000D02*
X164850000Y-132260000D01*
X165300000Y-123511780D02*
X165300000Y-126320000D01*
X164850000Y-126770000D02*
X164850000Y-132260000D01*
X165300000Y-126320000D02*
X164850000Y-126770000D01*
X166300000Y-119500000D02*
X166300000Y-122511780D01*
X166300000Y-122511780D02*
X165300000Y-123511780D01*
X166300760Y-119500760D02*
X166300000Y-119500000D01*
G36*
X176737682Y-115299624D02*
X176966307Y-115368650D01*
X177177176Y-115480771D01*
X177362249Y-115631714D01*
X177514478Y-115815728D01*
X177628066Y-116025802D01*
X177698688Y-116253945D01*
X177725000Y-116504296D01*
X177725000Y-141486546D01*
X177700376Y-141737682D01*
X177631349Y-141966311D01*
X177519229Y-142177175D01*
X177368286Y-142362250D01*
X177184275Y-142514477D01*
X176974194Y-142628068D01*
X176746055Y-142698688D01*
X176495704Y-142725000D01*
X129513454Y-142725000D01*
X129262318Y-142700376D01*
X129033689Y-142631349D01*
X128822825Y-142519229D01*
X128637750Y-142368286D01*
X128485523Y-142184275D01*
X128371932Y-141974194D01*
X128301312Y-141746055D01*
X128275000Y-141495704D01*
X128275000Y-130760000D01*
X129200000Y-130760000D01*
X129200000Y-140260000D01*
X129205409Y-140315170D01*
X129210239Y-140370371D01*
X129211119Y-140373400D01*
X129211427Y-140376541D01*
X129227458Y-140429638D01*
X129242909Y-140482821D01*
X129244359Y-140485619D01*
X129245272Y-140488642D01*
X129271289Y-140537573D01*
X129296797Y-140586784D01*
X129298767Y-140589252D01*
X129300247Y-140592035D01*
X129335248Y-140634950D01*
X129369854Y-140678300D01*
X129374184Y-140682691D01*
X129374258Y-140682781D01*
X129374342Y-140682850D01*
X129375736Y-140684264D01*
X130875736Y-142184264D01*
X130918559Y-142219439D01*
X130961020Y-142255068D01*
X130963784Y-142256587D01*
X130966223Y-142258591D01*
X131015101Y-142284799D01*
X131063635Y-142311481D01*
X131066640Y-142312434D01*
X131069422Y-142313926D01*
X131122440Y-142330135D01*
X131175253Y-142346889D01*
X131178388Y-142347241D01*
X131181405Y-142348163D01*
X131236504Y-142353759D01*
X131291623Y-142359942D01*
X131297795Y-142359985D01*
X131297906Y-142359996D01*
X131298009Y-142359986D01*
X131300000Y-142360000D01*
X139550000Y-142360000D01*
X139605170Y-142354591D01*
X139660371Y-142349761D01*
X139663400Y-142348881D01*
X139666541Y-142348573D01*
X139719638Y-142332542D01*
X139772821Y-142317091D01*
X139775619Y-142315641D01*
X139778642Y-142314728D01*
X139827573Y-142288711D01*
X139876784Y-142263203D01*
X139879252Y-142261233D01*
X139882035Y-142259753D01*
X139924950Y-142224752D01*
X139968300Y-142190146D01*
X139972691Y-142185816D01*
X139972781Y-142185742D01*
X139972850Y-142185658D01*
X139974264Y-142184264D01*
X146474264Y-135684264D01*
X146509439Y-135641441D01*
X146545068Y-135598980D01*
X146546587Y-135596216D01*
X146548591Y-135593777D01*
X146574799Y-135544899D01*
X146601481Y-135496365D01*
X146602434Y-135493360D01*
X146603926Y-135490578D01*
X146620135Y-135437560D01*
X146636889Y-135384747D01*
X146637241Y-135381612D01*
X146638163Y-135378595D01*
X146643759Y-135323496D01*
X146649942Y-135268377D01*
X146649985Y-135262205D01*
X146649996Y-135262094D01*
X146649986Y-135261991D01*
X146650000Y-135260000D01*
X146650000Y-134107058D01*
X148397058Y-132360000D01*
X149420000Y-132360000D01*
X149475170Y-132354591D01*
X149530371Y-132349761D01*
X149533400Y-132348881D01*
X149536541Y-132348573D01*
X149589638Y-132332542D01*
X149642821Y-132317091D01*
X149645619Y-132315641D01*
X149648642Y-132314728D01*
X149697573Y-132288711D01*
X149746784Y-132263203D01*
X149749252Y-132261233D01*
X149752035Y-132259753D01*
X149794950Y-132224752D01*
X149838300Y-132190146D01*
X149842691Y-132185816D01*
X149842781Y-132185742D01*
X149842850Y-132185658D01*
X149844264Y-132184264D01*
X150521110Y-131507418D01*
X150611169Y-131535987D01*
X150856243Y-131563477D01*
X150873886Y-131563600D01*
X150886114Y-131563600D01*
X151131549Y-131539535D01*
X151367635Y-131468256D01*
X151585380Y-131352479D01*
X151776490Y-131196614D01*
X151933686Y-131006596D01*
X152050980Y-130789665D01*
X152123905Y-130554082D01*
X152149683Y-130308822D01*
X152127332Y-130063225D01*
X152057704Y-129826647D01*
X152013429Y-129741957D01*
X152209494Y-129938022D01*
X152176095Y-130045918D01*
X152150317Y-130291178D01*
X152172668Y-130536775D01*
X152242296Y-130773353D01*
X152356551Y-130991901D01*
X152511078Y-131184095D01*
X152699994Y-131342613D01*
X152916101Y-131461419D01*
X153151169Y-131535987D01*
X153313215Y-131554164D01*
X153308111Y-131570253D01*
X153307759Y-131573388D01*
X153306837Y-131576405D01*
X153301241Y-131631504D01*
X153295058Y-131686623D01*
X153295015Y-131692795D01*
X153295004Y-131692906D01*
X153295014Y-131693009D01*
X153295000Y-131695000D01*
X153295000Y-132548518D01*
X153255457Y-132594914D01*
X153208978Y-132698024D01*
X153193065Y-132810000D01*
X153193065Y-134310000D01*
X153198145Y-134373698D01*
X153231602Y-134481738D01*
X153293835Y-134576179D01*
X153379914Y-134649543D01*
X153403112Y-134660000D01*
X151847070Y-134660000D01*
X151921179Y-134611165D01*
X151994543Y-134525086D01*
X152041022Y-134421976D01*
X152056935Y-134310000D01*
X152056935Y-132810000D01*
X152051855Y-132746302D01*
X152018398Y-132638262D01*
X151956165Y-132543821D01*
X151870086Y-132470457D01*
X151766976Y-132423978D01*
X151655000Y-132408065D01*
X151055000Y-132408065D01*
X150991302Y-132413145D01*
X150883262Y-132446602D01*
X150788821Y-132508835D01*
X150715457Y-132594914D01*
X150668978Y-132698024D01*
X150653065Y-132810000D01*
X150653065Y-132960000D01*
X150649842Y-132960000D01*
X150598498Y-132835431D01*
X150500825Y-132688421D01*
X150376458Y-132563182D01*
X150230133Y-132464485D01*
X150067425Y-132396089D01*
X149894531Y-132360599D01*
X149718036Y-132359367D01*
X149544663Y-132392440D01*
X149381016Y-132458557D01*
X149233328Y-132555202D01*
X149107224Y-132678692D01*
X149007508Y-132824324D01*
X148937977Y-132986550D01*
X148901281Y-133159193D01*
X148898817Y-133335674D01*
X148930678Y-133509274D01*
X148995652Y-133673379D01*
X149091263Y-133821738D01*
X149213870Y-133948701D01*
X149358802Y-134049431D01*
X149520539Y-134120093D01*
X149692921Y-134157993D01*
X149869381Y-134161690D01*
X149967418Y-134144403D01*
X149975253Y-134146889D01*
X149978388Y-134147241D01*
X149981405Y-134148163D01*
X150036504Y-134153759D01*
X150091623Y-134159942D01*
X150097795Y-134159985D01*
X150097906Y-134159996D01*
X150098009Y-134159986D01*
X150100000Y-134160000D01*
X150653065Y-134160000D01*
X150653065Y-134310000D01*
X150658145Y-134373698D01*
X150691602Y-134481738D01*
X150753835Y-134576179D01*
X150839914Y-134649543D01*
X150863112Y-134660000D01*
X149447712Y-134660000D01*
X149415757Y-134498613D01*
X149348498Y-134335431D01*
X149250825Y-134188421D01*
X149126458Y-134063182D01*
X148980133Y-133964485D01*
X148817425Y-133896089D01*
X148644531Y-133860599D01*
X148468036Y-133859367D01*
X148294663Y-133892440D01*
X148131016Y-133958557D01*
X147983328Y-134055202D01*
X147857224Y-134178692D01*
X147757508Y-134324324D01*
X147687977Y-134486550D01*
X147651281Y-134659193D01*
X147648817Y-134835674D01*
X147680678Y-135009274D01*
X147745652Y-135173379D01*
X147841263Y-135321738D01*
X147963870Y-135448701D01*
X148108802Y-135549431D01*
X148270539Y-135620093D01*
X148442921Y-135657993D01*
X148602815Y-135661343D01*
X148625736Y-135684264D01*
X148668559Y-135719439D01*
X148711020Y-135755068D01*
X148713784Y-135756587D01*
X148716223Y-135758591D01*
X148765082Y-135784789D01*
X148813635Y-135811481D01*
X148816642Y-135812435D01*
X148819423Y-135813926D01*
X148872413Y-135830127D01*
X148925253Y-135846889D01*
X148928390Y-135847241D01*
X148931406Y-135848163D01*
X148986543Y-135853764D01*
X148994507Y-135854657D01*
X148937977Y-135986550D01*
X148901281Y-136159193D01*
X148898817Y-136335674D01*
X148930678Y-136509274D01*
X148992575Y-136665606D01*
X148939629Y-136670239D01*
X148936600Y-136671119D01*
X148933459Y-136671427D01*
X148880362Y-136687458D01*
X148827179Y-136702909D01*
X148824381Y-136704359D01*
X148821358Y-136705272D01*
X148772427Y-136731289D01*
X148723216Y-136756797D01*
X148720748Y-136758767D01*
X148717965Y-136760247D01*
X148675056Y-136795243D01*
X148631701Y-136829853D01*
X148627309Y-136834184D01*
X148627219Y-136834258D01*
X148627150Y-136834342D01*
X148625736Y-136835736D01*
X148601176Y-136860296D01*
X148468036Y-136859367D01*
X148294663Y-136892440D01*
X148131016Y-136958557D01*
X147983328Y-137055202D01*
X147857224Y-137178692D01*
X147757508Y-137324324D01*
X147687977Y-137486550D01*
X147651281Y-137659193D01*
X147648817Y-137835674D01*
X147680678Y-138009274D01*
X147745652Y-138173379D01*
X147841263Y-138321738D01*
X147963870Y-138448701D01*
X148108802Y-138549431D01*
X148270539Y-138620093D01*
X148442921Y-138657993D01*
X148619381Y-138661690D01*
X148793199Y-138631041D01*
X148957753Y-138567214D01*
X149106777Y-138472641D01*
X149234592Y-138350924D01*
X149336332Y-138206699D01*
X149408121Y-138045459D01*
X149447224Y-137873346D01*
X149447410Y-137860000D01*
X150862930Y-137860000D01*
X150788821Y-137908835D01*
X150715457Y-137994914D01*
X150668978Y-138098024D01*
X150653065Y-138210000D01*
X150653065Y-138360000D01*
X150100000Y-138360000D01*
X150044830Y-138365409D01*
X149989629Y-138370239D01*
X149986600Y-138371119D01*
X149983459Y-138371427D01*
X149968817Y-138375848D01*
X149894531Y-138360599D01*
X149718036Y-138359367D01*
X149544663Y-138392440D01*
X149381016Y-138458557D01*
X149233328Y-138555202D01*
X149107224Y-138678692D01*
X149007508Y-138824324D01*
X148937977Y-138986550D01*
X148901281Y-139159193D01*
X148898817Y-139335674D01*
X148930678Y-139509274D01*
X148995652Y-139673379D01*
X149091263Y-139821738D01*
X149213870Y-139948701D01*
X149358802Y-140049431D01*
X149520539Y-140120093D01*
X149692921Y-140157993D01*
X149869381Y-140161690D01*
X150043199Y-140131041D01*
X150207753Y-140067214D01*
X150356777Y-139972641D01*
X150484592Y-139850924D01*
X150586332Y-139706699D01*
X150651647Y-139560000D01*
X150653065Y-139560000D01*
X150653065Y-139710000D01*
X150658145Y-139773698D01*
X150691602Y-139881738D01*
X150753835Y-139976179D01*
X150839914Y-140049543D01*
X150943024Y-140096022D01*
X151055000Y-140111935D01*
X151655000Y-140111935D01*
X151718698Y-140106855D01*
X151826738Y-140073398D01*
X151921179Y-140011165D01*
X151992075Y-139927982D01*
X152023835Y-139976179D01*
X152109914Y-140049543D01*
X152213024Y-140096022D01*
X152325000Y-140111935D01*
X152925000Y-140111935D01*
X152988698Y-140106855D01*
X153096738Y-140073398D01*
X153191179Y-140011165D01*
X153262075Y-139927982D01*
X153293835Y-139976179D01*
X153295000Y-139977172D01*
X153295000Y-140166472D01*
X152978407Y-140483065D01*
X152650000Y-140483065D01*
X152586302Y-140488145D01*
X152478262Y-140521602D01*
X152383821Y-140583835D01*
X152310457Y-140669914D01*
X152263978Y-140773024D01*
X152248065Y-140885000D01*
X152248065Y-141635000D01*
X152253145Y-141698698D01*
X152286602Y-141806738D01*
X152348835Y-141901179D01*
X152434914Y-141974543D01*
X152538024Y-142021022D01*
X152650000Y-142036935D01*
X153450000Y-142036935D01*
X153513698Y-142031855D01*
X153621738Y-141998398D01*
X153716179Y-141936165D01*
X153789543Y-141850086D01*
X153836022Y-141746976D01*
X153851935Y-141635000D01*
X153851935Y-141306593D01*
X154248065Y-140910463D01*
X154248065Y-141635000D01*
X154253145Y-141698698D01*
X154286602Y-141806738D01*
X154348835Y-141901179D01*
X154434914Y-141974543D01*
X154538024Y-142021022D01*
X154650000Y-142036935D01*
X155450000Y-142036935D01*
X155513698Y-142031855D01*
X155621738Y-141998398D01*
X155716179Y-141936165D01*
X155789543Y-141850086D01*
X155799951Y-141826996D01*
X155848835Y-141901179D01*
X155934914Y-141974543D01*
X156038024Y-142021022D01*
X156150000Y-142036935D01*
X156950000Y-142036935D01*
X157013698Y-142031855D01*
X157121738Y-141998398D01*
X157216179Y-141936165D01*
X157289543Y-141850086D01*
X157336022Y-141746976D01*
X157351935Y-141635000D01*
X157351935Y-140910463D01*
X157748065Y-141306593D01*
X157748065Y-141635000D01*
X157753145Y-141698698D01*
X157786602Y-141806738D01*
X157848835Y-141901179D01*
X157934914Y-141974543D01*
X158038024Y-142021022D01*
X158150000Y-142036935D01*
X158950000Y-142036935D01*
X159013698Y-142031855D01*
X159121738Y-141998398D01*
X159216179Y-141936165D01*
X159289543Y-141850086D01*
X159299951Y-141826996D01*
X159348835Y-141901179D01*
X159434914Y-141974543D01*
X159538024Y-142021022D01*
X159650000Y-142036935D01*
X160450000Y-142036935D01*
X160513698Y-142031855D01*
X160621738Y-141998398D01*
X160716179Y-141936165D01*
X160789543Y-141850086D01*
X160836022Y-141746976D01*
X160851935Y-141635000D01*
X160851935Y-140885000D01*
X160846855Y-140821302D01*
X160845000Y-140815312D01*
X160845000Y-139971482D01*
X160884543Y-139925086D01*
X160931022Y-139821976D01*
X160946935Y-139710000D01*
X160946935Y-138210000D01*
X160941855Y-138146302D01*
X160930613Y-138110000D01*
X161580226Y-138110000D01*
X161623835Y-138176179D01*
X161709914Y-138249543D01*
X161813024Y-138296022D01*
X161925000Y-138311935D01*
X162675000Y-138311935D01*
X162738698Y-138306855D01*
X162846738Y-138273398D01*
X162941179Y-138211165D01*
X163014543Y-138125086D01*
X163061022Y-138021976D01*
X163076935Y-137910000D01*
X163076935Y-137110000D01*
X163071855Y-137046302D01*
X163038398Y-136938262D01*
X162976165Y-136843821D01*
X162890086Y-136770457D01*
X162786976Y-136723978D01*
X162675000Y-136708065D01*
X161925000Y-136708065D01*
X161861302Y-136713145D01*
X161753262Y-136746602D01*
X161658821Y-136808835D01*
X161585457Y-136894914D01*
X161578657Y-136910000D01*
X159550000Y-136910000D01*
X159494875Y-136915405D01*
X159439629Y-136920239D01*
X159436600Y-136921119D01*
X159433459Y-136921427D01*
X159380362Y-136937458D01*
X159327179Y-136952909D01*
X159324381Y-136954359D01*
X159321358Y-136955272D01*
X159272427Y-136981289D01*
X159223216Y-137006797D01*
X159220748Y-137008767D01*
X159217965Y-137010247D01*
X159175056Y-137045243D01*
X159131701Y-137079853D01*
X159127309Y-137084184D01*
X159127219Y-137084258D01*
X159127150Y-137084342D01*
X159125736Y-137085736D01*
X158550736Y-137660736D01*
X158515561Y-137703559D01*
X158479932Y-137746020D01*
X158478413Y-137748784D01*
X158476409Y-137751223D01*
X158450201Y-137800101D01*
X158423519Y-137848635D01*
X158422566Y-137851640D01*
X158421074Y-137854422D01*
X158404865Y-137907440D01*
X158401814Y-137917056D01*
X158337925Y-137992018D01*
X158306165Y-137943821D01*
X158220086Y-137870457D01*
X158116976Y-137823978D01*
X158005000Y-137808065D01*
X157791173Y-137808065D01*
X157827573Y-137788711D01*
X157876784Y-137763203D01*
X157879252Y-137761233D01*
X157882035Y-137759753D01*
X157924950Y-137724752D01*
X157968300Y-137690146D01*
X157972691Y-137685816D01*
X157972781Y-137685742D01*
X157972850Y-137685658D01*
X157974264Y-137684264D01*
X160669264Y-134989264D01*
X160704439Y-134946441D01*
X160740068Y-134903980D01*
X160741587Y-134901216D01*
X160743591Y-134898777D01*
X160769808Y-134849883D01*
X160796481Y-134801365D01*
X160797434Y-134798362D01*
X160798927Y-134795577D01*
X160815141Y-134742541D01*
X160831889Y-134689747D01*
X160832241Y-134686610D01*
X160833163Y-134683594D01*
X160838763Y-134628461D01*
X160844942Y-134573377D01*
X160844955Y-134571535D01*
X160884543Y-134525086D01*
X160931022Y-134421976D01*
X160946935Y-134310000D01*
X160946935Y-134110000D01*
X161580226Y-134110000D01*
X161623835Y-134176179D01*
X161709914Y-134249543D01*
X161813024Y-134296022D01*
X161925000Y-134311935D01*
X162675000Y-134311935D01*
X162738698Y-134306855D01*
X162846738Y-134273398D01*
X162941179Y-134211165D01*
X163014543Y-134125086D01*
X163061022Y-134021976D01*
X163076935Y-133910000D01*
X163076935Y-133110000D01*
X163071855Y-133046302D01*
X163038398Y-132938262D01*
X162976165Y-132843821D01*
X162890086Y-132770457D01*
X162786976Y-132723978D01*
X162675000Y-132708065D01*
X161925000Y-132708065D01*
X161861302Y-132713145D01*
X161753262Y-132746602D01*
X161658821Y-132808835D01*
X161585457Y-132894914D01*
X161578657Y-132910000D01*
X160946935Y-132910000D01*
X160946935Y-132810000D01*
X160941855Y-132746302D01*
X160908398Y-132638262D01*
X160846165Y-132543821D01*
X160760086Y-132470457D01*
X160656976Y-132423978D01*
X160545000Y-132408065D01*
X159945000Y-132408065D01*
X159881302Y-132413145D01*
X159773262Y-132446602D01*
X159678821Y-132508835D01*
X159605457Y-132594914D01*
X159558978Y-132698024D01*
X159543065Y-132810000D01*
X159543065Y-134310000D01*
X159548145Y-134373698D01*
X159557515Y-134403957D01*
X157301472Y-136660000D01*
X156748528Y-136660000D01*
X158129264Y-135279264D01*
X158164439Y-135236441D01*
X158200068Y-135193980D01*
X158201587Y-135191216D01*
X158203591Y-135188777D01*
X158229799Y-135139899D01*
X158256481Y-135091365D01*
X158257434Y-135088360D01*
X158258926Y-135085578D01*
X158275135Y-135032560D01*
X158291889Y-134979747D01*
X158292241Y-134976612D01*
X158293163Y-134973595D01*
X158298759Y-134918496D01*
X158304942Y-134863377D01*
X158304985Y-134857205D01*
X158304996Y-134857094D01*
X158304986Y-134856991D01*
X158305000Y-134855000D01*
X158305000Y-134571482D01*
X158344543Y-134525086D01*
X158391022Y-134421976D01*
X158406935Y-134310000D01*
X158406935Y-132810000D01*
X158401855Y-132746302D01*
X158368398Y-132638262D01*
X158306165Y-132543821D01*
X158220086Y-132470457D01*
X158116976Y-132423978D01*
X158005000Y-132408065D01*
X157405000Y-132408065D01*
X157341302Y-132413145D01*
X157233262Y-132446602D01*
X157138821Y-132508835D01*
X157067925Y-132592018D01*
X157036165Y-132543821D01*
X156950086Y-132470457D01*
X156846976Y-132423978D01*
X156735000Y-132408065D01*
X156520463Y-132408065D01*
X157654264Y-131274264D01*
X157672329Y-131252272D01*
X157779994Y-131342613D01*
X157996101Y-131461419D01*
X158231169Y-131535987D01*
X158476243Y-131563477D01*
X158493886Y-131563600D01*
X158506114Y-131563600D01*
X158751549Y-131539535D01*
X158987635Y-131468256D01*
X159205380Y-131352479D01*
X159396490Y-131196614D01*
X159553686Y-131006596D01*
X159670980Y-130789665D01*
X159743905Y-130554082D01*
X159769683Y-130308822D01*
X159768078Y-130291178D01*
X159770317Y-130291178D01*
X159792668Y-130536775D01*
X159862296Y-130773353D01*
X159976551Y-130991901D01*
X160131078Y-131184095D01*
X160319994Y-131342613D01*
X160536101Y-131461419D01*
X160771169Y-131535987D01*
X161016243Y-131563477D01*
X161033886Y-131563600D01*
X161046114Y-131563600D01*
X161291549Y-131539535D01*
X161527635Y-131468256D01*
X161745380Y-131352479D01*
X161936490Y-131196614D01*
X162093686Y-131006596D01*
X162210980Y-130789665D01*
X162283905Y-130554082D01*
X162309683Y-130308822D01*
X162287332Y-130063225D01*
X162217704Y-129826647D01*
X162103449Y-129608099D01*
X161948922Y-129415905D01*
X161760006Y-129257387D01*
X161543899Y-129138581D01*
X161308831Y-129064013D01*
X161063757Y-129036523D01*
X161046114Y-129036400D01*
X161033886Y-129036400D01*
X160788451Y-129060465D01*
X160552365Y-129131744D01*
X160334620Y-129247521D01*
X160143510Y-129403386D01*
X159986314Y-129593404D01*
X159869020Y-129810335D01*
X159796095Y-130045918D01*
X159770317Y-130291178D01*
X159768078Y-130291178D01*
X159747332Y-130063225D01*
X159677704Y-129826647D01*
X159563449Y-129608099D01*
X159408922Y-129415905D01*
X159220006Y-129257387D01*
X159003899Y-129138581D01*
X158768831Y-129064013D01*
X158523757Y-129036523D01*
X158506114Y-129036400D01*
X158493886Y-129036400D01*
X158248451Y-129060465D01*
X158012365Y-129131744D01*
X157830000Y-129228709D01*
X157830000Y-129030000D01*
X157824591Y-128974830D01*
X157819761Y-128919629D01*
X157818881Y-128916600D01*
X157818573Y-128913459D01*
X157802542Y-128860362D01*
X157787091Y-128807179D01*
X157786609Y-128806250D01*
X157996101Y-128921419D01*
X158231169Y-128995987D01*
X158476243Y-129023477D01*
X158493886Y-129023600D01*
X158506114Y-129023600D01*
X158751549Y-128999535D01*
X158987635Y-128928256D01*
X159205380Y-128812479D01*
X159396490Y-128656614D01*
X159553686Y-128466596D01*
X159670980Y-128249665D01*
X159743905Y-128014082D01*
X159769683Y-127768822D01*
X159747332Y-127523225D01*
X159677704Y-127286647D01*
X159563449Y-127068099D01*
X159408922Y-126875905D01*
X159389967Y-126860000D01*
X161831472Y-126860000D01*
X162369494Y-127398022D01*
X162336095Y-127505918D01*
X162310317Y-127751178D01*
X162332668Y-127996775D01*
X162402296Y-128233353D01*
X162516551Y-128451901D01*
X162671078Y-128644095D01*
X162859994Y-128802613D01*
X163076101Y-128921419D01*
X163311169Y-128995987D01*
X163556243Y-129023477D01*
X163573886Y-129023600D01*
X163586114Y-129023600D01*
X163831549Y-128999535D01*
X164067635Y-128928256D01*
X164250000Y-128831291D01*
X164250000Y-129229896D01*
X164083899Y-129138581D01*
X163848831Y-129064013D01*
X163603757Y-129036523D01*
X163586114Y-129036400D01*
X163573886Y-129036400D01*
X163328451Y-129060465D01*
X163092365Y-129131744D01*
X162874620Y-129247521D01*
X162683510Y-129403386D01*
X162526314Y-129593404D01*
X162409020Y-129810335D01*
X162336095Y-130045918D01*
X162310317Y-130291178D01*
X162332668Y-130536775D01*
X162402296Y-130773353D01*
X162516551Y-130991901D01*
X162671078Y-131184095D01*
X162859994Y-131342613D01*
X163076101Y-131461419D01*
X163311169Y-131535987D01*
X163556243Y-131563477D01*
X163573886Y-131563600D01*
X163586114Y-131563600D01*
X163831549Y-131539535D01*
X164067635Y-131468256D01*
X164250000Y-131371291D01*
X164250000Y-137160000D01*
X164255409Y-137215170D01*
X164260239Y-137270371D01*
X164261119Y-137273400D01*
X164261427Y-137276541D01*
X164277458Y-137329638D01*
X164292909Y-137382821D01*
X164294359Y-137385619D01*
X164295272Y-137388642D01*
X164321289Y-137437573D01*
X164346797Y-137486784D01*
X164348767Y-137489252D01*
X164350247Y-137492035D01*
X164385248Y-137534950D01*
X164419854Y-137578300D01*
X164424184Y-137582691D01*
X164424258Y-137582781D01*
X164424342Y-137582850D01*
X164425736Y-137584264D01*
X165169186Y-138327714D01*
X165149076Y-138374634D01*
X165091993Y-138643188D01*
X165088160Y-138917716D01*
X165137722Y-139187759D01*
X165238792Y-139443033D01*
X165387520Y-139673815D01*
X165578242Y-139871312D01*
X165803692Y-140028004D01*
X166055283Y-140137922D01*
X166323432Y-140196878D01*
X166597926Y-140202628D01*
X166868309Y-140154952D01*
X166960619Y-140119147D01*
X167808065Y-140966593D01*
X167808065Y-141370000D01*
X167813145Y-141433698D01*
X167846602Y-141541738D01*
X167908835Y-141636179D01*
X167994914Y-141709543D01*
X168098024Y-141756022D01*
X168210000Y-141771935D01*
X169120000Y-141771935D01*
X169183698Y-141766855D01*
X169291738Y-141733398D01*
X169386179Y-141671165D01*
X169459543Y-141585086D01*
X169506022Y-141481976D01*
X169521935Y-141370000D01*
X169521935Y-140150000D01*
X169516855Y-140086302D01*
X169483398Y-139978262D01*
X169421165Y-139883821D01*
X169335086Y-139810457D01*
X169231976Y-139763978D01*
X169120000Y-139748065D01*
X168286593Y-139748065D01*
X167811829Y-139273301D01*
X167824854Y-139244047D01*
X167885681Y-138976316D01*
X167890060Y-138662723D01*
X167836732Y-138393398D01*
X167732108Y-138139560D01*
X167580172Y-137910878D01*
X167386711Y-137716062D01*
X167159096Y-137562533D01*
X166905994Y-137456139D01*
X166637048Y-137400932D01*
X166362500Y-137399016D01*
X166092809Y-137450462D01*
X166018865Y-137480337D01*
X165450000Y-136911472D01*
X165450000Y-131370104D01*
X165616101Y-131461419D01*
X165851169Y-131535987D01*
X166096243Y-131563477D01*
X166113886Y-131563600D01*
X166126114Y-131563600D01*
X166371549Y-131539535D01*
X166607635Y-131468256D01*
X166825380Y-131352479D01*
X167016490Y-131196614D01*
X167173686Y-131006596D01*
X167290980Y-130789665D01*
X167363905Y-130554082D01*
X167389683Y-130308822D01*
X167367332Y-130063225D01*
X167297704Y-129826647D01*
X167183449Y-129608099D01*
X167028922Y-129415905D01*
X166840006Y-129257387D01*
X166623899Y-129138581D01*
X166388831Y-129064013D01*
X166143757Y-129036523D01*
X166126114Y-129036400D01*
X166113886Y-129036400D01*
X165868451Y-129060465D01*
X165632365Y-129131744D01*
X165450000Y-129228709D01*
X165450000Y-128830104D01*
X165616101Y-128921419D01*
X165851169Y-128995987D01*
X166096243Y-129023477D01*
X166113886Y-129023600D01*
X166126114Y-129023600D01*
X166371549Y-128999535D01*
X166607635Y-128928256D01*
X166825380Y-128812479D01*
X167016490Y-128656614D01*
X167173686Y-128466596D01*
X167290980Y-128249665D01*
X167363905Y-128014082D01*
X167389683Y-127768822D01*
X167367332Y-127523225D01*
X167297704Y-127286647D01*
X167183449Y-127068099D01*
X167028922Y-126875905D01*
X166850000Y-126725773D01*
X166850000Y-126255617D01*
X166916229Y-126211975D01*
X166989593Y-126125896D01*
X166996758Y-126110000D01*
X167658112Y-126110000D01*
X167738024Y-126146022D01*
X167850000Y-126161935D01*
X168160584Y-126161935D01*
X168179353Y-126167745D01*
X168295811Y-126179985D01*
X168412429Y-126169372D01*
X168437698Y-126161935D01*
X168750000Y-126161935D01*
X168813698Y-126156855D01*
X168921738Y-126123398D01*
X169016179Y-126061165D01*
X169089543Y-125975086D01*
X169136022Y-125871976D01*
X169151935Y-125760000D01*
X169151935Y-125260000D01*
X169146855Y-125196302D01*
X169113398Y-125088262D01*
X169051165Y-124993821D01*
X168965086Y-124920457D01*
X168861976Y-124873978D01*
X168750000Y-124858065D01*
X167850000Y-124858065D01*
X167786302Y-124863145D01*
X167678262Y-124896602D01*
X167657930Y-124910000D01*
X166994357Y-124910000D01*
X166951215Y-124844531D01*
X166865136Y-124771167D01*
X166762026Y-124724688D01*
X166650050Y-124708775D01*
X165900000Y-124708775D01*
X165900000Y-124256637D01*
X165966229Y-124212995D01*
X166039593Y-124126916D01*
X166086072Y-124023806D01*
X166101985Y-123911830D01*
X166101985Y-123558323D01*
X166724264Y-122936044D01*
X166759439Y-122893221D01*
X166795068Y-122850760D01*
X166796587Y-122847996D01*
X166798591Y-122845557D01*
X166824808Y-122796663D01*
X166851481Y-122748145D01*
X166852434Y-122745142D01*
X166853927Y-122742357D01*
X166870141Y-122689321D01*
X166886889Y-122636527D01*
X166887241Y-122633390D01*
X166888163Y-122630374D01*
X166893763Y-122575241D01*
X166899942Y-122520157D01*
X166899985Y-122513994D01*
X166899997Y-122513873D01*
X166899986Y-122513760D01*
X166900000Y-122511780D01*
X166900000Y-120983492D01*
X167024895Y-120935048D01*
X167289825Y-120766918D01*
X167350000Y-120709614D01*
X167350000Y-122060000D01*
X167355409Y-122115170D01*
X167360239Y-122170371D01*
X167361119Y-122173400D01*
X167361427Y-122176541D01*
X167377458Y-122229638D01*
X167392909Y-122282821D01*
X167394359Y-122285619D01*
X167395272Y-122288642D01*
X167421289Y-122337573D01*
X167446797Y-122386784D01*
X167448767Y-122389252D01*
X167450247Y-122392035D01*
X167485248Y-122434950D01*
X167519854Y-122478300D01*
X167524184Y-122482691D01*
X167524258Y-122482781D01*
X167524342Y-122482850D01*
X167525736Y-122484264D01*
X169330000Y-124288528D01*
X169330000Y-129229896D01*
X169163899Y-129138581D01*
X168928831Y-129064013D01*
X168683757Y-129036523D01*
X168666114Y-129036400D01*
X168653886Y-129036400D01*
X168408451Y-129060465D01*
X168172365Y-129131744D01*
X167954620Y-129247521D01*
X167763510Y-129403386D01*
X167606314Y-129593404D01*
X167489020Y-129810335D01*
X167416095Y-130045918D01*
X167390317Y-130291178D01*
X167412668Y-130536775D01*
X167482296Y-130773353D01*
X167596551Y-130991901D01*
X167751078Y-131184095D01*
X167939994Y-131342613D01*
X168156101Y-131461419D01*
X168391169Y-131535987D01*
X168636243Y-131563477D01*
X168653886Y-131563600D01*
X168666114Y-131563600D01*
X168911549Y-131539535D01*
X169147635Y-131468256D01*
X169330000Y-131371291D01*
X169330000Y-132352329D01*
X169177048Y-132320932D01*
X168902500Y-132319016D01*
X168632809Y-132370462D01*
X168378247Y-132473312D01*
X168148510Y-132623648D01*
X167952349Y-132815743D01*
X167797235Y-133042281D01*
X167689076Y-133294634D01*
X167631993Y-133563188D01*
X167628160Y-133837716D01*
X167677722Y-134107759D01*
X167778792Y-134363033D01*
X167927520Y-134593815D01*
X168118242Y-134791312D01*
X168343692Y-134948004D01*
X168595283Y-135057922D01*
X168863432Y-135116878D01*
X169137926Y-135122628D01*
X169408309Y-135074952D01*
X169664283Y-134975667D01*
X169896097Y-134828553D01*
X170094921Y-134639215D01*
X170253183Y-134414865D01*
X170364854Y-134164047D01*
X170425681Y-133896316D01*
X170430060Y-133582723D01*
X170376732Y-133313398D01*
X170349996Y-133248532D01*
X170354264Y-133244264D01*
X170389439Y-133201441D01*
X170425068Y-133158980D01*
X170426587Y-133156216D01*
X170428591Y-133153777D01*
X170454799Y-133104899D01*
X170481481Y-133056365D01*
X170482434Y-133053360D01*
X170483926Y-133050578D01*
X170500135Y-132997560D01*
X170516889Y-132944747D01*
X170517241Y-132941612D01*
X170518163Y-132938595D01*
X170523759Y-132883496D01*
X170529942Y-132828377D01*
X170529985Y-132822205D01*
X170529996Y-132822094D01*
X170529986Y-132821991D01*
X170530000Y-132820000D01*
X170530000Y-131370104D01*
X170696101Y-131461419D01*
X170931169Y-131535987D01*
X171176243Y-131563477D01*
X171193886Y-131563600D01*
X171206114Y-131563600D01*
X171451549Y-131539535D01*
X171687635Y-131468256D01*
X171870000Y-131371291D01*
X171870000Y-132080000D01*
X171875409Y-132135170D01*
X171880239Y-132190371D01*
X171881119Y-132193400D01*
X171881427Y-132196541D01*
X171897458Y-132249638D01*
X171912909Y-132302821D01*
X171914359Y-132305619D01*
X171915272Y-132308642D01*
X171941289Y-132357573D01*
X171966797Y-132406784D01*
X171968767Y-132409252D01*
X171970247Y-132412035D01*
X172005248Y-132454950D01*
X172039854Y-132498300D01*
X172044184Y-132502691D01*
X172044258Y-132502781D01*
X172044342Y-132502850D01*
X172045736Y-132504264D01*
X172789186Y-133247714D01*
X172769076Y-133294634D01*
X172711993Y-133563188D01*
X172708160Y-133837716D01*
X172757722Y-134107759D01*
X172858792Y-134363033D01*
X173007520Y-134593815D01*
X173198242Y-134791312D01*
X173423692Y-134948004D01*
X173675283Y-135057922D01*
X173943432Y-135116878D01*
X174217926Y-135122628D01*
X174488309Y-135074952D01*
X174744283Y-134975667D01*
X174976097Y-134828553D01*
X175174921Y-134639215D01*
X175333183Y-134414865D01*
X175444854Y-134164047D01*
X175505681Y-133896316D01*
X175510060Y-133582723D01*
X175456732Y-133313398D01*
X175352108Y-133059560D01*
X175200172Y-132830878D01*
X175006711Y-132636062D01*
X174779096Y-132482533D01*
X174525994Y-132376139D01*
X174257048Y-132320932D01*
X173982500Y-132319016D01*
X173712809Y-132370462D01*
X173638865Y-132400337D01*
X173070000Y-131831472D01*
X173070000Y-131370104D01*
X173236101Y-131461419D01*
X173471169Y-131535987D01*
X173716243Y-131563477D01*
X173733886Y-131563600D01*
X173746114Y-131563600D01*
X173991549Y-131539535D01*
X174227635Y-131468256D01*
X174410000Y-131371291D01*
X174410000Y-131480000D01*
X174415409Y-131535170D01*
X174420239Y-131590371D01*
X174421119Y-131593400D01*
X174421427Y-131596541D01*
X174437455Y-131649629D01*
X174452909Y-131702821D01*
X174454359Y-131705619D01*
X174455272Y-131708642D01*
X174481289Y-131757573D01*
X174506797Y-131806784D01*
X174508767Y-131809252D01*
X174510247Y-131812035D01*
X174545248Y-131854950D01*
X174579854Y-131898300D01*
X174584184Y-131902691D01*
X174584258Y-131902781D01*
X174584342Y-131902850D01*
X174585736Y-131904264D01*
X175720000Y-133038528D01*
X175720000Y-136341472D01*
X174581852Y-137479620D01*
X174525994Y-137456139D01*
X174257048Y-137400932D01*
X173982500Y-137399016D01*
X173712809Y-137450462D01*
X173458247Y-137553312D01*
X173228510Y-137703648D01*
X173032349Y-137895743D01*
X172877235Y-138122281D01*
X172769076Y-138374634D01*
X172711993Y-138643188D01*
X172708160Y-138917716D01*
X172757722Y-139187759D01*
X172790621Y-139270851D01*
X172313407Y-139748065D01*
X171480000Y-139748065D01*
X171416302Y-139753145D01*
X171308262Y-139786602D01*
X171213821Y-139848835D01*
X171140457Y-139934914D01*
X171093978Y-140038024D01*
X171078065Y-140150000D01*
X171078065Y-141370000D01*
X171083145Y-141433698D01*
X171116602Y-141541738D01*
X171178835Y-141636179D01*
X171264914Y-141709543D01*
X171368024Y-141756022D01*
X171480000Y-141771935D01*
X172390000Y-141771935D01*
X172453698Y-141766855D01*
X172561738Y-141733398D01*
X172656179Y-141671165D01*
X172729543Y-141585086D01*
X172776022Y-141481976D01*
X172791935Y-141370000D01*
X172791935Y-140966593D01*
X173637231Y-140121297D01*
X173675283Y-140137922D01*
X173943432Y-140196878D01*
X174217926Y-140202628D01*
X174488309Y-140154952D01*
X174744283Y-140055667D01*
X174976097Y-139908553D01*
X175174921Y-139719215D01*
X175333183Y-139494865D01*
X175444854Y-139244047D01*
X175505681Y-138976316D01*
X175510060Y-138662723D01*
X175456732Y-138393398D01*
X175429996Y-138328532D01*
X176744264Y-137014264D01*
X176779439Y-136971441D01*
X176815068Y-136928980D01*
X176816587Y-136926216D01*
X176818591Y-136923777D01*
X176844799Y-136874899D01*
X176871481Y-136826365D01*
X176872434Y-136823360D01*
X176873926Y-136820578D01*
X176890135Y-136767560D01*
X176906889Y-136714747D01*
X176907241Y-136711612D01*
X176908163Y-136708595D01*
X176913759Y-136653496D01*
X176919942Y-136598377D01*
X176919985Y-136592205D01*
X176919996Y-136592094D01*
X176919986Y-136591991D01*
X176920000Y-136590000D01*
X176920000Y-132790000D01*
X176914595Y-132734871D01*
X176909761Y-132679629D01*
X176908881Y-132676600D01*
X176908573Y-132673459D01*
X176892538Y-132620349D01*
X176877091Y-132567180D01*
X176875641Y-132564383D01*
X176874728Y-132561358D01*
X176848701Y-132512409D01*
X176823203Y-132463216D01*
X176821233Y-132460748D01*
X176819753Y-132457965D01*
X176784757Y-132415056D01*
X176750147Y-132371701D01*
X176745816Y-132367309D01*
X176745742Y-132367219D01*
X176745658Y-132367150D01*
X176744264Y-132365736D01*
X175610000Y-131231472D01*
X175610000Y-128830104D01*
X175776101Y-128921419D01*
X176011169Y-128995987D01*
X176256243Y-129023477D01*
X176273886Y-129023600D01*
X176286114Y-129023600D01*
X176531549Y-128999535D01*
X176767635Y-128928256D01*
X176985380Y-128812479D01*
X177176490Y-128656614D01*
X177333686Y-128466596D01*
X177450980Y-128249665D01*
X177523905Y-128014082D01*
X177549683Y-127768822D01*
X177527332Y-127523225D01*
X177457704Y-127286647D01*
X177343449Y-127068099D01*
X177188922Y-126875905D01*
X177000006Y-126717387D01*
X176783899Y-126598581D01*
X176548831Y-126524013D01*
X176303757Y-126496523D01*
X176286114Y-126496400D01*
X176273886Y-126496400D01*
X176028451Y-126520465D01*
X175792365Y-126591744D01*
X175610000Y-126688709D01*
X175610000Y-123760000D01*
X175604595Y-123704871D01*
X175599761Y-123649629D01*
X175598881Y-123646600D01*
X175598573Y-123643459D01*
X175582542Y-123590362D01*
X175567091Y-123537179D01*
X175565641Y-123534381D01*
X175564728Y-123531358D01*
X175538711Y-123482427D01*
X175513203Y-123433216D01*
X175511233Y-123430748D01*
X175509753Y-123427965D01*
X175474757Y-123385056D01*
X175440147Y-123341701D01*
X175435816Y-123337309D01*
X175435742Y-123337219D01*
X175435658Y-123337150D01*
X175434264Y-123335736D01*
X172223319Y-120124791D01*
X172275548Y-120007482D01*
X172345064Y-119701504D01*
X172350069Y-119343112D01*
X172289123Y-119035311D01*
X172169552Y-118745211D01*
X171995911Y-118483860D01*
X171774813Y-118261213D01*
X171514681Y-118085752D01*
X171225422Y-117964159D01*
X170918055Y-117901065D01*
X170604286Y-117898875D01*
X170296068Y-117957671D01*
X170005140Y-118075213D01*
X169742583Y-118247026D01*
X169643636Y-118343921D01*
X169639761Y-118299629D01*
X169638881Y-118296600D01*
X169638573Y-118293459D01*
X169622552Y-118240395D01*
X169607092Y-118187180D01*
X169605640Y-118184379D01*
X169604728Y-118181358D01*
X169578709Y-118132424D01*
X169553203Y-118083217D01*
X169551234Y-118080751D01*
X169549753Y-118077965D01*
X169514739Y-118035034D01*
X169480147Y-117991701D01*
X169475816Y-117987309D01*
X169475742Y-117987219D01*
X169475658Y-117987150D01*
X169474264Y-117985736D01*
X167814264Y-116325736D01*
X167771441Y-116290561D01*
X167728980Y-116254932D01*
X167726216Y-116253413D01*
X167723777Y-116251409D01*
X167674899Y-116225201D01*
X167626365Y-116198519D01*
X167623360Y-116197566D01*
X167620578Y-116196074D01*
X167567560Y-116179865D01*
X167514747Y-116163111D01*
X167511612Y-116162759D01*
X167508595Y-116161837D01*
X167453496Y-116156241D01*
X167398377Y-116150058D01*
X167392205Y-116150015D01*
X167392094Y-116150004D01*
X167391991Y-116150014D01*
X167390000Y-116150000D01*
X158250000Y-116150000D01*
X158194830Y-116155409D01*
X158139629Y-116160239D01*
X158136600Y-116161119D01*
X158133459Y-116161427D01*
X158080362Y-116177458D01*
X158027179Y-116192909D01*
X158024381Y-116194359D01*
X158021358Y-116195272D01*
X157972388Y-116221310D01*
X157923216Y-116246798D01*
X157920751Y-116248765D01*
X157917965Y-116250247D01*
X157875022Y-116285270D01*
X157831700Y-116319854D01*
X157827309Y-116324184D01*
X157827219Y-116324258D01*
X157827150Y-116324342D01*
X157825736Y-116325736D01*
X156124603Y-118026869D01*
X155975422Y-117964159D01*
X155668055Y-117901065D01*
X155354286Y-117898875D01*
X155046068Y-117957671D01*
X154755140Y-118075213D01*
X154492583Y-118247026D01*
X154268398Y-118466563D01*
X154091125Y-118725464D01*
X153967515Y-119013867D01*
X153902278Y-119320787D01*
X153897897Y-119634532D01*
X153954539Y-119943154D01*
X154070048Y-120234896D01*
X154240023Y-120498645D01*
X154457990Y-120724357D01*
X154715648Y-120903433D01*
X155003180Y-121029054D01*
X155309637Y-121096432D01*
X155623344Y-121103004D01*
X155932354Y-121048517D01*
X156224895Y-120935048D01*
X156489825Y-120766918D01*
X156717053Y-120550532D01*
X156897924Y-120294131D01*
X157025548Y-120007482D01*
X157095064Y-119701504D01*
X157100069Y-119343112D01*
X157039123Y-119035311D01*
X156973188Y-118875340D01*
X158498528Y-117350000D01*
X160466007Y-117350000D01*
X160435034Y-117375261D01*
X160391701Y-117409853D01*
X160387309Y-117414184D01*
X160387219Y-117414258D01*
X160387150Y-117414342D01*
X160385736Y-117415736D01*
X159774603Y-118026869D01*
X159625422Y-117964159D01*
X159318055Y-117901065D01*
X159004286Y-117898875D01*
X158696068Y-117957671D01*
X158405140Y-118075213D01*
X158142583Y-118247026D01*
X157918398Y-118466563D01*
X157741125Y-118725464D01*
X157617515Y-119013867D01*
X157552278Y-119320787D01*
X157547897Y-119634532D01*
X157604539Y-119943154D01*
X157720048Y-120234896D01*
X157890023Y-120498645D01*
X158107990Y-120724357D01*
X158365648Y-120903433D01*
X158653180Y-121029054D01*
X158959637Y-121096432D01*
X159273344Y-121103004D01*
X159582354Y-121048517D01*
X159874895Y-120935048D01*
X160139825Y-120766918D01*
X160367053Y-120550532D01*
X160547924Y-120294131D01*
X160675548Y-120007482D01*
X160745064Y-119701504D01*
X160750069Y-119343112D01*
X160689123Y-119035311D01*
X160623188Y-118875340D01*
X161058528Y-118440000D01*
X161445523Y-118440000D01*
X161418398Y-118466563D01*
X161241125Y-118725464D01*
X161117515Y-119013867D01*
X161052278Y-119320787D01*
X161047897Y-119634532D01*
X161104539Y-119943154D01*
X161220048Y-120234896D01*
X161390023Y-120498645D01*
X161607990Y-120724357D01*
X161700000Y-120788305D01*
X161700000Y-123389870D01*
X161678262Y-123396602D01*
X161583821Y-123458835D01*
X161510457Y-123544914D01*
X161463978Y-123648024D01*
X161448065Y-123760000D01*
X161448065Y-124260000D01*
X161453145Y-124323698D01*
X161486602Y-124431738D01*
X161548835Y-124526179D01*
X161634914Y-124599543D01*
X161738024Y-124646022D01*
X161850000Y-124661935D01*
X162750000Y-124661935D01*
X162813698Y-124656855D01*
X162921738Y-124623398D01*
X163016179Y-124561165D01*
X163089543Y-124475086D01*
X163136022Y-124371976D01*
X163151935Y-124260000D01*
X163151935Y-123760000D01*
X163146855Y-123696302D01*
X163113398Y-123588262D01*
X163051165Y-123493821D01*
X162965086Y-123420457D01*
X162900000Y-123391118D01*
X162900000Y-121080671D01*
X163082354Y-121048517D01*
X163374895Y-120935048D01*
X163639825Y-120766918D01*
X163867053Y-120550532D01*
X164047924Y-120294131D01*
X164175548Y-120007482D01*
X164245064Y-119701504D01*
X164250069Y-119343112D01*
X164189123Y-119035311D01*
X164069552Y-118745211D01*
X163895911Y-118483860D01*
X163852356Y-118440000D01*
X165095523Y-118440000D01*
X165068398Y-118466563D01*
X164891125Y-118725464D01*
X164767515Y-119013867D01*
X164702278Y-119320787D01*
X164697897Y-119634532D01*
X164754539Y-119943154D01*
X164870048Y-120234896D01*
X165040023Y-120498645D01*
X165257990Y-120724357D01*
X165515648Y-120903433D01*
X165700000Y-120983975D01*
X165700000Y-122263252D01*
X165253457Y-122709795D01*
X164899950Y-122709795D01*
X164836252Y-122714875D01*
X164728212Y-122748332D01*
X164633771Y-122810565D01*
X164560407Y-122896644D01*
X164513928Y-122999754D01*
X164498015Y-123111730D01*
X164498015Y-123911830D01*
X164503095Y-123975528D01*
X164536552Y-124083568D01*
X164598785Y-124178009D01*
X164684864Y-124251373D01*
X164700000Y-124258196D01*
X164700000Y-126071472D01*
X164425736Y-126345736D01*
X164390561Y-126388559D01*
X164354932Y-126431020D01*
X164353413Y-126433784D01*
X164351409Y-126436223D01*
X164325201Y-126485101D01*
X164298519Y-126533635D01*
X164297566Y-126536640D01*
X164296074Y-126539422D01*
X164279865Y-126592440D01*
X164263111Y-126645253D01*
X164262759Y-126648388D01*
X164261837Y-126651405D01*
X164257508Y-126694024D01*
X164083899Y-126598581D01*
X163848831Y-126524013D01*
X163603757Y-126496523D01*
X163586114Y-126496400D01*
X163573886Y-126496400D01*
X163328451Y-126520465D01*
X163221334Y-126552806D01*
X162504264Y-125835736D01*
X162461441Y-125800561D01*
X162418980Y-125764932D01*
X162416216Y-125763413D01*
X162413777Y-125761409D01*
X162364899Y-125735201D01*
X162316365Y-125708519D01*
X162313360Y-125707566D01*
X162310578Y-125706074D01*
X162257560Y-125689865D01*
X162204747Y-125673111D01*
X162201612Y-125672759D01*
X162198595Y-125671837D01*
X162143496Y-125666241D01*
X162088377Y-125660058D01*
X162082205Y-125660015D01*
X162082094Y-125660004D01*
X162081991Y-125660014D01*
X162080000Y-125660000D01*
X158548528Y-125660000D01*
X157974264Y-125085736D01*
X157931441Y-125050561D01*
X157888980Y-125014932D01*
X157886216Y-125013413D01*
X157883777Y-125011409D01*
X157834899Y-124985201D01*
X157786365Y-124958519D01*
X157783360Y-124957566D01*
X157780578Y-124956074D01*
X157727560Y-124939865D01*
X157674747Y-124923111D01*
X157671612Y-124922759D01*
X157668595Y-124921837D01*
X157613496Y-124916241D01*
X157558377Y-124910058D01*
X157552205Y-124910015D01*
X157552094Y-124910004D01*
X157551991Y-124910014D01*
X157550000Y-124910000D01*
X155691888Y-124910000D01*
X155611976Y-124873978D01*
X155500000Y-124858065D01*
X154600000Y-124858065D01*
X154536302Y-124863145D01*
X154428262Y-124896602D01*
X154406777Y-124910760D01*
X153744857Y-124910760D01*
X153701215Y-124844531D01*
X153615136Y-124771167D01*
X153512026Y-124724688D01*
X153400050Y-124708775D01*
X152599950Y-124708775D01*
X152536252Y-124713855D01*
X152428212Y-124747312D01*
X152333771Y-124809545D01*
X152260407Y-124895624D01*
X152213928Y-124998734D01*
X152198015Y-125110710D01*
X152198015Y-125790000D01*
X150178528Y-125790000D01*
X149901935Y-125513407D01*
X149901935Y-125260000D01*
X149896855Y-125196302D01*
X149863398Y-125088262D01*
X149801165Y-124993821D01*
X149715086Y-124920457D01*
X149611976Y-124873978D01*
X149500000Y-124858065D01*
X148600000Y-124858065D01*
X148536302Y-124863145D01*
X148428262Y-124896602D01*
X148407930Y-124910000D01*
X147994357Y-124910000D01*
X147951215Y-124844531D01*
X147865136Y-124771167D01*
X147762026Y-124724688D01*
X147650050Y-124708775D01*
X146849950Y-124708775D01*
X146786252Y-124713855D01*
X146678212Y-124747312D01*
X146583771Y-124809545D01*
X146510407Y-124895624D01*
X146463928Y-124998734D01*
X146448015Y-125110710D01*
X146448015Y-125910810D01*
X146453095Y-125974508D01*
X146486552Y-126082548D01*
X146548785Y-126176989D01*
X146634864Y-126250353D01*
X146737974Y-126296832D01*
X146849950Y-126312745D01*
X147650050Y-126312745D01*
X147713748Y-126307665D01*
X147821788Y-126274208D01*
X147916229Y-126211975D01*
X147989593Y-126125896D01*
X147996758Y-126110000D01*
X148408112Y-126110000D01*
X148488024Y-126146022D01*
X148600000Y-126161935D01*
X148853407Y-126161935D01*
X149505736Y-126814264D01*
X149548559Y-126849439D01*
X149591020Y-126885068D01*
X149593784Y-126886587D01*
X149596223Y-126888591D01*
X149645101Y-126914799D01*
X149693635Y-126941481D01*
X149696640Y-126942434D01*
X149699422Y-126943926D01*
X149752427Y-126960131D01*
X149805253Y-126976889D01*
X149808390Y-126977241D01*
X149811406Y-126978163D01*
X149866498Y-126983759D01*
X149921623Y-126989942D01*
X149927795Y-126989985D01*
X149927906Y-126989996D01*
X149928009Y-126989986D01*
X149930000Y-126990000D01*
X152418766Y-126990000D01*
X152366314Y-127053404D01*
X152249020Y-127270335D01*
X152176095Y-127505918D01*
X152150317Y-127751178D01*
X152172668Y-127996775D01*
X152242296Y-128233353D01*
X152356551Y-128451901D01*
X152374490Y-128474213D01*
X152327560Y-128459865D01*
X152274747Y-128443111D01*
X152271612Y-128442759D01*
X152268595Y-128441837D01*
X152213496Y-128436241D01*
X152158377Y-128430058D01*
X152152205Y-128430015D01*
X152152094Y-128430004D01*
X152151991Y-128430014D01*
X152150000Y-128430000D01*
X149413473Y-128430000D01*
X149510980Y-128249665D01*
X149583905Y-128014082D01*
X149609683Y-127768822D01*
X149587332Y-127523225D01*
X149517704Y-127286647D01*
X149403449Y-127068099D01*
X149248922Y-126875905D01*
X149060006Y-126717387D01*
X148843899Y-126598581D01*
X148608831Y-126524013D01*
X148363757Y-126496523D01*
X148346114Y-126496400D01*
X148333886Y-126496400D01*
X148088451Y-126520465D01*
X147852365Y-126591744D01*
X147634620Y-126707521D01*
X147443510Y-126863386D01*
X147286314Y-127053404D01*
X147228678Y-127160000D01*
X146911494Y-127160000D01*
X146863449Y-127068099D01*
X146708922Y-126875905D01*
X146520006Y-126717387D01*
X146303899Y-126598581D01*
X146068831Y-126524013D01*
X145823757Y-126496523D01*
X145806114Y-126496400D01*
X145793886Y-126496400D01*
X145548451Y-126520465D01*
X145312365Y-126591744D01*
X145094620Y-126707521D01*
X144903510Y-126863386D01*
X144746314Y-127053404D01*
X144688678Y-127160000D01*
X143476935Y-127160000D01*
X143476935Y-127130000D01*
X143471855Y-127066302D01*
X143438398Y-126958262D01*
X143376165Y-126863821D01*
X143350000Y-126841521D01*
X143350000Y-126061935D01*
X143425000Y-126061935D01*
X143488698Y-126056855D01*
X143596738Y-126023398D01*
X143691179Y-125961165D01*
X143764543Y-125875086D01*
X143811022Y-125771976D01*
X143826935Y-125660000D01*
X143826935Y-124860000D01*
X143821855Y-124796302D01*
X143788398Y-124688262D01*
X143726165Y-124593821D01*
X143640086Y-124520457D01*
X143536976Y-124473978D01*
X143425000Y-124458065D01*
X142675000Y-124458065D01*
X142611302Y-124463145D01*
X142503262Y-124496602D01*
X142408821Y-124558835D01*
X142335457Y-124644914D01*
X142288978Y-124748024D01*
X142273065Y-124860000D01*
X142273065Y-125199410D01*
X142254932Y-125221020D01*
X142253413Y-125223784D01*
X142251409Y-125226223D01*
X142225201Y-125275101D01*
X142198519Y-125323635D01*
X142197566Y-125326640D01*
X142196074Y-125329422D01*
X142179865Y-125382440D01*
X142163111Y-125435253D01*
X142162759Y-125438388D01*
X142161837Y-125441405D01*
X142156241Y-125496504D01*
X142150058Y-125551623D01*
X142150015Y-125557795D01*
X142150004Y-125557906D01*
X142150014Y-125558009D01*
X142150000Y-125560000D01*
X142150000Y-125910000D01*
X141300000Y-125910000D01*
X141244830Y-125915409D01*
X141189629Y-125920239D01*
X141186600Y-125921119D01*
X141183459Y-125921427D01*
X141130362Y-125937458D01*
X141077179Y-125952909D01*
X141074381Y-125954359D01*
X141071358Y-125955272D01*
X141022427Y-125981289D01*
X140973216Y-126006797D01*
X140970748Y-126008767D01*
X140967965Y-126010247D01*
X140925050Y-126045248D01*
X140881700Y-126079854D01*
X140877309Y-126084184D01*
X140877219Y-126084258D01*
X140877150Y-126084342D01*
X140875736Y-126085736D01*
X140425736Y-126535736D01*
X140400000Y-126567067D01*
X140400000Y-125010000D01*
X140394591Y-124954830D01*
X140389761Y-124899629D01*
X140388881Y-124896600D01*
X140388573Y-124893459D01*
X140372542Y-124840362D01*
X140357091Y-124787179D01*
X140355641Y-124784381D01*
X140354728Y-124781358D01*
X140328711Y-124732427D01*
X140303203Y-124683216D01*
X140301233Y-124680748D01*
X140299753Y-124677965D01*
X140264777Y-124635080D01*
X140230147Y-124591700D01*
X140225814Y-124587308D01*
X140225742Y-124587219D01*
X140225660Y-124587151D01*
X140224264Y-124585736D01*
X139333236Y-123694708D01*
X139338163Y-123678594D01*
X139349997Y-123562094D01*
X139338977Y-123445514D01*
X139305522Y-123333295D01*
X139250909Y-123229712D01*
X139177216Y-123138708D01*
X139147228Y-123113723D01*
X139145915Y-123111730D01*
X145498015Y-123111730D01*
X145498015Y-123911830D01*
X145503095Y-123975528D01*
X145536552Y-124083568D01*
X145598785Y-124178009D01*
X145684864Y-124251373D01*
X145787974Y-124297852D01*
X145899950Y-124313765D01*
X146700050Y-124313765D01*
X146763748Y-124308685D01*
X146871788Y-124275228D01*
X146966229Y-124212995D01*
X147039593Y-124126916D01*
X147086072Y-124023806D01*
X147101985Y-123911830D01*
X147101985Y-123558323D01*
X147924264Y-122736044D01*
X147959439Y-122693221D01*
X147995068Y-122650760D01*
X147996587Y-122647996D01*
X147998591Y-122645557D01*
X148024799Y-122596679D01*
X148051481Y-122548145D01*
X148052434Y-122545140D01*
X148053926Y-122542358D01*
X148070135Y-122489340D01*
X148086889Y-122436527D01*
X148087241Y-122433392D01*
X148088163Y-122430375D01*
X148093759Y-122375276D01*
X148099942Y-122320157D01*
X148099985Y-122313985D01*
X148099996Y-122313874D01*
X148099986Y-122313771D01*
X148100000Y-122311780D01*
X148100000Y-120983492D01*
X148224895Y-120935048D01*
X148489825Y-120766918D01*
X148717053Y-120550532D01*
X148897924Y-120294131D01*
X149025548Y-120007482D01*
X149095064Y-119701504D01*
X149095999Y-119634532D01*
X149397897Y-119634532D01*
X149454539Y-119943154D01*
X149570048Y-120234896D01*
X149740023Y-120498645D01*
X149957990Y-120724357D01*
X150215648Y-120903433D01*
X150400000Y-120983975D01*
X150400000Y-122461780D01*
X150405409Y-122516950D01*
X150410239Y-122572151D01*
X150411119Y-122575180D01*
X150411427Y-122578321D01*
X150427458Y-122631418D01*
X150442909Y-122684601D01*
X150444359Y-122687399D01*
X150445272Y-122690422D01*
X150471289Y-122739353D01*
X150496797Y-122788564D01*
X150498767Y-122791032D01*
X150500247Y-122793815D01*
X150535248Y-122836730D01*
X150569854Y-122880080D01*
X150574184Y-122884471D01*
X150574258Y-122884561D01*
X150574342Y-122884630D01*
X150575736Y-122886044D01*
X151248015Y-123558323D01*
X151248015Y-123911830D01*
X151253095Y-123975528D01*
X151286552Y-124083568D01*
X151348785Y-124178009D01*
X151434864Y-124251373D01*
X151537974Y-124297852D01*
X151649950Y-124313765D01*
X152450050Y-124313765D01*
X152513748Y-124308685D01*
X152621788Y-124275228D01*
X152716229Y-124212995D01*
X152789593Y-124126916D01*
X152836072Y-124023806D01*
X152851985Y-123911830D01*
X152851985Y-123111730D01*
X152846905Y-123048032D01*
X152813448Y-122939992D01*
X152751215Y-122845551D01*
X152665136Y-122772187D01*
X152562026Y-122725708D01*
X152450050Y-122709795D01*
X152096543Y-122709795D01*
X151600000Y-122213252D01*
X151600000Y-120983492D01*
X151724895Y-120935048D01*
X151989825Y-120766918D01*
X152217053Y-120550532D01*
X152397924Y-120294131D01*
X152525548Y-120007482D01*
X152595064Y-119701504D01*
X152600069Y-119343112D01*
X152539123Y-119035311D01*
X152419552Y-118745211D01*
X152245911Y-118483860D01*
X152024813Y-118261213D01*
X151764681Y-118085752D01*
X151475422Y-117964159D01*
X151168055Y-117901065D01*
X150854286Y-117898875D01*
X150546068Y-117957671D01*
X150255140Y-118075213D01*
X149992583Y-118247026D01*
X149768398Y-118466563D01*
X149591125Y-118725464D01*
X149467515Y-119013867D01*
X149402278Y-119320787D01*
X149397897Y-119634532D01*
X149095999Y-119634532D01*
X149100069Y-119343112D01*
X149039123Y-119035311D01*
X148919552Y-118745211D01*
X148745911Y-118483860D01*
X148524813Y-118261213D01*
X148264681Y-118085752D01*
X147975422Y-117964159D01*
X147668055Y-117901065D01*
X147354286Y-117898875D01*
X147046068Y-117957671D01*
X146755140Y-118075213D01*
X146492583Y-118247026D01*
X146268398Y-118466563D01*
X146091125Y-118725464D01*
X145967515Y-119013867D01*
X145902278Y-119320787D01*
X145897897Y-119634532D01*
X145954539Y-119943154D01*
X146070048Y-120234896D01*
X146240023Y-120498645D01*
X146457990Y-120724357D01*
X146715648Y-120903433D01*
X146900000Y-120983975D01*
X146900000Y-122063252D01*
X146253457Y-122709795D01*
X145899950Y-122709795D01*
X145836252Y-122714875D01*
X145728212Y-122748332D01*
X145633771Y-122810565D01*
X145560407Y-122896644D01*
X145513928Y-122999754D01*
X145498015Y-123111730D01*
X139145915Y-123111730D01*
X139101165Y-123043821D01*
X139015086Y-122970457D01*
X138911976Y-122923978D01*
X138800000Y-122908065D01*
X138300000Y-122908065D01*
X138236302Y-122913145D01*
X138128262Y-122946602D01*
X138033821Y-123008835D01*
X137960457Y-123094914D01*
X137913978Y-123198024D01*
X137898065Y-123310000D01*
X137898065Y-124210000D01*
X137903145Y-124273698D01*
X137936602Y-124381738D01*
X137998835Y-124476179D01*
X138084914Y-124549543D01*
X138188024Y-124596022D01*
X138300000Y-124611935D01*
X138553407Y-124611935D01*
X138857743Y-124916271D01*
X138800000Y-124908065D01*
X138300000Y-124908065D01*
X138236302Y-124913145D01*
X138128262Y-124946602D01*
X138033821Y-125008835D01*
X137960457Y-125094914D01*
X137913978Y-125198024D01*
X137898065Y-125310000D01*
X137898065Y-126210000D01*
X137903145Y-126273698D01*
X137936602Y-126381738D01*
X137950000Y-126402070D01*
X137950000Y-127040226D01*
X137883821Y-127083835D01*
X137810457Y-127169914D01*
X137763978Y-127273024D01*
X137748065Y-127385000D01*
X137748065Y-127713407D01*
X137301472Y-128160000D01*
X133600000Y-128160000D01*
X133544830Y-128165409D01*
X133489629Y-128170239D01*
X133486600Y-128171119D01*
X133483459Y-128171427D01*
X133430362Y-128187458D01*
X133377179Y-128202909D01*
X133374381Y-128204359D01*
X133371358Y-128205272D01*
X133322427Y-128231289D01*
X133273216Y-128256797D01*
X133270748Y-128258767D01*
X133267965Y-128260247D01*
X133225050Y-128295248D01*
X133181700Y-128329854D01*
X133177309Y-128334184D01*
X133177219Y-128334258D01*
X133177150Y-128334342D01*
X133175736Y-128335736D01*
X133126472Y-128385000D01*
X131575000Y-128385000D01*
X131519830Y-128390409D01*
X131464629Y-128395239D01*
X131461600Y-128396119D01*
X131458459Y-128396427D01*
X131405362Y-128412458D01*
X131352179Y-128427909D01*
X131349381Y-128429359D01*
X131346358Y-128430272D01*
X131297427Y-128456289D01*
X131248216Y-128481797D01*
X131245748Y-128483767D01*
X131242965Y-128485247D01*
X131200050Y-128520248D01*
X131156700Y-128554854D01*
X131152309Y-128559184D01*
X131152219Y-128559258D01*
X131152150Y-128559342D01*
X131150736Y-128560736D01*
X129375736Y-130335736D01*
X129340561Y-130378559D01*
X129304932Y-130421020D01*
X129303413Y-130423784D01*
X129301409Y-130426223D01*
X129275201Y-130475101D01*
X129248519Y-130523635D01*
X129247566Y-130526640D01*
X129246074Y-130529422D01*
X129229865Y-130582440D01*
X129213111Y-130635253D01*
X129212759Y-130638388D01*
X129211837Y-130641405D01*
X129206241Y-130696504D01*
X129200058Y-130751623D01*
X129200015Y-130757795D01*
X129200004Y-130757906D01*
X129200014Y-130758009D01*
X129200000Y-130760000D01*
X128275000Y-130760000D01*
X128275000Y-122784532D01*
X130897897Y-122784532D01*
X130954539Y-123093154D01*
X131070048Y-123384896D01*
X131240023Y-123648645D01*
X131457990Y-123874357D01*
X131715648Y-124053433D01*
X132003180Y-124179054D01*
X132309637Y-124246432D01*
X132623344Y-124253004D01*
X132932354Y-124198517D01*
X133125192Y-124123720D01*
X133185736Y-124184264D01*
X133228559Y-124219439D01*
X133271020Y-124255068D01*
X133273784Y-124256587D01*
X133276223Y-124258591D01*
X133325101Y-124284799D01*
X133373635Y-124311481D01*
X133376640Y-124312434D01*
X133379422Y-124313926D01*
X133432440Y-124330135D01*
X133485253Y-124346889D01*
X133488388Y-124347241D01*
X133491405Y-124348163D01*
X133546504Y-124353759D01*
X133601623Y-124359942D01*
X133607795Y-124359985D01*
X133607906Y-124359996D01*
X133608009Y-124359986D01*
X133610000Y-124360000D01*
X136429870Y-124360000D01*
X136436602Y-124381738D01*
X136450000Y-124402070D01*
X136450000Y-125118112D01*
X136413978Y-125198024D01*
X136398065Y-125310000D01*
X136398065Y-126210000D01*
X136403145Y-126273698D01*
X136436602Y-126381738D01*
X136498835Y-126476179D01*
X136584914Y-126549543D01*
X136688024Y-126596022D01*
X136800000Y-126611935D01*
X137300000Y-126611935D01*
X137363698Y-126606855D01*
X137471738Y-126573398D01*
X137566179Y-126511165D01*
X137639543Y-126425086D01*
X137686022Y-126321976D01*
X137701935Y-126210000D01*
X137701935Y-125310000D01*
X137696855Y-125246302D01*
X137663398Y-125138262D01*
X137650000Y-125117930D01*
X137650000Y-124401888D01*
X137686022Y-124321976D01*
X137701935Y-124210000D01*
X137701935Y-123310000D01*
X137696855Y-123246302D01*
X137663398Y-123138262D01*
X137601165Y-123043821D01*
X137515086Y-122970457D01*
X137411976Y-122923978D01*
X137300000Y-122908065D01*
X136800000Y-122908065D01*
X136736302Y-122913145D01*
X136628262Y-122946602D01*
X136533821Y-123008835D01*
X136460457Y-123094914D01*
X136431118Y-123160000D01*
X134024427Y-123160000D01*
X134025548Y-123157482D01*
X134095064Y-122851504D01*
X134100069Y-122493112D01*
X134039123Y-122185311D01*
X133919552Y-121895211D01*
X133745911Y-121633860D01*
X133524813Y-121411213D01*
X133264681Y-121235752D01*
X132975422Y-121114159D01*
X132668055Y-121051065D01*
X132354286Y-121048875D01*
X132046068Y-121107671D01*
X131755140Y-121225213D01*
X131492583Y-121397026D01*
X131268398Y-121616563D01*
X131091125Y-121875464D01*
X130967515Y-122163867D01*
X130902278Y-122470787D01*
X130897897Y-122784532D01*
X128275000Y-122784532D01*
X128275000Y-119634532D01*
X135397897Y-119634532D01*
X135454539Y-119943154D01*
X135570048Y-120234896D01*
X135740023Y-120498645D01*
X135957990Y-120724357D01*
X136215648Y-120903433D01*
X136503180Y-121029054D01*
X136809637Y-121096432D01*
X137123344Y-121103004D01*
X137432354Y-121048517D01*
X137724895Y-120935048D01*
X137989825Y-120766918D01*
X138217053Y-120550532D01*
X138397924Y-120294131D01*
X138525548Y-120007482D01*
X138595064Y-119701504D01*
X138595999Y-119634532D01*
X138897897Y-119634532D01*
X138954539Y-119943154D01*
X139070048Y-120234896D01*
X139240023Y-120498645D01*
X139457990Y-120724357D01*
X139715648Y-120903433D01*
X140003180Y-121029054D01*
X140309637Y-121096432D01*
X140623344Y-121103004D01*
X140932354Y-121048517D01*
X141224895Y-120935048D01*
X141489825Y-120766918D01*
X141717053Y-120550532D01*
X141897924Y-120294131D01*
X142025548Y-120007482D01*
X142095064Y-119701504D01*
X142095999Y-119634532D01*
X142397897Y-119634532D01*
X142454539Y-119943154D01*
X142570048Y-120234896D01*
X142740023Y-120498645D01*
X142957990Y-120724357D01*
X143215648Y-120903433D01*
X143503180Y-121029054D01*
X143809637Y-121096432D01*
X144123344Y-121103004D01*
X144432354Y-121048517D01*
X144724895Y-120935048D01*
X144989825Y-120766918D01*
X145217053Y-120550532D01*
X145397924Y-120294131D01*
X145525548Y-120007482D01*
X145595064Y-119701504D01*
X145600069Y-119343112D01*
X145539123Y-119035311D01*
X145419552Y-118745211D01*
X145245911Y-118483860D01*
X145024813Y-118261213D01*
X144764681Y-118085752D01*
X144475422Y-117964159D01*
X144168055Y-117901065D01*
X143854286Y-117898875D01*
X143546068Y-117957671D01*
X143255140Y-118075213D01*
X142992583Y-118247026D01*
X142768398Y-118466563D01*
X142591125Y-118725464D01*
X142467515Y-119013867D01*
X142402278Y-119320787D01*
X142397897Y-119634532D01*
X142095999Y-119634532D01*
X142100069Y-119343112D01*
X142039123Y-119035311D01*
X141919552Y-118745211D01*
X141745911Y-118483860D01*
X141524813Y-118261213D01*
X141264681Y-118085752D01*
X140975422Y-117964159D01*
X140668055Y-117901065D01*
X140354286Y-117898875D01*
X140046068Y-117957671D01*
X139755140Y-118075213D01*
X139492583Y-118247026D01*
X139268398Y-118466563D01*
X139091125Y-118725464D01*
X138967515Y-119013867D01*
X138902278Y-119320787D01*
X138897897Y-119634532D01*
X138595999Y-119634532D01*
X138600069Y-119343112D01*
X138539123Y-119035311D01*
X138419552Y-118745211D01*
X138245911Y-118483860D01*
X138024813Y-118261213D01*
X137764681Y-118085752D01*
X137475422Y-117964159D01*
X137168055Y-117901065D01*
X136854286Y-117898875D01*
X136546068Y-117957671D01*
X136255140Y-118075213D01*
X135992583Y-118247026D01*
X135768398Y-118466563D01*
X135591125Y-118725464D01*
X135467515Y-119013867D01*
X135402278Y-119320787D01*
X135397897Y-119634532D01*
X128275000Y-119634532D01*
X128275000Y-116513454D01*
X128299624Y-116262318D01*
X128368650Y-116033693D01*
X128480771Y-115822824D01*
X128631714Y-115637751D01*
X128815728Y-115485522D01*
X129025802Y-115371934D01*
X129253945Y-115301312D01*
X129504296Y-115275000D01*
X176486546Y-115275000D01*
X176737682Y-115299624D01*
X176737682Y-115299624D01*
G37*
X176737682Y-115299624D02*
X176966307Y-115368650D01*
X177177176Y-115480771D01*
X177362249Y-115631714D01*
X177514478Y-115815728D01*
X177628066Y-116025802D01*
X177698688Y-116253945D01*
X177725000Y-116504296D01*
X177725000Y-141486546D01*
X177700376Y-141737682D01*
X177631349Y-141966311D01*
X177519229Y-142177175D01*
X177368286Y-142362250D01*
X177184275Y-142514477D01*
X176974194Y-142628068D01*
X176746055Y-142698688D01*
X176495704Y-142725000D01*
X129513454Y-142725000D01*
X129262318Y-142700376D01*
X129033689Y-142631349D01*
X128822825Y-142519229D01*
X128637750Y-142368286D01*
X128485523Y-142184275D01*
X128371932Y-141974194D01*
X128301312Y-141746055D01*
X128275000Y-141495704D01*
X128275000Y-130760000D01*
X129200000Y-130760000D01*
X129200000Y-140260000D01*
X129205409Y-140315170D01*
X129210239Y-140370371D01*
X129211119Y-140373400D01*
X129211427Y-140376541D01*
X129227458Y-140429638D01*
X129242909Y-140482821D01*
X129244359Y-140485619D01*
X129245272Y-140488642D01*
X129271289Y-140537573D01*
X129296797Y-140586784D01*
X129298767Y-140589252D01*
X129300247Y-140592035D01*
X129335248Y-140634950D01*
X129369854Y-140678300D01*
X129374184Y-140682691D01*
X129374258Y-140682781D01*
X129374342Y-140682850D01*
X129375736Y-140684264D01*
X130875736Y-142184264D01*
X130918559Y-142219439D01*
X130961020Y-142255068D01*
X130963784Y-142256587D01*
X130966223Y-142258591D01*
X131015101Y-142284799D01*
X131063635Y-142311481D01*
X131066640Y-142312434D01*
X131069422Y-142313926D01*
X131122440Y-142330135D01*
X131175253Y-142346889D01*
X131178388Y-142347241D01*
X131181405Y-142348163D01*
X131236504Y-142353759D01*
X131291623Y-142359942D01*
X131297795Y-142359985D01*
X131297906Y-142359996D01*
X131298009Y-142359986D01*
X131300000Y-142360000D01*
X139550000Y-142360000D01*
X139605170Y-142354591D01*
X139660371Y-142349761D01*
X139663400Y-142348881D01*
X139666541Y-142348573D01*
X139719638Y-142332542D01*
X139772821Y-142317091D01*
X139775619Y-142315641D01*
X139778642Y-142314728D01*
X139827573Y-142288711D01*
X139876784Y-142263203D01*
X139879252Y-142261233D01*
X139882035Y-142259753D01*
X139924950Y-142224752D01*
X139968300Y-142190146D01*
X139972691Y-142185816D01*
X139972781Y-142185742D01*
X139972850Y-142185658D01*
X139974264Y-142184264D01*
X146474264Y-135684264D01*
X146509439Y-135641441D01*
X146545068Y-135598980D01*
X146546587Y-135596216D01*
X146548591Y-135593777D01*
X146574799Y-135544899D01*
X146601481Y-135496365D01*
X146602434Y-135493360D01*
X146603926Y-135490578D01*
X146620135Y-135437560D01*
X146636889Y-135384747D01*
X146637241Y-135381612D01*
X146638163Y-135378595D01*
X146643759Y-135323496D01*
X146649942Y-135268377D01*
X146649985Y-135262205D01*
X146649996Y-135262094D01*
X146649986Y-135261991D01*
X146650000Y-135260000D01*
X146650000Y-134107058D01*
X148397058Y-132360000D01*
X149420000Y-132360000D01*
X149475170Y-132354591D01*
X149530371Y-132349761D01*
X149533400Y-132348881D01*
X149536541Y-132348573D01*
X149589638Y-132332542D01*
X149642821Y-132317091D01*
X149645619Y-132315641D01*
X149648642Y-132314728D01*
X149697573Y-132288711D01*
X149746784Y-132263203D01*
X149749252Y-132261233D01*
X149752035Y-132259753D01*
X149794950Y-132224752D01*
X149838300Y-132190146D01*
X149842691Y-132185816D01*
X149842781Y-132185742D01*
X149842850Y-132185658D01*
X149844264Y-132184264D01*
X150521110Y-131507418D01*
X150611169Y-131535987D01*
X150856243Y-131563477D01*
X150873886Y-131563600D01*
X150886114Y-131563600D01*
X151131549Y-131539535D01*
X151367635Y-131468256D01*
X151585380Y-131352479D01*
X151776490Y-131196614D01*
X151933686Y-131006596D01*
X152050980Y-130789665D01*
X152123905Y-130554082D01*
X152149683Y-130308822D01*
X152127332Y-130063225D01*
X152057704Y-129826647D01*
X152013429Y-129741957D01*
X152209494Y-129938022D01*
X152176095Y-130045918D01*
X152150317Y-130291178D01*
X152172668Y-130536775D01*
X152242296Y-130773353D01*
X152356551Y-130991901D01*
X152511078Y-131184095D01*
X152699994Y-131342613D01*
X152916101Y-131461419D01*
X153151169Y-131535987D01*
X153313215Y-131554164D01*
X153308111Y-131570253D01*
X153307759Y-131573388D01*
X153306837Y-131576405D01*
X153301241Y-131631504D01*
X153295058Y-131686623D01*
X153295015Y-131692795D01*
X153295004Y-131692906D01*
X153295014Y-131693009D01*
X153295000Y-131695000D01*
X153295000Y-132548518D01*
X153255457Y-132594914D01*
X153208978Y-132698024D01*
X153193065Y-132810000D01*
X153193065Y-134310000D01*
X153198145Y-134373698D01*
X153231602Y-134481738D01*
X153293835Y-134576179D01*
X153379914Y-134649543D01*
X153403112Y-134660000D01*
X151847070Y-134660000D01*
X151921179Y-134611165D01*
X151994543Y-134525086D01*
X152041022Y-134421976D01*
X152056935Y-134310000D01*
X152056935Y-132810000D01*
X152051855Y-132746302D01*
X152018398Y-132638262D01*
X151956165Y-132543821D01*
X151870086Y-132470457D01*
X151766976Y-132423978D01*
X151655000Y-132408065D01*
X151055000Y-132408065D01*
X150991302Y-132413145D01*
X150883262Y-132446602D01*
X150788821Y-132508835D01*
X150715457Y-132594914D01*
X150668978Y-132698024D01*
X150653065Y-132810000D01*
X150653065Y-132960000D01*
X150649842Y-132960000D01*
X150598498Y-132835431D01*
X150500825Y-132688421D01*
X150376458Y-132563182D01*
X150230133Y-132464485D01*
X150067425Y-132396089D01*
X149894531Y-132360599D01*
X149718036Y-132359367D01*
X149544663Y-132392440D01*
X149381016Y-132458557D01*
X149233328Y-132555202D01*
X149107224Y-132678692D01*
X149007508Y-132824324D01*
X148937977Y-132986550D01*
X148901281Y-133159193D01*
X148898817Y-133335674D01*
X148930678Y-133509274D01*
X148995652Y-133673379D01*
X149091263Y-133821738D01*
X149213870Y-133948701D01*
X149358802Y-134049431D01*
X149520539Y-134120093D01*
X149692921Y-134157993D01*
X149869381Y-134161690D01*
X149967418Y-134144403D01*
X149975253Y-134146889D01*
X149978388Y-134147241D01*
X149981405Y-134148163D01*
X150036504Y-134153759D01*
X150091623Y-134159942D01*
X150097795Y-134159985D01*
X150097906Y-134159996D01*
X150098009Y-134159986D01*
X150100000Y-134160000D01*
X150653065Y-134160000D01*
X150653065Y-134310000D01*
X150658145Y-134373698D01*
X150691602Y-134481738D01*
X150753835Y-134576179D01*
X150839914Y-134649543D01*
X150863112Y-134660000D01*
X149447712Y-134660000D01*
X149415757Y-134498613D01*
X149348498Y-134335431D01*
X149250825Y-134188421D01*
X149126458Y-134063182D01*
X148980133Y-133964485D01*
X148817425Y-133896089D01*
X148644531Y-133860599D01*
X148468036Y-133859367D01*
X148294663Y-133892440D01*
X148131016Y-133958557D01*
X147983328Y-134055202D01*
X147857224Y-134178692D01*
X147757508Y-134324324D01*
X147687977Y-134486550D01*
X147651281Y-134659193D01*
X147648817Y-134835674D01*
X147680678Y-135009274D01*
X147745652Y-135173379D01*
X147841263Y-135321738D01*
X147963870Y-135448701D01*
X148108802Y-135549431D01*
X148270539Y-135620093D01*
X148442921Y-135657993D01*
X148602815Y-135661343D01*
X148625736Y-135684264D01*
X148668559Y-135719439D01*
X148711020Y-135755068D01*
X148713784Y-135756587D01*
X148716223Y-135758591D01*
X148765082Y-135784789D01*
X148813635Y-135811481D01*
X148816642Y-135812435D01*
X148819423Y-135813926D01*
X148872413Y-135830127D01*
X148925253Y-135846889D01*
X148928390Y-135847241D01*
X148931406Y-135848163D01*
X148986543Y-135853764D01*
X148994507Y-135854657D01*
X148937977Y-135986550D01*
X148901281Y-136159193D01*
X148898817Y-136335674D01*
X148930678Y-136509274D01*
X148992575Y-136665606D01*
X148939629Y-136670239D01*
X148936600Y-136671119D01*
X148933459Y-136671427D01*
X148880362Y-136687458D01*
X148827179Y-136702909D01*
X148824381Y-136704359D01*
X148821358Y-136705272D01*
X148772427Y-136731289D01*
X148723216Y-136756797D01*
X148720748Y-136758767D01*
X148717965Y-136760247D01*
X148675056Y-136795243D01*
X148631701Y-136829853D01*
X148627309Y-136834184D01*
X148627219Y-136834258D01*
X148627150Y-136834342D01*
X148625736Y-136835736D01*
X148601176Y-136860296D01*
X148468036Y-136859367D01*
X148294663Y-136892440D01*
X148131016Y-136958557D01*
X147983328Y-137055202D01*
X147857224Y-137178692D01*
X147757508Y-137324324D01*
X147687977Y-137486550D01*
X147651281Y-137659193D01*
X147648817Y-137835674D01*
X147680678Y-138009274D01*
X147745652Y-138173379D01*
X147841263Y-138321738D01*
X147963870Y-138448701D01*
X148108802Y-138549431D01*
X148270539Y-138620093D01*
X148442921Y-138657993D01*
X148619381Y-138661690D01*
X148793199Y-138631041D01*
X148957753Y-138567214D01*
X149106777Y-138472641D01*
X149234592Y-138350924D01*
X149336332Y-138206699D01*
X149408121Y-138045459D01*
X149447224Y-137873346D01*
X149447410Y-137860000D01*
X150862930Y-137860000D01*
X150788821Y-137908835D01*
X150715457Y-137994914D01*
X150668978Y-138098024D01*
X150653065Y-138210000D01*
X150653065Y-138360000D01*
X150100000Y-138360000D01*
X150044830Y-138365409D01*
X149989629Y-138370239D01*
X149986600Y-138371119D01*
X149983459Y-138371427D01*
X149968817Y-138375848D01*
X149894531Y-138360599D01*
X149718036Y-138359367D01*
X149544663Y-138392440D01*
X149381016Y-138458557D01*
X149233328Y-138555202D01*
X149107224Y-138678692D01*
X149007508Y-138824324D01*
X148937977Y-138986550D01*
X148901281Y-139159193D01*
X148898817Y-139335674D01*
X148930678Y-139509274D01*
X148995652Y-139673379D01*
X149091263Y-139821738D01*
X149213870Y-139948701D01*
X149358802Y-140049431D01*
X149520539Y-140120093D01*
X149692921Y-140157993D01*
X149869381Y-140161690D01*
X150043199Y-140131041D01*
X150207753Y-140067214D01*
X150356777Y-139972641D01*
X150484592Y-139850924D01*
X150586332Y-139706699D01*
X150651647Y-139560000D01*
X150653065Y-139560000D01*
X150653065Y-139710000D01*
X150658145Y-139773698D01*
X150691602Y-139881738D01*
X150753835Y-139976179D01*
X150839914Y-140049543D01*
X150943024Y-140096022D01*
X151055000Y-140111935D01*
X151655000Y-140111935D01*
X151718698Y-140106855D01*
X151826738Y-140073398D01*
X151921179Y-140011165D01*
X151992075Y-139927982D01*
X152023835Y-139976179D01*
X152109914Y-140049543D01*
X152213024Y-140096022D01*
X152325000Y-140111935D01*
X152925000Y-140111935D01*
X152988698Y-140106855D01*
X153096738Y-140073398D01*
X153191179Y-140011165D01*
X153262075Y-139927982D01*
X153293835Y-139976179D01*
X153295000Y-139977172D01*
X153295000Y-140166472D01*
X152978407Y-140483065D01*
X152650000Y-140483065D01*
X152586302Y-140488145D01*
X152478262Y-140521602D01*
X152383821Y-140583835D01*
X152310457Y-140669914D01*
X152263978Y-140773024D01*
X152248065Y-140885000D01*
X152248065Y-141635000D01*
X152253145Y-141698698D01*
X152286602Y-141806738D01*
X152348835Y-141901179D01*
X152434914Y-141974543D01*
X152538024Y-142021022D01*
X152650000Y-142036935D01*
X153450000Y-142036935D01*
X153513698Y-142031855D01*
X153621738Y-141998398D01*
X153716179Y-141936165D01*
X153789543Y-141850086D01*
X153836022Y-141746976D01*
X153851935Y-141635000D01*
X153851935Y-141306593D01*
X154248065Y-140910463D01*
X154248065Y-141635000D01*
X154253145Y-141698698D01*
X154286602Y-141806738D01*
X154348835Y-141901179D01*
X154434914Y-141974543D01*
X154538024Y-142021022D01*
X154650000Y-142036935D01*
X155450000Y-142036935D01*
X155513698Y-142031855D01*
X155621738Y-141998398D01*
X155716179Y-141936165D01*
X155789543Y-141850086D01*
X155799951Y-141826996D01*
X155848835Y-141901179D01*
X155934914Y-141974543D01*
X156038024Y-142021022D01*
X156150000Y-142036935D01*
X156950000Y-142036935D01*
X157013698Y-142031855D01*
X157121738Y-141998398D01*
X157216179Y-141936165D01*
X157289543Y-141850086D01*
X157336022Y-141746976D01*
X157351935Y-141635000D01*
X157351935Y-140910463D01*
X157748065Y-141306593D01*
X157748065Y-141635000D01*
X157753145Y-141698698D01*
X157786602Y-141806738D01*
X157848835Y-141901179D01*
X157934914Y-141974543D01*
X158038024Y-142021022D01*
X158150000Y-142036935D01*
X158950000Y-142036935D01*
X159013698Y-142031855D01*
X159121738Y-141998398D01*
X159216179Y-141936165D01*
X159289543Y-141850086D01*
X159299951Y-141826996D01*
X159348835Y-141901179D01*
X159434914Y-141974543D01*
X159538024Y-142021022D01*
X159650000Y-142036935D01*
X160450000Y-142036935D01*
X160513698Y-142031855D01*
X160621738Y-141998398D01*
X160716179Y-141936165D01*
X160789543Y-141850086D01*
X160836022Y-141746976D01*
X160851935Y-141635000D01*
X160851935Y-140885000D01*
X160846855Y-140821302D01*
X160845000Y-140815312D01*
X160845000Y-139971482D01*
X160884543Y-139925086D01*
X160931022Y-139821976D01*
X160946935Y-139710000D01*
X160946935Y-138210000D01*
X160941855Y-138146302D01*
X160930613Y-138110000D01*
X161580226Y-138110000D01*
X161623835Y-138176179D01*
X161709914Y-138249543D01*
X161813024Y-138296022D01*
X161925000Y-138311935D01*
X162675000Y-138311935D01*
X162738698Y-138306855D01*
X162846738Y-138273398D01*
X162941179Y-138211165D01*
X163014543Y-138125086D01*
X163061022Y-138021976D01*
X163076935Y-137910000D01*
X163076935Y-137110000D01*
X163071855Y-137046302D01*
X163038398Y-136938262D01*
X162976165Y-136843821D01*
X162890086Y-136770457D01*
X162786976Y-136723978D01*
X162675000Y-136708065D01*
X161925000Y-136708065D01*
X161861302Y-136713145D01*
X161753262Y-136746602D01*
X161658821Y-136808835D01*
X161585457Y-136894914D01*
X161578657Y-136910000D01*
X159550000Y-136910000D01*
X159494875Y-136915405D01*
X159439629Y-136920239D01*
X159436600Y-136921119D01*
X159433459Y-136921427D01*
X159380362Y-136937458D01*
X159327179Y-136952909D01*
X159324381Y-136954359D01*
X159321358Y-136955272D01*
X159272427Y-136981289D01*
X159223216Y-137006797D01*
X159220748Y-137008767D01*
X159217965Y-137010247D01*
X159175056Y-137045243D01*
X159131701Y-137079853D01*
X159127309Y-137084184D01*
X159127219Y-137084258D01*
X159127150Y-137084342D01*
X159125736Y-137085736D01*
X158550736Y-137660736D01*
X158515561Y-137703559D01*
X158479932Y-137746020D01*
X158478413Y-137748784D01*
X158476409Y-137751223D01*
X158450201Y-137800101D01*
X158423519Y-137848635D01*
X158422566Y-137851640D01*
X158421074Y-137854422D01*
X158404865Y-137907440D01*
X158401814Y-137917056D01*
X158337925Y-137992018D01*
X158306165Y-137943821D01*
X158220086Y-137870457D01*
X158116976Y-137823978D01*
X158005000Y-137808065D01*
X157791173Y-137808065D01*
X157827573Y-137788711D01*
X157876784Y-137763203D01*
X157879252Y-137761233D01*
X157882035Y-137759753D01*
X157924950Y-137724752D01*
X157968300Y-137690146D01*
X157972691Y-137685816D01*
X157972781Y-137685742D01*
X157972850Y-137685658D01*
X157974264Y-137684264D01*
X160669264Y-134989264D01*
X160704439Y-134946441D01*
X160740068Y-134903980D01*
X160741587Y-134901216D01*
X160743591Y-134898777D01*
X160769808Y-134849883D01*
X160796481Y-134801365D01*
X160797434Y-134798362D01*
X160798927Y-134795577D01*
X160815141Y-134742541D01*
X160831889Y-134689747D01*
X160832241Y-134686610D01*
X160833163Y-134683594D01*
X160838763Y-134628461D01*
X160844942Y-134573377D01*
X160844955Y-134571535D01*
X160884543Y-134525086D01*
X160931022Y-134421976D01*
X160946935Y-134310000D01*
X160946935Y-134110000D01*
X161580226Y-134110000D01*
X161623835Y-134176179D01*
X161709914Y-134249543D01*
X161813024Y-134296022D01*
X161925000Y-134311935D01*
X162675000Y-134311935D01*
X162738698Y-134306855D01*
X162846738Y-134273398D01*
X162941179Y-134211165D01*
X163014543Y-134125086D01*
X163061022Y-134021976D01*
X163076935Y-133910000D01*
X163076935Y-133110000D01*
X163071855Y-133046302D01*
X163038398Y-132938262D01*
X162976165Y-132843821D01*
X162890086Y-132770457D01*
X162786976Y-132723978D01*
X162675000Y-132708065D01*
X161925000Y-132708065D01*
X161861302Y-132713145D01*
X161753262Y-132746602D01*
X161658821Y-132808835D01*
X161585457Y-132894914D01*
X161578657Y-132910000D01*
X160946935Y-132910000D01*
X160946935Y-132810000D01*
X160941855Y-132746302D01*
X160908398Y-132638262D01*
X160846165Y-132543821D01*
X160760086Y-132470457D01*
X160656976Y-132423978D01*
X160545000Y-132408065D01*
X159945000Y-132408065D01*
X159881302Y-132413145D01*
X159773262Y-132446602D01*
X159678821Y-132508835D01*
X159605457Y-132594914D01*
X159558978Y-132698024D01*
X159543065Y-132810000D01*
X159543065Y-134310000D01*
X159548145Y-134373698D01*
X159557515Y-134403957D01*
X157301472Y-136660000D01*
X156748528Y-136660000D01*
X158129264Y-135279264D01*
X158164439Y-135236441D01*
X158200068Y-135193980D01*
X158201587Y-135191216D01*
X158203591Y-135188777D01*
X158229799Y-135139899D01*
X158256481Y-135091365D01*
X158257434Y-135088360D01*
X158258926Y-135085578D01*
X158275135Y-135032560D01*
X158291889Y-134979747D01*
X158292241Y-134976612D01*
X158293163Y-134973595D01*
X158298759Y-134918496D01*
X158304942Y-134863377D01*
X158304985Y-134857205D01*
X158304996Y-134857094D01*
X158304986Y-134856991D01*
X158305000Y-134855000D01*
X158305000Y-134571482D01*
X158344543Y-134525086D01*
X158391022Y-134421976D01*
X158406935Y-134310000D01*
X158406935Y-132810000D01*
X158401855Y-132746302D01*
X158368398Y-132638262D01*
X158306165Y-132543821D01*
X158220086Y-132470457D01*
X158116976Y-132423978D01*
X158005000Y-132408065D01*
X157405000Y-132408065D01*
X157341302Y-132413145D01*
X157233262Y-132446602D01*
X157138821Y-132508835D01*
X157067925Y-132592018D01*
X157036165Y-132543821D01*
X156950086Y-132470457D01*
X156846976Y-132423978D01*
X156735000Y-132408065D01*
X156520463Y-132408065D01*
X157654264Y-131274264D01*
X157672329Y-131252272D01*
X157779994Y-131342613D01*
X157996101Y-131461419D01*
X158231169Y-131535987D01*
X158476243Y-131563477D01*
X158493886Y-131563600D01*
X158506114Y-131563600D01*
X158751549Y-131539535D01*
X158987635Y-131468256D01*
X159205380Y-131352479D01*
X159396490Y-131196614D01*
X159553686Y-131006596D01*
X159670980Y-130789665D01*
X159743905Y-130554082D01*
X159769683Y-130308822D01*
X159768078Y-130291178D01*
X159770317Y-130291178D01*
X159792668Y-130536775D01*
X159862296Y-130773353D01*
X159976551Y-130991901D01*
X160131078Y-131184095D01*
X160319994Y-131342613D01*
X160536101Y-131461419D01*
X160771169Y-131535987D01*
X161016243Y-131563477D01*
X161033886Y-131563600D01*
X161046114Y-131563600D01*
X161291549Y-131539535D01*
X161527635Y-131468256D01*
X161745380Y-131352479D01*
X161936490Y-131196614D01*
X162093686Y-131006596D01*
X162210980Y-130789665D01*
X162283905Y-130554082D01*
X162309683Y-130308822D01*
X162287332Y-130063225D01*
X162217704Y-129826647D01*
X162103449Y-129608099D01*
X161948922Y-129415905D01*
X161760006Y-129257387D01*
X161543899Y-129138581D01*
X161308831Y-129064013D01*
X161063757Y-129036523D01*
X161046114Y-129036400D01*
X161033886Y-129036400D01*
X160788451Y-129060465D01*
X160552365Y-129131744D01*
X160334620Y-129247521D01*
X160143510Y-129403386D01*
X159986314Y-129593404D01*
X159869020Y-129810335D01*
X159796095Y-130045918D01*
X159770317Y-130291178D01*
X159768078Y-130291178D01*
X159747332Y-130063225D01*
X159677704Y-129826647D01*
X159563449Y-129608099D01*
X159408922Y-129415905D01*
X159220006Y-129257387D01*
X159003899Y-129138581D01*
X158768831Y-129064013D01*
X158523757Y-129036523D01*
X158506114Y-129036400D01*
X158493886Y-129036400D01*
X158248451Y-129060465D01*
X158012365Y-129131744D01*
X157830000Y-129228709D01*
X157830000Y-129030000D01*
X157824591Y-128974830D01*
X157819761Y-128919629D01*
X157818881Y-128916600D01*
X157818573Y-128913459D01*
X157802542Y-128860362D01*
X157787091Y-128807179D01*
X157786609Y-128806250D01*
X157996101Y-128921419D01*
X158231169Y-128995987D01*
X158476243Y-129023477D01*
X158493886Y-129023600D01*
X158506114Y-129023600D01*
X158751549Y-128999535D01*
X158987635Y-128928256D01*
X159205380Y-128812479D01*
X159396490Y-128656614D01*
X159553686Y-128466596D01*
X159670980Y-128249665D01*
X159743905Y-128014082D01*
X159769683Y-127768822D01*
X159747332Y-127523225D01*
X159677704Y-127286647D01*
X159563449Y-127068099D01*
X159408922Y-126875905D01*
X159389967Y-126860000D01*
X161831472Y-126860000D01*
X162369494Y-127398022D01*
X162336095Y-127505918D01*
X162310317Y-127751178D01*
X162332668Y-127996775D01*
X162402296Y-128233353D01*
X162516551Y-128451901D01*
X162671078Y-128644095D01*
X162859994Y-128802613D01*
X163076101Y-128921419D01*
X163311169Y-128995987D01*
X163556243Y-129023477D01*
X163573886Y-129023600D01*
X163586114Y-129023600D01*
X163831549Y-128999535D01*
X164067635Y-128928256D01*
X164250000Y-128831291D01*
X164250000Y-129229896D01*
X164083899Y-129138581D01*
X163848831Y-129064013D01*
X163603757Y-129036523D01*
X163586114Y-129036400D01*
X163573886Y-129036400D01*
X163328451Y-129060465D01*
X163092365Y-129131744D01*
X162874620Y-129247521D01*
X162683510Y-129403386D01*
X162526314Y-129593404D01*
X162409020Y-129810335D01*
X162336095Y-130045918D01*
X162310317Y-130291178D01*
X162332668Y-130536775D01*
X162402296Y-130773353D01*
X162516551Y-130991901D01*
X162671078Y-131184095D01*
X162859994Y-131342613D01*
X163076101Y-131461419D01*
X163311169Y-131535987D01*
X163556243Y-131563477D01*
X163573886Y-131563600D01*
X163586114Y-131563600D01*
X163831549Y-131539535D01*
X164067635Y-131468256D01*
X164250000Y-131371291D01*
X164250000Y-137160000D01*
X164255409Y-137215170D01*
X164260239Y-137270371D01*
X164261119Y-137273400D01*
X164261427Y-137276541D01*
X164277458Y-137329638D01*
X164292909Y-137382821D01*
X164294359Y-137385619D01*
X164295272Y-137388642D01*
X164321289Y-137437573D01*
X164346797Y-137486784D01*
X164348767Y-137489252D01*
X164350247Y-137492035D01*
X164385248Y-137534950D01*
X164419854Y-137578300D01*
X164424184Y-137582691D01*
X164424258Y-137582781D01*
X164424342Y-137582850D01*
X164425736Y-137584264D01*
X165169186Y-138327714D01*
X165149076Y-138374634D01*
X165091993Y-138643188D01*
X165088160Y-138917716D01*
X165137722Y-139187759D01*
X165238792Y-139443033D01*
X165387520Y-139673815D01*
X165578242Y-139871312D01*
X165803692Y-140028004D01*
X166055283Y-140137922D01*
X166323432Y-140196878D01*
X166597926Y-140202628D01*
X166868309Y-140154952D01*
X166960619Y-140119147D01*
X167808065Y-140966593D01*
X167808065Y-141370000D01*
X167813145Y-141433698D01*
X167846602Y-141541738D01*
X167908835Y-141636179D01*
X167994914Y-141709543D01*
X168098024Y-141756022D01*
X168210000Y-141771935D01*
X169120000Y-141771935D01*
X169183698Y-141766855D01*
X169291738Y-141733398D01*
X169386179Y-141671165D01*
X169459543Y-141585086D01*
X169506022Y-141481976D01*
X169521935Y-141370000D01*
X169521935Y-140150000D01*
X169516855Y-140086302D01*
X169483398Y-139978262D01*
X169421165Y-139883821D01*
X169335086Y-139810457D01*
X169231976Y-139763978D01*
X169120000Y-139748065D01*
X168286593Y-139748065D01*
X167811829Y-139273301D01*
X167824854Y-139244047D01*
X167885681Y-138976316D01*
X167890060Y-138662723D01*
X167836732Y-138393398D01*
X167732108Y-138139560D01*
X167580172Y-137910878D01*
X167386711Y-137716062D01*
X167159096Y-137562533D01*
X166905994Y-137456139D01*
X166637048Y-137400932D01*
X166362500Y-137399016D01*
X166092809Y-137450462D01*
X166018865Y-137480337D01*
X165450000Y-136911472D01*
X165450000Y-131370104D01*
X165616101Y-131461419D01*
X165851169Y-131535987D01*
X166096243Y-131563477D01*
X166113886Y-131563600D01*
X166126114Y-131563600D01*
X166371549Y-131539535D01*
X166607635Y-131468256D01*
X166825380Y-131352479D01*
X167016490Y-131196614D01*
X167173686Y-131006596D01*
X167290980Y-130789665D01*
X167363905Y-130554082D01*
X167389683Y-130308822D01*
X167367332Y-130063225D01*
X167297704Y-129826647D01*
X167183449Y-129608099D01*
X167028922Y-129415905D01*
X166840006Y-129257387D01*
X166623899Y-129138581D01*
X166388831Y-129064013D01*
X166143757Y-129036523D01*
X166126114Y-129036400D01*
X166113886Y-129036400D01*
X165868451Y-129060465D01*
X165632365Y-129131744D01*
X165450000Y-129228709D01*
X165450000Y-128830104D01*
X165616101Y-128921419D01*
X165851169Y-128995987D01*
X166096243Y-129023477D01*
X166113886Y-129023600D01*
X166126114Y-129023600D01*
X166371549Y-128999535D01*
X166607635Y-128928256D01*
X166825380Y-128812479D01*
X167016490Y-128656614D01*
X167173686Y-128466596D01*
X167290980Y-128249665D01*
X167363905Y-128014082D01*
X167389683Y-127768822D01*
X167367332Y-127523225D01*
X167297704Y-127286647D01*
X167183449Y-127068099D01*
X167028922Y-126875905D01*
X166850000Y-126725773D01*
X166850000Y-126255617D01*
X166916229Y-126211975D01*
X166989593Y-126125896D01*
X166996758Y-126110000D01*
X167658112Y-126110000D01*
X167738024Y-126146022D01*
X167850000Y-126161935D01*
X168160584Y-126161935D01*
X168179353Y-126167745D01*
X168295811Y-126179985D01*
X168412429Y-126169372D01*
X168437698Y-126161935D01*
X168750000Y-126161935D01*
X168813698Y-126156855D01*
X168921738Y-126123398D01*
X169016179Y-126061165D01*
X169089543Y-125975086D01*
X169136022Y-125871976D01*
X169151935Y-125760000D01*
X169151935Y-125260000D01*
X169146855Y-125196302D01*
X169113398Y-125088262D01*
X169051165Y-124993821D01*
X168965086Y-124920457D01*
X168861976Y-124873978D01*
X168750000Y-124858065D01*
X167850000Y-124858065D01*
X167786302Y-124863145D01*
X167678262Y-124896602D01*
X167657930Y-124910000D01*
X166994357Y-124910000D01*
X166951215Y-124844531D01*
X166865136Y-124771167D01*
X166762026Y-124724688D01*
X166650050Y-124708775D01*
X165900000Y-124708775D01*
X165900000Y-124256637D01*
X165966229Y-124212995D01*
X166039593Y-124126916D01*
X166086072Y-124023806D01*
X166101985Y-123911830D01*
X166101985Y-123558323D01*
X166724264Y-122936044D01*
X166759439Y-122893221D01*
X166795068Y-122850760D01*
X166796587Y-122847996D01*
X166798591Y-122845557D01*
X166824808Y-122796663D01*
X166851481Y-122748145D01*
X166852434Y-122745142D01*
X166853927Y-122742357D01*
X166870141Y-122689321D01*
X166886889Y-122636527D01*
X166887241Y-122633390D01*
X166888163Y-122630374D01*
X166893763Y-122575241D01*
X166899942Y-122520157D01*
X166899985Y-122513994D01*
X166899997Y-122513873D01*
X166899986Y-122513760D01*
X166900000Y-122511780D01*
X166900000Y-120983492D01*
X167024895Y-120935048D01*
X167289825Y-120766918D01*
X167350000Y-120709614D01*
X167350000Y-122060000D01*
X167355409Y-122115170D01*
X167360239Y-122170371D01*
X167361119Y-122173400D01*
X167361427Y-122176541D01*
X167377458Y-122229638D01*
X167392909Y-122282821D01*
X167394359Y-122285619D01*
X167395272Y-122288642D01*
X167421289Y-122337573D01*
X167446797Y-122386784D01*
X167448767Y-122389252D01*
X167450247Y-122392035D01*
X167485248Y-122434950D01*
X167519854Y-122478300D01*
X167524184Y-122482691D01*
X167524258Y-122482781D01*
X167524342Y-122482850D01*
X167525736Y-122484264D01*
X169330000Y-124288528D01*
X169330000Y-129229896D01*
X169163899Y-129138581D01*
X168928831Y-129064013D01*
X168683757Y-129036523D01*
X168666114Y-129036400D01*
X168653886Y-129036400D01*
X168408451Y-129060465D01*
X168172365Y-129131744D01*
X167954620Y-129247521D01*
X167763510Y-129403386D01*
X167606314Y-129593404D01*
X167489020Y-129810335D01*
X167416095Y-130045918D01*
X167390317Y-130291178D01*
X167412668Y-130536775D01*
X167482296Y-130773353D01*
X167596551Y-130991901D01*
X167751078Y-131184095D01*
X167939994Y-131342613D01*
X168156101Y-131461419D01*
X168391169Y-131535987D01*
X168636243Y-131563477D01*
X168653886Y-131563600D01*
X168666114Y-131563600D01*
X168911549Y-131539535D01*
X169147635Y-131468256D01*
X169330000Y-131371291D01*
X169330000Y-132352329D01*
X169177048Y-132320932D01*
X168902500Y-132319016D01*
X168632809Y-132370462D01*
X168378247Y-132473312D01*
X168148510Y-132623648D01*
X167952349Y-132815743D01*
X167797235Y-133042281D01*
X167689076Y-133294634D01*
X167631993Y-133563188D01*
X167628160Y-133837716D01*
X167677722Y-134107759D01*
X167778792Y-134363033D01*
X167927520Y-134593815D01*
X168118242Y-134791312D01*
X168343692Y-134948004D01*
X168595283Y-135057922D01*
X168863432Y-135116878D01*
X169137926Y-135122628D01*
X169408309Y-135074952D01*
X169664283Y-134975667D01*
X169896097Y-134828553D01*
X170094921Y-134639215D01*
X170253183Y-134414865D01*
X170364854Y-134164047D01*
X170425681Y-133896316D01*
X170430060Y-133582723D01*
X170376732Y-133313398D01*
X170349996Y-133248532D01*
X170354264Y-133244264D01*
X170389439Y-133201441D01*
X170425068Y-133158980D01*
X170426587Y-133156216D01*
X170428591Y-133153777D01*
X170454799Y-133104899D01*
X170481481Y-133056365D01*
X170482434Y-133053360D01*
X170483926Y-133050578D01*
X170500135Y-132997560D01*
X170516889Y-132944747D01*
X170517241Y-132941612D01*
X170518163Y-132938595D01*
X170523759Y-132883496D01*
X170529942Y-132828377D01*
X170529985Y-132822205D01*
X170529996Y-132822094D01*
X170529986Y-132821991D01*
X170530000Y-132820000D01*
X170530000Y-131370104D01*
X170696101Y-131461419D01*
X170931169Y-131535987D01*
X171176243Y-131563477D01*
X171193886Y-131563600D01*
X171206114Y-131563600D01*
X171451549Y-131539535D01*
X171687635Y-131468256D01*
X171870000Y-131371291D01*
X171870000Y-132080000D01*
X171875409Y-132135170D01*
X171880239Y-132190371D01*
X171881119Y-132193400D01*
X171881427Y-132196541D01*
X171897458Y-132249638D01*
X171912909Y-132302821D01*
X171914359Y-132305619D01*
X171915272Y-132308642D01*
X171941289Y-132357573D01*
X171966797Y-132406784D01*
X171968767Y-132409252D01*
X171970247Y-132412035D01*
X172005248Y-132454950D01*
X172039854Y-132498300D01*
X172044184Y-132502691D01*
X172044258Y-132502781D01*
X172044342Y-132502850D01*
X172045736Y-132504264D01*
X172789186Y-133247714D01*
X172769076Y-133294634D01*
X172711993Y-133563188D01*
X172708160Y-133837716D01*
X172757722Y-134107759D01*
X172858792Y-134363033D01*
X173007520Y-134593815D01*
X173198242Y-134791312D01*
X173423692Y-134948004D01*
X173675283Y-135057922D01*
X173943432Y-135116878D01*
X174217926Y-135122628D01*
X174488309Y-135074952D01*
X174744283Y-134975667D01*
X174976097Y-134828553D01*
X175174921Y-134639215D01*
X175333183Y-134414865D01*
X175444854Y-134164047D01*
X175505681Y-133896316D01*
X175510060Y-133582723D01*
X175456732Y-133313398D01*
X175352108Y-133059560D01*
X175200172Y-132830878D01*
X175006711Y-132636062D01*
X174779096Y-132482533D01*
X174525994Y-132376139D01*
X174257048Y-132320932D01*
X173982500Y-132319016D01*
X173712809Y-132370462D01*
X173638865Y-132400337D01*
X173070000Y-131831472D01*
X173070000Y-131370104D01*
X173236101Y-131461419D01*
X173471169Y-131535987D01*
X173716243Y-131563477D01*
X173733886Y-131563600D01*
X173746114Y-131563600D01*
X173991549Y-131539535D01*
X174227635Y-131468256D01*
X174410000Y-131371291D01*
X174410000Y-131480000D01*
X174415409Y-131535170D01*
X174420239Y-131590371D01*
X174421119Y-131593400D01*
X174421427Y-131596541D01*
X174437455Y-131649629D01*
X174452909Y-131702821D01*
X174454359Y-131705619D01*
X174455272Y-131708642D01*
X174481289Y-131757573D01*
X174506797Y-131806784D01*
X174508767Y-131809252D01*
X174510247Y-131812035D01*
X174545248Y-131854950D01*
X174579854Y-131898300D01*
X174584184Y-131902691D01*
X174584258Y-131902781D01*
X174584342Y-131902850D01*
X174585736Y-131904264D01*
X175720000Y-133038528D01*
X175720000Y-136341472D01*
X174581852Y-137479620D01*
X174525994Y-137456139D01*
X174257048Y-137400932D01*
X173982500Y-137399016D01*
X173712809Y-137450462D01*
X173458247Y-137553312D01*
X173228510Y-137703648D01*
X173032349Y-137895743D01*
X172877235Y-138122281D01*
X172769076Y-138374634D01*
X172711993Y-138643188D01*
X172708160Y-138917716D01*
X172757722Y-139187759D01*
X172790621Y-139270851D01*
X172313407Y-139748065D01*
X171480000Y-139748065D01*
X171416302Y-139753145D01*
X171308262Y-139786602D01*
X171213821Y-139848835D01*
X171140457Y-139934914D01*
X171093978Y-140038024D01*
X171078065Y-140150000D01*
X171078065Y-141370000D01*
X171083145Y-141433698D01*
X171116602Y-141541738D01*
X171178835Y-141636179D01*
X171264914Y-141709543D01*
X171368024Y-141756022D01*
X171480000Y-141771935D01*
X172390000Y-141771935D01*
X172453698Y-141766855D01*
X172561738Y-141733398D01*
X172656179Y-141671165D01*
X172729543Y-141585086D01*
X172776022Y-141481976D01*
X172791935Y-141370000D01*
X172791935Y-140966593D01*
X173637231Y-140121297D01*
X173675283Y-140137922D01*
X173943432Y-140196878D01*
X174217926Y-140202628D01*
X174488309Y-140154952D01*
X174744283Y-140055667D01*
X174976097Y-139908553D01*
X175174921Y-139719215D01*
X175333183Y-139494865D01*
X175444854Y-139244047D01*
X175505681Y-138976316D01*
X175510060Y-138662723D01*
X175456732Y-138393398D01*
X175429996Y-138328532D01*
X176744264Y-137014264D01*
X176779439Y-136971441D01*
X176815068Y-136928980D01*
X176816587Y-136926216D01*
X176818591Y-136923777D01*
X176844799Y-136874899D01*
X176871481Y-136826365D01*
X176872434Y-136823360D01*
X176873926Y-136820578D01*
X176890135Y-136767560D01*
X176906889Y-136714747D01*
X176907241Y-136711612D01*
X176908163Y-136708595D01*
X176913759Y-136653496D01*
X176919942Y-136598377D01*
X176919985Y-136592205D01*
X176919996Y-136592094D01*
X176919986Y-136591991D01*
X176920000Y-136590000D01*
X176920000Y-132790000D01*
X176914595Y-132734871D01*
X176909761Y-132679629D01*
X176908881Y-132676600D01*
X176908573Y-132673459D01*
X176892538Y-132620349D01*
X176877091Y-132567180D01*
X176875641Y-132564383D01*
X176874728Y-132561358D01*
X176848701Y-132512409D01*
X176823203Y-132463216D01*
X176821233Y-132460748D01*
X176819753Y-132457965D01*
X176784757Y-132415056D01*
X176750147Y-132371701D01*
X176745816Y-132367309D01*
X176745742Y-132367219D01*
X176745658Y-132367150D01*
X176744264Y-132365736D01*
X175610000Y-131231472D01*
X175610000Y-128830104D01*
X175776101Y-128921419D01*
X176011169Y-128995987D01*
X176256243Y-129023477D01*
X176273886Y-129023600D01*
X176286114Y-129023600D01*
X176531549Y-128999535D01*
X176767635Y-128928256D01*
X176985380Y-128812479D01*
X177176490Y-128656614D01*
X177333686Y-128466596D01*
X177450980Y-128249665D01*
X177523905Y-128014082D01*
X177549683Y-127768822D01*
X177527332Y-127523225D01*
X177457704Y-127286647D01*
X177343449Y-127068099D01*
X177188922Y-126875905D01*
X177000006Y-126717387D01*
X176783899Y-126598581D01*
X176548831Y-126524013D01*
X176303757Y-126496523D01*
X176286114Y-126496400D01*
X176273886Y-126496400D01*
X176028451Y-126520465D01*
X175792365Y-126591744D01*
X175610000Y-126688709D01*
X175610000Y-123760000D01*
X175604595Y-123704871D01*
X175599761Y-123649629D01*
X175598881Y-123646600D01*
X175598573Y-123643459D01*
X175582542Y-123590362D01*
X175567091Y-123537179D01*
X175565641Y-123534381D01*
X175564728Y-123531358D01*
X175538711Y-123482427D01*
X175513203Y-123433216D01*
X175511233Y-123430748D01*
X175509753Y-123427965D01*
X175474757Y-123385056D01*
X175440147Y-123341701D01*
X175435816Y-123337309D01*
X175435742Y-123337219D01*
X175435658Y-123337150D01*
X175434264Y-123335736D01*
X172223319Y-120124791D01*
X172275548Y-120007482D01*
X172345064Y-119701504D01*
X172350069Y-119343112D01*
X172289123Y-119035311D01*
X172169552Y-118745211D01*
X171995911Y-118483860D01*
X171774813Y-118261213D01*
X171514681Y-118085752D01*
X171225422Y-117964159D01*
X170918055Y-117901065D01*
X170604286Y-117898875D01*
X170296068Y-117957671D01*
X170005140Y-118075213D01*
X169742583Y-118247026D01*
X169643636Y-118343921D01*
X169639761Y-118299629D01*
X169638881Y-118296600D01*
X169638573Y-118293459D01*
X169622552Y-118240395D01*
X169607092Y-118187180D01*
X169605640Y-118184379D01*
X169604728Y-118181358D01*
X169578709Y-118132424D01*
X169553203Y-118083217D01*
X169551234Y-118080751D01*
X169549753Y-118077965D01*
X169514739Y-118035034D01*
X169480147Y-117991701D01*
X169475816Y-117987309D01*
X169475742Y-117987219D01*
X169475658Y-117987150D01*
X169474264Y-117985736D01*
X167814264Y-116325736D01*
X167771441Y-116290561D01*
X167728980Y-116254932D01*
X167726216Y-116253413D01*
X167723777Y-116251409D01*
X167674899Y-116225201D01*
X167626365Y-116198519D01*
X167623360Y-116197566D01*
X167620578Y-116196074D01*
X167567560Y-116179865D01*
X167514747Y-116163111D01*
X167511612Y-116162759D01*
X167508595Y-116161837D01*
X167453496Y-116156241D01*
X167398377Y-116150058D01*
X167392205Y-116150015D01*
X167392094Y-116150004D01*
X167391991Y-116150014D01*
X167390000Y-116150000D01*
X158250000Y-116150000D01*
X158194830Y-116155409D01*
X158139629Y-116160239D01*
X158136600Y-116161119D01*
X158133459Y-116161427D01*
X158080362Y-116177458D01*
X158027179Y-116192909D01*
X158024381Y-116194359D01*
X158021358Y-116195272D01*
X157972388Y-116221310D01*
X157923216Y-116246798D01*
X157920751Y-116248765D01*
X157917965Y-116250247D01*
X157875022Y-116285270D01*
X157831700Y-116319854D01*
X157827309Y-116324184D01*
X157827219Y-116324258D01*
X157827150Y-116324342D01*
X157825736Y-116325736D01*
X156124603Y-118026869D01*
X155975422Y-117964159D01*
X155668055Y-117901065D01*
X155354286Y-117898875D01*
X155046068Y-117957671D01*
X154755140Y-118075213D01*
X154492583Y-118247026D01*
X154268398Y-118466563D01*
X154091125Y-118725464D01*
X153967515Y-119013867D01*
X153902278Y-119320787D01*
X153897897Y-119634532D01*
X153954539Y-119943154D01*
X154070048Y-120234896D01*
X154240023Y-120498645D01*
X154457990Y-120724357D01*
X154715648Y-120903433D01*
X155003180Y-121029054D01*
X155309637Y-121096432D01*
X155623344Y-121103004D01*
X155932354Y-121048517D01*
X156224895Y-120935048D01*
X156489825Y-120766918D01*
X156717053Y-120550532D01*
X156897924Y-120294131D01*
X157025548Y-120007482D01*
X157095064Y-119701504D01*
X157100069Y-119343112D01*
X157039123Y-119035311D01*
X156973188Y-118875340D01*
X158498528Y-117350000D01*
X160466007Y-117350000D01*
X160435034Y-117375261D01*
X160391701Y-117409853D01*
X160387309Y-117414184D01*
X160387219Y-117414258D01*
X160387150Y-117414342D01*
X160385736Y-117415736D01*
X159774603Y-118026869D01*
X159625422Y-117964159D01*
X159318055Y-117901065D01*
X159004286Y-117898875D01*
X158696068Y-117957671D01*
X158405140Y-118075213D01*
X158142583Y-118247026D01*
X157918398Y-118466563D01*
X157741125Y-118725464D01*
X157617515Y-119013867D01*
X157552278Y-119320787D01*
X157547897Y-119634532D01*
X157604539Y-119943154D01*
X157720048Y-120234896D01*
X157890023Y-120498645D01*
X158107990Y-120724357D01*
X158365648Y-120903433D01*
X158653180Y-121029054D01*
X158959637Y-121096432D01*
X159273344Y-121103004D01*
X159582354Y-121048517D01*
X159874895Y-120935048D01*
X160139825Y-120766918D01*
X160367053Y-120550532D01*
X160547924Y-120294131D01*
X160675548Y-120007482D01*
X160745064Y-119701504D01*
X160750069Y-119343112D01*
X160689123Y-119035311D01*
X160623188Y-118875340D01*
X161058528Y-118440000D01*
X161445523Y-118440000D01*
X161418398Y-118466563D01*
X161241125Y-118725464D01*
X161117515Y-119013867D01*
X161052278Y-119320787D01*
X161047897Y-119634532D01*
X161104539Y-119943154D01*
X161220048Y-120234896D01*
X161390023Y-120498645D01*
X161607990Y-120724357D01*
X161700000Y-120788305D01*
X161700000Y-123389870D01*
X161678262Y-123396602D01*
X161583821Y-123458835D01*
X161510457Y-123544914D01*
X161463978Y-123648024D01*
X161448065Y-123760000D01*
X161448065Y-124260000D01*
X161453145Y-124323698D01*
X161486602Y-124431738D01*
X161548835Y-124526179D01*
X161634914Y-124599543D01*
X161738024Y-124646022D01*
X161850000Y-124661935D01*
X162750000Y-124661935D01*
X162813698Y-124656855D01*
X162921738Y-124623398D01*
X163016179Y-124561165D01*
X163089543Y-124475086D01*
X163136022Y-124371976D01*
X163151935Y-124260000D01*
X163151935Y-123760000D01*
X163146855Y-123696302D01*
X163113398Y-123588262D01*
X163051165Y-123493821D01*
X162965086Y-123420457D01*
X162900000Y-123391118D01*
X162900000Y-121080671D01*
X163082354Y-121048517D01*
X163374895Y-120935048D01*
X163639825Y-120766918D01*
X163867053Y-120550532D01*
X164047924Y-120294131D01*
X164175548Y-120007482D01*
X164245064Y-119701504D01*
X164250069Y-119343112D01*
X164189123Y-119035311D01*
X164069552Y-118745211D01*
X163895911Y-118483860D01*
X163852356Y-118440000D01*
X165095523Y-118440000D01*
X165068398Y-118466563D01*
X164891125Y-118725464D01*
X164767515Y-119013867D01*
X164702278Y-119320787D01*
X164697897Y-119634532D01*
X164754539Y-119943154D01*
X164870048Y-120234896D01*
X165040023Y-120498645D01*
X165257990Y-120724357D01*
X165515648Y-120903433D01*
X165700000Y-120983975D01*
X165700000Y-122263252D01*
X165253457Y-122709795D01*
X164899950Y-122709795D01*
X164836252Y-122714875D01*
X164728212Y-122748332D01*
X164633771Y-122810565D01*
X164560407Y-122896644D01*
X164513928Y-122999754D01*
X164498015Y-123111730D01*
X164498015Y-123911830D01*
X164503095Y-123975528D01*
X164536552Y-124083568D01*
X164598785Y-124178009D01*
X164684864Y-124251373D01*
X164700000Y-124258196D01*
X164700000Y-126071472D01*
X164425736Y-126345736D01*
X164390561Y-126388559D01*
X164354932Y-126431020D01*
X164353413Y-126433784D01*
X164351409Y-126436223D01*
X164325201Y-126485101D01*
X164298519Y-126533635D01*
X164297566Y-126536640D01*
X164296074Y-126539422D01*
X164279865Y-126592440D01*
X164263111Y-126645253D01*
X164262759Y-126648388D01*
X164261837Y-126651405D01*
X164257508Y-126694024D01*
X164083899Y-126598581D01*
X163848831Y-126524013D01*
X163603757Y-126496523D01*
X163586114Y-126496400D01*
X163573886Y-126496400D01*
X163328451Y-126520465D01*
X163221334Y-126552806D01*
X162504264Y-125835736D01*
X162461441Y-125800561D01*
X162418980Y-125764932D01*
X162416216Y-125763413D01*
X162413777Y-125761409D01*
X162364899Y-125735201D01*
X162316365Y-125708519D01*
X162313360Y-125707566D01*
X162310578Y-125706074D01*
X162257560Y-125689865D01*
X162204747Y-125673111D01*
X162201612Y-125672759D01*
X162198595Y-125671837D01*
X162143496Y-125666241D01*
X162088377Y-125660058D01*
X162082205Y-125660015D01*
X162082094Y-125660004D01*
X162081991Y-125660014D01*
X162080000Y-125660000D01*
X158548528Y-125660000D01*
X157974264Y-125085736D01*
X157931441Y-125050561D01*
X157888980Y-125014932D01*
X157886216Y-125013413D01*
X157883777Y-125011409D01*
X157834899Y-124985201D01*
X157786365Y-124958519D01*
X157783360Y-124957566D01*
X157780578Y-124956074D01*
X157727560Y-124939865D01*
X157674747Y-124923111D01*
X157671612Y-124922759D01*
X157668595Y-124921837D01*
X157613496Y-124916241D01*
X157558377Y-124910058D01*
X157552205Y-124910015D01*
X157552094Y-124910004D01*
X157551991Y-124910014D01*
X157550000Y-124910000D01*
X155691888Y-124910000D01*
X155611976Y-124873978D01*
X155500000Y-124858065D01*
X154600000Y-124858065D01*
X154536302Y-124863145D01*
X154428262Y-124896602D01*
X154406777Y-124910760D01*
X153744857Y-124910760D01*
X153701215Y-124844531D01*
X153615136Y-124771167D01*
X153512026Y-124724688D01*
X153400050Y-124708775D01*
X152599950Y-124708775D01*
X152536252Y-124713855D01*
X152428212Y-124747312D01*
X152333771Y-124809545D01*
X152260407Y-124895624D01*
X152213928Y-124998734D01*
X152198015Y-125110710D01*
X152198015Y-125790000D01*
X150178528Y-125790000D01*
X149901935Y-125513407D01*
X149901935Y-125260000D01*
X149896855Y-125196302D01*
X149863398Y-125088262D01*
X149801165Y-124993821D01*
X149715086Y-124920457D01*
X149611976Y-124873978D01*
X149500000Y-124858065D01*
X148600000Y-124858065D01*
X148536302Y-124863145D01*
X148428262Y-124896602D01*
X148407930Y-124910000D01*
X147994357Y-124910000D01*
X147951215Y-124844531D01*
X147865136Y-124771167D01*
X147762026Y-124724688D01*
X147650050Y-124708775D01*
X146849950Y-124708775D01*
X146786252Y-124713855D01*
X146678212Y-124747312D01*
X146583771Y-124809545D01*
X146510407Y-124895624D01*
X146463928Y-124998734D01*
X146448015Y-125110710D01*
X146448015Y-125910810D01*
X146453095Y-125974508D01*
X146486552Y-126082548D01*
X146548785Y-126176989D01*
X146634864Y-126250353D01*
X146737974Y-126296832D01*
X146849950Y-126312745D01*
X147650050Y-126312745D01*
X147713748Y-126307665D01*
X147821788Y-126274208D01*
X147916229Y-126211975D01*
X147989593Y-126125896D01*
X147996758Y-126110000D01*
X148408112Y-126110000D01*
X148488024Y-126146022D01*
X148600000Y-126161935D01*
X148853407Y-126161935D01*
X149505736Y-126814264D01*
X149548559Y-126849439D01*
X149591020Y-126885068D01*
X149593784Y-126886587D01*
X149596223Y-126888591D01*
X149645101Y-126914799D01*
X149693635Y-126941481D01*
X149696640Y-126942434D01*
X149699422Y-126943926D01*
X149752427Y-126960131D01*
X149805253Y-126976889D01*
X149808390Y-126977241D01*
X149811406Y-126978163D01*
X149866498Y-126983759D01*
X149921623Y-126989942D01*
X149927795Y-126989985D01*
X149927906Y-126989996D01*
X149928009Y-126989986D01*
X149930000Y-126990000D01*
X152418766Y-126990000D01*
X152366314Y-127053404D01*
X152249020Y-127270335D01*
X152176095Y-127505918D01*
X152150317Y-127751178D01*
X152172668Y-127996775D01*
X152242296Y-128233353D01*
X152356551Y-128451901D01*
X152374490Y-128474213D01*
X152327560Y-128459865D01*
X152274747Y-128443111D01*
X152271612Y-128442759D01*
X152268595Y-128441837D01*
X152213496Y-128436241D01*
X152158377Y-128430058D01*
X152152205Y-128430015D01*
X152152094Y-128430004D01*
X152151991Y-128430014D01*
X152150000Y-128430000D01*
X149413473Y-128430000D01*
X149510980Y-128249665D01*
X149583905Y-128014082D01*
X149609683Y-127768822D01*
X149587332Y-127523225D01*
X149517704Y-127286647D01*
X149403449Y-127068099D01*
X149248922Y-126875905D01*
X149060006Y-126717387D01*
X148843899Y-126598581D01*
X148608831Y-126524013D01*
X148363757Y-126496523D01*
X148346114Y-126496400D01*
X148333886Y-126496400D01*
X148088451Y-126520465D01*
X147852365Y-126591744D01*
X147634620Y-126707521D01*
X147443510Y-126863386D01*
X147286314Y-127053404D01*
X147228678Y-127160000D01*
X146911494Y-127160000D01*
X146863449Y-127068099D01*
X146708922Y-126875905D01*
X146520006Y-126717387D01*
X146303899Y-126598581D01*
X146068831Y-126524013D01*
X145823757Y-126496523D01*
X145806114Y-126496400D01*
X145793886Y-126496400D01*
X145548451Y-126520465D01*
X145312365Y-126591744D01*
X145094620Y-126707521D01*
X144903510Y-126863386D01*
X144746314Y-127053404D01*
X144688678Y-127160000D01*
X143476935Y-127160000D01*
X143476935Y-127130000D01*
X143471855Y-127066302D01*
X143438398Y-126958262D01*
X143376165Y-126863821D01*
X143350000Y-126841521D01*
X143350000Y-126061935D01*
X143425000Y-126061935D01*
X143488698Y-126056855D01*
X143596738Y-126023398D01*
X143691179Y-125961165D01*
X143764543Y-125875086D01*
X143811022Y-125771976D01*
X143826935Y-125660000D01*
X143826935Y-124860000D01*
X143821855Y-124796302D01*
X143788398Y-124688262D01*
X143726165Y-124593821D01*
X143640086Y-124520457D01*
X143536976Y-124473978D01*
X143425000Y-124458065D01*
X142675000Y-124458065D01*
X142611302Y-124463145D01*
X142503262Y-124496602D01*
X142408821Y-124558835D01*
X142335457Y-124644914D01*
X142288978Y-124748024D01*
X142273065Y-124860000D01*
X142273065Y-125199410D01*
X142254932Y-125221020D01*
X142253413Y-125223784D01*
X142251409Y-125226223D01*
X142225201Y-125275101D01*
X142198519Y-125323635D01*
X142197566Y-125326640D01*
X142196074Y-125329422D01*
X142179865Y-125382440D01*
X142163111Y-125435253D01*
X142162759Y-125438388D01*
X142161837Y-125441405D01*
X142156241Y-125496504D01*
X142150058Y-125551623D01*
X142150015Y-125557795D01*
X142150004Y-125557906D01*
X142150014Y-125558009D01*
X142150000Y-125560000D01*
X142150000Y-125910000D01*
X141300000Y-125910000D01*
X141244830Y-125915409D01*
X141189629Y-125920239D01*
X141186600Y-125921119D01*
X141183459Y-125921427D01*
X141130362Y-125937458D01*
X141077179Y-125952909D01*
X141074381Y-125954359D01*
X141071358Y-125955272D01*
X141022427Y-125981289D01*
X140973216Y-126006797D01*
X140970748Y-126008767D01*
X140967965Y-126010247D01*
X140925050Y-126045248D01*
X140881700Y-126079854D01*
X140877309Y-126084184D01*
X140877219Y-126084258D01*
X140877150Y-126084342D01*
X140875736Y-126085736D01*
X140425736Y-126535736D01*
X140400000Y-126567067D01*
X140400000Y-125010000D01*
X140394591Y-124954830D01*
X140389761Y-124899629D01*
X140388881Y-124896600D01*
X140388573Y-124893459D01*
X140372542Y-124840362D01*
X140357091Y-124787179D01*
X140355641Y-124784381D01*
X140354728Y-124781358D01*
X140328711Y-124732427D01*
X140303203Y-124683216D01*
X140301233Y-124680748D01*
X140299753Y-124677965D01*
X140264777Y-124635080D01*
X140230147Y-124591700D01*
X140225814Y-124587308D01*
X140225742Y-124587219D01*
X140225660Y-124587151D01*
X140224264Y-124585736D01*
X139333236Y-123694708D01*
X139338163Y-123678594D01*
X139349997Y-123562094D01*
X139338977Y-123445514D01*
X139305522Y-123333295D01*
X139250909Y-123229712D01*
X139177216Y-123138708D01*
X139147228Y-123113723D01*
X139145915Y-123111730D01*
X145498015Y-123111730D01*
X145498015Y-123911830D01*
X145503095Y-123975528D01*
X145536552Y-124083568D01*
X145598785Y-124178009D01*
X145684864Y-124251373D01*
X145787974Y-124297852D01*
X145899950Y-124313765D01*
X146700050Y-124313765D01*
X146763748Y-124308685D01*
X146871788Y-124275228D01*
X146966229Y-124212995D01*
X147039593Y-124126916D01*
X147086072Y-124023806D01*
X147101985Y-123911830D01*
X147101985Y-123558323D01*
X147924264Y-122736044D01*
X147959439Y-122693221D01*
X147995068Y-122650760D01*
X147996587Y-122647996D01*
X147998591Y-122645557D01*
X148024799Y-122596679D01*
X148051481Y-122548145D01*
X148052434Y-122545140D01*
X148053926Y-122542358D01*
X148070135Y-122489340D01*
X148086889Y-122436527D01*
X148087241Y-122433392D01*
X148088163Y-122430375D01*
X148093759Y-122375276D01*
X148099942Y-122320157D01*
X148099985Y-122313985D01*
X148099996Y-122313874D01*
X148099986Y-122313771D01*
X148100000Y-122311780D01*
X148100000Y-120983492D01*
X148224895Y-120935048D01*
X148489825Y-120766918D01*
X148717053Y-120550532D01*
X148897924Y-120294131D01*
X149025548Y-120007482D01*
X149095064Y-119701504D01*
X149095999Y-119634532D01*
X149397897Y-119634532D01*
X149454539Y-119943154D01*
X149570048Y-120234896D01*
X149740023Y-120498645D01*
X149957990Y-120724357D01*
X150215648Y-120903433D01*
X150400000Y-120983975D01*
X150400000Y-122461780D01*
X150405409Y-122516950D01*
X150410239Y-122572151D01*
X150411119Y-122575180D01*
X150411427Y-122578321D01*
X150427458Y-122631418D01*
X150442909Y-122684601D01*
X150444359Y-122687399D01*
X150445272Y-122690422D01*
X150471289Y-122739353D01*
X150496797Y-122788564D01*
X150498767Y-122791032D01*
X150500247Y-122793815D01*
X150535248Y-122836730D01*
X150569854Y-122880080D01*
X150574184Y-122884471D01*
X150574258Y-122884561D01*
X150574342Y-122884630D01*
X150575736Y-122886044D01*
X151248015Y-123558323D01*
X151248015Y-123911830D01*
X151253095Y-123975528D01*
X151286552Y-124083568D01*
X151348785Y-124178009D01*
X151434864Y-124251373D01*
X151537974Y-124297852D01*
X151649950Y-124313765D01*
X152450050Y-124313765D01*
X152513748Y-124308685D01*
X152621788Y-124275228D01*
X152716229Y-124212995D01*
X152789593Y-124126916D01*
X152836072Y-124023806D01*
X152851985Y-123911830D01*
X152851985Y-123111730D01*
X152846905Y-123048032D01*
X152813448Y-122939992D01*
X152751215Y-122845551D01*
X152665136Y-122772187D01*
X152562026Y-122725708D01*
X152450050Y-122709795D01*
X152096543Y-122709795D01*
X151600000Y-122213252D01*
X151600000Y-120983492D01*
X151724895Y-120935048D01*
X151989825Y-120766918D01*
X152217053Y-120550532D01*
X152397924Y-120294131D01*
X152525548Y-120007482D01*
X152595064Y-119701504D01*
X152600069Y-119343112D01*
X152539123Y-119035311D01*
X152419552Y-118745211D01*
X152245911Y-118483860D01*
X152024813Y-118261213D01*
X151764681Y-118085752D01*
X151475422Y-117964159D01*
X151168055Y-117901065D01*
X150854286Y-117898875D01*
X150546068Y-117957671D01*
X150255140Y-118075213D01*
X149992583Y-118247026D01*
X149768398Y-118466563D01*
X149591125Y-118725464D01*
X149467515Y-119013867D01*
X149402278Y-119320787D01*
X149397897Y-119634532D01*
X149095999Y-119634532D01*
X149100069Y-119343112D01*
X149039123Y-119035311D01*
X148919552Y-118745211D01*
X148745911Y-118483860D01*
X148524813Y-118261213D01*
X148264681Y-118085752D01*
X147975422Y-117964159D01*
X147668055Y-117901065D01*
X147354286Y-117898875D01*
X147046068Y-117957671D01*
X146755140Y-118075213D01*
X146492583Y-118247026D01*
X146268398Y-118466563D01*
X146091125Y-118725464D01*
X145967515Y-119013867D01*
X145902278Y-119320787D01*
X145897897Y-119634532D01*
X145954539Y-119943154D01*
X146070048Y-120234896D01*
X146240023Y-120498645D01*
X146457990Y-120724357D01*
X146715648Y-120903433D01*
X146900000Y-120983975D01*
X146900000Y-122063252D01*
X146253457Y-122709795D01*
X145899950Y-122709795D01*
X145836252Y-122714875D01*
X145728212Y-122748332D01*
X145633771Y-122810565D01*
X145560407Y-122896644D01*
X145513928Y-122999754D01*
X145498015Y-123111730D01*
X139145915Y-123111730D01*
X139101165Y-123043821D01*
X139015086Y-122970457D01*
X138911976Y-122923978D01*
X138800000Y-122908065D01*
X138300000Y-122908065D01*
X138236302Y-122913145D01*
X138128262Y-122946602D01*
X138033821Y-123008835D01*
X137960457Y-123094914D01*
X137913978Y-123198024D01*
X137898065Y-123310000D01*
X137898065Y-124210000D01*
X137903145Y-124273698D01*
X137936602Y-124381738D01*
X137998835Y-124476179D01*
X138084914Y-124549543D01*
X138188024Y-124596022D01*
X138300000Y-124611935D01*
X138553407Y-124611935D01*
X138857743Y-124916271D01*
X138800000Y-124908065D01*
X138300000Y-124908065D01*
X138236302Y-124913145D01*
X138128262Y-124946602D01*
X138033821Y-125008835D01*
X137960457Y-125094914D01*
X137913978Y-125198024D01*
X137898065Y-125310000D01*
X137898065Y-126210000D01*
X137903145Y-126273698D01*
X137936602Y-126381738D01*
X137950000Y-126402070D01*
X137950000Y-127040226D01*
X137883821Y-127083835D01*
X137810457Y-127169914D01*
X137763978Y-127273024D01*
X137748065Y-127385000D01*
X137748065Y-127713407D01*
X137301472Y-128160000D01*
X133600000Y-128160000D01*
X133544830Y-128165409D01*
X133489629Y-128170239D01*
X133486600Y-128171119D01*
X133483459Y-128171427D01*
X133430362Y-128187458D01*
X133377179Y-128202909D01*
X133374381Y-128204359D01*
X133371358Y-128205272D01*
X133322427Y-128231289D01*
X133273216Y-128256797D01*
X133270748Y-128258767D01*
X133267965Y-128260247D01*
X133225050Y-128295248D01*
X133181700Y-128329854D01*
X133177309Y-128334184D01*
X133177219Y-128334258D01*
X133177150Y-128334342D01*
X133175736Y-128335736D01*
X133126472Y-128385000D01*
X131575000Y-128385000D01*
X131519830Y-128390409D01*
X131464629Y-128395239D01*
X131461600Y-128396119D01*
X131458459Y-128396427D01*
X131405362Y-128412458D01*
X131352179Y-128427909D01*
X131349381Y-128429359D01*
X131346358Y-128430272D01*
X131297427Y-128456289D01*
X131248216Y-128481797D01*
X131245748Y-128483767D01*
X131242965Y-128485247D01*
X131200050Y-128520248D01*
X131156700Y-128554854D01*
X131152309Y-128559184D01*
X131152219Y-128559258D01*
X131152150Y-128559342D01*
X131150736Y-128560736D01*
X129375736Y-130335736D01*
X129340561Y-130378559D01*
X129304932Y-130421020D01*
X129303413Y-130423784D01*
X129301409Y-130426223D01*
X129275201Y-130475101D01*
X129248519Y-130523635D01*
X129247566Y-130526640D01*
X129246074Y-130529422D01*
X129229865Y-130582440D01*
X129213111Y-130635253D01*
X129212759Y-130638388D01*
X129211837Y-130641405D01*
X129206241Y-130696504D01*
X129200058Y-130751623D01*
X129200015Y-130757795D01*
X129200004Y-130757906D01*
X129200014Y-130758009D01*
X129200000Y-130760000D01*
X128275000Y-130760000D01*
X128275000Y-122784532D01*
X130897897Y-122784532D01*
X130954539Y-123093154D01*
X131070048Y-123384896D01*
X131240023Y-123648645D01*
X131457990Y-123874357D01*
X131715648Y-124053433D01*
X132003180Y-124179054D01*
X132309637Y-124246432D01*
X132623344Y-124253004D01*
X132932354Y-124198517D01*
X133125192Y-124123720D01*
X133185736Y-124184264D01*
X133228559Y-124219439D01*
X133271020Y-124255068D01*
X133273784Y-124256587D01*
X133276223Y-124258591D01*
X133325101Y-124284799D01*
X133373635Y-124311481D01*
X133376640Y-124312434D01*
X133379422Y-124313926D01*
X133432440Y-124330135D01*
X133485253Y-124346889D01*
X133488388Y-124347241D01*
X133491405Y-124348163D01*
X133546504Y-124353759D01*
X133601623Y-124359942D01*
X133607795Y-124359985D01*
X133607906Y-124359996D01*
X133608009Y-124359986D01*
X133610000Y-124360000D01*
X136429870Y-124360000D01*
X136436602Y-124381738D01*
X136450000Y-124402070D01*
X136450000Y-125118112D01*
X136413978Y-125198024D01*
X136398065Y-125310000D01*
X136398065Y-126210000D01*
X136403145Y-126273698D01*
X136436602Y-126381738D01*
X136498835Y-126476179D01*
X136584914Y-126549543D01*
X136688024Y-126596022D01*
X136800000Y-126611935D01*
X137300000Y-126611935D01*
X137363698Y-126606855D01*
X137471738Y-126573398D01*
X137566179Y-126511165D01*
X137639543Y-126425086D01*
X137686022Y-126321976D01*
X137701935Y-126210000D01*
X137701935Y-125310000D01*
X137696855Y-125246302D01*
X137663398Y-125138262D01*
X137650000Y-125117930D01*
X137650000Y-124401888D01*
X137686022Y-124321976D01*
X137701935Y-124210000D01*
X137701935Y-123310000D01*
X137696855Y-123246302D01*
X137663398Y-123138262D01*
X137601165Y-123043821D01*
X137515086Y-122970457D01*
X137411976Y-122923978D01*
X137300000Y-122908065D01*
X136800000Y-122908065D01*
X136736302Y-122913145D01*
X136628262Y-122946602D01*
X136533821Y-123008835D01*
X136460457Y-123094914D01*
X136431118Y-123160000D01*
X134024427Y-123160000D01*
X134025548Y-123157482D01*
X134095064Y-122851504D01*
X134100069Y-122493112D01*
X134039123Y-122185311D01*
X133919552Y-121895211D01*
X133745911Y-121633860D01*
X133524813Y-121411213D01*
X133264681Y-121235752D01*
X132975422Y-121114159D01*
X132668055Y-121051065D01*
X132354286Y-121048875D01*
X132046068Y-121107671D01*
X131755140Y-121225213D01*
X131492583Y-121397026D01*
X131268398Y-121616563D01*
X131091125Y-121875464D01*
X130967515Y-122163867D01*
X130902278Y-122470787D01*
X130897897Y-122784532D01*
X128275000Y-122784532D01*
X128275000Y-119634532D01*
X135397897Y-119634532D01*
X135454539Y-119943154D01*
X135570048Y-120234896D01*
X135740023Y-120498645D01*
X135957990Y-120724357D01*
X136215648Y-120903433D01*
X136503180Y-121029054D01*
X136809637Y-121096432D01*
X137123344Y-121103004D01*
X137432354Y-121048517D01*
X137724895Y-120935048D01*
X137989825Y-120766918D01*
X138217053Y-120550532D01*
X138397924Y-120294131D01*
X138525548Y-120007482D01*
X138595064Y-119701504D01*
X138595999Y-119634532D01*
X138897897Y-119634532D01*
X138954539Y-119943154D01*
X139070048Y-120234896D01*
X139240023Y-120498645D01*
X139457990Y-120724357D01*
X139715648Y-120903433D01*
X140003180Y-121029054D01*
X140309637Y-121096432D01*
X140623344Y-121103004D01*
X140932354Y-121048517D01*
X141224895Y-120935048D01*
X141489825Y-120766918D01*
X141717053Y-120550532D01*
X141897924Y-120294131D01*
X142025548Y-120007482D01*
X142095064Y-119701504D01*
X142095999Y-119634532D01*
X142397897Y-119634532D01*
X142454539Y-119943154D01*
X142570048Y-120234896D01*
X142740023Y-120498645D01*
X142957990Y-120724357D01*
X143215648Y-120903433D01*
X143503180Y-121029054D01*
X143809637Y-121096432D01*
X144123344Y-121103004D01*
X144432354Y-121048517D01*
X144724895Y-120935048D01*
X144989825Y-120766918D01*
X145217053Y-120550532D01*
X145397924Y-120294131D01*
X145525548Y-120007482D01*
X145595064Y-119701504D01*
X145600069Y-119343112D01*
X145539123Y-119035311D01*
X145419552Y-118745211D01*
X145245911Y-118483860D01*
X145024813Y-118261213D01*
X144764681Y-118085752D01*
X144475422Y-117964159D01*
X144168055Y-117901065D01*
X143854286Y-117898875D01*
X143546068Y-117957671D01*
X143255140Y-118075213D01*
X142992583Y-118247026D01*
X142768398Y-118466563D01*
X142591125Y-118725464D01*
X142467515Y-119013867D01*
X142402278Y-119320787D01*
X142397897Y-119634532D01*
X142095999Y-119634532D01*
X142100069Y-119343112D01*
X142039123Y-119035311D01*
X141919552Y-118745211D01*
X141745911Y-118483860D01*
X141524813Y-118261213D01*
X141264681Y-118085752D01*
X140975422Y-117964159D01*
X140668055Y-117901065D01*
X140354286Y-117898875D01*
X140046068Y-117957671D01*
X139755140Y-118075213D01*
X139492583Y-118247026D01*
X139268398Y-118466563D01*
X139091125Y-118725464D01*
X138967515Y-119013867D01*
X138902278Y-119320787D01*
X138897897Y-119634532D01*
X138595999Y-119634532D01*
X138600069Y-119343112D01*
X138539123Y-119035311D01*
X138419552Y-118745211D01*
X138245911Y-118483860D01*
X138024813Y-118261213D01*
X137764681Y-118085752D01*
X137475422Y-117964159D01*
X137168055Y-117901065D01*
X136854286Y-117898875D01*
X136546068Y-117957671D01*
X136255140Y-118075213D01*
X135992583Y-118247026D01*
X135768398Y-118466563D01*
X135591125Y-118725464D01*
X135467515Y-119013867D01*
X135402278Y-119320787D01*
X135397897Y-119634532D01*
X128275000Y-119634532D01*
X128275000Y-116513454D01*
X128299624Y-116262318D01*
X128368650Y-116033693D01*
X128480771Y-115822824D01*
X128631714Y-115637751D01*
X128815728Y-115485522D01*
X129025802Y-115371934D01*
X129253945Y-115301312D01*
X129504296Y-115275000D01*
X176486546Y-115275000D01*
X176737682Y-115299624D01*
G36*
X142023065Y-127130000D02*
X142023065Y-128190000D01*
X142028145Y-128253698D01*
X142061602Y-128361738D01*
X142123835Y-128456179D01*
X142209914Y-128529543D01*
X142313024Y-128576022D01*
X142425000Y-128591935D01*
X143075000Y-128591935D01*
X143138698Y-128586855D01*
X143246738Y-128553398D01*
X143341179Y-128491165D01*
X143414543Y-128405086D01*
X143434866Y-128360000D01*
X144688506Y-128360000D01*
X144736551Y-128451901D01*
X144891078Y-128644095D01*
X145079994Y-128802613D01*
X145296101Y-128921419D01*
X145531169Y-128995987D01*
X145776243Y-129023477D01*
X145793886Y-129023600D01*
X145806114Y-129023600D01*
X146051549Y-128999535D01*
X146287635Y-128928256D01*
X146505380Y-128812479D01*
X146696490Y-128656614D01*
X146853686Y-128466596D01*
X146911322Y-128360000D01*
X147228506Y-128360000D01*
X147276551Y-128451901D01*
X147358720Y-128554099D01*
X147345056Y-128565243D01*
X147301701Y-128599853D01*
X147297309Y-128604184D01*
X147297219Y-128604258D01*
X147297150Y-128604342D01*
X147295736Y-128605736D01*
X146645736Y-129255736D01*
X146610561Y-129298559D01*
X146593419Y-129318988D01*
X146520006Y-129257387D01*
X146303899Y-129138581D01*
X146068831Y-129064013D01*
X145823757Y-129036523D01*
X145806114Y-129036400D01*
X145793886Y-129036400D01*
X145548451Y-129060465D01*
X145312365Y-129131744D01*
X145094620Y-129247521D01*
X144903510Y-129403386D01*
X144746314Y-129593404D01*
X144629020Y-129810335D01*
X144556095Y-130045918D01*
X144530317Y-130291178D01*
X144552668Y-130536775D01*
X144622296Y-130773353D01*
X144736551Y-130991901D01*
X144891078Y-131184095D01*
X145079994Y-131342613D01*
X145296101Y-131461419D01*
X145531169Y-131535987D01*
X145660930Y-131550542D01*
X143625736Y-133585736D01*
X143590561Y-133628559D01*
X143554932Y-133671020D01*
X143553413Y-133673784D01*
X143551409Y-133676223D01*
X143525201Y-133725101D01*
X143498519Y-133773635D01*
X143497566Y-133776640D01*
X143496074Y-133779422D01*
X143479865Y-133832440D01*
X143463111Y-133885253D01*
X143462759Y-133888388D01*
X143461837Y-133891405D01*
X143456241Y-133946504D01*
X143450058Y-134001623D01*
X143450015Y-134007795D01*
X143450004Y-134007906D01*
X143450014Y-134008009D01*
X143450000Y-134010000D01*
X143450000Y-135011472D01*
X139301472Y-139160000D01*
X139278300Y-139160000D01*
X139251165Y-139118821D01*
X139165086Y-139045457D01*
X139150000Y-139038657D01*
X139150000Y-138401888D01*
X139186022Y-138321976D01*
X139201935Y-138210000D01*
X139201935Y-137310000D01*
X139196855Y-137246302D01*
X139163398Y-137138262D01*
X139101165Y-137043821D01*
X139015086Y-136970457D01*
X138911976Y-136923978D01*
X138800000Y-136908065D01*
X138300000Y-136908065D01*
X138236302Y-136913145D01*
X138128262Y-136946602D01*
X138033821Y-137008835D01*
X137960457Y-137094914D01*
X137913978Y-137198024D01*
X137898065Y-137310000D01*
X137898065Y-138210000D01*
X137903145Y-138273698D01*
X137936602Y-138381738D01*
X137950000Y-138402070D01*
X137950000Y-139040226D01*
X137883821Y-139083835D01*
X137810457Y-139169914D01*
X137763978Y-139273024D01*
X137748065Y-139385000D01*
X137748065Y-140135000D01*
X137750059Y-140160000D01*
X133421939Y-140160000D01*
X133489825Y-140116918D01*
X133717053Y-139900532D01*
X133897924Y-139644131D01*
X134025548Y-139357482D01*
X134095064Y-139051504D01*
X134100069Y-138693112D01*
X134039123Y-138385311D01*
X134028691Y-138360000D01*
X136429870Y-138360000D01*
X136436602Y-138381738D01*
X136498835Y-138476179D01*
X136584914Y-138549543D01*
X136688024Y-138596022D01*
X136800000Y-138611935D01*
X137300000Y-138611935D01*
X137363698Y-138606855D01*
X137471738Y-138573398D01*
X137566179Y-138511165D01*
X137639543Y-138425086D01*
X137686022Y-138321976D01*
X137701935Y-138210000D01*
X137701935Y-137310000D01*
X137696855Y-137246302D01*
X137663398Y-137138262D01*
X137650000Y-137117930D01*
X137650000Y-136401888D01*
X137686022Y-136321976D01*
X137701935Y-136210000D01*
X137701935Y-135310000D01*
X137696855Y-135246302D01*
X137663398Y-135138262D01*
X137601165Y-135043821D01*
X137515086Y-134970457D01*
X137411976Y-134923978D01*
X137300000Y-134908065D01*
X136800000Y-134908065D01*
X136736302Y-134913145D01*
X136628262Y-134946602D01*
X136533821Y-135008835D01*
X136460457Y-135094914D01*
X136413978Y-135198024D01*
X136398065Y-135310000D01*
X136398065Y-136210000D01*
X136403145Y-136273698D01*
X136436602Y-136381738D01*
X136450000Y-136402070D01*
X136450000Y-137118112D01*
X136431118Y-137160000D01*
X133590000Y-137160000D01*
X133534871Y-137165405D01*
X133479629Y-137170239D01*
X133476600Y-137171119D01*
X133473459Y-137171427D01*
X133420362Y-137187458D01*
X133367179Y-137202909D01*
X133364381Y-137204359D01*
X133361358Y-137205272D01*
X133312427Y-137231289D01*
X133263216Y-137256797D01*
X133260748Y-137258767D01*
X133257965Y-137260247D01*
X133215056Y-137295243D01*
X133171701Y-137329853D01*
X133167309Y-137334184D01*
X133167219Y-137334258D01*
X133167150Y-137334342D01*
X133165736Y-137335736D01*
X133124603Y-137376869D01*
X132975422Y-137314159D01*
X132668055Y-137251065D01*
X132354286Y-137248875D01*
X132046068Y-137307671D01*
X131755140Y-137425213D01*
X131492583Y-137597026D01*
X131268398Y-137816563D01*
X131150000Y-137989479D01*
X131150000Y-134758528D01*
X132548528Y-133360000D01*
X137751618Y-133360000D01*
X137748065Y-133385000D01*
X137748065Y-134135000D01*
X137753145Y-134198698D01*
X137786602Y-134306738D01*
X137848835Y-134401179D01*
X137934914Y-134474543D01*
X138038024Y-134521022D01*
X138150000Y-134536935D01*
X138950000Y-134536935D01*
X139013698Y-134531855D01*
X139121738Y-134498398D01*
X139200000Y-134446826D01*
X139200000Y-135160000D01*
X139170130Y-135160000D01*
X139163398Y-135138262D01*
X139101165Y-135043821D01*
X139015086Y-134970457D01*
X138911976Y-134923978D01*
X138800000Y-134908065D01*
X138300000Y-134908065D01*
X138236302Y-134913145D01*
X138128262Y-134946602D01*
X138033821Y-135008835D01*
X137960457Y-135094914D01*
X137913978Y-135198024D01*
X137898065Y-135310000D01*
X137898065Y-136210000D01*
X137903145Y-136273698D01*
X137936602Y-136381738D01*
X137998835Y-136476179D01*
X138084914Y-136549543D01*
X138188024Y-136596022D01*
X138300000Y-136611935D01*
X138800000Y-136611935D01*
X138863698Y-136606855D01*
X138971738Y-136573398D01*
X139066179Y-136511165D01*
X139139543Y-136425086D01*
X139168882Y-136360000D01*
X139720558Y-136360000D01*
X139745652Y-136423379D01*
X139841263Y-136571738D01*
X139963870Y-136698701D01*
X140108802Y-136799431D01*
X140270539Y-136870093D01*
X140442921Y-136907993D01*
X140619381Y-136911690D01*
X140793199Y-136881041D01*
X140957753Y-136817214D01*
X141106777Y-136722641D01*
X141234592Y-136600924D01*
X141336332Y-136456699D01*
X141408121Y-136295459D01*
X141447224Y-136123346D01*
X141450039Y-135921750D01*
X141415757Y-135748613D01*
X141348498Y-135585431D01*
X141250825Y-135438421D01*
X141126458Y-135313182D01*
X140980133Y-135214485D01*
X140817425Y-135146089D01*
X140644531Y-135110599D01*
X140468036Y-135109367D01*
X140400000Y-135122346D01*
X140400000Y-132444786D01*
X140434914Y-132474543D01*
X140538024Y-132521022D01*
X140650000Y-132536935D01*
X141450000Y-132536935D01*
X141513698Y-132531855D01*
X141621738Y-132498398D01*
X141716179Y-132436165D01*
X141789543Y-132350086D01*
X141836022Y-132246976D01*
X141851935Y-132135000D01*
X141851935Y-131385000D01*
X141846855Y-131321302D01*
X141813398Y-131213262D01*
X141751165Y-131118821D01*
X141665086Y-131045457D01*
X141561976Y-130998978D01*
X141450000Y-130983065D01*
X141450000Y-130680815D01*
X141514543Y-130605086D01*
X141561022Y-130501976D01*
X141576935Y-130390000D01*
X141576935Y-129330000D01*
X142023065Y-129330000D01*
X142023065Y-130390000D01*
X142028145Y-130453698D01*
X142061602Y-130561738D01*
X142123835Y-130656179D01*
X142209914Y-130729543D01*
X142313024Y-130776022D01*
X142425000Y-130791935D01*
X143075000Y-130791935D01*
X143138698Y-130786855D01*
X143246738Y-130753398D01*
X143341179Y-130691165D01*
X143414543Y-130605086D01*
X143461022Y-130501976D01*
X143476935Y-130390000D01*
X143476935Y-129330000D01*
X143471855Y-129266302D01*
X143438398Y-129158262D01*
X143376165Y-129063821D01*
X143290086Y-128990457D01*
X143186976Y-128943978D01*
X143075000Y-128928065D01*
X142425000Y-128928065D01*
X142361302Y-128933145D01*
X142253262Y-128966602D01*
X142158821Y-129028835D01*
X142085457Y-129114914D01*
X142038978Y-129218024D01*
X142023065Y-129330000D01*
X141576935Y-129330000D01*
X141571855Y-129266302D01*
X141538398Y-129158262D01*
X141476165Y-129063821D01*
X141390086Y-128990457D01*
X141286976Y-128943978D01*
X141175000Y-128928065D01*
X140525000Y-128928065D01*
X140461302Y-128933145D01*
X140400000Y-128952129D01*
X140400000Y-128570151D01*
X140413024Y-128576022D01*
X140525000Y-128591935D01*
X141175000Y-128591935D01*
X141238698Y-128586855D01*
X141346738Y-128553398D01*
X141441179Y-128491165D01*
X141514543Y-128405086D01*
X141561022Y-128301976D01*
X141576935Y-128190000D01*
X141576935Y-127130000D01*
X141575340Y-127110000D01*
X142025907Y-127110000D01*
X142023065Y-127130000D01*
X142023065Y-127130000D01*
G37*
X142023065Y-127130000D02*
X142023065Y-128190000D01*
X142028145Y-128253698D01*
X142061602Y-128361738D01*
X142123835Y-128456179D01*
X142209914Y-128529543D01*
X142313024Y-128576022D01*
X142425000Y-128591935D01*
X143075000Y-128591935D01*
X143138698Y-128586855D01*
X143246738Y-128553398D01*
X143341179Y-128491165D01*
X143414543Y-128405086D01*
X143434866Y-128360000D01*
X144688506Y-128360000D01*
X144736551Y-128451901D01*
X144891078Y-128644095D01*
X145079994Y-128802613D01*
X145296101Y-128921419D01*
X145531169Y-128995987D01*
X145776243Y-129023477D01*
X145793886Y-129023600D01*
X145806114Y-129023600D01*
X146051549Y-128999535D01*
X146287635Y-128928256D01*
X146505380Y-128812479D01*
X146696490Y-128656614D01*
X146853686Y-128466596D01*
X146911322Y-128360000D01*
X147228506Y-128360000D01*
X147276551Y-128451901D01*
X147358720Y-128554099D01*
X147345056Y-128565243D01*
X147301701Y-128599853D01*
X147297309Y-128604184D01*
X147297219Y-128604258D01*
X147297150Y-128604342D01*
X147295736Y-128605736D01*
X146645736Y-129255736D01*
X146610561Y-129298559D01*
X146593419Y-129318988D01*
X146520006Y-129257387D01*
X146303899Y-129138581D01*
X146068831Y-129064013D01*
X145823757Y-129036523D01*
X145806114Y-129036400D01*
X145793886Y-129036400D01*
X145548451Y-129060465D01*
X145312365Y-129131744D01*
X145094620Y-129247521D01*
X144903510Y-129403386D01*
X144746314Y-129593404D01*
X144629020Y-129810335D01*
X144556095Y-130045918D01*
X144530317Y-130291178D01*
X144552668Y-130536775D01*
X144622296Y-130773353D01*
X144736551Y-130991901D01*
X144891078Y-131184095D01*
X145079994Y-131342613D01*
X145296101Y-131461419D01*
X145531169Y-131535987D01*
X145660930Y-131550542D01*
X143625736Y-133585736D01*
X143590561Y-133628559D01*
X143554932Y-133671020D01*
X143553413Y-133673784D01*
X143551409Y-133676223D01*
X143525201Y-133725101D01*
X143498519Y-133773635D01*
X143497566Y-133776640D01*
X143496074Y-133779422D01*
X143479865Y-133832440D01*
X143463111Y-133885253D01*
X143462759Y-133888388D01*
X143461837Y-133891405D01*
X143456241Y-133946504D01*
X143450058Y-134001623D01*
X143450015Y-134007795D01*
X143450004Y-134007906D01*
X143450014Y-134008009D01*
X143450000Y-134010000D01*
X143450000Y-135011472D01*
X139301472Y-139160000D01*
X139278300Y-139160000D01*
X139251165Y-139118821D01*
X139165086Y-139045457D01*
X139150000Y-139038657D01*
X139150000Y-138401888D01*
X139186022Y-138321976D01*
X139201935Y-138210000D01*
X139201935Y-137310000D01*
X139196855Y-137246302D01*
X139163398Y-137138262D01*
X139101165Y-137043821D01*
X139015086Y-136970457D01*
X138911976Y-136923978D01*
X138800000Y-136908065D01*
X138300000Y-136908065D01*
X138236302Y-136913145D01*
X138128262Y-136946602D01*
X138033821Y-137008835D01*
X137960457Y-137094914D01*
X137913978Y-137198024D01*
X137898065Y-137310000D01*
X137898065Y-138210000D01*
X137903145Y-138273698D01*
X137936602Y-138381738D01*
X137950000Y-138402070D01*
X137950000Y-139040226D01*
X137883821Y-139083835D01*
X137810457Y-139169914D01*
X137763978Y-139273024D01*
X137748065Y-139385000D01*
X137748065Y-140135000D01*
X137750059Y-140160000D01*
X133421939Y-140160000D01*
X133489825Y-140116918D01*
X133717053Y-139900532D01*
X133897924Y-139644131D01*
X134025548Y-139357482D01*
X134095064Y-139051504D01*
X134100069Y-138693112D01*
X134039123Y-138385311D01*
X134028691Y-138360000D01*
X136429870Y-138360000D01*
X136436602Y-138381738D01*
X136498835Y-138476179D01*
X136584914Y-138549543D01*
X136688024Y-138596022D01*
X136800000Y-138611935D01*
X137300000Y-138611935D01*
X137363698Y-138606855D01*
X137471738Y-138573398D01*
X137566179Y-138511165D01*
X137639543Y-138425086D01*
X137686022Y-138321976D01*
X137701935Y-138210000D01*
X137701935Y-137310000D01*
X137696855Y-137246302D01*
X137663398Y-137138262D01*
X137650000Y-137117930D01*
X137650000Y-136401888D01*
X137686022Y-136321976D01*
X137701935Y-136210000D01*
X137701935Y-135310000D01*
X137696855Y-135246302D01*
X137663398Y-135138262D01*
X137601165Y-135043821D01*
X137515086Y-134970457D01*
X137411976Y-134923978D01*
X137300000Y-134908065D01*
X136800000Y-134908065D01*
X136736302Y-134913145D01*
X136628262Y-134946602D01*
X136533821Y-135008835D01*
X136460457Y-135094914D01*
X136413978Y-135198024D01*
X136398065Y-135310000D01*
X136398065Y-136210000D01*
X136403145Y-136273698D01*
X136436602Y-136381738D01*
X136450000Y-136402070D01*
X136450000Y-137118112D01*
X136431118Y-137160000D01*
X133590000Y-137160000D01*
X133534871Y-137165405D01*
X133479629Y-137170239D01*
X133476600Y-137171119D01*
X133473459Y-137171427D01*
X133420362Y-137187458D01*
X133367179Y-137202909D01*
X133364381Y-137204359D01*
X133361358Y-137205272D01*
X133312427Y-137231289D01*
X133263216Y-137256797D01*
X133260748Y-137258767D01*
X133257965Y-137260247D01*
X133215056Y-137295243D01*
X133171701Y-137329853D01*
X133167309Y-137334184D01*
X133167219Y-137334258D01*
X133167150Y-137334342D01*
X133165736Y-137335736D01*
X133124603Y-137376869D01*
X132975422Y-137314159D01*
X132668055Y-137251065D01*
X132354286Y-137248875D01*
X132046068Y-137307671D01*
X131755140Y-137425213D01*
X131492583Y-137597026D01*
X131268398Y-137816563D01*
X131150000Y-137989479D01*
X131150000Y-134758528D01*
X132548528Y-133360000D01*
X137751618Y-133360000D01*
X137748065Y-133385000D01*
X137748065Y-134135000D01*
X137753145Y-134198698D01*
X137786602Y-134306738D01*
X137848835Y-134401179D01*
X137934914Y-134474543D01*
X138038024Y-134521022D01*
X138150000Y-134536935D01*
X138950000Y-134536935D01*
X139013698Y-134531855D01*
X139121738Y-134498398D01*
X139200000Y-134446826D01*
X139200000Y-135160000D01*
X139170130Y-135160000D01*
X139163398Y-135138262D01*
X139101165Y-135043821D01*
X139015086Y-134970457D01*
X138911976Y-134923978D01*
X138800000Y-134908065D01*
X138300000Y-134908065D01*
X138236302Y-134913145D01*
X138128262Y-134946602D01*
X138033821Y-135008835D01*
X137960457Y-135094914D01*
X137913978Y-135198024D01*
X137898065Y-135310000D01*
X137898065Y-136210000D01*
X137903145Y-136273698D01*
X137936602Y-136381738D01*
X137998835Y-136476179D01*
X138084914Y-136549543D01*
X138188024Y-136596022D01*
X138300000Y-136611935D01*
X138800000Y-136611935D01*
X138863698Y-136606855D01*
X138971738Y-136573398D01*
X139066179Y-136511165D01*
X139139543Y-136425086D01*
X139168882Y-136360000D01*
X139720558Y-136360000D01*
X139745652Y-136423379D01*
X139841263Y-136571738D01*
X139963870Y-136698701D01*
X140108802Y-136799431D01*
X140270539Y-136870093D01*
X140442921Y-136907993D01*
X140619381Y-136911690D01*
X140793199Y-136881041D01*
X140957753Y-136817214D01*
X141106777Y-136722641D01*
X141234592Y-136600924D01*
X141336332Y-136456699D01*
X141408121Y-136295459D01*
X141447224Y-136123346D01*
X141450039Y-135921750D01*
X141415757Y-135748613D01*
X141348498Y-135585431D01*
X141250825Y-135438421D01*
X141126458Y-135313182D01*
X140980133Y-135214485D01*
X140817425Y-135146089D01*
X140644531Y-135110599D01*
X140468036Y-135109367D01*
X140400000Y-135122346D01*
X140400000Y-132444786D01*
X140434914Y-132474543D01*
X140538024Y-132521022D01*
X140650000Y-132536935D01*
X141450000Y-132536935D01*
X141513698Y-132531855D01*
X141621738Y-132498398D01*
X141716179Y-132436165D01*
X141789543Y-132350086D01*
X141836022Y-132246976D01*
X141851935Y-132135000D01*
X141851935Y-131385000D01*
X141846855Y-131321302D01*
X141813398Y-131213262D01*
X141751165Y-131118821D01*
X141665086Y-131045457D01*
X141561976Y-130998978D01*
X141450000Y-130983065D01*
X141450000Y-130680815D01*
X141514543Y-130605086D01*
X141561022Y-130501976D01*
X141576935Y-130390000D01*
X141576935Y-129330000D01*
X142023065Y-129330000D01*
X142023065Y-130390000D01*
X142028145Y-130453698D01*
X142061602Y-130561738D01*
X142123835Y-130656179D01*
X142209914Y-130729543D01*
X142313024Y-130776022D01*
X142425000Y-130791935D01*
X143075000Y-130791935D01*
X143138698Y-130786855D01*
X143246738Y-130753398D01*
X143341179Y-130691165D01*
X143414543Y-130605086D01*
X143461022Y-130501976D01*
X143476935Y-130390000D01*
X143476935Y-129330000D01*
X143471855Y-129266302D01*
X143438398Y-129158262D01*
X143376165Y-129063821D01*
X143290086Y-128990457D01*
X143186976Y-128943978D01*
X143075000Y-128928065D01*
X142425000Y-128928065D01*
X142361302Y-128933145D01*
X142253262Y-128966602D01*
X142158821Y-129028835D01*
X142085457Y-129114914D01*
X142038978Y-129218024D01*
X142023065Y-129330000D01*
X141576935Y-129330000D01*
X141571855Y-129266302D01*
X141538398Y-129158262D01*
X141476165Y-129063821D01*
X141390086Y-128990457D01*
X141286976Y-128943978D01*
X141175000Y-128928065D01*
X140525000Y-128928065D01*
X140461302Y-128933145D01*
X140400000Y-128952129D01*
X140400000Y-128570151D01*
X140413024Y-128576022D01*
X140525000Y-128591935D01*
X141175000Y-128591935D01*
X141238698Y-128586855D01*
X141346738Y-128553398D01*
X141441179Y-128491165D01*
X141514543Y-128405086D01*
X141561022Y-128301976D01*
X141576935Y-128190000D01*
X141576935Y-127130000D01*
X141575340Y-127110000D01*
X142025907Y-127110000D01*
X142023065Y-127130000D01*
G36*
X155456101Y-128921419D02*
X155691169Y-128995987D01*
X155936243Y-129023477D01*
X155953886Y-129023600D01*
X155966114Y-129023600D01*
X156211549Y-128999535D01*
X156318666Y-128967194D01*
X156630000Y-129278528D01*
X156630000Y-130601472D01*
X154819802Y-132411670D01*
X154801302Y-132413145D01*
X154693262Y-132446602D01*
X154598821Y-132508835D01*
X154527925Y-132592018D01*
X154496165Y-132543821D01*
X154495000Y-132542828D01*
X154495000Y-131943528D01*
X155114264Y-131324264D01*
X155149439Y-131281441D01*
X155185068Y-131238980D01*
X155186587Y-131236216D01*
X155188591Y-131233777D01*
X155214789Y-131184918D01*
X155241481Y-131136365D01*
X155242435Y-131133358D01*
X155243926Y-131130577D01*
X155260127Y-131077587D01*
X155276889Y-131024747D01*
X155277241Y-131021610D01*
X155278163Y-131018594D01*
X155283764Y-130963457D01*
X155289942Y-130908377D01*
X155289985Y-130902215D01*
X155289997Y-130902094D01*
X155289986Y-130901981D01*
X155290000Y-130900000D01*
X155290000Y-129030000D01*
X155284591Y-128974830D01*
X155279761Y-128919629D01*
X155278881Y-128916600D01*
X155278573Y-128913459D01*
X155262542Y-128860362D01*
X155247091Y-128807179D01*
X155246609Y-128806250D01*
X155456101Y-128921419D01*
X155456101Y-128921419D01*
G37*
X155456101Y-128921419D02*
X155691169Y-128995987D01*
X155936243Y-129023477D01*
X155953886Y-129023600D01*
X155966114Y-129023600D01*
X156211549Y-128999535D01*
X156318666Y-128967194D01*
X156630000Y-129278528D01*
X156630000Y-130601472D01*
X154819802Y-132411670D01*
X154801302Y-132413145D01*
X154693262Y-132446602D01*
X154598821Y-132508835D01*
X154527925Y-132592018D01*
X154496165Y-132543821D01*
X154495000Y-132542828D01*
X154495000Y-131943528D01*
X155114264Y-131324264D01*
X155149439Y-131281441D01*
X155185068Y-131238980D01*
X155186587Y-131236216D01*
X155188591Y-131233777D01*
X155214789Y-131184918D01*
X155241481Y-131136365D01*
X155242435Y-131133358D01*
X155243926Y-131130577D01*
X155260127Y-131077587D01*
X155276889Y-131024747D01*
X155277241Y-131021610D01*
X155278163Y-131018594D01*
X155283764Y-130963457D01*
X155289942Y-130908377D01*
X155289985Y-130902215D01*
X155289997Y-130902094D01*
X155289986Y-130901981D01*
X155290000Y-130900000D01*
X155290000Y-129030000D01*
X155284591Y-128974830D01*
X155279761Y-128919629D01*
X155278881Y-128916600D01*
X155278573Y-128913459D01*
X155262542Y-128860362D01*
X155247091Y-128807179D01*
X155246609Y-128806250D01*
X155456101Y-128921419D01*
M02*
