G04 #@! TF.FileFunction,Legend,Top*
%FSLAX46Y46*%
G04 Gerber Fmt 4.6, Leading zero omitted, Abs format (unit mm)*
G04 Created by KiCad (PCBNEW 4.0.2+dfsg1-stable) date Fri 07 Oct 2016 10:33:26 BST*
%MOMM*%
G01*
G04 APERTURE LIST*
%ADD10C,0.150000*%
%ADD11C,0.250000*%
%ADD12C,2.000000*%
%ADD13C,2.000000*%
%ADD14O,1.727200X1.727200*%
%ADD15C,2.400000*%
%ADD16R,2.000000X2.000000*%
G04 APERTURE END LIST*
D10*
D11*
X153335713Y-140331429D02*
X153335713Y-141831429D01*
X152764285Y-141831429D01*
X152621427Y-141760000D01*
X152549999Y-141688571D01*
X152478570Y-141545714D01*
X152478570Y-141331429D01*
X152549999Y-141188571D01*
X152621427Y-141117143D01*
X152764285Y-141045714D01*
X153335713Y-141045714D01*
X151835713Y-140331429D02*
X151835713Y-141331429D01*
X151835713Y-141831429D02*
X151907142Y-141760000D01*
X151835713Y-141688571D01*
X151764285Y-141760000D01*
X151835713Y-141831429D01*
X151835713Y-141688571D01*
X151121427Y-140331429D02*
X151121427Y-141831429D01*
X150764284Y-141831429D01*
X150549999Y-141760000D01*
X150407141Y-141617143D01*
X150335713Y-141474286D01*
X150264284Y-141188571D01*
X150264284Y-140974286D01*
X150335713Y-140688571D01*
X150407141Y-140545714D01*
X150549999Y-140402857D01*
X150764284Y-140331429D01*
X151121427Y-140331429D01*
X149407141Y-140331429D02*
X149549999Y-140402857D01*
X149621427Y-140474286D01*
X149692856Y-140617143D01*
X149692856Y-141045714D01*
X149621427Y-141188571D01*
X149549999Y-141260000D01*
X149407141Y-141331429D01*
X149192856Y-141331429D01*
X149049999Y-141260000D01*
X148978570Y-141188571D01*
X148907141Y-141045714D01*
X148907141Y-140617143D01*
X148978570Y-140474286D01*
X149049999Y-140402857D01*
X149192856Y-140331429D01*
X149407141Y-140331429D01*
X148049998Y-140331429D02*
X148192856Y-140402857D01*
X148264284Y-140474286D01*
X148335713Y-140617143D01*
X148335713Y-141045714D01*
X148264284Y-141188571D01*
X148192856Y-141260000D01*
X148049998Y-141331429D01*
X147835713Y-141331429D01*
X147692856Y-141260000D01*
X147621427Y-141188571D01*
X147549998Y-141045714D01*
X147549998Y-140617143D01*
X147621427Y-140474286D01*
X147692856Y-140402857D01*
X147835713Y-140331429D01*
X148049998Y-140331429D01*
X146907141Y-140331429D02*
X146907141Y-141331429D01*
X146907141Y-141045714D02*
X146835713Y-141188571D01*
X146764284Y-141260000D01*
X146621427Y-141331429D01*
X146478570Y-141331429D01*
X144978570Y-141331429D02*
X144621427Y-140331429D01*
X144264285Y-141331429D01*
X143407142Y-141831429D02*
X143264285Y-141831429D01*
X143121428Y-141760000D01*
X143049999Y-141688571D01*
X142978570Y-141545714D01*
X142907142Y-141260000D01*
X142907142Y-140902857D01*
X142978570Y-140617143D01*
X143049999Y-140474286D01*
X143121428Y-140402857D01*
X143264285Y-140331429D01*
X143407142Y-140331429D01*
X143549999Y-140402857D01*
X143621428Y-140474286D01*
X143692856Y-140617143D01*
X143764285Y-140902857D01*
X143764285Y-141260000D01*
X143692856Y-141545714D01*
X143621428Y-141688571D01*
X143549999Y-141760000D01*
X143407142Y-141831429D01*
X142264285Y-140474286D02*
X142192857Y-140402857D01*
X142264285Y-140331429D01*
X142335714Y-140402857D01*
X142264285Y-140474286D01*
X142264285Y-140331429D01*
X141621428Y-141688571D02*
X141549999Y-141760000D01*
X141407142Y-141831429D01*
X141049999Y-141831429D01*
X140907142Y-141760000D01*
X140835713Y-141688571D01*
X140764285Y-141545714D01*
X140764285Y-141402857D01*
X140835713Y-141188571D01*
X141692856Y-140331429D01*
X140764285Y-140331429D01*
X140121428Y-140474286D02*
X140050000Y-140402857D01*
X140121428Y-140331429D01*
X140192857Y-140402857D01*
X140121428Y-140474286D01*
X140121428Y-140331429D01*
X139121428Y-141831429D02*
X138978571Y-141831429D01*
X138835714Y-141760000D01*
X138764285Y-141688571D01*
X138692856Y-141545714D01*
X138621428Y-141260000D01*
X138621428Y-140902857D01*
X138692856Y-140617143D01*
X138764285Y-140474286D01*
X138835714Y-140402857D01*
X138978571Y-140331429D01*
X139121428Y-140331429D01*
X139264285Y-140402857D01*
X139335714Y-140474286D01*
X139407142Y-140617143D01*
X139478571Y-140902857D01*
X139478571Y-141260000D01*
X139407142Y-141545714D01*
X139335714Y-141688571D01*
X139264285Y-141760000D01*
X139121428Y-141831429D01*
X135621428Y-141474286D02*
X135764286Y-141545714D01*
X136050000Y-141545714D01*
X136192857Y-141474286D01*
X136335714Y-141331429D01*
X136407143Y-141188571D01*
X136407143Y-140902857D01*
X136335714Y-140760000D01*
X136192857Y-140617143D01*
X136050000Y-140545714D01*
X135764286Y-140545714D01*
X135621428Y-140617143D01*
X135907143Y-142045714D02*
X136264286Y-141974286D01*
X136621428Y-141760000D01*
X136835714Y-141402857D01*
X136907143Y-141045714D01*
X136835714Y-140688571D01*
X136621428Y-140331429D01*
X136264286Y-140117143D01*
X135907143Y-140045714D01*
X135550000Y-140117143D01*
X135192857Y-140331429D01*
X134978571Y-140688571D01*
X134907143Y-141045714D01*
X134978571Y-141402857D01*
X135192857Y-141760000D01*
X135550000Y-141974286D01*
X135907143Y-142045714D01*
X134335714Y-141688571D02*
X134264285Y-141760000D01*
X134121428Y-141831429D01*
X133764285Y-141831429D01*
X133621428Y-141760000D01*
X133549999Y-141688571D01*
X133478571Y-141545714D01*
X133478571Y-141402857D01*
X133549999Y-141188571D01*
X134407142Y-140331429D01*
X133478571Y-140331429D01*
X132550000Y-141831429D02*
X132407143Y-141831429D01*
X132264286Y-141760000D01*
X132192857Y-141688571D01*
X132121428Y-141545714D01*
X132050000Y-141260000D01*
X132050000Y-140902857D01*
X132121428Y-140617143D01*
X132192857Y-140474286D01*
X132264286Y-140402857D01*
X132407143Y-140331429D01*
X132550000Y-140331429D01*
X132692857Y-140402857D01*
X132764286Y-140474286D01*
X132835714Y-140617143D01*
X132907143Y-140902857D01*
X132907143Y-141260000D01*
X132835714Y-141545714D01*
X132764286Y-141688571D01*
X132692857Y-141760000D01*
X132550000Y-141831429D01*
X130621429Y-140331429D02*
X131478572Y-140331429D01*
X131050000Y-140331429D02*
X131050000Y-141831429D01*
X131192857Y-141617143D01*
X131335715Y-141474286D01*
X131478572Y-141402857D01*
X129335715Y-141831429D02*
X129621429Y-141831429D01*
X129764286Y-141760000D01*
X129835715Y-141688571D01*
X129978572Y-141474286D01*
X130050001Y-141188571D01*
X130050001Y-140617143D01*
X129978572Y-140474286D01*
X129907144Y-140402857D01*
X129764286Y-140331429D01*
X129478572Y-140331429D01*
X129335715Y-140402857D01*
X129264286Y-140474286D01*
X129192858Y-140617143D01*
X129192858Y-140974286D01*
X129264286Y-141117143D01*
X129335715Y-141188571D01*
X129478572Y-141260000D01*
X129764286Y-141260000D01*
X129907144Y-141188571D01*
X129978572Y-141117143D01*
X130050001Y-140974286D01*
X129121429Y-135510000D02*
X130621429Y-135510000D01*
X129121429Y-136224286D02*
X130621429Y-136224286D01*
X129121429Y-137081429D01*
X130621429Y-137081429D01*
X130478571Y-137724286D02*
X130550000Y-137795715D01*
X130621429Y-137938572D01*
X130621429Y-138295715D01*
X130550000Y-138438572D01*
X130478571Y-138510001D01*
X130335714Y-138581429D01*
X130192857Y-138581429D01*
X129978571Y-138510001D01*
X129121429Y-137652858D01*
X129121429Y-138581429D01*
X129121429Y-127510000D02*
X130621429Y-127510000D01*
X129121429Y-128224286D02*
X130621429Y-128224286D01*
X129121429Y-129081429D01*
X130621429Y-129081429D01*
X129121429Y-130581429D02*
X129121429Y-129724286D01*
X129121429Y-130152858D02*
X130621429Y-130152858D01*
X130407143Y-130010001D01*
X130264286Y-129867143D01*
X130192857Y-129724286D01*
X129121429Y-119260000D02*
X130621429Y-119260000D01*
X129121429Y-119974286D02*
X130621429Y-119974286D01*
X129121429Y-120831429D01*
X130621429Y-120831429D01*
X130621429Y-121831429D02*
X130621429Y-121974286D01*
X130550000Y-122117143D01*
X130478571Y-122188572D01*
X130335714Y-122260001D01*
X130050000Y-122331429D01*
X129692857Y-122331429D01*
X129407143Y-122260001D01*
X129264286Y-122188572D01*
X129192857Y-122117143D01*
X129121429Y-121974286D01*
X129121429Y-121831429D01*
X129192857Y-121688572D01*
X129264286Y-121617143D01*
X129407143Y-121545715D01*
X129692857Y-121474286D01*
X130050000Y-121474286D01*
X130335714Y-121545715D01*
X130478571Y-121617143D01*
X130550000Y-121688572D01*
X130621429Y-121831429D01*
X137871428Y-116652857D02*
X136728571Y-116652857D01*
X137300000Y-116081429D02*
X137300000Y-117224286D01*
X166192857Y-116081429D02*
X166192857Y-117581429D01*
X165692857Y-116510000D01*
X165192857Y-117581429D01*
X165192857Y-116081429D01*
X164550000Y-116510000D02*
X163835714Y-116510000D01*
X164692857Y-116081429D02*
X164192857Y-117581429D01*
X163692857Y-116081429D01*
X162407143Y-117510000D02*
X162550000Y-117581429D01*
X162764286Y-117581429D01*
X162978571Y-117510000D01*
X163121429Y-117367143D01*
X163192857Y-117224286D01*
X163264286Y-116938571D01*
X163264286Y-116724286D01*
X163192857Y-116438571D01*
X163121429Y-116295714D01*
X162978571Y-116152857D01*
X162764286Y-116081429D01*
X162621429Y-116081429D01*
X162407143Y-116152857D01*
X162335714Y-116224286D01*
X162335714Y-116724286D01*
X162621429Y-116724286D01*
X152407143Y-116867143D02*
X151907143Y-116867143D01*
X151692857Y-116081429D02*
X152407143Y-116081429D01*
X152407143Y-117581429D01*
X151692857Y-117581429D01*
X151050000Y-116081429D02*
X151050000Y-117581429D01*
X150192857Y-116081429D01*
X150192857Y-117581429D01*
X148407142Y-116867143D02*
X148192856Y-116795714D01*
X148121428Y-116724286D01*
X148049999Y-116581429D01*
X148049999Y-116367143D01*
X148121428Y-116224286D01*
X148192856Y-116152857D01*
X148335714Y-116081429D01*
X148907142Y-116081429D01*
X148907142Y-117581429D01*
X148407142Y-117581429D01*
X148264285Y-117510000D01*
X148192856Y-117438571D01*
X148121428Y-117295714D01*
X148121428Y-117152857D01*
X148192856Y-117010000D01*
X148264285Y-116938571D01*
X148407142Y-116867143D01*
X148907142Y-116867143D01*
X147549999Y-117581429D02*
X146549999Y-117581429D01*
X147549999Y-116081429D01*
X146549999Y-116081429D01*
X144549999Y-116081429D02*
X145049999Y-116795714D01*
X145407142Y-116081429D02*
X145407142Y-117581429D01*
X144835714Y-117581429D01*
X144692856Y-117510000D01*
X144621428Y-117438571D01*
X144549999Y-117295714D01*
X144549999Y-117081429D01*
X144621428Y-116938571D01*
X144692856Y-116867143D01*
X144835714Y-116795714D01*
X145407142Y-116795714D01*
X144049999Y-117581429D02*
X143049999Y-116081429D01*
X143049999Y-117581429D02*
X144049999Y-116081429D01*
X141442857Y-117581429D02*
X140585714Y-117581429D01*
X141014285Y-116081429D02*
X141014285Y-117581429D01*
X140228571Y-117581429D02*
X139228571Y-116081429D01*
X139228571Y-117581429D02*
X140228571Y-116081429D01*
X159228571Y-116867143D02*
X158728571Y-116867143D01*
X158514285Y-116081429D02*
X159228571Y-116081429D01*
X159228571Y-117581429D01*
X158514285Y-117581429D01*
X157871428Y-116081429D02*
X157871428Y-117581429D01*
X157371428Y-116510000D01*
X156871428Y-117581429D01*
X156871428Y-116081429D01*
X155371428Y-117510000D02*
X155514285Y-117581429D01*
X155728571Y-117581429D01*
X155942856Y-117510000D01*
X156085714Y-117367143D01*
X156157142Y-117224286D01*
X156228571Y-116938571D01*
X156228571Y-116724286D01*
X156157142Y-116438571D01*
X156085714Y-116295714D01*
X155942856Y-116152857D01*
X155728571Y-116081429D01*
X155585714Y-116081429D01*
X155371428Y-116152857D01*
X155299999Y-116224286D01*
X155299999Y-116724286D01*
X155585714Y-116724286D01*
X175942857Y-117510000D02*
X176085714Y-117581429D01*
X176300000Y-117581429D01*
X176514285Y-117510000D01*
X176657143Y-117367143D01*
X176728571Y-117224286D01*
X176800000Y-116938571D01*
X176800000Y-116724286D01*
X176728571Y-116438571D01*
X176657143Y-116295714D01*
X176514285Y-116152857D01*
X176300000Y-116081429D01*
X176157143Y-116081429D01*
X175942857Y-116152857D01*
X175871428Y-116224286D01*
X175871428Y-116724286D01*
X176157143Y-116724286D01*
X175228571Y-116081429D02*
X175228571Y-117581429D01*
X174371428Y-116081429D01*
X174371428Y-117581429D01*
X173657142Y-116081429D02*
X173657142Y-117581429D01*
X173299999Y-117581429D01*
X173085714Y-117510000D01*
X172942856Y-117367143D01*
X172871428Y-117224286D01*
X172799999Y-116938571D01*
X172799999Y-116724286D01*
X172871428Y-116438571D01*
X172942856Y-116295714D01*
X173085714Y-116152857D01*
X173299999Y-116081429D01*
X173657142Y-116081429D01*
X171371428Y-116867143D02*
X170228571Y-116867143D01*
X170800000Y-117438571D02*
X170800000Y-116295714D01*
X154050000Y-124188571D02*
X154050000Y-125260000D01*
X153978572Y-125474286D01*
X153835715Y-125617143D01*
X153621429Y-125688571D01*
X153478572Y-125688571D01*
X154764286Y-125688571D02*
X154764286Y-124188571D01*
X155335714Y-124188571D01*
X155478572Y-124260000D01*
X155550000Y-124331429D01*
X155621429Y-124474286D01*
X155621429Y-124688571D01*
X155550000Y-124831429D01*
X155478572Y-124902857D01*
X155335714Y-124974286D01*
X154764286Y-124974286D01*
X157050000Y-125688571D02*
X156192857Y-125688571D01*
X156621429Y-125688571D02*
X156621429Y-124188571D01*
X156478572Y-124402857D01*
X156335714Y-124545714D01*
X156192857Y-124617143D01*
X160050000Y-124188571D02*
X160050000Y-125260000D01*
X159978572Y-125474286D01*
X159835715Y-125617143D01*
X159621429Y-125688571D01*
X159478572Y-125688571D01*
X160764286Y-125688571D02*
X160764286Y-124188571D01*
X161335714Y-124188571D01*
X161478572Y-124260000D01*
X161550000Y-124331429D01*
X161621429Y-124474286D01*
X161621429Y-124688571D01*
X161550000Y-124831429D01*
X161478572Y-124902857D01*
X161335714Y-124974286D01*
X160764286Y-124974286D01*
X162192857Y-124331429D02*
X162264286Y-124260000D01*
X162407143Y-124188571D01*
X162764286Y-124188571D01*
X162907143Y-124260000D01*
X162978572Y-124331429D01*
X163050000Y-124474286D01*
X163050000Y-124617143D01*
X162978572Y-124831429D01*
X162121429Y-125688571D01*
X163050000Y-125688571D01*
%LPC*%
D12*
X154300000Y-122760000D02*
X156300000Y-122760000D01*
X160800000Y-122760000D02*
X162800000Y-122760000D01*
D13*
X174110000Y-138800000D03*
X174110000Y-133720000D03*
X166490000Y-138800000D03*
X169030000Y-133720000D03*
D14*
X145800000Y-130300000D03*
X145800000Y-127760000D03*
X148340000Y-130300000D03*
X148340000Y-127760000D03*
X150880000Y-130300000D03*
X150880000Y-127760000D03*
X153420000Y-130300000D03*
X153420000Y-127760000D03*
X155960000Y-130300000D03*
X155960000Y-127760000D03*
X158500000Y-130300000D03*
X158500000Y-127760000D03*
X161040000Y-130300000D03*
X161040000Y-127760000D03*
X163580000Y-130300000D03*
X163580000Y-127760000D03*
X166120000Y-130300000D03*
X166120000Y-127760000D03*
X168660000Y-130300000D03*
X168660000Y-127760000D03*
X171200000Y-130300000D03*
X171200000Y-127760000D03*
X173740000Y-130300000D03*
X173740000Y-127760000D03*
X176280000Y-130300000D03*
X176280000Y-127760000D03*
D15*
X174250000Y-119500000D03*
X170750000Y-119500000D03*
X132500000Y-135350000D03*
X132500000Y-138850000D03*
X132500000Y-127250000D03*
X132500000Y-130750000D03*
X132500000Y-119150000D03*
X132500000Y-122650000D03*
X137000000Y-119500000D03*
X151000000Y-119500000D03*
X140500000Y-119500000D03*
X147500000Y-119500000D03*
X144000000Y-119500000D03*
X166300000Y-119500000D03*
X155500000Y-119500000D03*
X162650000Y-119500000D03*
X159150000Y-119500000D03*
D16*
X154050000Y-122760000D03*
X156550000Y-122760000D03*
X160550000Y-122760000D03*
X163050000Y-122760000D03*
M02*
