G04 #@! TF.FileFunction,Soldermask,Top*
%FSLAX46Y46*%
G04 Gerber Fmt 4.6, Leading zero omitted, Abs format (unit mm)*
G04 Created by KiCad (PCBNEW 4.0.2+dfsg1-stable) date Thu 06 Oct 2016 17:54:39 BST*
%MOMM*%
G01*
G04 APERTURE LIST*
%ADD10C,0.150000*%
%ADD11C,2.000000*%
%ADD12O,1.727200X1.727200*%
%ADD13C,2.400000*%
%ADD14R,2.000000X2.000000*%
%ADD15C,2.000000*%
G04 APERTURE END LIST*
D10*
D11*
X154300000Y-122760000D02*
X156300000Y-122760000D01*
X160800000Y-122760000D02*
X162800000Y-122760000D01*
D12*
X145800000Y-130300000D03*
X145800000Y-127760000D03*
X148340000Y-130300000D03*
X148340000Y-127760000D03*
X150880000Y-130300000D03*
X150880000Y-127760000D03*
X153420000Y-130300000D03*
X153420000Y-127760000D03*
X155960000Y-130300000D03*
X155960000Y-127760000D03*
X158500000Y-130300000D03*
X158500000Y-127760000D03*
X161040000Y-130300000D03*
X161040000Y-127760000D03*
X163580000Y-130300000D03*
X163580000Y-127760000D03*
X166120000Y-130300000D03*
X166120000Y-127760000D03*
X168660000Y-130300000D03*
X168660000Y-127760000D03*
X171200000Y-130300000D03*
X171200000Y-127760000D03*
X173740000Y-130300000D03*
X173740000Y-127760000D03*
X176280000Y-130300000D03*
X176280000Y-127760000D03*
D13*
X174250000Y-119500000D03*
X170750000Y-119500000D03*
X132500000Y-135350000D03*
X132500000Y-138850000D03*
X132500000Y-127250000D03*
X132500000Y-130750000D03*
X132500000Y-119150000D03*
X132500000Y-122650000D03*
X137000000Y-119500000D03*
X151000000Y-119500000D03*
X140500000Y-119500000D03*
X147500000Y-119500000D03*
X144000000Y-119500000D03*
X166300000Y-119500000D03*
X155500000Y-119500000D03*
X162650000Y-119500000D03*
X159150000Y-119500000D03*
D14*
X154050000Y-122760000D03*
X156550000Y-122760000D03*
X160550000Y-122760000D03*
X163050000Y-122760000D03*
D15*
X174110000Y-139800000D03*
X174110000Y-134720000D03*
X166490000Y-139800000D03*
X169030000Y-134720000D03*
M02*
