G04 #@! TF.FileFunction,Paste,Bot*
%FSLAX46Y46*%
G04 Gerber Fmt 4.6, Leading zero omitted, Abs format (unit mm)*
G04 Created by KiCad (PCBNEW 4.0.2+dfsg1-stable) date Thu 06 Oct 2016 17:54:39 BST*
%MOMM*%
G01*
G04 APERTURE LIST*
%ADD10C,0.150000*%
%ADD11R,0.900000X0.500000*%
%ADD12R,0.750000X0.800000*%
%ADD13R,0.800000X0.750000*%
%ADD14R,0.800100X0.800100*%
%ADD15R,0.500000X0.900000*%
%ADD16R,0.600000X1.500000*%
%ADD17R,0.650000X1.060000*%
%ADD18R,2.499360X1.800860*%
G04 APERTURE END LIST*
D10*
D11*
X162300000Y-123010000D03*
X162300000Y-124510000D03*
D12*
X143050000Y-125260000D03*
X143050000Y-123760000D03*
D13*
X141050000Y-131760000D03*
X142550000Y-131760000D03*
X138550000Y-127760000D03*
X137050000Y-127760000D03*
X138550000Y-133760000D03*
X137050000Y-133760000D03*
X138550000Y-139760000D03*
X137050000Y-139760000D03*
D12*
X162300000Y-135010000D03*
X162300000Y-133510000D03*
D13*
X160050000Y-141260000D03*
X158550000Y-141260000D03*
D12*
X162300000Y-139010000D03*
X162300000Y-137510000D03*
D13*
X156550000Y-141260000D03*
X155050000Y-141260000D03*
X151550000Y-141260000D03*
X153050000Y-141260000D03*
D14*
X153000000Y-125510760D03*
X151100000Y-125510760D03*
X152050000Y-123511780D03*
X147250000Y-125510760D03*
X145350000Y-125510760D03*
X146300000Y-123511780D03*
X166250000Y-125510760D03*
X164350000Y-125510760D03*
X165300000Y-123511780D03*
D15*
X138550000Y-123760000D03*
X137050000Y-123760000D03*
X138550000Y-129760000D03*
X137050000Y-129760000D03*
X138550000Y-135760000D03*
X137050000Y-135760000D03*
X138550000Y-125760000D03*
X137050000Y-125760000D03*
X138550000Y-131760000D03*
X137050000Y-131760000D03*
X138550000Y-137760000D03*
X137050000Y-137760000D03*
D11*
X155050000Y-125510000D03*
X155050000Y-124010000D03*
X149050000Y-125510000D03*
X149050000Y-124010000D03*
X168300000Y-125510000D03*
X168300000Y-124010000D03*
D16*
X160245000Y-138960000D03*
X158975000Y-138960000D03*
X157705000Y-138960000D03*
X156435000Y-138960000D03*
X155165000Y-138960000D03*
X153895000Y-138960000D03*
X152625000Y-138960000D03*
X151355000Y-138960000D03*
X151355000Y-133560000D03*
X152625000Y-133560000D03*
X153895000Y-133560000D03*
X155165000Y-133560000D03*
X156435000Y-133560000D03*
X157705000Y-133560000D03*
X158975000Y-133560000D03*
X160245000Y-133560000D03*
D17*
X140850000Y-127660000D03*
X141800000Y-127660000D03*
X142750000Y-127660000D03*
X142750000Y-129860000D03*
X140850000Y-129860000D03*
D18*
X172298980Y-138260000D03*
X168301020Y-138260000D03*
M02*
