G04 #@! TF.FileFunction,Legend,Top*
%FSLAX46Y46*%
G04 Gerber Fmt 4.6, Leading zero omitted, Abs format (unit mm)*
G04 Created by KiCad (PCBNEW 4.0.2+dfsg1-stable) date Thu 29 Sep 2016 13:26:16 BST*
%MOMM*%
G01*
G04 APERTURE LIST*
%ADD10C,0.150000*%
%ADD11C,0.250000*%
%ADD12O,1.727200X1.727200*%
%ADD13C,2.400000*%
G04 APERTURE END LIST*
D10*
D11*
X129121429Y-135510000D02*
X130621429Y-135510000D01*
X129121429Y-136224286D02*
X130621429Y-136224286D01*
X129121429Y-137081429D01*
X130621429Y-137081429D01*
X130478571Y-137724286D02*
X130550000Y-137795715D01*
X130621429Y-137938572D01*
X130621429Y-138295715D01*
X130550000Y-138438572D01*
X130478571Y-138510001D01*
X130335714Y-138581429D01*
X130192857Y-138581429D01*
X129978571Y-138510001D01*
X129121429Y-137652858D01*
X129121429Y-138581429D01*
X129121429Y-127510000D02*
X130621429Y-127510000D01*
X129121429Y-128224286D02*
X130621429Y-128224286D01*
X129121429Y-129081429D01*
X130621429Y-129081429D01*
X129121429Y-130581429D02*
X129121429Y-129724286D01*
X129121429Y-130152858D02*
X130621429Y-130152858D01*
X130407143Y-130010001D01*
X130264286Y-129867143D01*
X130192857Y-129724286D01*
X129121429Y-119260000D02*
X130621429Y-119260000D01*
X129121429Y-119974286D02*
X130621429Y-119974286D01*
X129121429Y-120831429D01*
X130621429Y-120831429D01*
X130621429Y-121831429D02*
X130621429Y-121974286D01*
X130550000Y-122117143D01*
X130478571Y-122188572D01*
X130335714Y-122260001D01*
X130050000Y-122331429D01*
X129692857Y-122331429D01*
X129407143Y-122260001D01*
X129264286Y-122188572D01*
X129192857Y-122117143D01*
X129121429Y-121974286D01*
X129121429Y-121831429D01*
X129192857Y-121688572D01*
X129264286Y-121617143D01*
X129407143Y-121545715D01*
X129692857Y-121474286D01*
X130050000Y-121474286D01*
X130335714Y-121545715D01*
X130478571Y-121617143D01*
X130550000Y-121688572D01*
X130621429Y-121831429D01*
X137871428Y-116652857D02*
X136728571Y-116652857D01*
X137300000Y-116081429D02*
X137300000Y-117224286D01*
X166192857Y-116081429D02*
X166192857Y-117581429D01*
X165692857Y-116510000D01*
X165192857Y-117581429D01*
X165192857Y-116081429D01*
X164550000Y-116510000D02*
X163835714Y-116510000D01*
X164692857Y-116081429D02*
X164192857Y-117581429D01*
X163692857Y-116081429D01*
X162407143Y-117510000D02*
X162550000Y-117581429D01*
X162764286Y-117581429D01*
X162978571Y-117510000D01*
X163121429Y-117367143D01*
X163192857Y-117224286D01*
X163264286Y-116938571D01*
X163264286Y-116724286D01*
X163192857Y-116438571D01*
X163121429Y-116295714D01*
X162978571Y-116152857D01*
X162764286Y-116081429D01*
X162621429Y-116081429D01*
X162407143Y-116152857D01*
X162335714Y-116224286D01*
X162335714Y-116724286D01*
X162621429Y-116724286D01*
X152407143Y-116867143D02*
X151907143Y-116867143D01*
X151692857Y-116081429D02*
X152407143Y-116081429D01*
X152407143Y-117581429D01*
X151692857Y-117581429D01*
X151050000Y-116081429D02*
X151050000Y-117581429D01*
X150192857Y-116081429D01*
X150192857Y-117581429D01*
X148407142Y-116867143D02*
X148192856Y-116795714D01*
X148121428Y-116724286D01*
X148049999Y-116581429D01*
X148049999Y-116367143D01*
X148121428Y-116224286D01*
X148192856Y-116152857D01*
X148335714Y-116081429D01*
X148907142Y-116081429D01*
X148907142Y-117581429D01*
X148407142Y-117581429D01*
X148264285Y-117510000D01*
X148192856Y-117438571D01*
X148121428Y-117295714D01*
X148121428Y-117152857D01*
X148192856Y-117010000D01*
X148264285Y-116938571D01*
X148407142Y-116867143D01*
X148907142Y-116867143D01*
X147549999Y-117581429D02*
X146549999Y-117581429D01*
X147549999Y-116081429D01*
X146549999Y-116081429D01*
X144549999Y-116081429D02*
X145049999Y-116795714D01*
X145407142Y-116081429D02*
X145407142Y-117581429D01*
X144835714Y-117581429D01*
X144692856Y-117510000D01*
X144621428Y-117438571D01*
X144549999Y-117295714D01*
X144549999Y-117081429D01*
X144621428Y-116938571D01*
X144692856Y-116867143D01*
X144835714Y-116795714D01*
X145407142Y-116795714D01*
X144049999Y-117581429D02*
X143049999Y-116081429D01*
X143049999Y-117581429D02*
X144049999Y-116081429D01*
X141442857Y-117581429D02*
X140585714Y-117581429D01*
X141014285Y-116081429D02*
X141014285Y-117581429D01*
X140228571Y-117581429D02*
X139228571Y-116081429D01*
X139228571Y-117581429D02*
X140228571Y-116081429D01*
X159228571Y-116867143D02*
X158728571Y-116867143D01*
X158514285Y-116081429D02*
X159228571Y-116081429D01*
X159228571Y-117581429D01*
X158514285Y-117581429D01*
X157871428Y-116081429D02*
X157871428Y-117581429D01*
X157371428Y-116510000D01*
X156871428Y-117581429D01*
X156871428Y-116081429D01*
X155371428Y-117510000D02*
X155514285Y-117581429D01*
X155728571Y-117581429D01*
X155942856Y-117510000D01*
X156085714Y-117367143D01*
X156157142Y-117224286D01*
X156228571Y-116938571D01*
X156228571Y-116724286D01*
X156157142Y-116438571D01*
X156085714Y-116295714D01*
X155942856Y-116152857D01*
X155728571Y-116081429D01*
X155585714Y-116081429D01*
X155371428Y-116152857D01*
X155299999Y-116224286D01*
X155299999Y-116724286D01*
X155585714Y-116724286D01*
X175942857Y-117510000D02*
X176085714Y-117581429D01*
X176300000Y-117581429D01*
X176514285Y-117510000D01*
X176657143Y-117367143D01*
X176728571Y-117224286D01*
X176800000Y-116938571D01*
X176800000Y-116724286D01*
X176728571Y-116438571D01*
X176657143Y-116295714D01*
X176514285Y-116152857D01*
X176300000Y-116081429D01*
X176157143Y-116081429D01*
X175942857Y-116152857D01*
X175871428Y-116224286D01*
X175871428Y-116724286D01*
X176157143Y-116724286D01*
X175228571Y-116081429D02*
X175228571Y-117581429D01*
X174371428Y-116081429D01*
X174371428Y-117581429D01*
X173657142Y-116081429D02*
X173657142Y-117581429D01*
X173299999Y-117581429D01*
X173085714Y-117510000D01*
X172942856Y-117367143D01*
X172871428Y-117224286D01*
X172799999Y-116938571D01*
X172799999Y-116724286D01*
X172871428Y-116438571D01*
X172942856Y-116295714D01*
X173085714Y-116152857D01*
X173299999Y-116081429D01*
X173657142Y-116081429D01*
X171371428Y-116867143D02*
X170228571Y-116867143D01*
X170800000Y-117438571D02*
X170800000Y-116295714D01*
%LPC*%
D12*
X145800000Y-130300000D03*
X145800000Y-127760000D03*
X148340000Y-130300000D03*
X148340000Y-127760000D03*
X150880000Y-130300000D03*
X150880000Y-127760000D03*
X153420000Y-130300000D03*
X153420000Y-127760000D03*
X155960000Y-130300000D03*
X155960000Y-127760000D03*
X158500000Y-130300000D03*
X158500000Y-127760000D03*
X161040000Y-130300000D03*
X161040000Y-127760000D03*
X163580000Y-130300000D03*
X163580000Y-127760000D03*
X166120000Y-130300000D03*
X166120000Y-127760000D03*
X168660000Y-130300000D03*
X168660000Y-127760000D03*
X171200000Y-130300000D03*
X171200000Y-127760000D03*
X173740000Y-130300000D03*
X173740000Y-127760000D03*
X176280000Y-130300000D03*
X176280000Y-127760000D03*
D13*
X174250000Y-119500000D03*
X170750000Y-119500000D03*
X132500000Y-135350000D03*
X132500000Y-138850000D03*
X132500000Y-127250000D03*
X132500000Y-130750000D03*
X132500000Y-119150000D03*
X132500000Y-122650000D03*
X137000000Y-119500000D03*
X151000000Y-119500000D03*
X140500000Y-119500000D03*
X147500000Y-119500000D03*
X144000000Y-119500000D03*
X166300000Y-119500000D03*
X155500000Y-119500000D03*
X162650000Y-119500000D03*
X159150000Y-119500000D03*
M02*
