G04 #@! TF.FileFunction,Copper,L1,Top,Signal*
%FSLAX46Y46*%
G04 Gerber Fmt 4.6, Leading zero omitted, Abs format (unit mm)*
G04 Created by KiCad (PCBNEW 4.0.2+dfsg1-stable) date Thu 29 Sep 2016 13:26:16 BST*
%MOMM*%
G01*
G04 APERTURE LIST*
%ADD10C,0.150000*%
%ADD11O,1.727200X1.727200*%
%ADD12C,2.400000*%
%ADD13C,0.900000*%
%ADD14C,1.000000*%
%ADD15C,0.400000*%
G04 APERTURE END LIST*
D10*
D11*
X145800000Y-130300000D03*
X145800000Y-127760000D03*
X148340000Y-130300000D03*
X148340000Y-127760000D03*
X150880000Y-130300000D03*
X150880000Y-127760000D03*
X153420000Y-130300000D03*
X153420000Y-127760000D03*
X155960000Y-130300000D03*
X155960000Y-127760000D03*
X158500000Y-130300000D03*
X158500000Y-127760000D03*
X161040000Y-130300000D03*
X161040000Y-127760000D03*
X163580000Y-130300000D03*
X163580000Y-127760000D03*
X166120000Y-130300000D03*
X166120000Y-127760000D03*
X168660000Y-130300000D03*
X168660000Y-127760000D03*
X171200000Y-130300000D03*
X171200000Y-127760000D03*
X173740000Y-130300000D03*
X173740000Y-127760000D03*
X176280000Y-130300000D03*
X176280000Y-127760000D03*
D12*
X174250000Y-119500000D03*
X170750000Y-119500000D03*
X132500000Y-135350000D03*
X132500000Y-138850000D03*
X132500000Y-127250000D03*
X132500000Y-130750000D03*
X132500000Y-119150000D03*
X132500000Y-122650000D03*
X137000000Y-119500000D03*
X151000000Y-119500000D03*
X140500000Y-119500000D03*
X147500000Y-119500000D03*
X144000000Y-119500000D03*
X166300000Y-119500000D03*
X155500000Y-119500000D03*
X162650000Y-119500000D03*
X159150000Y-119500000D03*
D13*
X162290000Y-138940000D03*
D14*
X148340000Y-127760000D02*
X145800000Y-127760000D01*
X155500000Y-119500000D02*
X155500000Y-116760000D01*
X155500000Y-116760000D02*
X155300000Y-116760000D01*
X170750000Y-119500000D02*
X168010000Y-116760000D01*
X168010000Y-116760000D02*
X155300000Y-116760000D01*
X155300000Y-116760000D02*
X138300000Y-116760000D01*
X138300000Y-116760000D02*
X137000000Y-118060000D01*
X137000000Y-118060000D02*
X137000000Y-119500000D01*
D15*
X162650000Y-119500000D02*
X162310000Y-119840000D01*
X162310000Y-119840000D02*
X162310000Y-138920000D01*
X162310000Y-138920000D02*
X162290000Y-138940000D01*
D14*
X162650000Y-119500000D02*
X159150000Y-119500000D01*
D15*
G36*
X176966725Y-115373225D02*
X177362396Y-115637604D01*
X177626775Y-116033275D01*
X177725000Y-116527086D01*
X177725000Y-141472914D01*
X177626775Y-141966725D01*
X177362396Y-142362396D01*
X176966725Y-142626775D01*
X176472914Y-142725000D01*
X129527086Y-142725000D01*
X129033275Y-142626775D01*
X128637604Y-142362396D01*
X128373225Y-141966725D01*
X128275000Y-141472914D01*
X128275000Y-139166863D01*
X130899723Y-139166863D01*
X131142795Y-139755143D01*
X131592489Y-140205623D01*
X132180344Y-140449722D01*
X132816863Y-140450277D01*
X133405143Y-140207205D01*
X133855623Y-139757511D01*
X134099722Y-139169656D01*
X134100277Y-138533137D01*
X133857205Y-137944857D01*
X133407511Y-137494377D01*
X132819656Y-137250278D01*
X132183137Y-137249723D01*
X131594857Y-137492795D01*
X131144377Y-137942489D01*
X130900278Y-138530344D01*
X130899723Y-139166863D01*
X128275000Y-139166863D01*
X128275000Y-131066863D01*
X130899723Y-131066863D01*
X131142795Y-131655143D01*
X131592489Y-132105623D01*
X132180344Y-132349722D01*
X132816863Y-132350277D01*
X133405143Y-132107205D01*
X133855623Y-131657511D01*
X134099722Y-131069656D01*
X134100277Y-130433137D01*
X134045266Y-130300000D01*
X144511645Y-130300000D01*
X144607831Y-130783559D01*
X144881745Y-131193500D01*
X145291686Y-131467414D01*
X145775245Y-131563600D01*
X145824755Y-131563600D01*
X146308314Y-131467414D01*
X146718255Y-131193500D01*
X146992169Y-130783559D01*
X147070000Y-130392277D01*
X147147831Y-130783559D01*
X147421745Y-131193500D01*
X147831686Y-131467414D01*
X148315245Y-131563600D01*
X148364755Y-131563600D01*
X148848314Y-131467414D01*
X149258255Y-131193500D01*
X149532169Y-130783559D01*
X149610000Y-130392277D01*
X149687831Y-130783559D01*
X149961745Y-131193500D01*
X150371686Y-131467414D01*
X150855245Y-131563600D01*
X150904755Y-131563600D01*
X151388314Y-131467414D01*
X151798255Y-131193500D01*
X152072169Y-130783559D01*
X152150000Y-130392277D01*
X152227831Y-130783559D01*
X152501745Y-131193500D01*
X152911686Y-131467414D01*
X153395245Y-131563600D01*
X153444755Y-131563600D01*
X153928314Y-131467414D01*
X154338255Y-131193500D01*
X154612169Y-130783559D01*
X154708355Y-130300000D01*
X157211645Y-130300000D01*
X157307831Y-130783559D01*
X157581745Y-131193500D01*
X157991686Y-131467414D01*
X158475245Y-131563600D01*
X158524755Y-131563600D01*
X159008314Y-131467414D01*
X159418255Y-131193500D01*
X159692169Y-130783559D01*
X159770000Y-130392277D01*
X159847831Y-130783559D01*
X160121745Y-131193500D01*
X160531686Y-131467414D01*
X161015245Y-131563600D01*
X161064755Y-131563600D01*
X161548314Y-131467414D01*
X161710000Y-131359379D01*
X161710000Y-138317955D01*
X161569826Y-138457885D01*
X161440148Y-138770183D01*
X161439853Y-139108334D01*
X161568985Y-139420857D01*
X161807885Y-139660174D01*
X162120183Y-139789852D01*
X162458334Y-139790147D01*
X162770857Y-139661015D01*
X163010174Y-139422115D01*
X163139852Y-139109817D01*
X163140147Y-138771666D01*
X163011015Y-138459143D01*
X162910000Y-138357952D01*
X162910000Y-131359379D01*
X163071686Y-131467414D01*
X163555245Y-131563600D01*
X163604755Y-131563600D01*
X164088314Y-131467414D01*
X164498255Y-131193500D01*
X164772169Y-130783559D01*
X164850000Y-130392277D01*
X164927831Y-130783559D01*
X165201745Y-131193500D01*
X165611686Y-131467414D01*
X166095245Y-131563600D01*
X166144755Y-131563600D01*
X166628314Y-131467414D01*
X167038255Y-131193500D01*
X167312169Y-130783559D01*
X167390000Y-130392277D01*
X167467831Y-130783559D01*
X167741745Y-131193500D01*
X168151686Y-131467414D01*
X168635245Y-131563600D01*
X168684755Y-131563600D01*
X169168314Y-131467414D01*
X169578255Y-131193500D01*
X169852169Y-130783559D01*
X169930000Y-130392277D01*
X170007831Y-130783559D01*
X170281745Y-131193500D01*
X170691686Y-131467414D01*
X171175245Y-131563600D01*
X171224755Y-131563600D01*
X171708314Y-131467414D01*
X172118255Y-131193500D01*
X172392169Y-130783559D01*
X172470000Y-130392277D01*
X172547831Y-130783559D01*
X172821745Y-131193500D01*
X173231686Y-131467414D01*
X173715245Y-131563600D01*
X173764755Y-131563600D01*
X174248314Y-131467414D01*
X174658255Y-131193500D01*
X174932169Y-130783559D01*
X175028355Y-130300000D01*
X174932169Y-129816441D01*
X174658255Y-129406500D01*
X174248314Y-129132586D01*
X173764755Y-129036400D01*
X173715245Y-129036400D01*
X173231686Y-129132586D01*
X172821745Y-129406500D01*
X172547831Y-129816441D01*
X172470000Y-130207723D01*
X172392169Y-129816441D01*
X172118255Y-129406500D01*
X171708314Y-129132586D01*
X171224755Y-129036400D01*
X171175245Y-129036400D01*
X170691686Y-129132586D01*
X170281745Y-129406500D01*
X170007831Y-129816441D01*
X169930000Y-130207723D01*
X169852169Y-129816441D01*
X169578255Y-129406500D01*
X169168314Y-129132586D01*
X168684755Y-129036400D01*
X168635245Y-129036400D01*
X168151686Y-129132586D01*
X167741745Y-129406500D01*
X167467831Y-129816441D01*
X167390000Y-130207723D01*
X167312169Y-129816441D01*
X167038255Y-129406500D01*
X166628314Y-129132586D01*
X166144755Y-129036400D01*
X166095245Y-129036400D01*
X165611686Y-129132586D01*
X165201745Y-129406500D01*
X164927831Y-129816441D01*
X164850000Y-130207723D01*
X164772169Y-129816441D01*
X164498255Y-129406500D01*
X164088314Y-129132586D01*
X163604755Y-129036400D01*
X163555245Y-129036400D01*
X163071686Y-129132586D01*
X162910000Y-129240621D01*
X162910000Y-128819379D01*
X163071686Y-128927414D01*
X163555245Y-129023600D01*
X163604755Y-129023600D01*
X164088314Y-128927414D01*
X164498255Y-128653500D01*
X164772169Y-128243559D01*
X164850000Y-127852277D01*
X164927831Y-128243559D01*
X165201745Y-128653500D01*
X165611686Y-128927414D01*
X166095245Y-129023600D01*
X166144755Y-129023600D01*
X166628314Y-128927414D01*
X167038255Y-128653500D01*
X167312169Y-128243559D01*
X167408355Y-127760000D01*
X169911645Y-127760000D01*
X170007831Y-128243559D01*
X170281745Y-128653500D01*
X170691686Y-128927414D01*
X171175245Y-129023600D01*
X171224755Y-129023600D01*
X171708314Y-128927414D01*
X172118255Y-128653500D01*
X172392169Y-128243559D01*
X172470000Y-127852277D01*
X172547831Y-128243559D01*
X172821745Y-128653500D01*
X173231686Y-128927414D01*
X173715245Y-129023600D01*
X173764755Y-129023600D01*
X174248314Y-128927414D01*
X174658255Y-128653500D01*
X174932169Y-128243559D01*
X175010000Y-127852277D01*
X175087831Y-128243559D01*
X175361745Y-128653500D01*
X175771686Y-128927414D01*
X176255245Y-129023600D01*
X176304755Y-129023600D01*
X176788314Y-128927414D01*
X177198255Y-128653500D01*
X177472169Y-128243559D01*
X177568355Y-127760000D01*
X177472169Y-127276441D01*
X177198255Y-126866500D01*
X176788314Y-126592586D01*
X176304755Y-126496400D01*
X176255245Y-126496400D01*
X175771686Y-126592586D01*
X175361745Y-126866500D01*
X175087831Y-127276441D01*
X175010000Y-127667723D01*
X174932169Y-127276441D01*
X174658255Y-126866500D01*
X174248314Y-126592586D01*
X173764755Y-126496400D01*
X173715245Y-126496400D01*
X173231686Y-126592586D01*
X172821745Y-126866500D01*
X172547831Y-127276441D01*
X172470000Y-127667723D01*
X172392169Y-127276441D01*
X172118255Y-126866500D01*
X171708314Y-126592586D01*
X171224755Y-126496400D01*
X171175245Y-126496400D01*
X170691686Y-126592586D01*
X170281745Y-126866500D01*
X170007831Y-127276441D01*
X169911645Y-127760000D01*
X167408355Y-127760000D01*
X167312169Y-127276441D01*
X167038255Y-126866500D01*
X166628314Y-126592586D01*
X166144755Y-126496400D01*
X166095245Y-126496400D01*
X165611686Y-126592586D01*
X165201745Y-126866500D01*
X164927831Y-127276441D01*
X164850000Y-127667723D01*
X164772169Y-127276441D01*
X164498255Y-126866500D01*
X164088314Y-126592586D01*
X163604755Y-126496400D01*
X163555245Y-126496400D01*
X163071686Y-126592586D01*
X162910000Y-126700621D01*
X162910000Y-121100227D01*
X162966863Y-121100277D01*
X163555143Y-120857205D01*
X164005623Y-120407511D01*
X164249722Y-119819656D01*
X164249724Y-119816863D01*
X164699723Y-119816863D01*
X164942795Y-120405143D01*
X165392489Y-120855623D01*
X165980344Y-121099722D01*
X166616863Y-121100277D01*
X167205143Y-120857205D01*
X167655623Y-120407511D01*
X167899722Y-119819656D01*
X167900277Y-119183137D01*
X167657205Y-118594857D01*
X167207511Y-118144377D01*
X166619656Y-117900278D01*
X165983137Y-117899723D01*
X165394857Y-118142795D01*
X164944377Y-118592489D01*
X164700278Y-119180344D01*
X164699723Y-119816863D01*
X164249724Y-119816863D01*
X164250277Y-119183137D01*
X164007205Y-118594857D01*
X163557511Y-118144377D01*
X162969656Y-117900278D01*
X162333137Y-117899723D01*
X161744857Y-118142795D01*
X161294377Y-118592489D01*
X161291258Y-118600000D01*
X160509330Y-118600000D01*
X160507205Y-118594857D01*
X160057511Y-118144377D01*
X159469656Y-117900278D01*
X158833137Y-117899723D01*
X158244857Y-118142795D01*
X157794377Y-118592489D01*
X157550278Y-119180344D01*
X157549723Y-119816863D01*
X157792795Y-120405143D01*
X158242489Y-120855623D01*
X158830344Y-121099722D01*
X159466863Y-121100277D01*
X160055143Y-120857205D01*
X160505623Y-120407511D01*
X160508742Y-120400000D01*
X161290670Y-120400000D01*
X161292795Y-120405143D01*
X161710000Y-120823077D01*
X161710000Y-129240621D01*
X161548314Y-129132586D01*
X161064755Y-129036400D01*
X161015245Y-129036400D01*
X160531686Y-129132586D01*
X160121745Y-129406500D01*
X159847831Y-129816441D01*
X159770000Y-130207723D01*
X159692169Y-129816441D01*
X159418255Y-129406500D01*
X159008314Y-129132586D01*
X158524755Y-129036400D01*
X158475245Y-129036400D01*
X157991686Y-129132586D01*
X157581745Y-129406500D01*
X157307831Y-129816441D01*
X157211645Y-130300000D01*
X154708355Y-130300000D01*
X154612169Y-129816441D01*
X154338255Y-129406500D01*
X153928314Y-129132586D01*
X153444755Y-129036400D01*
X153395245Y-129036400D01*
X152911686Y-129132586D01*
X152501745Y-129406500D01*
X152227831Y-129816441D01*
X152150000Y-130207723D01*
X152072169Y-129816441D01*
X151798255Y-129406500D01*
X151388314Y-129132586D01*
X150904755Y-129036400D01*
X150855245Y-129036400D01*
X150371686Y-129132586D01*
X149961745Y-129406500D01*
X149687831Y-129816441D01*
X149610000Y-130207723D01*
X149532169Y-129816441D01*
X149258255Y-129406500D01*
X148848314Y-129132586D01*
X148364755Y-129036400D01*
X148315245Y-129036400D01*
X147831686Y-129132586D01*
X147421745Y-129406500D01*
X147147831Y-129816441D01*
X147070000Y-130207723D01*
X146992169Y-129816441D01*
X146718255Y-129406500D01*
X146308314Y-129132586D01*
X145824755Y-129036400D01*
X145775245Y-129036400D01*
X145291686Y-129132586D01*
X144881745Y-129406500D01*
X144607831Y-129816441D01*
X144511645Y-130300000D01*
X134045266Y-130300000D01*
X133857205Y-129844857D01*
X133407511Y-129394377D01*
X132819656Y-129150278D01*
X132183137Y-129149723D01*
X131594857Y-129392795D01*
X131144377Y-129842489D01*
X130900278Y-130430344D01*
X130899723Y-131066863D01*
X128275000Y-131066863D01*
X128275000Y-127760000D01*
X144511645Y-127760000D01*
X144607831Y-128243559D01*
X144881745Y-128653500D01*
X145291686Y-128927414D01*
X145775245Y-129023600D01*
X145824755Y-129023600D01*
X146308314Y-128927414D01*
X146708527Y-128660000D01*
X147431473Y-128660000D01*
X147831686Y-128927414D01*
X148315245Y-129023600D01*
X148364755Y-129023600D01*
X148848314Y-128927414D01*
X149258255Y-128653500D01*
X149532169Y-128243559D01*
X149628355Y-127760000D01*
X152131645Y-127760000D01*
X152227831Y-128243559D01*
X152501745Y-128653500D01*
X152911686Y-128927414D01*
X153395245Y-129023600D01*
X153444755Y-129023600D01*
X153928314Y-128927414D01*
X154338255Y-128653500D01*
X154612169Y-128243559D01*
X154690000Y-127852277D01*
X154767831Y-128243559D01*
X155041745Y-128653500D01*
X155451686Y-128927414D01*
X155935245Y-129023600D01*
X155984755Y-129023600D01*
X156468314Y-128927414D01*
X156878255Y-128653500D01*
X157152169Y-128243559D01*
X157230000Y-127852277D01*
X157307831Y-128243559D01*
X157581745Y-128653500D01*
X157991686Y-128927414D01*
X158475245Y-129023600D01*
X158524755Y-129023600D01*
X159008314Y-128927414D01*
X159418255Y-128653500D01*
X159692169Y-128243559D01*
X159788355Y-127760000D01*
X159692169Y-127276441D01*
X159418255Y-126866500D01*
X159008314Y-126592586D01*
X158524755Y-126496400D01*
X158475245Y-126496400D01*
X157991686Y-126592586D01*
X157581745Y-126866500D01*
X157307831Y-127276441D01*
X157230000Y-127667723D01*
X157152169Y-127276441D01*
X156878255Y-126866500D01*
X156468314Y-126592586D01*
X155984755Y-126496400D01*
X155935245Y-126496400D01*
X155451686Y-126592586D01*
X155041745Y-126866500D01*
X154767831Y-127276441D01*
X154690000Y-127667723D01*
X154612169Y-127276441D01*
X154338255Y-126866500D01*
X153928314Y-126592586D01*
X153444755Y-126496400D01*
X153395245Y-126496400D01*
X152911686Y-126592586D01*
X152501745Y-126866500D01*
X152227831Y-127276441D01*
X152131645Y-127760000D01*
X149628355Y-127760000D01*
X149532169Y-127276441D01*
X149258255Y-126866500D01*
X148848314Y-126592586D01*
X148364755Y-126496400D01*
X148315245Y-126496400D01*
X147831686Y-126592586D01*
X147431473Y-126860000D01*
X146708527Y-126860000D01*
X146308314Y-126592586D01*
X145824755Y-126496400D01*
X145775245Y-126496400D01*
X145291686Y-126592586D01*
X144881745Y-126866500D01*
X144607831Y-127276441D01*
X144511645Y-127760000D01*
X128275000Y-127760000D01*
X128275000Y-122966863D01*
X130899723Y-122966863D01*
X131142795Y-123555143D01*
X131592489Y-124005623D01*
X132180344Y-124249722D01*
X132816863Y-124250277D01*
X133405143Y-124007205D01*
X133855623Y-123557511D01*
X134099722Y-122969656D01*
X134100277Y-122333137D01*
X133857205Y-121744857D01*
X133407511Y-121294377D01*
X132819656Y-121050278D01*
X132183137Y-121049723D01*
X131594857Y-121292795D01*
X131144377Y-121742489D01*
X130900278Y-122330344D01*
X130899723Y-122966863D01*
X128275000Y-122966863D01*
X128275000Y-119816863D01*
X135399723Y-119816863D01*
X135642795Y-120405143D01*
X136092489Y-120855623D01*
X136680344Y-121099722D01*
X137316863Y-121100277D01*
X137905143Y-120857205D01*
X138355623Y-120407511D01*
X138599722Y-119819656D01*
X138599724Y-119816863D01*
X138899723Y-119816863D01*
X139142795Y-120405143D01*
X139592489Y-120855623D01*
X140180344Y-121099722D01*
X140816863Y-121100277D01*
X141405143Y-120857205D01*
X141855623Y-120407511D01*
X142099722Y-119819656D01*
X142099724Y-119816863D01*
X142399723Y-119816863D01*
X142642795Y-120405143D01*
X143092489Y-120855623D01*
X143680344Y-121099722D01*
X144316863Y-121100277D01*
X144905143Y-120857205D01*
X145355623Y-120407511D01*
X145599722Y-119819656D01*
X145599724Y-119816863D01*
X145899723Y-119816863D01*
X146142795Y-120405143D01*
X146592489Y-120855623D01*
X147180344Y-121099722D01*
X147816863Y-121100277D01*
X148405143Y-120857205D01*
X148855623Y-120407511D01*
X149099722Y-119819656D01*
X149099724Y-119816863D01*
X149399723Y-119816863D01*
X149642795Y-120405143D01*
X150092489Y-120855623D01*
X150680344Y-121099722D01*
X151316863Y-121100277D01*
X151905143Y-120857205D01*
X152355623Y-120407511D01*
X152599722Y-119819656D01*
X152600277Y-119183137D01*
X152357205Y-118594857D01*
X151907511Y-118144377D01*
X151319656Y-117900278D01*
X150683137Y-117899723D01*
X150094857Y-118142795D01*
X149644377Y-118592489D01*
X149400278Y-119180344D01*
X149399723Y-119816863D01*
X149099724Y-119816863D01*
X149100277Y-119183137D01*
X148857205Y-118594857D01*
X148407511Y-118144377D01*
X147819656Y-117900278D01*
X147183137Y-117899723D01*
X146594857Y-118142795D01*
X146144377Y-118592489D01*
X145900278Y-119180344D01*
X145899723Y-119816863D01*
X145599724Y-119816863D01*
X145600277Y-119183137D01*
X145357205Y-118594857D01*
X144907511Y-118144377D01*
X144319656Y-117900278D01*
X143683137Y-117899723D01*
X143094857Y-118142795D01*
X142644377Y-118592489D01*
X142400278Y-119180344D01*
X142399723Y-119816863D01*
X142099724Y-119816863D01*
X142100277Y-119183137D01*
X141857205Y-118594857D01*
X141407511Y-118144377D01*
X140819656Y-117900278D01*
X140183137Y-117899723D01*
X139594857Y-118142795D01*
X139144377Y-118592489D01*
X138900278Y-119180344D01*
X138899723Y-119816863D01*
X138599724Y-119816863D01*
X138600277Y-119183137D01*
X138357205Y-118594857D01*
X138047840Y-118284952D01*
X138672792Y-117660000D01*
X154600000Y-117660000D01*
X154600000Y-118140670D01*
X154594857Y-118142795D01*
X154144377Y-118592489D01*
X153900278Y-119180344D01*
X153899723Y-119816863D01*
X154142795Y-120405143D01*
X154592489Y-120855623D01*
X155180344Y-121099722D01*
X155816863Y-121100277D01*
X156405143Y-120857205D01*
X156855623Y-120407511D01*
X157099722Y-119819656D01*
X157100277Y-119183137D01*
X156857205Y-118594857D01*
X156407511Y-118144377D01*
X156400000Y-118141258D01*
X156400000Y-117660000D01*
X167637208Y-117660000D01*
X169152412Y-119175204D01*
X169150278Y-119180344D01*
X169149723Y-119816863D01*
X169392795Y-120405143D01*
X169842489Y-120855623D01*
X170430344Y-121099722D01*
X171066863Y-121100277D01*
X171655143Y-120857205D01*
X172105623Y-120407511D01*
X172349722Y-119819656D01*
X172350277Y-119183137D01*
X172107205Y-118594857D01*
X171657511Y-118144377D01*
X171069656Y-117900278D01*
X170433137Y-117899723D01*
X170425621Y-117902829D01*
X168646396Y-116123604D01*
X168354415Y-115928508D01*
X168010000Y-115860000D01*
X138300000Y-115860000D01*
X137955585Y-115928508D01*
X137663604Y-116123604D01*
X136363604Y-117423604D01*
X136168508Y-117715585D01*
X136100000Y-118060000D01*
X136100000Y-118140670D01*
X136094857Y-118142795D01*
X135644377Y-118592489D01*
X135400278Y-119180344D01*
X135399723Y-119816863D01*
X128275000Y-119816863D01*
X128275000Y-116527086D01*
X128373225Y-116033275D01*
X128637604Y-115637604D01*
X129033275Y-115373225D01*
X129527086Y-115275000D01*
X176472914Y-115275000D01*
X176966725Y-115373225D01*
X176966725Y-115373225D01*
G37*
X176966725Y-115373225D02*
X177362396Y-115637604D01*
X177626775Y-116033275D01*
X177725000Y-116527086D01*
X177725000Y-141472914D01*
X177626775Y-141966725D01*
X177362396Y-142362396D01*
X176966725Y-142626775D01*
X176472914Y-142725000D01*
X129527086Y-142725000D01*
X129033275Y-142626775D01*
X128637604Y-142362396D01*
X128373225Y-141966725D01*
X128275000Y-141472914D01*
X128275000Y-139166863D01*
X130899723Y-139166863D01*
X131142795Y-139755143D01*
X131592489Y-140205623D01*
X132180344Y-140449722D01*
X132816863Y-140450277D01*
X133405143Y-140207205D01*
X133855623Y-139757511D01*
X134099722Y-139169656D01*
X134100277Y-138533137D01*
X133857205Y-137944857D01*
X133407511Y-137494377D01*
X132819656Y-137250278D01*
X132183137Y-137249723D01*
X131594857Y-137492795D01*
X131144377Y-137942489D01*
X130900278Y-138530344D01*
X130899723Y-139166863D01*
X128275000Y-139166863D01*
X128275000Y-131066863D01*
X130899723Y-131066863D01*
X131142795Y-131655143D01*
X131592489Y-132105623D01*
X132180344Y-132349722D01*
X132816863Y-132350277D01*
X133405143Y-132107205D01*
X133855623Y-131657511D01*
X134099722Y-131069656D01*
X134100277Y-130433137D01*
X134045266Y-130300000D01*
X144511645Y-130300000D01*
X144607831Y-130783559D01*
X144881745Y-131193500D01*
X145291686Y-131467414D01*
X145775245Y-131563600D01*
X145824755Y-131563600D01*
X146308314Y-131467414D01*
X146718255Y-131193500D01*
X146992169Y-130783559D01*
X147070000Y-130392277D01*
X147147831Y-130783559D01*
X147421745Y-131193500D01*
X147831686Y-131467414D01*
X148315245Y-131563600D01*
X148364755Y-131563600D01*
X148848314Y-131467414D01*
X149258255Y-131193500D01*
X149532169Y-130783559D01*
X149610000Y-130392277D01*
X149687831Y-130783559D01*
X149961745Y-131193500D01*
X150371686Y-131467414D01*
X150855245Y-131563600D01*
X150904755Y-131563600D01*
X151388314Y-131467414D01*
X151798255Y-131193500D01*
X152072169Y-130783559D01*
X152150000Y-130392277D01*
X152227831Y-130783559D01*
X152501745Y-131193500D01*
X152911686Y-131467414D01*
X153395245Y-131563600D01*
X153444755Y-131563600D01*
X153928314Y-131467414D01*
X154338255Y-131193500D01*
X154612169Y-130783559D01*
X154708355Y-130300000D01*
X157211645Y-130300000D01*
X157307831Y-130783559D01*
X157581745Y-131193500D01*
X157991686Y-131467414D01*
X158475245Y-131563600D01*
X158524755Y-131563600D01*
X159008314Y-131467414D01*
X159418255Y-131193500D01*
X159692169Y-130783559D01*
X159770000Y-130392277D01*
X159847831Y-130783559D01*
X160121745Y-131193500D01*
X160531686Y-131467414D01*
X161015245Y-131563600D01*
X161064755Y-131563600D01*
X161548314Y-131467414D01*
X161710000Y-131359379D01*
X161710000Y-138317955D01*
X161569826Y-138457885D01*
X161440148Y-138770183D01*
X161439853Y-139108334D01*
X161568985Y-139420857D01*
X161807885Y-139660174D01*
X162120183Y-139789852D01*
X162458334Y-139790147D01*
X162770857Y-139661015D01*
X163010174Y-139422115D01*
X163139852Y-139109817D01*
X163140147Y-138771666D01*
X163011015Y-138459143D01*
X162910000Y-138357952D01*
X162910000Y-131359379D01*
X163071686Y-131467414D01*
X163555245Y-131563600D01*
X163604755Y-131563600D01*
X164088314Y-131467414D01*
X164498255Y-131193500D01*
X164772169Y-130783559D01*
X164850000Y-130392277D01*
X164927831Y-130783559D01*
X165201745Y-131193500D01*
X165611686Y-131467414D01*
X166095245Y-131563600D01*
X166144755Y-131563600D01*
X166628314Y-131467414D01*
X167038255Y-131193500D01*
X167312169Y-130783559D01*
X167390000Y-130392277D01*
X167467831Y-130783559D01*
X167741745Y-131193500D01*
X168151686Y-131467414D01*
X168635245Y-131563600D01*
X168684755Y-131563600D01*
X169168314Y-131467414D01*
X169578255Y-131193500D01*
X169852169Y-130783559D01*
X169930000Y-130392277D01*
X170007831Y-130783559D01*
X170281745Y-131193500D01*
X170691686Y-131467414D01*
X171175245Y-131563600D01*
X171224755Y-131563600D01*
X171708314Y-131467414D01*
X172118255Y-131193500D01*
X172392169Y-130783559D01*
X172470000Y-130392277D01*
X172547831Y-130783559D01*
X172821745Y-131193500D01*
X173231686Y-131467414D01*
X173715245Y-131563600D01*
X173764755Y-131563600D01*
X174248314Y-131467414D01*
X174658255Y-131193500D01*
X174932169Y-130783559D01*
X175028355Y-130300000D01*
X174932169Y-129816441D01*
X174658255Y-129406500D01*
X174248314Y-129132586D01*
X173764755Y-129036400D01*
X173715245Y-129036400D01*
X173231686Y-129132586D01*
X172821745Y-129406500D01*
X172547831Y-129816441D01*
X172470000Y-130207723D01*
X172392169Y-129816441D01*
X172118255Y-129406500D01*
X171708314Y-129132586D01*
X171224755Y-129036400D01*
X171175245Y-129036400D01*
X170691686Y-129132586D01*
X170281745Y-129406500D01*
X170007831Y-129816441D01*
X169930000Y-130207723D01*
X169852169Y-129816441D01*
X169578255Y-129406500D01*
X169168314Y-129132586D01*
X168684755Y-129036400D01*
X168635245Y-129036400D01*
X168151686Y-129132586D01*
X167741745Y-129406500D01*
X167467831Y-129816441D01*
X167390000Y-130207723D01*
X167312169Y-129816441D01*
X167038255Y-129406500D01*
X166628314Y-129132586D01*
X166144755Y-129036400D01*
X166095245Y-129036400D01*
X165611686Y-129132586D01*
X165201745Y-129406500D01*
X164927831Y-129816441D01*
X164850000Y-130207723D01*
X164772169Y-129816441D01*
X164498255Y-129406500D01*
X164088314Y-129132586D01*
X163604755Y-129036400D01*
X163555245Y-129036400D01*
X163071686Y-129132586D01*
X162910000Y-129240621D01*
X162910000Y-128819379D01*
X163071686Y-128927414D01*
X163555245Y-129023600D01*
X163604755Y-129023600D01*
X164088314Y-128927414D01*
X164498255Y-128653500D01*
X164772169Y-128243559D01*
X164850000Y-127852277D01*
X164927831Y-128243559D01*
X165201745Y-128653500D01*
X165611686Y-128927414D01*
X166095245Y-129023600D01*
X166144755Y-129023600D01*
X166628314Y-128927414D01*
X167038255Y-128653500D01*
X167312169Y-128243559D01*
X167408355Y-127760000D01*
X169911645Y-127760000D01*
X170007831Y-128243559D01*
X170281745Y-128653500D01*
X170691686Y-128927414D01*
X171175245Y-129023600D01*
X171224755Y-129023600D01*
X171708314Y-128927414D01*
X172118255Y-128653500D01*
X172392169Y-128243559D01*
X172470000Y-127852277D01*
X172547831Y-128243559D01*
X172821745Y-128653500D01*
X173231686Y-128927414D01*
X173715245Y-129023600D01*
X173764755Y-129023600D01*
X174248314Y-128927414D01*
X174658255Y-128653500D01*
X174932169Y-128243559D01*
X175010000Y-127852277D01*
X175087831Y-128243559D01*
X175361745Y-128653500D01*
X175771686Y-128927414D01*
X176255245Y-129023600D01*
X176304755Y-129023600D01*
X176788314Y-128927414D01*
X177198255Y-128653500D01*
X177472169Y-128243559D01*
X177568355Y-127760000D01*
X177472169Y-127276441D01*
X177198255Y-126866500D01*
X176788314Y-126592586D01*
X176304755Y-126496400D01*
X176255245Y-126496400D01*
X175771686Y-126592586D01*
X175361745Y-126866500D01*
X175087831Y-127276441D01*
X175010000Y-127667723D01*
X174932169Y-127276441D01*
X174658255Y-126866500D01*
X174248314Y-126592586D01*
X173764755Y-126496400D01*
X173715245Y-126496400D01*
X173231686Y-126592586D01*
X172821745Y-126866500D01*
X172547831Y-127276441D01*
X172470000Y-127667723D01*
X172392169Y-127276441D01*
X172118255Y-126866500D01*
X171708314Y-126592586D01*
X171224755Y-126496400D01*
X171175245Y-126496400D01*
X170691686Y-126592586D01*
X170281745Y-126866500D01*
X170007831Y-127276441D01*
X169911645Y-127760000D01*
X167408355Y-127760000D01*
X167312169Y-127276441D01*
X167038255Y-126866500D01*
X166628314Y-126592586D01*
X166144755Y-126496400D01*
X166095245Y-126496400D01*
X165611686Y-126592586D01*
X165201745Y-126866500D01*
X164927831Y-127276441D01*
X164850000Y-127667723D01*
X164772169Y-127276441D01*
X164498255Y-126866500D01*
X164088314Y-126592586D01*
X163604755Y-126496400D01*
X163555245Y-126496400D01*
X163071686Y-126592586D01*
X162910000Y-126700621D01*
X162910000Y-121100227D01*
X162966863Y-121100277D01*
X163555143Y-120857205D01*
X164005623Y-120407511D01*
X164249722Y-119819656D01*
X164249724Y-119816863D01*
X164699723Y-119816863D01*
X164942795Y-120405143D01*
X165392489Y-120855623D01*
X165980344Y-121099722D01*
X166616863Y-121100277D01*
X167205143Y-120857205D01*
X167655623Y-120407511D01*
X167899722Y-119819656D01*
X167900277Y-119183137D01*
X167657205Y-118594857D01*
X167207511Y-118144377D01*
X166619656Y-117900278D01*
X165983137Y-117899723D01*
X165394857Y-118142795D01*
X164944377Y-118592489D01*
X164700278Y-119180344D01*
X164699723Y-119816863D01*
X164249724Y-119816863D01*
X164250277Y-119183137D01*
X164007205Y-118594857D01*
X163557511Y-118144377D01*
X162969656Y-117900278D01*
X162333137Y-117899723D01*
X161744857Y-118142795D01*
X161294377Y-118592489D01*
X161291258Y-118600000D01*
X160509330Y-118600000D01*
X160507205Y-118594857D01*
X160057511Y-118144377D01*
X159469656Y-117900278D01*
X158833137Y-117899723D01*
X158244857Y-118142795D01*
X157794377Y-118592489D01*
X157550278Y-119180344D01*
X157549723Y-119816863D01*
X157792795Y-120405143D01*
X158242489Y-120855623D01*
X158830344Y-121099722D01*
X159466863Y-121100277D01*
X160055143Y-120857205D01*
X160505623Y-120407511D01*
X160508742Y-120400000D01*
X161290670Y-120400000D01*
X161292795Y-120405143D01*
X161710000Y-120823077D01*
X161710000Y-129240621D01*
X161548314Y-129132586D01*
X161064755Y-129036400D01*
X161015245Y-129036400D01*
X160531686Y-129132586D01*
X160121745Y-129406500D01*
X159847831Y-129816441D01*
X159770000Y-130207723D01*
X159692169Y-129816441D01*
X159418255Y-129406500D01*
X159008314Y-129132586D01*
X158524755Y-129036400D01*
X158475245Y-129036400D01*
X157991686Y-129132586D01*
X157581745Y-129406500D01*
X157307831Y-129816441D01*
X157211645Y-130300000D01*
X154708355Y-130300000D01*
X154612169Y-129816441D01*
X154338255Y-129406500D01*
X153928314Y-129132586D01*
X153444755Y-129036400D01*
X153395245Y-129036400D01*
X152911686Y-129132586D01*
X152501745Y-129406500D01*
X152227831Y-129816441D01*
X152150000Y-130207723D01*
X152072169Y-129816441D01*
X151798255Y-129406500D01*
X151388314Y-129132586D01*
X150904755Y-129036400D01*
X150855245Y-129036400D01*
X150371686Y-129132586D01*
X149961745Y-129406500D01*
X149687831Y-129816441D01*
X149610000Y-130207723D01*
X149532169Y-129816441D01*
X149258255Y-129406500D01*
X148848314Y-129132586D01*
X148364755Y-129036400D01*
X148315245Y-129036400D01*
X147831686Y-129132586D01*
X147421745Y-129406500D01*
X147147831Y-129816441D01*
X147070000Y-130207723D01*
X146992169Y-129816441D01*
X146718255Y-129406500D01*
X146308314Y-129132586D01*
X145824755Y-129036400D01*
X145775245Y-129036400D01*
X145291686Y-129132586D01*
X144881745Y-129406500D01*
X144607831Y-129816441D01*
X144511645Y-130300000D01*
X134045266Y-130300000D01*
X133857205Y-129844857D01*
X133407511Y-129394377D01*
X132819656Y-129150278D01*
X132183137Y-129149723D01*
X131594857Y-129392795D01*
X131144377Y-129842489D01*
X130900278Y-130430344D01*
X130899723Y-131066863D01*
X128275000Y-131066863D01*
X128275000Y-127760000D01*
X144511645Y-127760000D01*
X144607831Y-128243559D01*
X144881745Y-128653500D01*
X145291686Y-128927414D01*
X145775245Y-129023600D01*
X145824755Y-129023600D01*
X146308314Y-128927414D01*
X146708527Y-128660000D01*
X147431473Y-128660000D01*
X147831686Y-128927414D01*
X148315245Y-129023600D01*
X148364755Y-129023600D01*
X148848314Y-128927414D01*
X149258255Y-128653500D01*
X149532169Y-128243559D01*
X149628355Y-127760000D01*
X152131645Y-127760000D01*
X152227831Y-128243559D01*
X152501745Y-128653500D01*
X152911686Y-128927414D01*
X153395245Y-129023600D01*
X153444755Y-129023600D01*
X153928314Y-128927414D01*
X154338255Y-128653500D01*
X154612169Y-128243559D01*
X154690000Y-127852277D01*
X154767831Y-128243559D01*
X155041745Y-128653500D01*
X155451686Y-128927414D01*
X155935245Y-129023600D01*
X155984755Y-129023600D01*
X156468314Y-128927414D01*
X156878255Y-128653500D01*
X157152169Y-128243559D01*
X157230000Y-127852277D01*
X157307831Y-128243559D01*
X157581745Y-128653500D01*
X157991686Y-128927414D01*
X158475245Y-129023600D01*
X158524755Y-129023600D01*
X159008314Y-128927414D01*
X159418255Y-128653500D01*
X159692169Y-128243559D01*
X159788355Y-127760000D01*
X159692169Y-127276441D01*
X159418255Y-126866500D01*
X159008314Y-126592586D01*
X158524755Y-126496400D01*
X158475245Y-126496400D01*
X157991686Y-126592586D01*
X157581745Y-126866500D01*
X157307831Y-127276441D01*
X157230000Y-127667723D01*
X157152169Y-127276441D01*
X156878255Y-126866500D01*
X156468314Y-126592586D01*
X155984755Y-126496400D01*
X155935245Y-126496400D01*
X155451686Y-126592586D01*
X155041745Y-126866500D01*
X154767831Y-127276441D01*
X154690000Y-127667723D01*
X154612169Y-127276441D01*
X154338255Y-126866500D01*
X153928314Y-126592586D01*
X153444755Y-126496400D01*
X153395245Y-126496400D01*
X152911686Y-126592586D01*
X152501745Y-126866500D01*
X152227831Y-127276441D01*
X152131645Y-127760000D01*
X149628355Y-127760000D01*
X149532169Y-127276441D01*
X149258255Y-126866500D01*
X148848314Y-126592586D01*
X148364755Y-126496400D01*
X148315245Y-126496400D01*
X147831686Y-126592586D01*
X147431473Y-126860000D01*
X146708527Y-126860000D01*
X146308314Y-126592586D01*
X145824755Y-126496400D01*
X145775245Y-126496400D01*
X145291686Y-126592586D01*
X144881745Y-126866500D01*
X144607831Y-127276441D01*
X144511645Y-127760000D01*
X128275000Y-127760000D01*
X128275000Y-122966863D01*
X130899723Y-122966863D01*
X131142795Y-123555143D01*
X131592489Y-124005623D01*
X132180344Y-124249722D01*
X132816863Y-124250277D01*
X133405143Y-124007205D01*
X133855623Y-123557511D01*
X134099722Y-122969656D01*
X134100277Y-122333137D01*
X133857205Y-121744857D01*
X133407511Y-121294377D01*
X132819656Y-121050278D01*
X132183137Y-121049723D01*
X131594857Y-121292795D01*
X131144377Y-121742489D01*
X130900278Y-122330344D01*
X130899723Y-122966863D01*
X128275000Y-122966863D01*
X128275000Y-119816863D01*
X135399723Y-119816863D01*
X135642795Y-120405143D01*
X136092489Y-120855623D01*
X136680344Y-121099722D01*
X137316863Y-121100277D01*
X137905143Y-120857205D01*
X138355623Y-120407511D01*
X138599722Y-119819656D01*
X138599724Y-119816863D01*
X138899723Y-119816863D01*
X139142795Y-120405143D01*
X139592489Y-120855623D01*
X140180344Y-121099722D01*
X140816863Y-121100277D01*
X141405143Y-120857205D01*
X141855623Y-120407511D01*
X142099722Y-119819656D01*
X142099724Y-119816863D01*
X142399723Y-119816863D01*
X142642795Y-120405143D01*
X143092489Y-120855623D01*
X143680344Y-121099722D01*
X144316863Y-121100277D01*
X144905143Y-120857205D01*
X145355623Y-120407511D01*
X145599722Y-119819656D01*
X145599724Y-119816863D01*
X145899723Y-119816863D01*
X146142795Y-120405143D01*
X146592489Y-120855623D01*
X147180344Y-121099722D01*
X147816863Y-121100277D01*
X148405143Y-120857205D01*
X148855623Y-120407511D01*
X149099722Y-119819656D01*
X149099724Y-119816863D01*
X149399723Y-119816863D01*
X149642795Y-120405143D01*
X150092489Y-120855623D01*
X150680344Y-121099722D01*
X151316863Y-121100277D01*
X151905143Y-120857205D01*
X152355623Y-120407511D01*
X152599722Y-119819656D01*
X152600277Y-119183137D01*
X152357205Y-118594857D01*
X151907511Y-118144377D01*
X151319656Y-117900278D01*
X150683137Y-117899723D01*
X150094857Y-118142795D01*
X149644377Y-118592489D01*
X149400278Y-119180344D01*
X149399723Y-119816863D01*
X149099724Y-119816863D01*
X149100277Y-119183137D01*
X148857205Y-118594857D01*
X148407511Y-118144377D01*
X147819656Y-117900278D01*
X147183137Y-117899723D01*
X146594857Y-118142795D01*
X146144377Y-118592489D01*
X145900278Y-119180344D01*
X145899723Y-119816863D01*
X145599724Y-119816863D01*
X145600277Y-119183137D01*
X145357205Y-118594857D01*
X144907511Y-118144377D01*
X144319656Y-117900278D01*
X143683137Y-117899723D01*
X143094857Y-118142795D01*
X142644377Y-118592489D01*
X142400278Y-119180344D01*
X142399723Y-119816863D01*
X142099724Y-119816863D01*
X142100277Y-119183137D01*
X141857205Y-118594857D01*
X141407511Y-118144377D01*
X140819656Y-117900278D01*
X140183137Y-117899723D01*
X139594857Y-118142795D01*
X139144377Y-118592489D01*
X138900278Y-119180344D01*
X138899723Y-119816863D01*
X138599724Y-119816863D01*
X138600277Y-119183137D01*
X138357205Y-118594857D01*
X138047840Y-118284952D01*
X138672792Y-117660000D01*
X154600000Y-117660000D01*
X154600000Y-118140670D01*
X154594857Y-118142795D01*
X154144377Y-118592489D01*
X153900278Y-119180344D01*
X153899723Y-119816863D01*
X154142795Y-120405143D01*
X154592489Y-120855623D01*
X155180344Y-121099722D01*
X155816863Y-121100277D01*
X156405143Y-120857205D01*
X156855623Y-120407511D01*
X157099722Y-119819656D01*
X157100277Y-119183137D01*
X156857205Y-118594857D01*
X156407511Y-118144377D01*
X156400000Y-118141258D01*
X156400000Y-117660000D01*
X167637208Y-117660000D01*
X169152412Y-119175204D01*
X169150278Y-119180344D01*
X169149723Y-119816863D01*
X169392795Y-120405143D01*
X169842489Y-120855623D01*
X170430344Y-121099722D01*
X171066863Y-121100277D01*
X171655143Y-120857205D01*
X172105623Y-120407511D01*
X172349722Y-119819656D01*
X172350277Y-119183137D01*
X172107205Y-118594857D01*
X171657511Y-118144377D01*
X171069656Y-117900278D01*
X170433137Y-117899723D01*
X170425621Y-117902829D01*
X168646396Y-116123604D01*
X168354415Y-115928508D01*
X168010000Y-115860000D01*
X138300000Y-115860000D01*
X137955585Y-115928508D01*
X137663604Y-116123604D01*
X136363604Y-117423604D01*
X136168508Y-117715585D01*
X136100000Y-118060000D01*
X136100000Y-118140670D01*
X136094857Y-118142795D01*
X135644377Y-118592489D01*
X135400278Y-119180344D01*
X135399723Y-119816863D01*
X128275000Y-119816863D01*
X128275000Y-116527086D01*
X128373225Y-116033275D01*
X128637604Y-115637604D01*
X129033275Y-115373225D01*
X129527086Y-115275000D01*
X176472914Y-115275000D01*
X176966725Y-115373225D01*
M02*
