M48
;DRILL file {KiCad 4.0.2+dfsg1-stable} date Thu 29 Sep 2016 13:26:36 BST
;FORMAT={-:-/ absolute / metric / decimal}
FMAT,2
METRIC,TZ
T1C0.600
T2C1.016
T3C1.400
%
G90
G05
M71
T1
X162.29Y-138.94
T2
X145.8Y-127.76
X145.8Y-130.3
X148.34Y-127.76
X148.34Y-130.3
X150.88Y-127.76
X150.88Y-130.3
X153.42Y-127.76
X153.42Y-130.3
X155.96Y-127.76
X155.96Y-130.3
X158.5Y-127.76
X158.5Y-130.3
X161.04Y-127.76
X161.04Y-130.3
X163.58Y-127.76
X163.58Y-130.3
X166.12Y-127.76
X166.12Y-130.3
X168.66Y-127.76
X168.66Y-130.3
X171.2Y-127.76
X171.2Y-130.3
X173.74Y-127.76
X173.74Y-130.3
X176.28Y-127.76
X176.28Y-130.3
T3
X132.5Y-119.15
X132.5Y-122.65
X132.5Y-127.25
X132.5Y-130.75
X132.5Y-135.35
X132.5Y-138.85
X137.Y-119.5
X140.5Y-119.5
X144.Y-119.5
X147.5Y-119.5
X151.Y-119.5
X155.5Y-119.5
X159.15Y-119.5
X162.65Y-119.5
X166.3Y-119.5
X170.75Y-119.5
X174.25Y-119.5
T0
M30
