G04 #@! TF.FileFunction,Copper,L2,Bot,Signal*
%FSLAX46Y46*%
G04 Gerber Fmt 4.6, Leading zero omitted, Abs format (unit mm)*
G04 Created by KiCad (PCBNEW 4.0.2+dfsg1-stable) date Thu 29 Sep 2016 13:26:16 BST*
%MOMM*%
G01*
G04 APERTURE LIST*
%ADD10C,0.150000*%
%ADD11O,1.727200X1.727200*%
%ADD12R,0.900000X0.500000*%
%ADD13C,2.400000*%
%ADD14R,0.750000X0.800000*%
%ADD15R,0.800000X0.750000*%
%ADD16R,0.800100X0.800100*%
%ADD17R,0.500000X0.900000*%
%ADD18R,0.600000X1.500000*%
%ADD19R,0.650000X1.060000*%
%ADD20C,0.900000*%
%ADD21C,0.400000*%
%ADD22C,1.000000*%
G04 APERTURE END LIST*
D10*
D11*
X145800000Y-130300000D03*
X145800000Y-127760000D03*
X148340000Y-130300000D03*
X148340000Y-127760000D03*
X150880000Y-130300000D03*
X150880000Y-127760000D03*
X153420000Y-130300000D03*
X153420000Y-127760000D03*
X155960000Y-130300000D03*
X155960000Y-127760000D03*
X158500000Y-130300000D03*
X158500000Y-127760000D03*
X161040000Y-130300000D03*
X161040000Y-127760000D03*
X163580000Y-130300000D03*
X163580000Y-127760000D03*
X166120000Y-130300000D03*
X166120000Y-127760000D03*
X168660000Y-130300000D03*
X168660000Y-127760000D03*
X171200000Y-130300000D03*
X171200000Y-127760000D03*
X173740000Y-130300000D03*
X173740000Y-127760000D03*
X176280000Y-130300000D03*
X176280000Y-127760000D03*
D12*
X162300000Y-123010000D03*
X162300000Y-124510000D03*
D13*
X174250000Y-119500000D03*
X170750000Y-119500000D03*
X132500000Y-135350000D03*
X132500000Y-138850000D03*
X132500000Y-127250000D03*
X132500000Y-130750000D03*
X132500000Y-119150000D03*
X132500000Y-122650000D03*
D14*
X143050000Y-125260000D03*
X143050000Y-123760000D03*
D15*
X141050000Y-131760000D03*
X142550000Y-131760000D03*
X138550000Y-127760000D03*
X137050000Y-127760000D03*
X138550000Y-133760000D03*
X137050000Y-133760000D03*
X138550000Y-139760000D03*
X137050000Y-139760000D03*
D14*
X175800000Y-135010000D03*
X175800000Y-133510000D03*
D15*
X173550000Y-141260000D03*
X172050000Y-141260000D03*
D14*
X175800000Y-139010000D03*
X175800000Y-137510000D03*
D15*
X170050000Y-141260000D03*
X168550000Y-141260000D03*
X165050000Y-141260000D03*
X166550000Y-141260000D03*
D13*
X137000000Y-119500000D03*
X151000000Y-119500000D03*
X140500000Y-119500000D03*
X147500000Y-119500000D03*
X144000000Y-119500000D03*
X166300000Y-119500000D03*
X155500000Y-119500000D03*
X162650000Y-119500000D03*
X159150000Y-119500000D03*
D16*
X153050760Y-123560000D03*
X153050760Y-125460000D03*
X151051780Y-124510000D03*
X147050760Y-123560000D03*
X147050760Y-125460000D03*
X145051780Y-124510000D03*
X166300760Y-123560000D03*
X166300760Y-125460000D03*
X164301780Y-124510000D03*
D17*
X138550000Y-123760000D03*
X137050000Y-123760000D03*
X138550000Y-129760000D03*
X137050000Y-129760000D03*
X138550000Y-135760000D03*
X137050000Y-135760000D03*
X138550000Y-125760000D03*
X137050000Y-125760000D03*
X138550000Y-131760000D03*
X137050000Y-131760000D03*
X138550000Y-137760000D03*
X137050000Y-137760000D03*
D12*
X155050000Y-125510000D03*
X155050000Y-124010000D03*
X149050000Y-125510000D03*
X149050000Y-124010000D03*
X168300000Y-125510000D03*
X168300000Y-124010000D03*
D18*
X173745000Y-138960000D03*
X172475000Y-138960000D03*
X171205000Y-138960000D03*
X169935000Y-138960000D03*
X168665000Y-138960000D03*
X167395000Y-138960000D03*
X166125000Y-138960000D03*
X164855000Y-138960000D03*
X164855000Y-133560000D03*
X166125000Y-133560000D03*
X167395000Y-133560000D03*
X168665000Y-133560000D03*
X169935000Y-133560000D03*
X171205000Y-133560000D03*
X172475000Y-133560000D03*
X173745000Y-133560000D03*
D19*
X140850000Y-127660000D03*
X141800000Y-127660000D03*
X142750000Y-127660000D03*
X142750000Y-129860000D03*
X140850000Y-129860000D03*
D20*
X162290000Y-138940000D03*
D21*
X175010000Y-131260000D02*
X175010000Y-133510000D01*
X175010000Y-133510000D02*
X175050000Y-133510000D01*
X175010000Y-131260000D02*
X175010000Y-124000000D01*
X140850000Y-123310000D02*
X138800000Y-121260000D01*
X138800000Y-121260000D02*
X138800000Y-118760000D01*
X138800000Y-118760000D02*
X141800000Y-115760000D01*
X141800000Y-115760000D02*
X173960000Y-115760000D01*
X175990000Y-123020000D02*
X175990000Y-117790000D01*
X175990000Y-117790000D02*
X173960000Y-115760000D01*
X140850000Y-127660000D02*
X140850000Y-123310000D01*
X175010000Y-124000000D02*
X175990000Y-123020000D01*
X173745000Y-133560000D02*
X173795000Y-133510000D01*
X173795000Y-133510000D02*
X175050000Y-133510000D01*
X175050000Y-133510000D02*
X175800000Y-133510000D01*
X173745000Y-133415000D02*
X173745000Y-133560000D01*
D22*
X148340000Y-127760000D02*
X145800000Y-127760000D01*
D21*
X140850000Y-127660000D02*
X140850000Y-128310000D01*
X142750000Y-128310000D02*
X142750000Y-127660000D01*
X142300000Y-128760000D02*
X142750000Y-128310000D01*
X141300000Y-128760000D02*
X142300000Y-128760000D01*
X140850000Y-128310000D02*
X141300000Y-128760000D01*
X143050000Y-125260000D02*
X142750000Y-125560000D01*
X142750000Y-125560000D02*
X142750000Y-127660000D01*
X142750000Y-127660000D02*
X142850000Y-127760000D01*
X142850000Y-127760000D02*
X145800000Y-127760000D01*
X141050000Y-131760000D02*
X140850000Y-131560000D01*
X140850000Y-131560000D02*
X140850000Y-129860000D01*
X138550000Y-135760000D02*
X139800000Y-134510000D01*
X139800000Y-134510000D02*
X139800000Y-129860000D01*
X138550000Y-123760000D02*
X139800000Y-125010000D01*
X138550000Y-129760000D02*
X138650000Y-129860000D01*
X138650000Y-129860000D02*
X139800000Y-129860000D01*
X139800000Y-129860000D02*
X140850000Y-129860000D01*
X139800000Y-125010000D02*
X139800000Y-129860000D01*
X137050000Y-123760000D02*
X137050000Y-125760000D01*
X132500000Y-122650000D02*
X133610000Y-123760000D01*
X133610000Y-123760000D02*
X137050000Y-123760000D01*
X132500000Y-130750000D02*
X132510000Y-130760000D01*
X132510000Y-130760000D02*
X137050000Y-130760000D01*
X137050000Y-131760000D02*
X137050000Y-130760000D01*
X137050000Y-130760000D02*
X137050000Y-129760000D01*
X132500000Y-138850000D02*
X133590000Y-137760000D01*
X133590000Y-137760000D02*
X137050000Y-137760000D01*
X137050000Y-135760000D02*
X137050000Y-137760000D01*
D22*
X147050760Y-123560000D02*
X147050760Y-119949240D01*
X147050760Y-119949240D02*
X147500000Y-119500000D01*
D21*
X166300760Y-123560000D02*
X166300760Y-119500760D01*
X166300760Y-119500760D02*
X166300000Y-119500000D01*
D22*
X153050760Y-123560000D02*
X153050760Y-121550760D01*
X153050760Y-121550760D02*
X151000000Y-119500000D01*
D21*
X173745000Y-138960000D02*
X173745000Y-141065000D01*
X173745000Y-141065000D02*
X173550000Y-141260000D01*
X171205000Y-138960000D02*
X171205000Y-140415000D01*
X171205000Y-140415000D02*
X172050000Y-141260000D01*
X172475000Y-138960000D02*
X172475000Y-138010000D01*
X172475000Y-138010000D02*
X172975000Y-137510000D01*
X172975000Y-137510000D02*
X175800000Y-137510000D01*
X169935000Y-138960000D02*
X169935000Y-141145000D01*
X169935000Y-141145000D02*
X170050000Y-141260000D01*
X168665000Y-138960000D02*
X168665000Y-141145000D01*
X168665000Y-141145000D02*
X168550000Y-141260000D01*
X167395000Y-138960000D02*
X167395000Y-140415000D01*
X167395000Y-140415000D02*
X166550000Y-141260000D01*
X153420000Y-127760000D02*
X154690000Y-129030000D01*
X154690000Y-129030000D02*
X154690000Y-130960000D01*
X154690000Y-130960000D02*
X158640000Y-134910000D01*
X158640000Y-134910000D02*
X167000000Y-134910000D01*
X167000000Y-134910000D02*
X167395000Y-134515000D01*
X167395000Y-134515000D02*
X167395000Y-133560000D01*
X168260000Y-132210000D02*
X160570000Y-132210000D01*
X160570000Y-132210000D02*
X159770000Y-131410000D01*
X159770000Y-131410000D02*
X159770000Y-129640000D01*
X159770000Y-129640000D02*
X159160000Y-129030000D01*
X159160000Y-129030000D02*
X157230000Y-129030000D01*
X157230000Y-129030000D02*
X155960000Y-127760000D01*
X168665000Y-133560000D02*
X168665000Y-132615000D01*
X168665000Y-132615000D02*
X168260000Y-132210000D01*
X168650000Y-133545000D02*
X168665000Y-133560000D01*
X146430000Y-117070000D02*
X167910000Y-117070000D01*
X167910000Y-117070000D02*
X168440000Y-117600000D01*
X168440000Y-117600000D02*
X168440000Y-120160000D01*
X169930000Y-121650000D02*
X169930000Y-133555000D01*
X169930000Y-133555000D02*
X169935000Y-133560000D01*
X144000000Y-119500000D02*
X146430000Y-117070000D01*
X168440000Y-120160000D02*
X169930000Y-121650000D01*
X172470000Y-118370000D02*
X172470000Y-131090000D01*
X172470000Y-131090000D02*
X171205000Y-132355000D01*
X171205000Y-132355000D02*
X171205000Y-133560000D01*
X172470000Y-118370000D02*
X170510000Y-116410000D01*
X170510000Y-116410000D02*
X143590000Y-116410000D01*
X143590000Y-116410000D02*
X140500000Y-119500000D01*
X129800000Y-139760000D02*
X129800000Y-140260000D01*
X129800000Y-130760000D02*
X129800000Y-139760000D01*
X131575000Y-128985000D02*
X133375000Y-128985000D01*
X129800000Y-130760000D02*
X131575000Y-128985000D01*
X129800000Y-140260000D02*
X131300000Y-141760000D01*
X153420000Y-130300000D02*
X141960000Y-141760000D01*
X141960000Y-141760000D02*
X139300000Y-141760000D01*
X131300000Y-141760000D02*
X131800000Y-141760000D01*
X133375000Y-128985000D02*
X133600000Y-128760000D01*
X138550000Y-127760000D02*
X137550000Y-128760000D01*
X137550000Y-128760000D02*
X133600000Y-128760000D01*
X131800000Y-141760000D02*
X139300000Y-141760000D01*
X138550000Y-125760000D02*
X138550000Y-127760000D01*
X138550000Y-132760000D02*
X132300000Y-132760000D01*
X132300000Y-132760000D02*
X130800000Y-134260000D01*
X130800000Y-134260000D02*
X130800000Y-139760000D01*
X130800000Y-139760000D02*
X131800000Y-140760000D01*
X131800000Y-140760000D02*
X140300000Y-140760000D01*
X140300000Y-140760000D02*
X150760000Y-130300000D01*
X150760000Y-130300000D02*
X150880000Y-130300000D01*
X138550000Y-131760000D02*
X138550000Y-132760000D01*
X138550000Y-132760000D02*
X138550000Y-133760000D01*
X148340000Y-130300000D02*
X138880000Y-139760000D01*
X138880000Y-139760000D02*
X138550000Y-139760000D01*
X138550000Y-137760000D02*
X138550000Y-139760000D01*
X164855000Y-133560000D02*
X160050000Y-133560000D01*
X160050000Y-133560000D02*
X158500000Y-132010000D01*
X158500000Y-132010000D02*
X158500000Y-130300000D01*
X147050760Y-125460000D02*
X147100760Y-125510000D01*
X147100760Y-125510000D02*
X149050000Y-125510000D01*
X149050000Y-125510000D02*
X149930000Y-126390000D01*
X157130000Y-126390000D02*
X158500000Y-127760000D01*
X149930000Y-126390000D02*
X157130000Y-126390000D01*
X155050000Y-125510000D02*
X161330000Y-125510000D01*
X161330000Y-125510000D02*
X163580000Y-127760000D01*
X155050000Y-125510000D02*
X153100760Y-125510000D01*
X153100760Y-125510000D02*
X153050760Y-125460000D01*
X155000000Y-125460000D02*
X155050000Y-125510000D01*
X163540000Y-127730000D02*
X163350000Y-127540000D01*
X166300760Y-125460000D02*
X166300760Y-127579240D01*
X166300760Y-127579240D02*
X166120000Y-127760000D01*
X168300000Y-125510000D02*
X166350760Y-125510000D01*
X166350760Y-125510000D02*
X166300760Y-125460000D01*
X168300000Y-125510000D02*
X168300000Y-125580000D01*
X166150000Y-127660000D02*
X166080000Y-127730000D01*
X162290000Y-138940000D02*
X164835000Y-138940000D01*
X164835000Y-138940000D02*
X164855000Y-138960000D01*
D22*
X162650000Y-119500000D02*
X159150000Y-119500000D01*
X162300000Y-123010000D02*
X162300000Y-119850000D01*
X162300000Y-119850000D02*
X162650000Y-119500000D01*
D21*
X162300000Y-119850000D02*
X162650000Y-119500000D01*
G36*
X141425056Y-115295243D02*
X141381701Y-115329853D01*
X141377309Y-115334184D01*
X141377219Y-115334258D01*
X141377150Y-115334342D01*
X141375736Y-115335736D01*
X138375736Y-118335736D01*
X138340561Y-118378559D01*
X138304932Y-118421020D01*
X138303413Y-118423784D01*
X138301409Y-118426223D01*
X138275201Y-118475101D01*
X138259304Y-118504018D01*
X138245911Y-118483860D01*
X138024813Y-118261213D01*
X137764681Y-118085752D01*
X137475422Y-117964159D01*
X137168055Y-117901065D01*
X136854286Y-117898875D01*
X136546068Y-117957671D01*
X136255140Y-118075213D01*
X135992583Y-118247026D01*
X135768398Y-118466563D01*
X135591125Y-118725464D01*
X135467515Y-119013867D01*
X135402278Y-119320787D01*
X135397897Y-119634532D01*
X135454539Y-119943154D01*
X135570048Y-120234896D01*
X135740023Y-120498645D01*
X135957990Y-120724357D01*
X136215648Y-120903433D01*
X136503180Y-121029054D01*
X136809637Y-121096432D01*
X137123344Y-121103004D01*
X137432354Y-121048517D01*
X137724895Y-120935048D01*
X137989825Y-120766918D01*
X138200000Y-120566771D01*
X138200000Y-121260000D01*
X138205409Y-121315170D01*
X138210239Y-121370371D01*
X138211119Y-121373400D01*
X138211427Y-121376541D01*
X138227458Y-121429638D01*
X138242909Y-121482821D01*
X138244359Y-121485619D01*
X138245272Y-121488642D01*
X138271289Y-121537573D01*
X138296797Y-121586784D01*
X138298767Y-121589252D01*
X138300247Y-121592035D01*
X138335248Y-121634950D01*
X138369854Y-121678300D01*
X138374184Y-121682691D01*
X138374258Y-121682781D01*
X138374342Y-121682850D01*
X138375736Y-121684264D01*
X140250000Y-123558528D01*
X140250000Y-124616570D01*
X140230147Y-124591700D01*
X140225814Y-124587308D01*
X140225742Y-124587219D01*
X140225660Y-124587151D01*
X140224264Y-124585736D01*
X139201935Y-123563407D01*
X139201935Y-123310000D01*
X139196855Y-123246302D01*
X139163398Y-123138262D01*
X139101165Y-123043821D01*
X139015086Y-122970457D01*
X138911976Y-122923978D01*
X138800000Y-122908065D01*
X138300000Y-122908065D01*
X138236302Y-122913145D01*
X138128262Y-122946602D01*
X138033821Y-123008835D01*
X137960457Y-123094914D01*
X137913978Y-123198024D01*
X137898065Y-123310000D01*
X137898065Y-124210000D01*
X137903145Y-124273698D01*
X137936602Y-124381738D01*
X137998835Y-124476179D01*
X138084914Y-124549543D01*
X138188024Y-124596022D01*
X138300000Y-124611935D01*
X138553407Y-124611935D01*
X138857743Y-124916271D01*
X138800000Y-124908065D01*
X138300000Y-124908065D01*
X138236302Y-124913145D01*
X138128262Y-124946602D01*
X138033821Y-125008835D01*
X137960457Y-125094914D01*
X137913978Y-125198024D01*
X137898065Y-125310000D01*
X137898065Y-126210000D01*
X137903145Y-126273698D01*
X137936602Y-126381738D01*
X137950000Y-126402070D01*
X137950000Y-127040226D01*
X137883821Y-127083835D01*
X137810457Y-127169914D01*
X137763978Y-127273024D01*
X137748065Y-127385000D01*
X137748065Y-127713407D01*
X137301472Y-128160000D01*
X133600000Y-128160000D01*
X133544830Y-128165409D01*
X133489629Y-128170239D01*
X133486600Y-128171119D01*
X133483459Y-128171427D01*
X133430362Y-128187458D01*
X133377179Y-128202909D01*
X133374381Y-128204359D01*
X133371358Y-128205272D01*
X133322427Y-128231289D01*
X133273216Y-128256797D01*
X133270748Y-128258767D01*
X133267965Y-128260247D01*
X133225050Y-128295248D01*
X133181700Y-128329854D01*
X133177309Y-128334184D01*
X133177219Y-128334258D01*
X133177150Y-128334342D01*
X133175736Y-128335736D01*
X133126472Y-128385000D01*
X131575000Y-128385000D01*
X131519830Y-128390409D01*
X131464629Y-128395239D01*
X131461600Y-128396119D01*
X131458459Y-128396427D01*
X131405362Y-128412458D01*
X131352179Y-128427909D01*
X131349381Y-128429359D01*
X131346358Y-128430272D01*
X131297427Y-128456289D01*
X131248216Y-128481797D01*
X131245748Y-128483767D01*
X131242965Y-128485247D01*
X131200050Y-128520248D01*
X131156700Y-128554854D01*
X131152309Y-128559184D01*
X131152219Y-128559258D01*
X131152150Y-128559342D01*
X131150736Y-128560736D01*
X129375736Y-130335736D01*
X129340561Y-130378559D01*
X129304932Y-130421020D01*
X129303413Y-130423784D01*
X129301409Y-130426223D01*
X129275201Y-130475101D01*
X129248519Y-130523635D01*
X129247566Y-130526640D01*
X129246074Y-130529422D01*
X129229865Y-130582440D01*
X129213111Y-130635253D01*
X129212759Y-130638388D01*
X129211837Y-130641405D01*
X129206241Y-130696504D01*
X129200058Y-130751623D01*
X129200015Y-130757795D01*
X129200004Y-130757906D01*
X129200014Y-130758009D01*
X129200000Y-130760000D01*
X129200000Y-140260000D01*
X129205409Y-140315170D01*
X129210239Y-140370371D01*
X129211119Y-140373400D01*
X129211427Y-140376541D01*
X129227458Y-140429638D01*
X129242909Y-140482821D01*
X129244359Y-140485619D01*
X129245272Y-140488642D01*
X129271289Y-140537573D01*
X129296797Y-140586784D01*
X129298767Y-140589252D01*
X129300247Y-140592035D01*
X129335248Y-140634950D01*
X129369854Y-140678300D01*
X129374184Y-140682691D01*
X129374258Y-140682781D01*
X129374342Y-140682850D01*
X129375736Y-140684264D01*
X130875736Y-142184264D01*
X130918559Y-142219439D01*
X130961020Y-142255068D01*
X130963784Y-142256587D01*
X130966223Y-142258591D01*
X131015101Y-142284799D01*
X131063635Y-142311481D01*
X131066640Y-142312434D01*
X131069422Y-142313926D01*
X131122440Y-142330135D01*
X131175253Y-142346889D01*
X131178388Y-142347241D01*
X131181405Y-142348163D01*
X131236504Y-142353759D01*
X131291623Y-142359942D01*
X131297795Y-142359985D01*
X131297906Y-142359996D01*
X131298009Y-142359986D01*
X131300000Y-142360000D01*
X141960000Y-142360000D01*
X142015170Y-142354591D01*
X142070371Y-142349761D01*
X142073400Y-142348881D01*
X142076541Y-142348573D01*
X142129638Y-142332542D01*
X142182821Y-142317091D01*
X142185619Y-142315641D01*
X142188642Y-142314728D01*
X142237573Y-142288711D01*
X142286784Y-142263203D01*
X142289252Y-142261233D01*
X142292035Y-142259753D01*
X142334950Y-142224752D01*
X142378300Y-142190146D01*
X142382691Y-142185816D01*
X142382781Y-142185742D01*
X142382850Y-142185658D01*
X142384264Y-142184264D01*
X145557058Y-139011470D01*
X161438882Y-139011470D01*
X161468974Y-139175425D01*
X161530338Y-139330413D01*
X161620637Y-139470530D01*
X161736432Y-139590440D01*
X161873313Y-139685574D01*
X162026065Y-139752310D01*
X162188870Y-139788105D01*
X162355527Y-139791596D01*
X162519688Y-139762650D01*
X162675100Y-139702369D01*
X162815844Y-139613050D01*
X162892554Y-139540000D01*
X164153065Y-139540000D01*
X164153065Y-139710000D01*
X164158145Y-139773698D01*
X164191602Y-139881738D01*
X164253835Y-139976179D01*
X164339914Y-140049543D01*
X164443024Y-140096022D01*
X164555000Y-140111935D01*
X165155000Y-140111935D01*
X165218698Y-140106855D01*
X165326738Y-140073398D01*
X165421179Y-140011165D01*
X165492075Y-139927982D01*
X165523835Y-139976179D01*
X165609914Y-140049543D01*
X165713024Y-140096022D01*
X165825000Y-140111935D01*
X166425000Y-140111935D01*
X166488698Y-140106855D01*
X166596738Y-140073398D01*
X166691179Y-140011165D01*
X166762075Y-139927982D01*
X166793835Y-139976179D01*
X166795000Y-139977172D01*
X166795000Y-140166472D01*
X166478407Y-140483065D01*
X166150000Y-140483065D01*
X166086302Y-140488145D01*
X165978262Y-140521602D01*
X165883821Y-140583835D01*
X165810457Y-140669914D01*
X165763978Y-140773024D01*
X165748065Y-140885000D01*
X165748065Y-141635000D01*
X165753145Y-141698698D01*
X165786602Y-141806738D01*
X165848835Y-141901179D01*
X165934914Y-141974543D01*
X166038024Y-142021022D01*
X166150000Y-142036935D01*
X166950000Y-142036935D01*
X167013698Y-142031855D01*
X167121738Y-141998398D01*
X167216179Y-141936165D01*
X167289543Y-141850086D01*
X167336022Y-141746976D01*
X167351935Y-141635000D01*
X167351935Y-141306593D01*
X167748065Y-140910463D01*
X167748065Y-141635000D01*
X167753145Y-141698698D01*
X167786602Y-141806738D01*
X167848835Y-141901179D01*
X167934914Y-141974543D01*
X168038024Y-142021022D01*
X168150000Y-142036935D01*
X168950000Y-142036935D01*
X169013698Y-142031855D01*
X169121738Y-141998398D01*
X169216179Y-141936165D01*
X169289543Y-141850086D01*
X169299951Y-141826996D01*
X169348835Y-141901179D01*
X169434914Y-141974543D01*
X169538024Y-142021022D01*
X169650000Y-142036935D01*
X170450000Y-142036935D01*
X170513698Y-142031855D01*
X170621738Y-141998398D01*
X170716179Y-141936165D01*
X170789543Y-141850086D01*
X170836022Y-141746976D01*
X170851935Y-141635000D01*
X170851935Y-140910463D01*
X171248065Y-141306593D01*
X171248065Y-141635000D01*
X171253145Y-141698698D01*
X171286602Y-141806738D01*
X171348835Y-141901179D01*
X171434914Y-141974543D01*
X171538024Y-142021022D01*
X171650000Y-142036935D01*
X172450000Y-142036935D01*
X172513698Y-142031855D01*
X172621738Y-141998398D01*
X172716179Y-141936165D01*
X172789543Y-141850086D01*
X172799951Y-141826996D01*
X172848835Y-141901179D01*
X172934914Y-141974543D01*
X173038024Y-142021022D01*
X173150000Y-142036935D01*
X173950000Y-142036935D01*
X174013698Y-142031855D01*
X174121738Y-141998398D01*
X174216179Y-141936165D01*
X174289543Y-141850086D01*
X174336022Y-141746976D01*
X174351935Y-141635000D01*
X174351935Y-140885000D01*
X174346855Y-140821302D01*
X174345000Y-140815312D01*
X174345000Y-139971482D01*
X174384543Y-139925086D01*
X174431022Y-139821976D01*
X174446935Y-139710000D01*
X174446935Y-138210000D01*
X174441855Y-138146302D01*
X174430613Y-138110000D01*
X175080226Y-138110000D01*
X175123835Y-138176179D01*
X175209914Y-138249543D01*
X175313024Y-138296022D01*
X175425000Y-138311935D01*
X176175000Y-138311935D01*
X176238698Y-138306855D01*
X176346738Y-138273398D01*
X176441179Y-138211165D01*
X176514543Y-138125086D01*
X176561022Y-138021976D01*
X176576935Y-137910000D01*
X176576935Y-137110000D01*
X176571855Y-137046302D01*
X176538398Y-136938262D01*
X176476165Y-136843821D01*
X176390086Y-136770457D01*
X176286976Y-136723978D01*
X176175000Y-136708065D01*
X175425000Y-136708065D01*
X175361302Y-136713145D01*
X175253262Y-136746602D01*
X175158821Y-136808835D01*
X175085457Y-136894914D01*
X175078657Y-136910000D01*
X172975000Y-136910000D01*
X172919871Y-136915405D01*
X172864629Y-136920239D01*
X172861600Y-136921119D01*
X172858459Y-136921427D01*
X172805362Y-136937458D01*
X172752179Y-136952909D01*
X172749381Y-136954359D01*
X172746358Y-136955272D01*
X172697427Y-136981289D01*
X172648216Y-137006797D01*
X172645748Y-137008767D01*
X172642965Y-137010247D01*
X172600056Y-137045243D01*
X172556701Y-137079853D01*
X172552309Y-137084184D01*
X172552219Y-137084258D01*
X172552150Y-137084342D01*
X172550736Y-137085736D01*
X172050736Y-137585736D01*
X172015561Y-137628559D01*
X171979932Y-137671020D01*
X171978413Y-137673784D01*
X171976409Y-137676223D01*
X171950201Y-137725101D01*
X171923519Y-137773635D01*
X171922566Y-137776640D01*
X171921074Y-137779422D01*
X171904865Y-137832440D01*
X171888111Y-137885253D01*
X171887759Y-137888388D01*
X171886837Y-137891405D01*
X171881853Y-137940477D01*
X171837925Y-137992018D01*
X171806165Y-137943821D01*
X171720086Y-137870457D01*
X171616976Y-137823978D01*
X171505000Y-137808065D01*
X170905000Y-137808065D01*
X170841302Y-137813145D01*
X170733262Y-137846602D01*
X170638821Y-137908835D01*
X170567925Y-137992018D01*
X170536165Y-137943821D01*
X170450086Y-137870457D01*
X170346976Y-137823978D01*
X170235000Y-137808065D01*
X169635000Y-137808065D01*
X169571302Y-137813145D01*
X169463262Y-137846602D01*
X169368821Y-137908835D01*
X169297925Y-137992018D01*
X169266165Y-137943821D01*
X169180086Y-137870457D01*
X169076976Y-137823978D01*
X168965000Y-137808065D01*
X168365000Y-137808065D01*
X168301302Y-137813145D01*
X168193262Y-137846602D01*
X168098821Y-137908835D01*
X168027925Y-137992018D01*
X167996165Y-137943821D01*
X167910086Y-137870457D01*
X167806976Y-137823978D01*
X167695000Y-137808065D01*
X167095000Y-137808065D01*
X167031302Y-137813145D01*
X166923262Y-137846602D01*
X166828821Y-137908835D01*
X166757925Y-137992018D01*
X166726165Y-137943821D01*
X166640086Y-137870457D01*
X166536976Y-137823978D01*
X166425000Y-137808065D01*
X165825000Y-137808065D01*
X165761302Y-137813145D01*
X165653262Y-137846602D01*
X165558821Y-137908835D01*
X165487925Y-137992018D01*
X165456165Y-137943821D01*
X165370086Y-137870457D01*
X165266976Y-137823978D01*
X165155000Y-137808065D01*
X164555000Y-137808065D01*
X164491302Y-137813145D01*
X164383262Y-137846602D01*
X164288821Y-137908835D01*
X164215457Y-137994914D01*
X164168978Y-138098024D01*
X164153065Y-138210000D01*
X164153065Y-138340000D01*
X162892133Y-138340000D01*
X162834432Y-138281895D01*
X162696237Y-138188681D01*
X162542568Y-138124084D01*
X162379279Y-138090566D01*
X162212590Y-138089402D01*
X162048848Y-138120637D01*
X161894293Y-138183082D01*
X161754810Y-138274357D01*
X161635711Y-138390987D01*
X161541535Y-138528528D01*
X161475867Y-138681742D01*
X161441210Y-138844793D01*
X161438882Y-139011470D01*
X145557058Y-139011470D01*
X153061110Y-131507418D01*
X153151169Y-131535987D01*
X153396243Y-131563477D01*
X153413886Y-131563600D01*
X153426114Y-131563600D01*
X153671549Y-131539535D01*
X153907635Y-131468256D01*
X154125380Y-131352479D01*
X154193940Y-131296563D01*
X154225248Y-131334950D01*
X154259854Y-131378300D01*
X154264184Y-131382691D01*
X154264258Y-131382781D01*
X154264342Y-131382850D01*
X154265736Y-131384264D01*
X158215736Y-135334264D01*
X158258559Y-135369439D01*
X158301020Y-135405068D01*
X158303784Y-135406587D01*
X158306223Y-135408591D01*
X158355117Y-135434808D01*
X158403635Y-135461481D01*
X158406638Y-135462434D01*
X158409423Y-135463927D01*
X158462459Y-135480141D01*
X158515253Y-135496889D01*
X158518390Y-135497241D01*
X158521406Y-135498163D01*
X158576539Y-135503763D01*
X158631623Y-135509942D01*
X158637786Y-135509985D01*
X158637907Y-135509997D01*
X158638020Y-135509986D01*
X158640000Y-135510000D01*
X167000000Y-135510000D01*
X167055170Y-135504591D01*
X167110371Y-135499761D01*
X167113400Y-135498881D01*
X167116541Y-135498573D01*
X167169638Y-135482542D01*
X167222821Y-135467091D01*
X167225619Y-135465641D01*
X167228642Y-135464728D01*
X167277573Y-135438711D01*
X167326784Y-135413203D01*
X167329252Y-135411233D01*
X167332035Y-135409753D01*
X167374950Y-135374752D01*
X167418300Y-135340146D01*
X167422691Y-135335816D01*
X167422781Y-135335742D01*
X167422850Y-135335658D01*
X167424264Y-135334264D01*
X167819264Y-134939264D01*
X167854439Y-134896441D01*
X167890068Y-134853980D01*
X167891587Y-134851216D01*
X167893591Y-134848777D01*
X167919799Y-134799899D01*
X167946481Y-134751365D01*
X167947434Y-134748360D01*
X167948926Y-134745578D01*
X167965135Y-134692560D01*
X167981889Y-134639747D01*
X167982241Y-134636612D01*
X167983163Y-134633595D01*
X167988724Y-134578846D01*
X168032075Y-134527982D01*
X168063835Y-134576179D01*
X168149914Y-134649543D01*
X168253024Y-134696022D01*
X168365000Y-134711935D01*
X168965000Y-134711935D01*
X169028698Y-134706855D01*
X169136738Y-134673398D01*
X169231179Y-134611165D01*
X169302075Y-134527982D01*
X169333835Y-134576179D01*
X169419914Y-134649543D01*
X169523024Y-134696022D01*
X169635000Y-134711935D01*
X170235000Y-134711935D01*
X170298698Y-134706855D01*
X170406738Y-134673398D01*
X170501179Y-134611165D01*
X170572075Y-134527982D01*
X170603835Y-134576179D01*
X170689914Y-134649543D01*
X170793024Y-134696022D01*
X170905000Y-134711935D01*
X171505000Y-134711935D01*
X171568698Y-134706855D01*
X171676738Y-134673398D01*
X171771179Y-134611165D01*
X171844543Y-134525086D01*
X171891022Y-134421976D01*
X171906935Y-134310000D01*
X171906935Y-132810000D01*
X171901855Y-132746302D01*
X171868398Y-132638262D01*
X171829419Y-132579109D01*
X172894264Y-131514264D01*
X172929439Y-131471441D01*
X172965068Y-131428980D01*
X172966587Y-131426216D01*
X172968591Y-131423777D01*
X172994799Y-131374899D01*
X173014899Y-131338338D01*
X173019994Y-131342613D01*
X173236101Y-131461419D01*
X173471169Y-131535987D01*
X173716243Y-131563477D01*
X173733886Y-131563600D01*
X173746114Y-131563600D01*
X173991549Y-131539535D01*
X174227635Y-131468256D01*
X174410000Y-131371291D01*
X174410000Y-132643435D01*
X174408398Y-132638262D01*
X174346165Y-132543821D01*
X174260086Y-132470457D01*
X174156976Y-132423978D01*
X174045000Y-132408065D01*
X173445000Y-132408065D01*
X173381302Y-132413145D01*
X173273262Y-132446602D01*
X173178821Y-132508835D01*
X173105457Y-132594914D01*
X173058978Y-132698024D01*
X173043065Y-132810000D01*
X173043065Y-134310000D01*
X173048145Y-134373698D01*
X173081602Y-134481738D01*
X173143835Y-134576179D01*
X173229914Y-134649543D01*
X173333024Y-134696022D01*
X173445000Y-134711935D01*
X174045000Y-134711935D01*
X174108698Y-134706855D01*
X174216738Y-134673398D01*
X174311179Y-134611165D01*
X174384543Y-134525086D01*
X174431022Y-134421976D01*
X174446935Y-134310000D01*
X174446935Y-134110000D01*
X175080226Y-134110000D01*
X175123835Y-134176179D01*
X175209914Y-134249543D01*
X175313024Y-134296022D01*
X175425000Y-134311935D01*
X176175000Y-134311935D01*
X176238698Y-134306855D01*
X176346738Y-134273398D01*
X176441179Y-134211165D01*
X176514543Y-134125086D01*
X176561022Y-134021976D01*
X176576935Y-133910000D01*
X176576935Y-133110000D01*
X176571855Y-133046302D01*
X176538398Y-132938262D01*
X176476165Y-132843821D01*
X176390086Y-132770457D01*
X176286976Y-132723978D01*
X176175000Y-132708065D01*
X175610000Y-132708065D01*
X175610000Y-128830104D01*
X175776101Y-128921419D01*
X176011169Y-128995987D01*
X176256243Y-129023477D01*
X176273886Y-129023600D01*
X176286114Y-129023600D01*
X176531549Y-128999535D01*
X176767635Y-128928256D01*
X176985380Y-128812479D01*
X177176490Y-128656614D01*
X177333686Y-128466596D01*
X177450980Y-128249665D01*
X177523905Y-128014082D01*
X177549683Y-127768822D01*
X177527332Y-127523225D01*
X177457704Y-127286647D01*
X177343449Y-127068099D01*
X177188922Y-126875905D01*
X177000006Y-126717387D01*
X176783899Y-126598581D01*
X176548831Y-126524013D01*
X176303757Y-126496523D01*
X176286114Y-126496400D01*
X176273886Y-126496400D01*
X176028451Y-126520465D01*
X175792365Y-126591744D01*
X175610000Y-126688709D01*
X175610000Y-124248528D01*
X176414264Y-123444264D01*
X176449439Y-123401441D01*
X176485068Y-123358980D01*
X176486587Y-123356216D01*
X176488591Y-123353777D01*
X176514799Y-123304899D01*
X176541481Y-123256365D01*
X176542434Y-123253360D01*
X176543926Y-123250578D01*
X176560135Y-123197560D01*
X176576889Y-123144747D01*
X176577241Y-123141612D01*
X176578163Y-123138595D01*
X176583759Y-123083496D01*
X176589942Y-123028377D01*
X176589985Y-123022205D01*
X176589996Y-123022094D01*
X176589986Y-123021991D01*
X176590000Y-123020000D01*
X176590000Y-117790000D01*
X176584595Y-117734871D01*
X176579761Y-117679629D01*
X176578881Y-117676600D01*
X176578573Y-117673459D01*
X176562552Y-117620395D01*
X176547092Y-117567180D01*
X176545640Y-117564379D01*
X176544728Y-117561358D01*
X176518709Y-117512424D01*
X176493203Y-117463217D01*
X176491234Y-117460751D01*
X176489753Y-117457965D01*
X176454739Y-117415034D01*
X176420147Y-117371701D01*
X176415816Y-117367309D01*
X176415742Y-117367219D01*
X176415658Y-117367150D01*
X176414264Y-117365736D01*
X174384264Y-115335736D01*
X174341441Y-115300561D01*
X174310979Y-115275000D01*
X176486546Y-115275000D01*
X176737682Y-115299624D01*
X176966307Y-115368650D01*
X177177176Y-115480771D01*
X177362249Y-115631714D01*
X177514478Y-115815728D01*
X177628066Y-116025802D01*
X177698688Y-116253945D01*
X177725000Y-116504296D01*
X177725000Y-141486546D01*
X177700376Y-141737682D01*
X177631349Y-141966311D01*
X177519229Y-142177175D01*
X177368286Y-142362250D01*
X177184275Y-142514477D01*
X176974194Y-142628068D01*
X176746055Y-142698688D01*
X176495704Y-142725000D01*
X129513454Y-142725000D01*
X129262318Y-142700376D01*
X129033689Y-142631349D01*
X128822825Y-142519229D01*
X128637750Y-142368286D01*
X128485523Y-142184275D01*
X128371932Y-141974194D01*
X128301312Y-141746055D01*
X128275000Y-141495704D01*
X128275000Y-122784532D01*
X130897897Y-122784532D01*
X130954539Y-123093154D01*
X131070048Y-123384896D01*
X131240023Y-123648645D01*
X131457990Y-123874357D01*
X131715648Y-124053433D01*
X132003180Y-124179054D01*
X132309637Y-124246432D01*
X132623344Y-124253004D01*
X132932354Y-124198517D01*
X133125192Y-124123720D01*
X133185736Y-124184264D01*
X133228559Y-124219439D01*
X133271020Y-124255068D01*
X133273784Y-124256587D01*
X133276223Y-124258591D01*
X133325101Y-124284799D01*
X133373635Y-124311481D01*
X133376640Y-124312434D01*
X133379422Y-124313926D01*
X133432440Y-124330135D01*
X133485253Y-124346889D01*
X133488388Y-124347241D01*
X133491405Y-124348163D01*
X133546504Y-124353759D01*
X133601623Y-124359942D01*
X133607795Y-124359985D01*
X133607906Y-124359996D01*
X133608009Y-124359986D01*
X133610000Y-124360000D01*
X136429870Y-124360000D01*
X136436602Y-124381738D01*
X136450000Y-124402070D01*
X136450000Y-125118112D01*
X136413978Y-125198024D01*
X136398065Y-125310000D01*
X136398065Y-126210000D01*
X136403145Y-126273698D01*
X136436602Y-126381738D01*
X136498835Y-126476179D01*
X136584914Y-126549543D01*
X136688024Y-126596022D01*
X136800000Y-126611935D01*
X137300000Y-126611935D01*
X137363698Y-126606855D01*
X137471738Y-126573398D01*
X137566179Y-126511165D01*
X137639543Y-126425086D01*
X137686022Y-126321976D01*
X137701935Y-126210000D01*
X137701935Y-125310000D01*
X137696855Y-125246302D01*
X137663398Y-125138262D01*
X137650000Y-125117930D01*
X137650000Y-124401888D01*
X137686022Y-124321976D01*
X137701935Y-124210000D01*
X137701935Y-123310000D01*
X137696855Y-123246302D01*
X137663398Y-123138262D01*
X137601165Y-123043821D01*
X137515086Y-122970457D01*
X137411976Y-122923978D01*
X137300000Y-122908065D01*
X136800000Y-122908065D01*
X136736302Y-122913145D01*
X136628262Y-122946602D01*
X136533821Y-123008835D01*
X136460457Y-123094914D01*
X136431118Y-123160000D01*
X134024427Y-123160000D01*
X134025548Y-123157482D01*
X134095064Y-122851504D01*
X134100069Y-122493112D01*
X134039123Y-122185311D01*
X133919552Y-121895211D01*
X133745911Y-121633860D01*
X133524813Y-121411213D01*
X133264681Y-121235752D01*
X132975422Y-121114159D01*
X132668055Y-121051065D01*
X132354286Y-121048875D01*
X132046068Y-121107671D01*
X131755140Y-121225213D01*
X131492583Y-121397026D01*
X131268398Y-121616563D01*
X131091125Y-121875464D01*
X130967515Y-122163867D01*
X130902278Y-122470787D01*
X130897897Y-122784532D01*
X128275000Y-122784532D01*
X128275000Y-116513454D01*
X128299624Y-116262318D01*
X128368650Y-116033693D01*
X128480771Y-115822824D01*
X128631714Y-115637751D01*
X128815728Y-115485522D01*
X129025802Y-115371934D01*
X129253945Y-115301312D01*
X129504296Y-115275000D01*
X141449876Y-115275000D01*
X141425056Y-115295243D01*
X141425056Y-115295243D01*
G37*
X141425056Y-115295243D02*
X141381701Y-115329853D01*
X141377309Y-115334184D01*
X141377219Y-115334258D01*
X141377150Y-115334342D01*
X141375736Y-115335736D01*
X138375736Y-118335736D01*
X138340561Y-118378559D01*
X138304932Y-118421020D01*
X138303413Y-118423784D01*
X138301409Y-118426223D01*
X138275201Y-118475101D01*
X138259304Y-118504018D01*
X138245911Y-118483860D01*
X138024813Y-118261213D01*
X137764681Y-118085752D01*
X137475422Y-117964159D01*
X137168055Y-117901065D01*
X136854286Y-117898875D01*
X136546068Y-117957671D01*
X136255140Y-118075213D01*
X135992583Y-118247026D01*
X135768398Y-118466563D01*
X135591125Y-118725464D01*
X135467515Y-119013867D01*
X135402278Y-119320787D01*
X135397897Y-119634532D01*
X135454539Y-119943154D01*
X135570048Y-120234896D01*
X135740023Y-120498645D01*
X135957990Y-120724357D01*
X136215648Y-120903433D01*
X136503180Y-121029054D01*
X136809637Y-121096432D01*
X137123344Y-121103004D01*
X137432354Y-121048517D01*
X137724895Y-120935048D01*
X137989825Y-120766918D01*
X138200000Y-120566771D01*
X138200000Y-121260000D01*
X138205409Y-121315170D01*
X138210239Y-121370371D01*
X138211119Y-121373400D01*
X138211427Y-121376541D01*
X138227458Y-121429638D01*
X138242909Y-121482821D01*
X138244359Y-121485619D01*
X138245272Y-121488642D01*
X138271289Y-121537573D01*
X138296797Y-121586784D01*
X138298767Y-121589252D01*
X138300247Y-121592035D01*
X138335248Y-121634950D01*
X138369854Y-121678300D01*
X138374184Y-121682691D01*
X138374258Y-121682781D01*
X138374342Y-121682850D01*
X138375736Y-121684264D01*
X140250000Y-123558528D01*
X140250000Y-124616570D01*
X140230147Y-124591700D01*
X140225814Y-124587308D01*
X140225742Y-124587219D01*
X140225660Y-124587151D01*
X140224264Y-124585736D01*
X139201935Y-123563407D01*
X139201935Y-123310000D01*
X139196855Y-123246302D01*
X139163398Y-123138262D01*
X139101165Y-123043821D01*
X139015086Y-122970457D01*
X138911976Y-122923978D01*
X138800000Y-122908065D01*
X138300000Y-122908065D01*
X138236302Y-122913145D01*
X138128262Y-122946602D01*
X138033821Y-123008835D01*
X137960457Y-123094914D01*
X137913978Y-123198024D01*
X137898065Y-123310000D01*
X137898065Y-124210000D01*
X137903145Y-124273698D01*
X137936602Y-124381738D01*
X137998835Y-124476179D01*
X138084914Y-124549543D01*
X138188024Y-124596022D01*
X138300000Y-124611935D01*
X138553407Y-124611935D01*
X138857743Y-124916271D01*
X138800000Y-124908065D01*
X138300000Y-124908065D01*
X138236302Y-124913145D01*
X138128262Y-124946602D01*
X138033821Y-125008835D01*
X137960457Y-125094914D01*
X137913978Y-125198024D01*
X137898065Y-125310000D01*
X137898065Y-126210000D01*
X137903145Y-126273698D01*
X137936602Y-126381738D01*
X137950000Y-126402070D01*
X137950000Y-127040226D01*
X137883821Y-127083835D01*
X137810457Y-127169914D01*
X137763978Y-127273024D01*
X137748065Y-127385000D01*
X137748065Y-127713407D01*
X137301472Y-128160000D01*
X133600000Y-128160000D01*
X133544830Y-128165409D01*
X133489629Y-128170239D01*
X133486600Y-128171119D01*
X133483459Y-128171427D01*
X133430362Y-128187458D01*
X133377179Y-128202909D01*
X133374381Y-128204359D01*
X133371358Y-128205272D01*
X133322427Y-128231289D01*
X133273216Y-128256797D01*
X133270748Y-128258767D01*
X133267965Y-128260247D01*
X133225050Y-128295248D01*
X133181700Y-128329854D01*
X133177309Y-128334184D01*
X133177219Y-128334258D01*
X133177150Y-128334342D01*
X133175736Y-128335736D01*
X133126472Y-128385000D01*
X131575000Y-128385000D01*
X131519830Y-128390409D01*
X131464629Y-128395239D01*
X131461600Y-128396119D01*
X131458459Y-128396427D01*
X131405362Y-128412458D01*
X131352179Y-128427909D01*
X131349381Y-128429359D01*
X131346358Y-128430272D01*
X131297427Y-128456289D01*
X131248216Y-128481797D01*
X131245748Y-128483767D01*
X131242965Y-128485247D01*
X131200050Y-128520248D01*
X131156700Y-128554854D01*
X131152309Y-128559184D01*
X131152219Y-128559258D01*
X131152150Y-128559342D01*
X131150736Y-128560736D01*
X129375736Y-130335736D01*
X129340561Y-130378559D01*
X129304932Y-130421020D01*
X129303413Y-130423784D01*
X129301409Y-130426223D01*
X129275201Y-130475101D01*
X129248519Y-130523635D01*
X129247566Y-130526640D01*
X129246074Y-130529422D01*
X129229865Y-130582440D01*
X129213111Y-130635253D01*
X129212759Y-130638388D01*
X129211837Y-130641405D01*
X129206241Y-130696504D01*
X129200058Y-130751623D01*
X129200015Y-130757795D01*
X129200004Y-130757906D01*
X129200014Y-130758009D01*
X129200000Y-130760000D01*
X129200000Y-140260000D01*
X129205409Y-140315170D01*
X129210239Y-140370371D01*
X129211119Y-140373400D01*
X129211427Y-140376541D01*
X129227458Y-140429638D01*
X129242909Y-140482821D01*
X129244359Y-140485619D01*
X129245272Y-140488642D01*
X129271289Y-140537573D01*
X129296797Y-140586784D01*
X129298767Y-140589252D01*
X129300247Y-140592035D01*
X129335248Y-140634950D01*
X129369854Y-140678300D01*
X129374184Y-140682691D01*
X129374258Y-140682781D01*
X129374342Y-140682850D01*
X129375736Y-140684264D01*
X130875736Y-142184264D01*
X130918559Y-142219439D01*
X130961020Y-142255068D01*
X130963784Y-142256587D01*
X130966223Y-142258591D01*
X131015101Y-142284799D01*
X131063635Y-142311481D01*
X131066640Y-142312434D01*
X131069422Y-142313926D01*
X131122440Y-142330135D01*
X131175253Y-142346889D01*
X131178388Y-142347241D01*
X131181405Y-142348163D01*
X131236504Y-142353759D01*
X131291623Y-142359942D01*
X131297795Y-142359985D01*
X131297906Y-142359996D01*
X131298009Y-142359986D01*
X131300000Y-142360000D01*
X141960000Y-142360000D01*
X142015170Y-142354591D01*
X142070371Y-142349761D01*
X142073400Y-142348881D01*
X142076541Y-142348573D01*
X142129638Y-142332542D01*
X142182821Y-142317091D01*
X142185619Y-142315641D01*
X142188642Y-142314728D01*
X142237573Y-142288711D01*
X142286784Y-142263203D01*
X142289252Y-142261233D01*
X142292035Y-142259753D01*
X142334950Y-142224752D01*
X142378300Y-142190146D01*
X142382691Y-142185816D01*
X142382781Y-142185742D01*
X142382850Y-142185658D01*
X142384264Y-142184264D01*
X145557058Y-139011470D01*
X161438882Y-139011470D01*
X161468974Y-139175425D01*
X161530338Y-139330413D01*
X161620637Y-139470530D01*
X161736432Y-139590440D01*
X161873313Y-139685574D01*
X162026065Y-139752310D01*
X162188870Y-139788105D01*
X162355527Y-139791596D01*
X162519688Y-139762650D01*
X162675100Y-139702369D01*
X162815844Y-139613050D01*
X162892554Y-139540000D01*
X164153065Y-139540000D01*
X164153065Y-139710000D01*
X164158145Y-139773698D01*
X164191602Y-139881738D01*
X164253835Y-139976179D01*
X164339914Y-140049543D01*
X164443024Y-140096022D01*
X164555000Y-140111935D01*
X165155000Y-140111935D01*
X165218698Y-140106855D01*
X165326738Y-140073398D01*
X165421179Y-140011165D01*
X165492075Y-139927982D01*
X165523835Y-139976179D01*
X165609914Y-140049543D01*
X165713024Y-140096022D01*
X165825000Y-140111935D01*
X166425000Y-140111935D01*
X166488698Y-140106855D01*
X166596738Y-140073398D01*
X166691179Y-140011165D01*
X166762075Y-139927982D01*
X166793835Y-139976179D01*
X166795000Y-139977172D01*
X166795000Y-140166472D01*
X166478407Y-140483065D01*
X166150000Y-140483065D01*
X166086302Y-140488145D01*
X165978262Y-140521602D01*
X165883821Y-140583835D01*
X165810457Y-140669914D01*
X165763978Y-140773024D01*
X165748065Y-140885000D01*
X165748065Y-141635000D01*
X165753145Y-141698698D01*
X165786602Y-141806738D01*
X165848835Y-141901179D01*
X165934914Y-141974543D01*
X166038024Y-142021022D01*
X166150000Y-142036935D01*
X166950000Y-142036935D01*
X167013698Y-142031855D01*
X167121738Y-141998398D01*
X167216179Y-141936165D01*
X167289543Y-141850086D01*
X167336022Y-141746976D01*
X167351935Y-141635000D01*
X167351935Y-141306593D01*
X167748065Y-140910463D01*
X167748065Y-141635000D01*
X167753145Y-141698698D01*
X167786602Y-141806738D01*
X167848835Y-141901179D01*
X167934914Y-141974543D01*
X168038024Y-142021022D01*
X168150000Y-142036935D01*
X168950000Y-142036935D01*
X169013698Y-142031855D01*
X169121738Y-141998398D01*
X169216179Y-141936165D01*
X169289543Y-141850086D01*
X169299951Y-141826996D01*
X169348835Y-141901179D01*
X169434914Y-141974543D01*
X169538024Y-142021022D01*
X169650000Y-142036935D01*
X170450000Y-142036935D01*
X170513698Y-142031855D01*
X170621738Y-141998398D01*
X170716179Y-141936165D01*
X170789543Y-141850086D01*
X170836022Y-141746976D01*
X170851935Y-141635000D01*
X170851935Y-140910463D01*
X171248065Y-141306593D01*
X171248065Y-141635000D01*
X171253145Y-141698698D01*
X171286602Y-141806738D01*
X171348835Y-141901179D01*
X171434914Y-141974543D01*
X171538024Y-142021022D01*
X171650000Y-142036935D01*
X172450000Y-142036935D01*
X172513698Y-142031855D01*
X172621738Y-141998398D01*
X172716179Y-141936165D01*
X172789543Y-141850086D01*
X172799951Y-141826996D01*
X172848835Y-141901179D01*
X172934914Y-141974543D01*
X173038024Y-142021022D01*
X173150000Y-142036935D01*
X173950000Y-142036935D01*
X174013698Y-142031855D01*
X174121738Y-141998398D01*
X174216179Y-141936165D01*
X174289543Y-141850086D01*
X174336022Y-141746976D01*
X174351935Y-141635000D01*
X174351935Y-140885000D01*
X174346855Y-140821302D01*
X174345000Y-140815312D01*
X174345000Y-139971482D01*
X174384543Y-139925086D01*
X174431022Y-139821976D01*
X174446935Y-139710000D01*
X174446935Y-138210000D01*
X174441855Y-138146302D01*
X174430613Y-138110000D01*
X175080226Y-138110000D01*
X175123835Y-138176179D01*
X175209914Y-138249543D01*
X175313024Y-138296022D01*
X175425000Y-138311935D01*
X176175000Y-138311935D01*
X176238698Y-138306855D01*
X176346738Y-138273398D01*
X176441179Y-138211165D01*
X176514543Y-138125086D01*
X176561022Y-138021976D01*
X176576935Y-137910000D01*
X176576935Y-137110000D01*
X176571855Y-137046302D01*
X176538398Y-136938262D01*
X176476165Y-136843821D01*
X176390086Y-136770457D01*
X176286976Y-136723978D01*
X176175000Y-136708065D01*
X175425000Y-136708065D01*
X175361302Y-136713145D01*
X175253262Y-136746602D01*
X175158821Y-136808835D01*
X175085457Y-136894914D01*
X175078657Y-136910000D01*
X172975000Y-136910000D01*
X172919871Y-136915405D01*
X172864629Y-136920239D01*
X172861600Y-136921119D01*
X172858459Y-136921427D01*
X172805362Y-136937458D01*
X172752179Y-136952909D01*
X172749381Y-136954359D01*
X172746358Y-136955272D01*
X172697427Y-136981289D01*
X172648216Y-137006797D01*
X172645748Y-137008767D01*
X172642965Y-137010247D01*
X172600056Y-137045243D01*
X172556701Y-137079853D01*
X172552309Y-137084184D01*
X172552219Y-137084258D01*
X172552150Y-137084342D01*
X172550736Y-137085736D01*
X172050736Y-137585736D01*
X172015561Y-137628559D01*
X171979932Y-137671020D01*
X171978413Y-137673784D01*
X171976409Y-137676223D01*
X171950201Y-137725101D01*
X171923519Y-137773635D01*
X171922566Y-137776640D01*
X171921074Y-137779422D01*
X171904865Y-137832440D01*
X171888111Y-137885253D01*
X171887759Y-137888388D01*
X171886837Y-137891405D01*
X171881853Y-137940477D01*
X171837925Y-137992018D01*
X171806165Y-137943821D01*
X171720086Y-137870457D01*
X171616976Y-137823978D01*
X171505000Y-137808065D01*
X170905000Y-137808065D01*
X170841302Y-137813145D01*
X170733262Y-137846602D01*
X170638821Y-137908835D01*
X170567925Y-137992018D01*
X170536165Y-137943821D01*
X170450086Y-137870457D01*
X170346976Y-137823978D01*
X170235000Y-137808065D01*
X169635000Y-137808065D01*
X169571302Y-137813145D01*
X169463262Y-137846602D01*
X169368821Y-137908835D01*
X169297925Y-137992018D01*
X169266165Y-137943821D01*
X169180086Y-137870457D01*
X169076976Y-137823978D01*
X168965000Y-137808065D01*
X168365000Y-137808065D01*
X168301302Y-137813145D01*
X168193262Y-137846602D01*
X168098821Y-137908835D01*
X168027925Y-137992018D01*
X167996165Y-137943821D01*
X167910086Y-137870457D01*
X167806976Y-137823978D01*
X167695000Y-137808065D01*
X167095000Y-137808065D01*
X167031302Y-137813145D01*
X166923262Y-137846602D01*
X166828821Y-137908835D01*
X166757925Y-137992018D01*
X166726165Y-137943821D01*
X166640086Y-137870457D01*
X166536976Y-137823978D01*
X166425000Y-137808065D01*
X165825000Y-137808065D01*
X165761302Y-137813145D01*
X165653262Y-137846602D01*
X165558821Y-137908835D01*
X165487925Y-137992018D01*
X165456165Y-137943821D01*
X165370086Y-137870457D01*
X165266976Y-137823978D01*
X165155000Y-137808065D01*
X164555000Y-137808065D01*
X164491302Y-137813145D01*
X164383262Y-137846602D01*
X164288821Y-137908835D01*
X164215457Y-137994914D01*
X164168978Y-138098024D01*
X164153065Y-138210000D01*
X164153065Y-138340000D01*
X162892133Y-138340000D01*
X162834432Y-138281895D01*
X162696237Y-138188681D01*
X162542568Y-138124084D01*
X162379279Y-138090566D01*
X162212590Y-138089402D01*
X162048848Y-138120637D01*
X161894293Y-138183082D01*
X161754810Y-138274357D01*
X161635711Y-138390987D01*
X161541535Y-138528528D01*
X161475867Y-138681742D01*
X161441210Y-138844793D01*
X161438882Y-139011470D01*
X145557058Y-139011470D01*
X153061110Y-131507418D01*
X153151169Y-131535987D01*
X153396243Y-131563477D01*
X153413886Y-131563600D01*
X153426114Y-131563600D01*
X153671549Y-131539535D01*
X153907635Y-131468256D01*
X154125380Y-131352479D01*
X154193940Y-131296563D01*
X154225248Y-131334950D01*
X154259854Y-131378300D01*
X154264184Y-131382691D01*
X154264258Y-131382781D01*
X154264342Y-131382850D01*
X154265736Y-131384264D01*
X158215736Y-135334264D01*
X158258559Y-135369439D01*
X158301020Y-135405068D01*
X158303784Y-135406587D01*
X158306223Y-135408591D01*
X158355117Y-135434808D01*
X158403635Y-135461481D01*
X158406638Y-135462434D01*
X158409423Y-135463927D01*
X158462459Y-135480141D01*
X158515253Y-135496889D01*
X158518390Y-135497241D01*
X158521406Y-135498163D01*
X158576539Y-135503763D01*
X158631623Y-135509942D01*
X158637786Y-135509985D01*
X158637907Y-135509997D01*
X158638020Y-135509986D01*
X158640000Y-135510000D01*
X167000000Y-135510000D01*
X167055170Y-135504591D01*
X167110371Y-135499761D01*
X167113400Y-135498881D01*
X167116541Y-135498573D01*
X167169638Y-135482542D01*
X167222821Y-135467091D01*
X167225619Y-135465641D01*
X167228642Y-135464728D01*
X167277573Y-135438711D01*
X167326784Y-135413203D01*
X167329252Y-135411233D01*
X167332035Y-135409753D01*
X167374950Y-135374752D01*
X167418300Y-135340146D01*
X167422691Y-135335816D01*
X167422781Y-135335742D01*
X167422850Y-135335658D01*
X167424264Y-135334264D01*
X167819264Y-134939264D01*
X167854439Y-134896441D01*
X167890068Y-134853980D01*
X167891587Y-134851216D01*
X167893591Y-134848777D01*
X167919799Y-134799899D01*
X167946481Y-134751365D01*
X167947434Y-134748360D01*
X167948926Y-134745578D01*
X167965135Y-134692560D01*
X167981889Y-134639747D01*
X167982241Y-134636612D01*
X167983163Y-134633595D01*
X167988724Y-134578846D01*
X168032075Y-134527982D01*
X168063835Y-134576179D01*
X168149914Y-134649543D01*
X168253024Y-134696022D01*
X168365000Y-134711935D01*
X168965000Y-134711935D01*
X169028698Y-134706855D01*
X169136738Y-134673398D01*
X169231179Y-134611165D01*
X169302075Y-134527982D01*
X169333835Y-134576179D01*
X169419914Y-134649543D01*
X169523024Y-134696022D01*
X169635000Y-134711935D01*
X170235000Y-134711935D01*
X170298698Y-134706855D01*
X170406738Y-134673398D01*
X170501179Y-134611165D01*
X170572075Y-134527982D01*
X170603835Y-134576179D01*
X170689914Y-134649543D01*
X170793024Y-134696022D01*
X170905000Y-134711935D01*
X171505000Y-134711935D01*
X171568698Y-134706855D01*
X171676738Y-134673398D01*
X171771179Y-134611165D01*
X171844543Y-134525086D01*
X171891022Y-134421976D01*
X171906935Y-134310000D01*
X171906935Y-132810000D01*
X171901855Y-132746302D01*
X171868398Y-132638262D01*
X171829419Y-132579109D01*
X172894264Y-131514264D01*
X172929439Y-131471441D01*
X172965068Y-131428980D01*
X172966587Y-131426216D01*
X172968591Y-131423777D01*
X172994799Y-131374899D01*
X173014899Y-131338338D01*
X173019994Y-131342613D01*
X173236101Y-131461419D01*
X173471169Y-131535987D01*
X173716243Y-131563477D01*
X173733886Y-131563600D01*
X173746114Y-131563600D01*
X173991549Y-131539535D01*
X174227635Y-131468256D01*
X174410000Y-131371291D01*
X174410000Y-132643435D01*
X174408398Y-132638262D01*
X174346165Y-132543821D01*
X174260086Y-132470457D01*
X174156976Y-132423978D01*
X174045000Y-132408065D01*
X173445000Y-132408065D01*
X173381302Y-132413145D01*
X173273262Y-132446602D01*
X173178821Y-132508835D01*
X173105457Y-132594914D01*
X173058978Y-132698024D01*
X173043065Y-132810000D01*
X173043065Y-134310000D01*
X173048145Y-134373698D01*
X173081602Y-134481738D01*
X173143835Y-134576179D01*
X173229914Y-134649543D01*
X173333024Y-134696022D01*
X173445000Y-134711935D01*
X174045000Y-134711935D01*
X174108698Y-134706855D01*
X174216738Y-134673398D01*
X174311179Y-134611165D01*
X174384543Y-134525086D01*
X174431022Y-134421976D01*
X174446935Y-134310000D01*
X174446935Y-134110000D01*
X175080226Y-134110000D01*
X175123835Y-134176179D01*
X175209914Y-134249543D01*
X175313024Y-134296022D01*
X175425000Y-134311935D01*
X176175000Y-134311935D01*
X176238698Y-134306855D01*
X176346738Y-134273398D01*
X176441179Y-134211165D01*
X176514543Y-134125086D01*
X176561022Y-134021976D01*
X176576935Y-133910000D01*
X176576935Y-133110000D01*
X176571855Y-133046302D01*
X176538398Y-132938262D01*
X176476165Y-132843821D01*
X176390086Y-132770457D01*
X176286976Y-132723978D01*
X176175000Y-132708065D01*
X175610000Y-132708065D01*
X175610000Y-128830104D01*
X175776101Y-128921419D01*
X176011169Y-128995987D01*
X176256243Y-129023477D01*
X176273886Y-129023600D01*
X176286114Y-129023600D01*
X176531549Y-128999535D01*
X176767635Y-128928256D01*
X176985380Y-128812479D01*
X177176490Y-128656614D01*
X177333686Y-128466596D01*
X177450980Y-128249665D01*
X177523905Y-128014082D01*
X177549683Y-127768822D01*
X177527332Y-127523225D01*
X177457704Y-127286647D01*
X177343449Y-127068099D01*
X177188922Y-126875905D01*
X177000006Y-126717387D01*
X176783899Y-126598581D01*
X176548831Y-126524013D01*
X176303757Y-126496523D01*
X176286114Y-126496400D01*
X176273886Y-126496400D01*
X176028451Y-126520465D01*
X175792365Y-126591744D01*
X175610000Y-126688709D01*
X175610000Y-124248528D01*
X176414264Y-123444264D01*
X176449439Y-123401441D01*
X176485068Y-123358980D01*
X176486587Y-123356216D01*
X176488591Y-123353777D01*
X176514799Y-123304899D01*
X176541481Y-123256365D01*
X176542434Y-123253360D01*
X176543926Y-123250578D01*
X176560135Y-123197560D01*
X176576889Y-123144747D01*
X176577241Y-123141612D01*
X176578163Y-123138595D01*
X176583759Y-123083496D01*
X176589942Y-123028377D01*
X176589985Y-123022205D01*
X176589996Y-123022094D01*
X176589986Y-123021991D01*
X176590000Y-123020000D01*
X176590000Y-117790000D01*
X176584595Y-117734871D01*
X176579761Y-117679629D01*
X176578881Y-117676600D01*
X176578573Y-117673459D01*
X176562552Y-117620395D01*
X176547092Y-117567180D01*
X176545640Y-117564379D01*
X176544728Y-117561358D01*
X176518709Y-117512424D01*
X176493203Y-117463217D01*
X176491234Y-117460751D01*
X176489753Y-117457965D01*
X176454739Y-117415034D01*
X176420147Y-117371701D01*
X176415816Y-117367309D01*
X176415742Y-117367219D01*
X176415658Y-117367150D01*
X176414264Y-117365736D01*
X174384264Y-115335736D01*
X174341441Y-115300561D01*
X174310979Y-115275000D01*
X176486546Y-115275000D01*
X176737682Y-115299624D01*
X176966307Y-115368650D01*
X177177176Y-115480771D01*
X177362249Y-115631714D01*
X177514478Y-115815728D01*
X177628066Y-116025802D01*
X177698688Y-116253945D01*
X177725000Y-116504296D01*
X177725000Y-141486546D01*
X177700376Y-141737682D01*
X177631349Y-141966311D01*
X177519229Y-142177175D01*
X177368286Y-142362250D01*
X177184275Y-142514477D01*
X176974194Y-142628068D01*
X176746055Y-142698688D01*
X176495704Y-142725000D01*
X129513454Y-142725000D01*
X129262318Y-142700376D01*
X129033689Y-142631349D01*
X128822825Y-142519229D01*
X128637750Y-142368286D01*
X128485523Y-142184275D01*
X128371932Y-141974194D01*
X128301312Y-141746055D01*
X128275000Y-141495704D01*
X128275000Y-122784532D01*
X130897897Y-122784532D01*
X130954539Y-123093154D01*
X131070048Y-123384896D01*
X131240023Y-123648645D01*
X131457990Y-123874357D01*
X131715648Y-124053433D01*
X132003180Y-124179054D01*
X132309637Y-124246432D01*
X132623344Y-124253004D01*
X132932354Y-124198517D01*
X133125192Y-124123720D01*
X133185736Y-124184264D01*
X133228559Y-124219439D01*
X133271020Y-124255068D01*
X133273784Y-124256587D01*
X133276223Y-124258591D01*
X133325101Y-124284799D01*
X133373635Y-124311481D01*
X133376640Y-124312434D01*
X133379422Y-124313926D01*
X133432440Y-124330135D01*
X133485253Y-124346889D01*
X133488388Y-124347241D01*
X133491405Y-124348163D01*
X133546504Y-124353759D01*
X133601623Y-124359942D01*
X133607795Y-124359985D01*
X133607906Y-124359996D01*
X133608009Y-124359986D01*
X133610000Y-124360000D01*
X136429870Y-124360000D01*
X136436602Y-124381738D01*
X136450000Y-124402070D01*
X136450000Y-125118112D01*
X136413978Y-125198024D01*
X136398065Y-125310000D01*
X136398065Y-126210000D01*
X136403145Y-126273698D01*
X136436602Y-126381738D01*
X136498835Y-126476179D01*
X136584914Y-126549543D01*
X136688024Y-126596022D01*
X136800000Y-126611935D01*
X137300000Y-126611935D01*
X137363698Y-126606855D01*
X137471738Y-126573398D01*
X137566179Y-126511165D01*
X137639543Y-126425086D01*
X137686022Y-126321976D01*
X137701935Y-126210000D01*
X137701935Y-125310000D01*
X137696855Y-125246302D01*
X137663398Y-125138262D01*
X137650000Y-125117930D01*
X137650000Y-124401888D01*
X137686022Y-124321976D01*
X137701935Y-124210000D01*
X137701935Y-123310000D01*
X137696855Y-123246302D01*
X137663398Y-123138262D01*
X137601165Y-123043821D01*
X137515086Y-122970457D01*
X137411976Y-122923978D01*
X137300000Y-122908065D01*
X136800000Y-122908065D01*
X136736302Y-122913145D01*
X136628262Y-122946602D01*
X136533821Y-123008835D01*
X136460457Y-123094914D01*
X136431118Y-123160000D01*
X134024427Y-123160000D01*
X134025548Y-123157482D01*
X134095064Y-122851504D01*
X134100069Y-122493112D01*
X134039123Y-122185311D01*
X133919552Y-121895211D01*
X133745911Y-121633860D01*
X133524813Y-121411213D01*
X133264681Y-121235752D01*
X132975422Y-121114159D01*
X132668055Y-121051065D01*
X132354286Y-121048875D01*
X132046068Y-121107671D01*
X131755140Y-121225213D01*
X131492583Y-121397026D01*
X131268398Y-121616563D01*
X131091125Y-121875464D01*
X130967515Y-122163867D01*
X130902278Y-122470787D01*
X130897897Y-122784532D01*
X128275000Y-122784532D01*
X128275000Y-116513454D01*
X128299624Y-116262318D01*
X128368650Y-116033693D01*
X128480771Y-115822824D01*
X128631714Y-115637751D01*
X128815728Y-115485522D01*
X129025802Y-115371934D01*
X129253945Y-115301312D01*
X129504296Y-115275000D01*
X141449876Y-115275000D01*
X141425056Y-115295243D01*
G36*
X144624603Y-118026869D02*
X144475422Y-117964159D01*
X144168055Y-117901065D01*
X143854286Y-117898875D01*
X143546068Y-117957671D01*
X143255140Y-118075213D01*
X142992583Y-118247026D01*
X142768398Y-118466563D01*
X142591125Y-118725464D01*
X142467515Y-119013867D01*
X142402278Y-119320787D01*
X142397897Y-119634532D01*
X142454539Y-119943154D01*
X142570048Y-120234896D01*
X142740023Y-120498645D01*
X142957990Y-120724357D01*
X143215648Y-120903433D01*
X143503180Y-121029054D01*
X143809637Y-121096432D01*
X144123344Y-121103004D01*
X144432354Y-121048517D01*
X144724895Y-120935048D01*
X144989825Y-120766918D01*
X145217053Y-120550532D01*
X145397924Y-120294131D01*
X145525548Y-120007482D01*
X145595064Y-119701504D01*
X145595999Y-119634532D01*
X145897897Y-119634532D01*
X145954539Y-119943154D01*
X146070048Y-120234896D01*
X146150760Y-120360136D01*
X146150760Y-123560000D01*
X146167900Y-123734811D01*
X146218669Y-123902963D01*
X146248775Y-123959584D01*
X146248775Y-123960050D01*
X146253855Y-124023748D01*
X146287312Y-124131788D01*
X146349545Y-124226229D01*
X146435624Y-124299593D01*
X146538734Y-124346072D01*
X146650710Y-124361985D01*
X146650781Y-124361985D01*
X146701996Y-124389677D01*
X146869790Y-124441618D01*
X147044477Y-124459978D01*
X147219403Y-124444059D01*
X147387906Y-124394465D01*
X147450035Y-124361985D01*
X147450810Y-124361985D01*
X147514508Y-124356905D01*
X147622548Y-124323448D01*
X147716989Y-124261215D01*
X147790353Y-124175136D01*
X147836832Y-124072026D01*
X147852668Y-123960594D01*
X147877982Y-123914548D01*
X147931093Y-123747121D01*
X147950672Y-123572566D01*
X147950760Y-123560000D01*
X147950760Y-121041378D01*
X148224895Y-120935048D01*
X148489825Y-120766918D01*
X148717053Y-120550532D01*
X148897924Y-120294131D01*
X149025548Y-120007482D01*
X149095064Y-119701504D01*
X149095999Y-119634532D01*
X149397897Y-119634532D01*
X149454539Y-119943154D01*
X149570048Y-120234896D01*
X149740023Y-120498645D01*
X149957990Y-120724357D01*
X150215648Y-120903433D01*
X150503180Y-121029054D01*
X150809637Y-121096432D01*
X151123344Y-121103004D01*
X151299203Y-121071995D01*
X152150760Y-121923552D01*
X152150760Y-123560000D01*
X152167900Y-123734811D01*
X152218669Y-123902963D01*
X152248775Y-123959584D01*
X152248775Y-123960050D01*
X152253855Y-124023748D01*
X152287312Y-124131788D01*
X152349545Y-124226229D01*
X152435624Y-124299593D01*
X152538734Y-124346072D01*
X152650710Y-124361985D01*
X152650781Y-124361985D01*
X152701996Y-124389677D01*
X152869790Y-124441618D01*
X153044477Y-124459978D01*
X153219403Y-124444059D01*
X153387906Y-124394465D01*
X153450035Y-124361985D01*
X153450810Y-124361985D01*
X153514508Y-124356905D01*
X153622548Y-124323448D01*
X153716989Y-124261215D01*
X153790353Y-124175136D01*
X153836832Y-124072026D01*
X153852668Y-123960594D01*
X153877982Y-123914548D01*
X153931093Y-123747121D01*
X153950672Y-123572566D01*
X153950760Y-123560000D01*
X153950760Y-121550760D01*
X153942648Y-121468028D01*
X153935402Y-121385204D01*
X153934082Y-121380660D01*
X153933620Y-121375949D01*
X153909604Y-121296406D01*
X153886398Y-121216529D01*
X153884217Y-121212322D01*
X153882851Y-121207797D01*
X153843863Y-121134471D01*
X153805564Y-121060585D01*
X153802609Y-121056884D01*
X153800389Y-121052708D01*
X153747853Y-120988292D01*
X153695980Y-120923312D01*
X153689488Y-120916729D01*
X153689374Y-120916589D01*
X153689245Y-120916482D01*
X153687156Y-120914364D01*
X152572706Y-119799914D01*
X152595064Y-119701504D01*
X152595999Y-119634532D01*
X153897897Y-119634532D01*
X153954539Y-119943154D01*
X154070048Y-120234896D01*
X154240023Y-120498645D01*
X154457990Y-120724357D01*
X154715648Y-120903433D01*
X155003180Y-121029054D01*
X155309637Y-121096432D01*
X155623344Y-121103004D01*
X155932354Y-121048517D01*
X156224895Y-120935048D01*
X156489825Y-120766918D01*
X156717053Y-120550532D01*
X156897924Y-120294131D01*
X157025548Y-120007482D01*
X157095064Y-119701504D01*
X157095999Y-119634532D01*
X157547897Y-119634532D01*
X157604539Y-119943154D01*
X157720048Y-120234896D01*
X157890023Y-120498645D01*
X158107990Y-120724357D01*
X158365648Y-120903433D01*
X158653180Y-121029054D01*
X158959637Y-121096432D01*
X159273344Y-121103004D01*
X159582354Y-121048517D01*
X159874895Y-120935048D01*
X160139825Y-120766918D01*
X160367053Y-120550532D01*
X160473242Y-120400000D01*
X161326450Y-120400000D01*
X161390023Y-120498645D01*
X161400000Y-120508977D01*
X161400000Y-123010000D01*
X161417140Y-123184811D01*
X161451017Y-123297015D01*
X161453145Y-123323698D01*
X161486602Y-123431738D01*
X161548835Y-123526179D01*
X161602361Y-123571798D01*
X161661386Y-123644171D01*
X161796726Y-123756134D01*
X161951236Y-123839677D01*
X162119030Y-123891618D01*
X162293717Y-123909978D01*
X162468643Y-123894059D01*
X162637146Y-123844465D01*
X162792807Y-123763088D01*
X162929697Y-123653025D01*
X162995148Y-123575024D01*
X163016179Y-123561165D01*
X163089543Y-123475086D01*
X163136022Y-123371976D01*
X163145076Y-123308265D01*
X163180333Y-123197121D01*
X163199912Y-123022566D01*
X163200000Y-123010000D01*
X163200000Y-121002885D01*
X163374895Y-120935048D01*
X163639825Y-120766918D01*
X163867053Y-120550532D01*
X164047924Y-120294131D01*
X164175548Y-120007482D01*
X164245064Y-119701504D01*
X164250069Y-119343112D01*
X164189123Y-119035311D01*
X164069552Y-118745211D01*
X163895911Y-118483860D01*
X163674813Y-118261213D01*
X163414681Y-118085752D01*
X163125422Y-117964159D01*
X162818055Y-117901065D01*
X162504286Y-117898875D01*
X162196068Y-117957671D01*
X161905140Y-118075213D01*
X161642583Y-118247026D01*
X161418398Y-118466563D01*
X161327032Y-118600000D01*
X160473074Y-118600000D01*
X160395911Y-118483860D01*
X160174813Y-118261213D01*
X159914681Y-118085752D01*
X159625422Y-117964159D01*
X159318055Y-117901065D01*
X159004286Y-117898875D01*
X158696068Y-117957671D01*
X158405140Y-118075213D01*
X158142583Y-118247026D01*
X157918398Y-118466563D01*
X157741125Y-118725464D01*
X157617515Y-119013867D01*
X157552278Y-119320787D01*
X157547897Y-119634532D01*
X157095999Y-119634532D01*
X157100069Y-119343112D01*
X157039123Y-119035311D01*
X156919552Y-118745211D01*
X156745911Y-118483860D01*
X156524813Y-118261213D01*
X156264681Y-118085752D01*
X155975422Y-117964159D01*
X155668055Y-117901065D01*
X155354286Y-117898875D01*
X155046068Y-117957671D01*
X154755140Y-118075213D01*
X154492583Y-118247026D01*
X154268398Y-118466563D01*
X154091125Y-118725464D01*
X153967515Y-119013867D01*
X153902278Y-119320787D01*
X153897897Y-119634532D01*
X152595999Y-119634532D01*
X152600069Y-119343112D01*
X152539123Y-119035311D01*
X152419552Y-118745211D01*
X152245911Y-118483860D01*
X152024813Y-118261213D01*
X151764681Y-118085752D01*
X151475422Y-117964159D01*
X151168055Y-117901065D01*
X150854286Y-117898875D01*
X150546068Y-117957671D01*
X150255140Y-118075213D01*
X149992583Y-118247026D01*
X149768398Y-118466563D01*
X149591125Y-118725464D01*
X149467515Y-119013867D01*
X149402278Y-119320787D01*
X149397897Y-119634532D01*
X149095999Y-119634532D01*
X149100069Y-119343112D01*
X149039123Y-119035311D01*
X148919552Y-118745211D01*
X148745911Y-118483860D01*
X148524813Y-118261213D01*
X148264681Y-118085752D01*
X147975422Y-117964159D01*
X147668055Y-117901065D01*
X147354286Y-117898875D01*
X147046068Y-117957671D01*
X146755140Y-118075213D01*
X146492583Y-118247026D01*
X146268398Y-118466563D01*
X146091125Y-118725464D01*
X145967515Y-119013867D01*
X145902278Y-119320787D01*
X145897897Y-119634532D01*
X145595999Y-119634532D01*
X145600069Y-119343112D01*
X145539123Y-119035311D01*
X145473188Y-118875340D01*
X146678528Y-117670000D01*
X167661472Y-117670000D01*
X167840000Y-117848528D01*
X167840000Y-119039740D01*
X167839123Y-119035311D01*
X167719552Y-118745211D01*
X167545911Y-118483860D01*
X167324813Y-118261213D01*
X167064681Y-118085752D01*
X166775422Y-117964159D01*
X166468055Y-117901065D01*
X166154286Y-117898875D01*
X165846068Y-117957671D01*
X165555140Y-118075213D01*
X165292583Y-118247026D01*
X165068398Y-118466563D01*
X164891125Y-118725464D01*
X164767515Y-119013867D01*
X164702278Y-119320787D01*
X164697897Y-119634532D01*
X164754539Y-119943154D01*
X164870048Y-120234896D01*
X165040023Y-120498645D01*
X165257990Y-120724357D01*
X165515648Y-120903433D01*
X165700760Y-120984307D01*
X165700760Y-122815143D01*
X165634531Y-122858785D01*
X165561167Y-122944864D01*
X165514688Y-123047974D01*
X165498775Y-123159950D01*
X165498775Y-123960050D01*
X165503855Y-124023748D01*
X165537312Y-124131788D01*
X165599545Y-124226229D01*
X165685624Y-124299593D01*
X165788734Y-124346072D01*
X165900710Y-124361985D01*
X166700810Y-124361985D01*
X166764508Y-124356905D01*
X166872548Y-124323448D01*
X166966989Y-124261215D01*
X167040353Y-124175136D01*
X167086832Y-124072026D01*
X167102745Y-123960050D01*
X167102745Y-123159950D01*
X167097665Y-123096252D01*
X167064208Y-122988212D01*
X167001975Y-122893771D01*
X166915896Y-122820407D01*
X166900760Y-122813584D01*
X166900760Y-120983197D01*
X167024895Y-120935048D01*
X167289825Y-120766918D01*
X167517053Y-120550532D01*
X167697924Y-120294131D01*
X167825548Y-120007482D01*
X167840000Y-119943871D01*
X167840000Y-120160000D01*
X167845409Y-120215170D01*
X167850239Y-120270371D01*
X167851119Y-120273400D01*
X167851427Y-120276541D01*
X167867458Y-120329638D01*
X167882909Y-120382821D01*
X167884359Y-120385619D01*
X167885272Y-120388642D01*
X167911289Y-120437573D01*
X167936797Y-120486784D01*
X167938767Y-120489252D01*
X167940247Y-120492035D01*
X167975248Y-120534950D01*
X168009854Y-120578300D01*
X168014184Y-120582691D01*
X168014258Y-120582781D01*
X168014342Y-120582850D01*
X168015736Y-120584264D01*
X169330000Y-121898528D01*
X169330000Y-129229896D01*
X169163899Y-129138581D01*
X168928831Y-129064013D01*
X168683757Y-129036523D01*
X168666114Y-129036400D01*
X168653886Y-129036400D01*
X168408451Y-129060465D01*
X168172365Y-129131744D01*
X167954620Y-129247521D01*
X167763510Y-129403386D01*
X167606314Y-129593404D01*
X167489020Y-129810335D01*
X167416095Y-130045918D01*
X167390317Y-130291178D01*
X167412668Y-130536775D01*
X167482296Y-130773353D01*
X167596551Y-130991901D01*
X167751078Y-131184095D01*
X167939994Y-131342613D01*
X168156101Y-131461419D01*
X168391169Y-131535987D01*
X168636243Y-131563477D01*
X168653886Y-131563600D01*
X168666114Y-131563600D01*
X168911549Y-131539535D01*
X169147635Y-131468256D01*
X169330000Y-131371291D01*
X169330000Y-132554384D01*
X169297925Y-132592018D01*
X169266165Y-132543821D01*
X169257547Y-132536476D01*
X169254761Y-132504629D01*
X169253881Y-132501600D01*
X169253573Y-132498459D01*
X169237542Y-132445362D01*
X169222091Y-132392179D01*
X169220641Y-132389381D01*
X169219728Y-132386358D01*
X169193690Y-132337388D01*
X169168202Y-132288216D01*
X169166235Y-132285751D01*
X169164753Y-132282965D01*
X169129730Y-132240022D01*
X169095146Y-132196700D01*
X169090816Y-132192309D01*
X169090742Y-132192219D01*
X169090658Y-132192150D01*
X169089264Y-132190736D01*
X168684264Y-131785736D01*
X168641441Y-131750561D01*
X168598980Y-131714932D01*
X168596216Y-131713413D01*
X168593777Y-131711409D01*
X168544899Y-131685201D01*
X168496365Y-131658519D01*
X168493360Y-131657566D01*
X168490578Y-131656074D01*
X168437560Y-131639865D01*
X168384747Y-131623111D01*
X168381612Y-131622759D01*
X168378595Y-131621837D01*
X168323496Y-131616241D01*
X168268377Y-131610058D01*
X168262205Y-131610015D01*
X168262094Y-131610004D01*
X168261991Y-131610014D01*
X168260000Y-131610000D01*
X160818528Y-131610000D01*
X160732132Y-131523604D01*
X160771169Y-131535987D01*
X161016243Y-131563477D01*
X161033886Y-131563600D01*
X161046114Y-131563600D01*
X161291549Y-131539535D01*
X161527635Y-131468256D01*
X161745380Y-131352479D01*
X161936490Y-131196614D01*
X162093686Y-131006596D01*
X162210980Y-130789665D01*
X162283905Y-130554082D01*
X162309683Y-130308822D01*
X162308078Y-130291178D01*
X162310317Y-130291178D01*
X162332668Y-130536775D01*
X162402296Y-130773353D01*
X162516551Y-130991901D01*
X162671078Y-131184095D01*
X162859994Y-131342613D01*
X163076101Y-131461419D01*
X163311169Y-131535987D01*
X163556243Y-131563477D01*
X163573886Y-131563600D01*
X163586114Y-131563600D01*
X163831549Y-131539535D01*
X164067635Y-131468256D01*
X164285380Y-131352479D01*
X164476490Y-131196614D01*
X164633686Y-131006596D01*
X164750980Y-130789665D01*
X164823905Y-130554082D01*
X164849683Y-130308822D01*
X164848078Y-130291178D01*
X164850317Y-130291178D01*
X164872668Y-130536775D01*
X164942296Y-130773353D01*
X165056551Y-130991901D01*
X165211078Y-131184095D01*
X165399994Y-131342613D01*
X165616101Y-131461419D01*
X165851169Y-131535987D01*
X166096243Y-131563477D01*
X166113886Y-131563600D01*
X166126114Y-131563600D01*
X166371549Y-131539535D01*
X166607635Y-131468256D01*
X166825380Y-131352479D01*
X167016490Y-131196614D01*
X167173686Y-131006596D01*
X167290980Y-130789665D01*
X167363905Y-130554082D01*
X167389683Y-130308822D01*
X167367332Y-130063225D01*
X167297704Y-129826647D01*
X167183449Y-129608099D01*
X167028922Y-129415905D01*
X166840006Y-129257387D01*
X166623899Y-129138581D01*
X166388831Y-129064013D01*
X166143757Y-129036523D01*
X166126114Y-129036400D01*
X166113886Y-129036400D01*
X165868451Y-129060465D01*
X165632365Y-129131744D01*
X165414620Y-129247521D01*
X165223510Y-129403386D01*
X165066314Y-129593404D01*
X164949020Y-129810335D01*
X164876095Y-130045918D01*
X164850317Y-130291178D01*
X164848078Y-130291178D01*
X164827332Y-130063225D01*
X164757704Y-129826647D01*
X164643449Y-129608099D01*
X164488922Y-129415905D01*
X164300006Y-129257387D01*
X164083899Y-129138581D01*
X163848831Y-129064013D01*
X163603757Y-129036523D01*
X163586114Y-129036400D01*
X163573886Y-129036400D01*
X163328451Y-129060465D01*
X163092365Y-129131744D01*
X162874620Y-129247521D01*
X162683510Y-129403386D01*
X162526314Y-129593404D01*
X162409020Y-129810335D01*
X162336095Y-130045918D01*
X162310317Y-130291178D01*
X162308078Y-130291178D01*
X162287332Y-130063225D01*
X162217704Y-129826647D01*
X162103449Y-129608099D01*
X161948922Y-129415905D01*
X161760006Y-129257387D01*
X161543899Y-129138581D01*
X161308831Y-129064013D01*
X161063757Y-129036523D01*
X161046114Y-129036400D01*
X161033886Y-129036400D01*
X160788451Y-129060465D01*
X160552365Y-129131744D01*
X160334620Y-129247521D01*
X160266060Y-129303437D01*
X160234730Y-129265022D01*
X160200146Y-129221700D01*
X160195816Y-129217309D01*
X160195742Y-129217219D01*
X160195658Y-129217150D01*
X160194264Y-129215736D01*
X159584264Y-128605736D01*
X159541441Y-128570561D01*
X159498980Y-128534932D01*
X159497725Y-128534242D01*
X159553686Y-128466596D01*
X159670980Y-128249665D01*
X159743905Y-128014082D01*
X159769683Y-127768822D01*
X159747332Y-127523225D01*
X159677704Y-127286647D01*
X159563449Y-127068099D01*
X159408922Y-126875905D01*
X159220006Y-126717387D01*
X159003899Y-126598581D01*
X158768831Y-126524013D01*
X158523757Y-126496523D01*
X158506114Y-126496400D01*
X158493886Y-126496400D01*
X158248451Y-126520465D01*
X158141334Y-126552806D01*
X157698528Y-126110000D01*
X161081472Y-126110000D01*
X162369494Y-127398022D01*
X162336095Y-127505918D01*
X162310317Y-127751178D01*
X162332668Y-127996775D01*
X162402296Y-128233353D01*
X162516551Y-128451901D01*
X162671078Y-128644095D01*
X162859994Y-128802613D01*
X163076101Y-128921419D01*
X163311169Y-128995987D01*
X163556243Y-129023477D01*
X163573886Y-129023600D01*
X163586114Y-129023600D01*
X163831549Y-128999535D01*
X164067635Y-128928256D01*
X164285380Y-128812479D01*
X164476490Y-128656614D01*
X164633686Y-128466596D01*
X164750980Y-128249665D01*
X164823905Y-128014082D01*
X164849683Y-127768822D01*
X164848078Y-127751178D01*
X164850317Y-127751178D01*
X164872668Y-127996775D01*
X164942296Y-128233353D01*
X165056551Y-128451901D01*
X165211078Y-128644095D01*
X165399994Y-128802613D01*
X165616101Y-128921419D01*
X165851169Y-128995987D01*
X166096243Y-129023477D01*
X166113886Y-129023600D01*
X166126114Y-129023600D01*
X166371549Y-128999535D01*
X166607635Y-128928256D01*
X166825380Y-128812479D01*
X167016490Y-128656614D01*
X167173686Y-128466596D01*
X167290980Y-128249665D01*
X167363905Y-128014082D01*
X167389683Y-127768822D01*
X167367332Y-127523225D01*
X167297704Y-127286647D01*
X167183449Y-127068099D01*
X167028922Y-126875905D01*
X166900760Y-126768365D01*
X166900760Y-126204857D01*
X166966989Y-126161215D01*
X167010639Y-126110000D01*
X167658112Y-126110000D01*
X167738024Y-126146022D01*
X167850000Y-126161935D01*
X168160584Y-126161935D01*
X168179353Y-126167745D01*
X168295811Y-126179985D01*
X168412429Y-126169372D01*
X168437698Y-126161935D01*
X168750000Y-126161935D01*
X168813698Y-126156855D01*
X168921738Y-126123398D01*
X169016179Y-126061165D01*
X169089543Y-125975086D01*
X169136022Y-125871976D01*
X169151935Y-125760000D01*
X169151935Y-125260000D01*
X169146855Y-125196302D01*
X169113398Y-125088262D01*
X169051165Y-124993821D01*
X168965086Y-124920457D01*
X168861976Y-124873978D01*
X168750000Y-124858065D01*
X167850000Y-124858065D01*
X167786302Y-124863145D01*
X167678262Y-124896602D01*
X167657930Y-124910000D01*
X167070955Y-124910000D01*
X167064208Y-124888212D01*
X167001975Y-124793771D01*
X166915896Y-124720407D01*
X166812786Y-124673928D01*
X166700810Y-124658015D01*
X165900710Y-124658015D01*
X165837012Y-124663095D01*
X165728972Y-124696552D01*
X165634531Y-124758785D01*
X165561167Y-124844864D01*
X165514688Y-124947974D01*
X165498775Y-125059950D01*
X165498775Y-125860050D01*
X165503855Y-125923748D01*
X165537312Y-126031788D01*
X165599545Y-126126229D01*
X165685624Y-126199593D01*
X165700760Y-126206416D01*
X165700760Y-126571094D01*
X165632365Y-126591744D01*
X165414620Y-126707521D01*
X165223510Y-126863386D01*
X165066314Y-127053404D01*
X164949020Y-127270335D01*
X164876095Y-127505918D01*
X164850317Y-127751178D01*
X164848078Y-127751178D01*
X164827332Y-127523225D01*
X164757704Y-127286647D01*
X164643449Y-127068099D01*
X164488922Y-126875905D01*
X164300006Y-126717387D01*
X164083899Y-126598581D01*
X163848831Y-126524013D01*
X163603757Y-126496523D01*
X163586114Y-126496400D01*
X163573886Y-126496400D01*
X163328451Y-126520465D01*
X163221334Y-126552806D01*
X161754264Y-125085736D01*
X161711441Y-125050561D01*
X161668980Y-125014932D01*
X161666216Y-125013413D01*
X161663777Y-125011409D01*
X161614899Y-124985201D01*
X161566365Y-124958519D01*
X161563360Y-124957566D01*
X161560578Y-124956074D01*
X161507560Y-124939865D01*
X161454747Y-124923111D01*
X161451612Y-124922759D01*
X161448595Y-124921837D01*
X161393496Y-124916241D01*
X161338377Y-124910058D01*
X161332205Y-124910015D01*
X161332094Y-124910004D01*
X161331991Y-124910014D01*
X161330000Y-124910000D01*
X155691888Y-124910000D01*
X155611976Y-124873978D01*
X155500000Y-124858065D01*
X154600000Y-124858065D01*
X154536302Y-124863145D01*
X154428262Y-124896602D01*
X154407930Y-124910000D01*
X153820955Y-124910000D01*
X153814208Y-124888212D01*
X153751975Y-124793771D01*
X153665896Y-124720407D01*
X153562786Y-124673928D01*
X153450810Y-124658015D01*
X152650710Y-124658015D01*
X152587012Y-124663095D01*
X152478972Y-124696552D01*
X152384531Y-124758785D01*
X152311167Y-124844864D01*
X152264688Y-124947974D01*
X152248775Y-125059950D01*
X152248775Y-125790000D01*
X150178528Y-125790000D01*
X149901935Y-125513407D01*
X149901935Y-125260000D01*
X149896855Y-125196302D01*
X149863398Y-125088262D01*
X149801165Y-124993821D01*
X149715086Y-124920457D01*
X149611976Y-124873978D01*
X149500000Y-124858065D01*
X148600000Y-124858065D01*
X148536302Y-124863145D01*
X148428262Y-124896602D01*
X148407930Y-124910000D01*
X147820955Y-124910000D01*
X147814208Y-124888212D01*
X147751975Y-124793771D01*
X147665896Y-124720407D01*
X147562786Y-124673928D01*
X147450810Y-124658015D01*
X146650710Y-124658015D01*
X146587012Y-124663095D01*
X146478972Y-124696552D01*
X146384531Y-124758785D01*
X146311167Y-124844864D01*
X146264688Y-124947974D01*
X146248775Y-125059950D01*
X146248775Y-125860050D01*
X146253855Y-125923748D01*
X146287312Y-126031788D01*
X146349545Y-126126229D01*
X146435624Y-126199593D01*
X146538734Y-126246072D01*
X146650710Y-126261985D01*
X147450810Y-126261985D01*
X147514508Y-126256905D01*
X147622548Y-126223448D01*
X147716989Y-126161215D01*
X147760639Y-126110000D01*
X148408112Y-126110000D01*
X148488024Y-126146022D01*
X148600000Y-126161935D01*
X148853407Y-126161935D01*
X149505736Y-126814264D01*
X149548559Y-126849439D01*
X149591020Y-126885068D01*
X149593784Y-126886587D01*
X149596223Y-126888591D01*
X149645101Y-126914799D01*
X149693635Y-126941481D01*
X149696640Y-126942434D01*
X149699422Y-126943926D01*
X149752427Y-126960131D01*
X149805253Y-126976889D01*
X149808390Y-126977241D01*
X149811406Y-126978163D01*
X149866498Y-126983759D01*
X149921623Y-126989942D01*
X149927795Y-126989985D01*
X149927906Y-126989996D01*
X149928009Y-126989986D01*
X149930000Y-126990000D01*
X152418766Y-126990000D01*
X152366314Y-127053404D01*
X152249020Y-127270335D01*
X152176095Y-127505918D01*
X152150317Y-127751178D01*
X152172668Y-127996775D01*
X152242296Y-128233353D01*
X152356551Y-128451901D01*
X152511078Y-128644095D01*
X152699994Y-128802613D01*
X152916101Y-128921419D01*
X153151169Y-128995987D01*
X153396243Y-129023477D01*
X153413886Y-129023600D01*
X153426114Y-129023600D01*
X153671549Y-128999535D01*
X153778666Y-128967194D01*
X153981987Y-129170515D01*
X153923899Y-129138581D01*
X153688831Y-129064013D01*
X153443757Y-129036523D01*
X153426114Y-129036400D01*
X153413886Y-129036400D01*
X153168451Y-129060465D01*
X152932365Y-129131744D01*
X152714620Y-129247521D01*
X152523510Y-129403386D01*
X152366314Y-129593404D01*
X152249020Y-129810335D01*
X152176095Y-130045918D01*
X152150317Y-130291178D01*
X152172668Y-130536775D01*
X152209512Y-130661960D01*
X152014690Y-130856782D01*
X152050980Y-130789665D01*
X152123905Y-130554082D01*
X152149683Y-130308822D01*
X152127332Y-130063225D01*
X152057704Y-129826647D01*
X151943449Y-129608099D01*
X151788922Y-129415905D01*
X151600006Y-129257387D01*
X151383899Y-129138581D01*
X151148831Y-129064013D01*
X150903757Y-129036523D01*
X150886114Y-129036400D01*
X150873886Y-129036400D01*
X150628451Y-129060465D01*
X150392365Y-129131744D01*
X150174620Y-129247521D01*
X149983510Y-129403386D01*
X149826314Y-129593404D01*
X149709020Y-129810335D01*
X149636095Y-130045918D01*
X149610317Y-130291178D01*
X149632668Y-130536775D01*
X149642225Y-130569247D01*
X149550959Y-130660513D01*
X149583905Y-130554082D01*
X149609683Y-130308822D01*
X149587332Y-130063225D01*
X149517704Y-129826647D01*
X149403449Y-129608099D01*
X149248922Y-129415905D01*
X149060006Y-129257387D01*
X148843899Y-129138581D01*
X148608831Y-129064013D01*
X148363757Y-129036523D01*
X148346114Y-129036400D01*
X148333886Y-129036400D01*
X148088451Y-129060465D01*
X147852365Y-129131744D01*
X147634620Y-129247521D01*
X147443510Y-129403386D01*
X147286314Y-129593404D01*
X147169020Y-129810335D01*
X147096095Y-130045918D01*
X147070317Y-130291178D01*
X147092668Y-130536775D01*
X147129512Y-130661960D01*
X146934690Y-130856782D01*
X146970980Y-130789665D01*
X147043905Y-130554082D01*
X147069683Y-130308822D01*
X147047332Y-130063225D01*
X146977704Y-129826647D01*
X146863449Y-129608099D01*
X146708922Y-129415905D01*
X146520006Y-129257387D01*
X146303899Y-129138581D01*
X146068831Y-129064013D01*
X145823757Y-129036523D01*
X145806114Y-129036400D01*
X145793886Y-129036400D01*
X145548451Y-129060465D01*
X145312365Y-129131744D01*
X145094620Y-129247521D01*
X144903510Y-129403386D01*
X144746314Y-129593404D01*
X144629020Y-129810335D01*
X144556095Y-130045918D01*
X144530317Y-130291178D01*
X144552668Y-130536775D01*
X144622296Y-130773353D01*
X144736551Y-130991901D01*
X144891078Y-131184095D01*
X145079994Y-131342613D01*
X145296101Y-131461419D01*
X145531169Y-131535987D01*
X145776243Y-131563477D01*
X145793886Y-131563600D01*
X145806114Y-131563600D01*
X146051549Y-131539535D01*
X146287635Y-131468256D01*
X146363616Y-131427856D01*
X139150000Y-138641472D01*
X139150000Y-138401888D01*
X139186022Y-138321976D01*
X139201935Y-138210000D01*
X139201935Y-137310000D01*
X139196855Y-137246302D01*
X139163398Y-137138262D01*
X139101165Y-137043821D01*
X139015086Y-136970457D01*
X138911976Y-136923978D01*
X138800000Y-136908065D01*
X138300000Y-136908065D01*
X138236302Y-136913145D01*
X138128262Y-136946602D01*
X138033821Y-137008835D01*
X137960457Y-137094914D01*
X137913978Y-137198024D01*
X137898065Y-137310000D01*
X137898065Y-138210000D01*
X137903145Y-138273698D01*
X137936602Y-138381738D01*
X137950000Y-138402070D01*
X137950000Y-139040226D01*
X137883821Y-139083835D01*
X137810457Y-139169914D01*
X137763978Y-139273024D01*
X137748065Y-139385000D01*
X137748065Y-140135000D01*
X137750059Y-140160000D01*
X133421939Y-140160000D01*
X133489825Y-140116918D01*
X133717053Y-139900532D01*
X133897924Y-139644131D01*
X134025548Y-139357482D01*
X134095064Y-139051504D01*
X134100069Y-138693112D01*
X134039123Y-138385311D01*
X134028691Y-138360000D01*
X136429870Y-138360000D01*
X136436602Y-138381738D01*
X136498835Y-138476179D01*
X136584914Y-138549543D01*
X136688024Y-138596022D01*
X136800000Y-138611935D01*
X137300000Y-138611935D01*
X137363698Y-138606855D01*
X137471738Y-138573398D01*
X137566179Y-138511165D01*
X137639543Y-138425086D01*
X137686022Y-138321976D01*
X137701935Y-138210000D01*
X137701935Y-137310000D01*
X137696855Y-137246302D01*
X137663398Y-137138262D01*
X137650000Y-137117930D01*
X137650000Y-136401888D01*
X137686022Y-136321976D01*
X137701935Y-136210000D01*
X137701935Y-135310000D01*
X137696855Y-135246302D01*
X137663398Y-135138262D01*
X137601165Y-135043821D01*
X137515086Y-134970457D01*
X137411976Y-134923978D01*
X137300000Y-134908065D01*
X136800000Y-134908065D01*
X136736302Y-134913145D01*
X136628262Y-134946602D01*
X136533821Y-135008835D01*
X136460457Y-135094914D01*
X136413978Y-135198024D01*
X136398065Y-135310000D01*
X136398065Y-136210000D01*
X136403145Y-136273698D01*
X136436602Y-136381738D01*
X136450000Y-136402070D01*
X136450000Y-137118112D01*
X136431118Y-137160000D01*
X133590000Y-137160000D01*
X133534871Y-137165405D01*
X133479629Y-137170239D01*
X133476600Y-137171119D01*
X133473459Y-137171427D01*
X133420362Y-137187458D01*
X133367179Y-137202909D01*
X133364381Y-137204359D01*
X133361358Y-137205272D01*
X133312427Y-137231289D01*
X133263216Y-137256797D01*
X133260748Y-137258767D01*
X133257965Y-137260247D01*
X133215056Y-137295243D01*
X133171701Y-137329853D01*
X133167309Y-137334184D01*
X133167219Y-137334258D01*
X133167150Y-137334342D01*
X133165736Y-137335736D01*
X133124603Y-137376869D01*
X132975422Y-137314159D01*
X132668055Y-137251065D01*
X132354286Y-137248875D01*
X132046068Y-137307671D01*
X131755140Y-137425213D01*
X131492583Y-137597026D01*
X131400000Y-137687689D01*
X131400000Y-134508528D01*
X132548528Y-133360000D01*
X137751618Y-133360000D01*
X137748065Y-133385000D01*
X137748065Y-134135000D01*
X137753145Y-134198698D01*
X137786602Y-134306738D01*
X137848835Y-134401179D01*
X137934914Y-134474543D01*
X138038024Y-134521022D01*
X138150000Y-134536935D01*
X138924537Y-134536935D01*
X138553407Y-134908065D01*
X138300000Y-134908065D01*
X138236302Y-134913145D01*
X138128262Y-134946602D01*
X138033821Y-135008835D01*
X137960457Y-135094914D01*
X137913978Y-135198024D01*
X137898065Y-135310000D01*
X137898065Y-136210000D01*
X137903145Y-136273698D01*
X137936602Y-136381738D01*
X137998835Y-136476179D01*
X138084914Y-136549543D01*
X138188024Y-136596022D01*
X138300000Y-136611935D01*
X138800000Y-136611935D01*
X138863698Y-136606855D01*
X138971738Y-136573398D01*
X139066179Y-136511165D01*
X139139543Y-136425086D01*
X139186022Y-136321976D01*
X139201935Y-136210000D01*
X139201935Y-135956593D01*
X140224264Y-134934264D01*
X140259439Y-134891441D01*
X140295068Y-134848980D01*
X140296587Y-134846216D01*
X140298591Y-134843777D01*
X140324799Y-134794899D01*
X140351481Y-134746365D01*
X140352434Y-134743360D01*
X140353926Y-134740578D01*
X140370135Y-134687560D01*
X140386889Y-134634747D01*
X140387241Y-134631612D01*
X140388163Y-134628595D01*
X140393759Y-134573496D01*
X140399942Y-134518377D01*
X140399985Y-134512205D01*
X140399996Y-134512094D01*
X140399986Y-134511991D01*
X140400000Y-134510000D01*
X140400000Y-132444786D01*
X140434914Y-132474543D01*
X140538024Y-132521022D01*
X140650000Y-132536935D01*
X141450000Y-132536935D01*
X141513698Y-132531855D01*
X141621738Y-132498398D01*
X141716179Y-132436165D01*
X141789543Y-132350086D01*
X141836022Y-132246976D01*
X141851935Y-132135000D01*
X141851935Y-131385000D01*
X141846855Y-131321302D01*
X141813398Y-131213262D01*
X141751165Y-131118821D01*
X141665086Y-131045457D01*
X141561976Y-130998978D01*
X141450000Y-130983065D01*
X141450000Y-130680815D01*
X141514543Y-130605086D01*
X141561022Y-130501976D01*
X141576935Y-130390000D01*
X141576935Y-129360000D01*
X142023065Y-129360000D01*
X142023065Y-130390000D01*
X142028145Y-130453698D01*
X142061602Y-130561738D01*
X142123835Y-130656179D01*
X142209914Y-130729543D01*
X142313024Y-130776022D01*
X142425000Y-130791935D01*
X143075000Y-130791935D01*
X143138698Y-130786855D01*
X143246738Y-130753398D01*
X143341179Y-130691165D01*
X143414543Y-130605086D01*
X143461022Y-130501976D01*
X143476935Y-130390000D01*
X143476935Y-129330000D01*
X143471855Y-129266302D01*
X143438398Y-129158262D01*
X143376165Y-129063821D01*
X143290086Y-128990457D01*
X143186976Y-128943978D01*
X143075000Y-128928065D01*
X142980463Y-128928065D01*
X143174264Y-128734264D01*
X143209439Y-128691441D01*
X143245068Y-128648980D01*
X143246587Y-128646216D01*
X143248591Y-128643777D01*
X143274799Y-128594899D01*
X143301481Y-128546365D01*
X143302434Y-128543360D01*
X143303926Y-128540578D01*
X143313446Y-128509440D01*
X143341179Y-128491165D01*
X143414543Y-128405086D01*
X143434866Y-128360000D01*
X144688506Y-128360000D01*
X144736551Y-128451901D01*
X144891078Y-128644095D01*
X145079994Y-128802613D01*
X145296101Y-128921419D01*
X145531169Y-128995987D01*
X145776243Y-129023477D01*
X145793886Y-129023600D01*
X145806114Y-129023600D01*
X146051549Y-128999535D01*
X146287635Y-128928256D01*
X146505380Y-128812479D01*
X146692338Y-128660000D01*
X147450033Y-128660000D01*
X147619994Y-128802613D01*
X147836101Y-128921419D01*
X148071169Y-128995987D01*
X148316243Y-129023477D01*
X148333886Y-129023600D01*
X148346114Y-129023600D01*
X148591549Y-128999535D01*
X148827635Y-128928256D01*
X149045380Y-128812479D01*
X149236490Y-128656614D01*
X149393686Y-128466596D01*
X149510980Y-128249665D01*
X149583905Y-128014082D01*
X149609683Y-127768822D01*
X149587332Y-127523225D01*
X149517704Y-127286647D01*
X149403449Y-127068099D01*
X149248922Y-126875905D01*
X149060006Y-126717387D01*
X148843899Y-126598581D01*
X148608831Y-126524013D01*
X148363757Y-126496523D01*
X148346114Y-126496400D01*
X148333886Y-126496400D01*
X148088451Y-126520465D01*
X147852365Y-126591744D01*
X147634620Y-126707521D01*
X147447662Y-126860000D01*
X146689967Y-126860000D01*
X146520006Y-126717387D01*
X146303899Y-126598581D01*
X146068831Y-126524013D01*
X145823757Y-126496523D01*
X145806114Y-126496400D01*
X145793886Y-126496400D01*
X145548451Y-126520465D01*
X145312365Y-126591744D01*
X145094620Y-126707521D01*
X144903510Y-126863386D01*
X144746314Y-127053404D01*
X144688678Y-127160000D01*
X143476935Y-127160000D01*
X143476935Y-127130000D01*
X143471855Y-127066302D01*
X143438398Y-126958262D01*
X143376165Y-126863821D01*
X143350000Y-126841521D01*
X143350000Y-126061935D01*
X143425000Y-126061935D01*
X143488698Y-126056855D01*
X143596738Y-126023398D01*
X143691179Y-125961165D01*
X143764543Y-125875086D01*
X143811022Y-125771976D01*
X143826935Y-125660000D01*
X143826935Y-124860000D01*
X143821855Y-124796302D01*
X143788398Y-124688262D01*
X143726165Y-124593821D01*
X143640086Y-124520457D01*
X143536976Y-124473978D01*
X143425000Y-124458065D01*
X142675000Y-124458065D01*
X142611302Y-124463145D01*
X142503262Y-124496602D01*
X142408821Y-124558835D01*
X142335457Y-124644914D01*
X142288978Y-124748024D01*
X142273065Y-124860000D01*
X142273065Y-125199410D01*
X142254932Y-125221020D01*
X142253413Y-125223784D01*
X142251409Y-125226223D01*
X142225201Y-125275101D01*
X142198519Y-125323635D01*
X142197566Y-125326640D01*
X142196074Y-125329422D01*
X142179865Y-125382440D01*
X142163111Y-125435253D01*
X142162759Y-125438388D01*
X142161837Y-125441405D01*
X142156241Y-125496504D01*
X142150058Y-125551623D01*
X142150015Y-125557795D01*
X142150004Y-125557906D01*
X142150014Y-125558009D01*
X142150000Y-125560000D01*
X142150000Y-126839185D01*
X142085457Y-126914914D01*
X142038978Y-127018024D01*
X142023065Y-127130000D01*
X142023065Y-128160000D01*
X141576935Y-128160000D01*
X141576935Y-127130000D01*
X141571855Y-127066302D01*
X141538398Y-126958262D01*
X141476165Y-126863821D01*
X141450000Y-126841521D01*
X141450000Y-123310000D01*
X141444595Y-123254875D01*
X141439761Y-123199629D01*
X141438881Y-123196600D01*
X141438573Y-123193459D01*
X141422542Y-123140362D01*
X141407091Y-123087179D01*
X141405641Y-123084381D01*
X141404728Y-123081358D01*
X141378711Y-123032427D01*
X141353203Y-122983216D01*
X141351233Y-122980748D01*
X141349753Y-122977965D01*
X141314757Y-122935056D01*
X141280147Y-122891701D01*
X141275816Y-122887309D01*
X141275742Y-122887219D01*
X141275658Y-122887150D01*
X141274264Y-122885736D01*
X139400000Y-121011472D01*
X139400000Y-120664306D01*
X139457990Y-120724357D01*
X139715648Y-120903433D01*
X140003180Y-121029054D01*
X140309637Y-121096432D01*
X140623344Y-121103004D01*
X140932354Y-121048517D01*
X141224895Y-120935048D01*
X141489825Y-120766918D01*
X141717053Y-120550532D01*
X141897924Y-120294131D01*
X142025548Y-120007482D01*
X142095064Y-119701504D01*
X142100069Y-119343112D01*
X142039123Y-119035311D01*
X141973188Y-118875340D01*
X143838528Y-117010000D01*
X145641472Y-117010000D01*
X144624603Y-118026869D01*
X144624603Y-118026869D01*
G37*
X144624603Y-118026869D02*
X144475422Y-117964159D01*
X144168055Y-117901065D01*
X143854286Y-117898875D01*
X143546068Y-117957671D01*
X143255140Y-118075213D01*
X142992583Y-118247026D01*
X142768398Y-118466563D01*
X142591125Y-118725464D01*
X142467515Y-119013867D01*
X142402278Y-119320787D01*
X142397897Y-119634532D01*
X142454539Y-119943154D01*
X142570048Y-120234896D01*
X142740023Y-120498645D01*
X142957990Y-120724357D01*
X143215648Y-120903433D01*
X143503180Y-121029054D01*
X143809637Y-121096432D01*
X144123344Y-121103004D01*
X144432354Y-121048517D01*
X144724895Y-120935048D01*
X144989825Y-120766918D01*
X145217053Y-120550532D01*
X145397924Y-120294131D01*
X145525548Y-120007482D01*
X145595064Y-119701504D01*
X145595999Y-119634532D01*
X145897897Y-119634532D01*
X145954539Y-119943154D01*
X146070048Y-120234896D01*
X146150760Y-120360136D01*
X146150760Y-123560000D01*
X146167900Y-123734811D01*
X146218669Y-123902963D01*
X146248775Y-123959584D01*
X146248775Y-123960050D01*
X146253855Y-124023748D01*
X146287312Y-124131788D01*
X146349545Y-124226229D01*
X146435624Y-124299593D01*
X146538734Y-124346072D01*
X146650710Y-124361985D01*
X146650781Y-124361985D01*
X146701996Y-124389677D01*
X146869790Y-124441618D01*
X147044477Y-124459978D01*
X147219403Y-124444059D01*
X147387906Y-124394465D01*
X147450035Y-124361985D01*
X147450810Y-124361985D01*
X147514508Y-124356905D01*
X147622548Y-124323448D01*
X147716989Y-124261215D01*
X147790353Y-124175136D01*
X147836832Y-124072026D01*
X147852668Y-123960594D01*
X147877982Y-123914548D01*
X147931093Y-123747121D01*
X147950672Y-123572566D01*
X147950760Y-123560000D01*
X147950760Y-121041378D01*
X148224895Y-120935048D01*
X148489825Y-120766918D01*
X148717053Y-120550532D01*
X148897924Y-120294131D01*
X149025548Y-120007482D01*
X149095064Y-119701504D01*
X149095999Y-119634532D01*
X149397897Y-119634532D01*
X149454539Y-119943154D01*
X149570048Y-120234896D01*
X149740023Y-120498645D01*
X149957990Y-120724357D01*
X150215648Y-120903433D01*
X150503180Y-121029054D01*
X150809637Y-121096432D01*
X151123344Y-121103004D01*
X151299203Y-121071995D01*
X152150760Y-121923552D01*
X152150760Y-123560000D01*
X152167900Y-123734811D01*
X152218669Y-123902963D01*
X152248775Y-123959584D01*
X152248775Y-123960050D01*
X152253855Y-124023748D01*
X152287312Y-124131788D01*
X152349545Y-124226229D01*
X152435624Y-124299593D01*
X152538734Y-124346072D01*
X152650710Y-124361985D01*
X152650781Y-124361985D01*
X152701996Y-124389677D01*
X152869790Y-124441618D01*
X153044477Y-124459978D01*
X153219403Y-124444059D01*
X153387906Y-124394465D01*
X153450035Y-124361985D01*
X153450810Y-124361985D01*
X153514508Y-124356905D01*
X153622548Y-124323448D01*
X153716989Y-124261215D01*
X153790353Y-124175136D01*
X153836832Y-124072026D01*
X153852668Y-123960594D01*
X153877982Y-123914548D01*
X153931093Y-123747121D01*
X153950672Y-123572566D01*
X153950760Y-123560000D01*
X153950760Y-121550760D01*
X153942648Y-121468028D01*
X153935402Y-121385204D01*
X153934082Y-121380660D01*
X153933620Y-121375949D01*
X153909604Y-121296406D01*
X153886398Y-121216529D01*
X153884217Y-121212322D01*
X153882851Y-121207797D01*
X153843863Y-121134471D01*
X153805564Y-121060585D01*
X153802609Y-121056884D01*
X153800389Y-121052708D01*
X153747853Y-120988292D01*
X153695980Y-120923312D01*
X153689488Y-120916729D01*
X153689374Y-120916589D01*
X153689245Y-120916482D01*
X153687156Y-120914364D01*
X152572706Y-119799914D01*
X152595064Y-119701504D01*
X152595999Y-119634532D01*
X153897897Y-119634532D01*
X153954539Y-119943154D01*
X154070048Y-120234896D01*
X154240023Y-120498645D01*
X154457990Y-120724357D01*
X154715648Y-120903433D01*
X155003180Y-121029054D01*
X155309637Y-121096432D01*
X155623344Y-121103004D01*
X155932354Y-121048517D01*
X156224895Y-120935048D01*
X156489825Y-120766918D01*
X156717053Y-120550532D01*
X156897924Y-120294131D01*
X157025548Y-120007482D01*
X157095064Y-119701504D01*
X157095999Y-119634532D01*
X157547897Y-119634532D01*
X157604539Y-119943154D01*
X157720048Y-120234896D01*
X157890023Y-120498645D01*
X158107990Y-120724357D01*
X158365648Y-120903433D01*
X158653180Y-121029054D01*
X158959637Y-121096432D01*
X159273344Y-121103004D01*
X159582354Y-121048517D01*
X159874895Y-120935048D01*
X160139825Y-120766918D01*
X160367053Y-120550532D01*
X160473242Y-120400000D01*
X161326450Y-120400000D01*
X161390023Y-120498645D01*
X161400000Y-120508977D01*
X161400000Y-123010000D01*
X161417140Y-123184811D01*
X161451017Y-123297015D01*
X161453145Y-123323698D01*
X161486602Y-123431738D01*
X161548835Y-123526179D01*
X161602361Y-123571798D01*
X161661386Y-123644171D01*
X161796726Y-123756134D01*
X161951236Y-123839677D01*
X162119030Y-123891618D01*
X162293717Y-123909978D01*
X162468643Y-123894059D01*
X162637146Y-123844465D01*
X162792807Y-123763088D01*
X162929697Y-123653025D01*
X162995148Y-123575024D01*
X163016179Y-123561165D01*
X163089543Y-123475086D01*
X163136022Y-123371976D01*
X163145076Y-123308265D01*
X163180333Y-123197121D01*
X163199912Y-123022566D01*
X163200000Y-123010000D01*
X163200000Y-121002885D01*
X163374895Y-120935048D01*
X163639825Y-120766918D01*
X163867053Y-120550532D01*
X164047924Y-120294131D01*
X164175548Y-120007482D01*
X164245064Y-119701504D01*
X164250069Y-119343112D01*
X164189123Y-119035311D01*
X164069552Y-118745211D01*
X163895911Y-118483860D01*
X163674813Y-118261213D01*
X163414681Y-118085752D01*
X163125422Y-117964159D01*
X162818055Y-117901065D01*
X162504286Y-117898875D01*
X162196068Y-117957671D01*
X161905140Y-118075213D01*
X161642583Y-118247026D01*
X161418398Y-118466563D01*
X161327032Y-118600000D01*
X160473074Y-118600000D01*
X160395911Y-118483860D01*
X160174813Y-118261213D01*
X159914681Y-118085752D01*
X159625422Y-117964159D01*
X159318055Y-117901065D01*
X159004286Y-117898875D01*
X158696068Y-117957671D01*
X158405140Y-118075213D01*
X158142583Y-118247026D01*
X157918398Y-118466563D01*
X157741125Y-118725464D01*
X157617515Y-119013867D01*
X157552278Y-119320787D01*
X157547897Y-119634532D01*
X157095999Y-119634532D01*
X157100069Y-119343112D01*
X157039123Y-119035311D01*
X156919552Y-118745211D01*
X156745911Y-118483860D01*
X156524813Y-118261213D01*
X156264681Y-118085752D01*
X155975422Y-117964159D01*
X155668055Y-117901065D01*
X155354286Y-117898875D01*
X155046068Y-117957671D01*
X154755140Y-118075213D01*
X154492583Y-118247026D01*
X154268398Y-118466563D01*
X154091125Y-118725464D01*
X153967515Y-119013867D01*
X153902278Y-119320787D01*
X153897897Y-119634532D01*
X152595999Y-119634532D01*
X152600069Y-119343112D01*
X152539123Y-119035311D01*
X152419552Y-118745211D01*
X152245911Y-118483860D01*
X152024813Y-118261213D01*
X151764681Y-118085752D01*
X151475422Y-117964159D01*
X151168055Y-117901065D01*
X150854286Y-117898875D01*
X150546068Y-117957671D01*
X150255140Y-118075213D01*
X149992583Y-118247026D01*
X149768398Y-118466563D01*
X149591125Y-118725464D01*
X149467515Y-119013867D01*
X149402278Y-119320787D01*
X149397897Y-119634532D01*
X149095999Y-119634532D01*
X149100069Y-119343112D01*
X149039123Y-119035311D01*
X148919552Y-118745211D01*
X148745911Y-118483860D01*
X148524813Y-118261213D01*
X148264681Y-118085752D01*
X147975422Y-117964159D01*
X147668055Y-117901065D01*
X147354286Y-117898875D01*
X147046068Y-117957671D01*
X146755140Y-118075213D01*
X146492583Y-118247026D01*
X146268398Y-118466563D01*
X146091125Y-118725464D01*
X145967515Y-119013867D01*
X145902278Y-119320787D01*
X145897897Y-119634532D01*
X145595999Y-119634532D01*
X145600069Y-119343112D01*
X145539123Y-119035311D01*
X145473188Y-118875340D01*
X146678528Y-117670000D01*
X167661472Y-117670000D01*
X167840000Y-117848528D01*
X167840000Y-119039740D01*
X167839123Y-119035311D01*
X167719552Y-118745211D01*
X167545911Y-118483860D01*
X167324813Y-118261213D01*
X167064681Y-118085752D01*
X166775422Y-117964159D01*
X166468055Y-117901065D01*
X166154286Y-117898875D01*
X165846068Y-117957671D01*
X165555140Y-118075213D01*
X165292583Y-118247026D01*
X165068398Y-118466563D01*
X164891125Y-118725464D01*
X164767515Y-119013867D01*
X164702278Y-119320787D01*
X164697897Y-119634532D01*
X164754539Y-119943154D01*
X164870048Y-120234896D01*
X165040023Y-120498645D01*
X165257990Y-120724357D01*
X165515648Y-120903433D01*
X165700760Y-120984307D01*
X165700760Y-122815143D01*
X165634531Y-122858785D01*
X165561167Y-122944864D01*
X165514688Y-123047974D01*
X165498775Y-123159950D01*
X165498775Y-123960050D01*
X165503855Y-124023748D01*
X165537312Y-124131788D01*
X165599545Y-124226229D01*
X165685624Y-124299593D01*
X165788734Y-124346072D01*
X165900710Y-124361985D01*
X166700810Y-124361985D01*
X166764508Y-124356905D01*
X166872548Y-124323448D01*
X166966989Y-124261215D01*
X167040353Y-124175136D01*
X167086832Y-124072026D01*
X167102745Y-123960050D01*
X167102745Y-123159950D01*
X167097665Y-123096252D01*
X167064208Y-122988212D01*
X167001975Y-122893771D01*
X166915896Y-122820407D01*
X166900760Y-122813584D01*
X166900760Y-120983197D01*
X167024895Y-120935048D01*
X167289825Y-120766918D01*
X167517053Y-120550532D01*
X167697924Y-120294131D01*
X167825548Y-120007482D01*
X167840000Y-119943871D01*
X167840000Y-120160000D01*
X167845409Y-120215170D01*
X167850239Y-120270371D01*
X167851119Y-120273400D01*
X167851427Y-120276541D01*
X167867458Y-120329638D01*
X167882909Y-120382821D01*
X167884359Y-120385619D01*
X167885272Y-120388642D01*
X167911289Y-120437573D01*
X167936797Y-120486784D01*
X167938767Y-120489252D01*
X167940247Y-120492035D01*
X167975248Y-120534950D01*
X168009854Y-120578300D01*
X168014184Y-120582691D01*
X168014258Y-120582781D01*
X168014342Y-120582850D01*
X168015736Y-120584264D01*
X169330000Y-121898528D01*
X169330000Y-129229896D01*
X169163899Y-129138581D01*
X168928831Y-129064013D01*
X168683757Y-129036523D01*
X168666114Y-129036400D01*
X168653886Y-129036400D01*
X168408451Y-129060465D01*
X168172365Y-129131744D01*
X167954620Y-129247521D01*
X167763510Y-129403386D01*
X167606314Y-129593404D01*
X167489020Y-129810335D01*
X167416095Y-130045918D01*
X167390317Y-130291178D01*
X167412668Y-130536775D01*
X167482296Y-130773353D01*
X167596551Y-130991901D01*
X167751078Y-131184095D01*
X167939994Y-131342613D01*
X168156101Y-131461419D01*
X168391169Y-131535987D01*
X168636243Y-131563477D01*
X168653886Y-131563600D01*
X168666114Y-131563600D01*
X168911549Y-131539535D01*
X169147635Y-131468256D01*
X169330000Y-131371291D01*
X169330000Y-132554384D01*
X169297925Y-132592018D01*
X169266165Y-132543821D01*
X169257547Y-132536476D01*
X169254761Y-132504629D01*
X169253881Y-132501600D01*
X169253573Y-132498459D01*
X169237542Y-132445362D01*
X169222091Y-132392179D01*
X169220641Y-132389381D01*
X169219728Y-132386358D01*
X169193690Y-132337388D01*
X169168202Y-132288216D01*
X169166235Y-132285751D01*
X169164753Y-132282965D01*
X169129730Y-132240022D01*
X169095146Y-132196700D01*
X169090816Y-132192309D01*
X169090742Y-132192219D01*
X169090658Y-132192150D01*
X169089264Y-132190736D01*
X168684264Y-131785736D01*
X168641441Y-131750561D01*
X168598980Y-131714932D01*
X168596216Y-131713413D01*
X168593777Y-131711409D01*
X168544899Y-131685201D01*
X168496365Y-131658519D01*
X168493360Y-131657566D01*
X168490578Y-131656074D01*
X168437560Y-131639865D01*
X168384747Y-131623111D01*
X168381612Y-131622759D01*
X168378595Y-131621837D01*
X168323496Y-131616241D01*
X168268377Y-131610058D01*
X168262205Y-131610015D01*
X168262094Y-131610004D01*
X168261991Y-131610014D01*
X168260000Y-131610000D01*
X160818528Y-131610000D01*
X160732132Y-131523604D01*
X160771169Y-131535987D01*
X161016243Y-131563477D01*
X161033886Y-131563600D01*
X161046114Y-131563600D01*
X161291549Y-131539535D01*
X161527635Y-131468256D01*
X161745380Y-131352479D01*
X161936490Y-131196614D01*
X162093686Y-131006596D01*
X162210980Y-130789665D01*
X162283905Y-130554082D01*
X162309683Y-130308822D01*
X162308078Y-130291178D01*
X162310317Y-130291178D01*
X162332668Y-130536775D01*
X162402296Y-130773353D01*
X162516551Y-130991901D01*
X162671078Y-131184095D01*
X162859994Y-131342613D01*
X163076101Y-131461419D01*
X163311169Y-131535987D01*
X163556243Y-131563477D01*
X163573886Y-131563600D01*
X163586114Y-131563600D01*
X163831549Y-131539535D01*
X164067635Y-131468256D01*
X164285380Y-131352479D01*
X164476490Y-131196614D01*
X164633686Y-131006596D01*
X164750980Y-130789665D01*
X164823905Y-130554082D01*
X164849683Y-130308822D01*
X164848078Y-130291178D01*
X164850317Y-130291178D01*
X164872668Y-130536775D01*
X164942296Y-130773353D01*
X165056551Y-130991901D01*
X165211078Y-131184095D01*
X165399994Y-131342613D01*
X165616101Y-131461419D01*
X165851169Y-131535987D01*
X166096243Y-131563477D01*
X166113886Y-131563600D01*
X166126114Y-131563600D01*
X166371549Y-131539535D01*
X166607635Y-131468256D01*
X166825380Y-131352479D01*
X167016490Y-131196614D01*
X167173686Y-131006596D01*
X167290980Y-130789665D01*
X167363905Y-130554082D01*
X167389683Y-130308822D01*
X167367332Y-130063225D01*
X167297704Y-129826647D01*
X167183449Y-129608099D01*
X167028922Y-129415905D01*
X166840006Y-129257387D01*
X166623899Y-129138581D01*
X166388831Y-129064013D01*
X166143757Y-129036523D01*
X166126114Y-129036400D01*
X166113886Y-129036400D01*
X165868451Y-129060465D01*
X165632365Y-129131744D01*
X165414620Y-129247521D01*
X165223510Y-129403386D01*
X165066314Y-129593404D01*
X164949020Y-129810335D01*
X164876095Y-130045918D01*
X164850317Y-130291178D01*
X164848078Y-130291178D01*
X164827332Y-130063225D01*
X164757704Y-129826647D01*
X164643449Y-129608099D01*
X164488922Y-129415905D01*
X164300006Y-129257387D01*
X164083899Y-129138581D01*
X163848831Y-129064013D01*
X163603757Y-129036523D01*
X163586114Y-129036400D01*
X163573886Y-129036400D01*
X163328451Y-129060465D01*
X163092365Y-129131744D01*
X162874620Y-129247521D01*
X162683510Y-129403386D01*
X162526314Y-129593404D01*
X162409020Y-129810335D01*
X162336095Y-130045918D01*
X162310317Y-130291178D01*
X162308078Y-130291178D01*
X162287332Y-130063225D01*
X162217704Y-129826647D01*
X162103449Y-129608099D01*
X161948922Y-129415905D01*
X161760006Y-129257387D01*
X161543899Y-129138581D01*
X161308831Y-129064013D01*
X161063757Y-129036523D01*
X161046114Y-129036400D01*
X161033886Y-129036400D01*
X160788451Y-129060465D01*
X160552365Y-129131744D01*
X160334620Y-129247521D01*
X160266060Y-129303437D01*
X160234730Y-129265022D01*
X160200146Y-129221700D01*
X160195816Y-129217309D01*
X160195742Y-129217219D01*
X160195658Y-129217150D01*
X160194264Y-129215736D01*
X159584264Y-128605736D01*
X159541441Y-128570561D01*
X159498980Y-128534932D01*
X159497725Y-128534242D01*
X159553686Y-128466596D01*
X159670980Y-128249665D01*
X159743905Y-128014082D01*
X159769683Y-127768822D01*
X159747332Y-127523225D01*
X159677704Y-127286647D01*
X159563449Y-127068099D01*
X159408922Y-126875905D01*
X159220006Y-126717387D01*
X159003899Y-126598581D01*
X158768831Y-126524013D01*
X158523757Y-126496523D01*
X158506114Y-126496400D01*
X158493886Y-126496400D01*
X158248451Y-126520465D01*
X158141334Y-126552806D01*
X157698528Y-126110000D01*
X161081472Y-126110000D01*
X162369494Y-127398022D01*
X162336095Y-127505918D01*
X162310317Y-127751178D01*
X162332668Y-127996775D01*
X162402296Y-128233353D01*
X162516551Y-128451901D01*
X162671078Y-128644095D01*
X162859994Y-128802613D01*
X163076101Y-128921419D01*
X163311169Y-128995987D01*
X163556243Y-129023477D01*
X163573886Y-129023600D01*
X163586114Y-129023600D01*
X163831549Y-128999535D01*
X164067635Y-128928256D01*
X164285380Y-128812479D01*
X164476490Y-128656614D01*
X164633686Y-128466596D01*
X164750980Y-128249665D01*
X164823905Y-128014082D01*
X164849683Y-127768822D01*
X164848078Y-127751178D01*
X164850317Y-127751178D01*
X164872668Y-127996775D01*
X164942296Y-128233353D01*
X165056551Y-128451901D01*
X165211078Y-128644095D01*
X165399994Y-128802613D01*
X165616101Y-128921419D01*
X165851169Y-128995987D01*
X166096243Y-129023477D01*
X166113886Y-129023600D01*
X166126114Y-129023600D01*
X166371549Y-128999535D01*
X166607635Y-128928256D01*
X166825380Y-128812479D01*
X167016490Y-128656614D01*
X167173686Y-128466596D01*
X167290980Y-128249665D01*
X167363905Y-128014082D01*
X167389683Y-127768822D01*
X167367332Y-127523225D01*
X167297704Y-127286647D01*
X167183449Y-127068099D01*
X167028922Y-126875905D01*
X166900760Y-126768365D01*
X166900760Y-126204857D01*
X166966989Y-126161215D01*
X167010639Y-126110000D01*
X167658112Y-126110000D01*
X167738024Y-126146022D01*
X167850000Y-126161935D01*
X168160584Y-126161935D01*
X168179353Y-126167745D01*
X168295811Y-126179985D01*
X168412429Y-126169372D01*
X168437698Y-126161935D01*
X168750000Y-126161935D01*
X168813698Y-126156855D01*
X168921738Y-126123398D01*
X169016179Y-126061165D01*
X169089543Y-125975086D01*
X169136022Y-125871976D01*
X169151935Y-125760000D01*
X169151935Y-125260000D01*
X169146855Y-125196302D01*
X169113398Y-125088262D01*
X169051165Y-124993821D01*
X168965086Y-124920457D01*
X168861976Y-124873978D01*
X168750000Y-124858065D01*
X167850000Y-124858065D01*
X167786302Y-124863145D01*
X167678262Y-124896602D01*
X167657930Y-124910000D01*
X167070955Y-124910000D01*
X167064208Y-124888212D01*
X167001975Y-124793771D01*
X166915896Y-124720407D01*
X166812786Y-124673928D01*
X166700810Y-124658015D01*
X165900710Y-124658015D01*
X165837012Y-124663095D01*
X165728972Y-124696552D01*
X165634531Y-124758785D01*
X165561167Y-124844864D01*
X165514688Y-124947974D01*
X165498775Y-125059950D01*
X165498775Y-125860050D01*
X165503855Y-125923748D01*
X165537312Y-126031788D01*
X165599545Y-126126229D01*
X165685624Y-126199593D01*
X165700760Y-126206416D01*
X165700760Y-126571094D01*
X165632365Y-126591744D01*
X165414620Y-126707521D01*
X165223510Y-126863386D01*
X165066314Y-127053404D01*
X164949020Y-127270335D01*
X164876095Y-127505918D01*
X164850317Y-127751178D01*
X164848078Y-127751178D01*
X164827332Y-127523225D01*
X164757704Y-127286647D01*
X164643449Y-127068099D01*
X164488922Y-126875905D01*
X164300006Y-126717387D01*
X164083899Y-126598581D01*
X163848831Y-126524013D01*
X163603757Y-126496523D01*
X163586114Y-126496400D01*
X163573886Y-126496400D01*
X163328451Y-126520465D01*
X163221334Y-126552806D01*
X161754264Y-125085736D01*
X161711441Y-125050561D01*
X161668980Y-125014932D01*
X161666216Y-125013413D01*
X161663777Y-125011409D01*
X161614899Y-124985201D01*
X161566365Y-124958519D01*
X161563360Y-124957566D01*
X161560578Y-124956074D01*
X161507560Y-124939865D01*
X161454747Y-124923111D01*
X161451612Y-124922759D01*
X161448595Y-124921837D01*
X161393496Y-124916241D01*
X161338377Y-124910058D01*
X161332205Y-124910015D01*
X161332094Y-124910004D01*
X161331991Y-124910014D01*
X161330000Y-124910000D01*
X155691888Y-124910000D01*
X155611976Y-124873978D01*
X155500000Y-124858065D01*
X154600000Y-124858065D01*
X154536302Y-124863145D01*
X154428262Y-124896602D01*
X154407930Y-124910000D01*
X153820955Y-124910000D01*
X153814208Y-124888212D01*
X153751975Y-124793771D01*
X153665896Y-124720407D01*
X153562786Y-124673928D01*
X153450810Y-124658015D01*
X152650710Y-124658015D01*
X152587012Y-124663095D01*
X152478972Y-124696552D01*
X152384531Y-124758785D01*
X152311167Y-124844864D01*
X152264688Y-124947974D01*
X152248775Y-125059950D01*
X152248775Y-125790000D01*
X150178528Y-125790000D01*
X149901935Y-125513407D01*
X149901935Y-125260000D01*
X149896855Y-125196302D01*
X149863398Y-125088262D01*
X149801165Y-124993821D01*
X149715086Y-124920457D01*
X149611976Y-124873978D01*
X149500000Y-124858065D01*
X148600000Y-124858065D01*
X148536302Y-124863145D01*
X148428262Y-124896602D01*
X148407930Y-124910000D01*
X147820955Y-124910000D01*
X147814208Y-124888212D01*
X147751975Y-124793771D01*
X147665896Y-124720407D01*
X147562786Y-124673928D01*
X147450810Y-124658015D01*
X146650710Y-124658015D01*
X146587012Y-124663095D01*
X146478972Y-124696552D01*
X146384531Y-124758785D01*
X146311167Y-124844864D01*
X146264688Y-124947974D01*
X146248775Y-125059950D01*
X146248775Y-125860050D01*
X146253855Y-125923748D01*
X146287312Y-126031788D01*
X146349545Y-126126229D01*
X146435624Y-126199593D01*
X146538734Y-126246072D01*
X146650710Y-126261985D01*
X147450810Y-126261985D01*
X147514508Y-126256905D01*
X147622548Y-126223448D01*
X147716989Y-126161215D01*
X147760639Y-126110000D01*
X148408112Y-126110000D01*
X148488024Y-126146022D01*
X148600000Y-126161935D01*
X148853407Y-126161935D01*
X149505736Y-126814264D01*
X149548559Y-126849439D01*
X149591020Y-126885068D01*
X149593784Y-126886587D01*
X149596223Y-126888591D01*
X149645101Y-126914799D01*
X149693635Y-126941481D01*
X149696640Y-126942434D01*
X149699422Y-126943926D01*
X149752427Y-126960131D01*
X149805253Y-126976889D01*
X149808390Y-126977241D01*
X149811406Y-126978163D01*
X149866498Y-126983759D01*
X149921623Y-126989942D01*
X149927795Y-126989985D01*
X149927906Y-126989996D01*
X149928009Y-126989986D01*
X149930000Y-126990000D01*
X152418766Y-126990000D01*
X152366314Y-127053404D01*
X152249020Y-127270335D01*
X152176095Y-127505918D01*
X152150317Y-127751178D01*
X152172668Y-127996775D01*
X152242296Y-128233353D01*
X152356551Y-128451901D01*
X152511078Y-128644095D01*
X152699994Y-128802613D01*
X152916101Y-128921419D01*
X153151169Y-128995987D01*
X153396243Y-129023477D01*
X153413886Y-129023600D01*
X153426114Y-129023600D01*
X153671549Y-128999535D01*
X153778666Y-128967194D01*
X153981987Y-129170515D01*
X153923899Y-129138581D01*
X153688831Y-129064013D01*
X153443757Y-129036523D01*
X153426114Y-129036400D01*
X153413886Y-129036400D01*
X153168451Y-129060465D01*
X152932365Y-129131744D01*
X152714620Y-129247521D01*
X152523510Y-129403386D01*
X152366314Y-129593404D01*
X152249020Y-129810335D01*
X152176095Y-130045918D01*
X152150317Y-130291178D01*
X152172668Y-130536775D01*
X152209512Y-130661960D01*
X152014690Y-130856782D01*
X152050980Y-130789665D01*
X152123905Y-130554082D01*
X152149683Y-130308822D01*
X152127332Y-130063225D01*
X152057704Y-129826647D01*
X151943449Y-129608099D01*
X151788922Y-129415905D01*
X151600006Y-129257387D01*
X151383899Y-129138581D01*
X151148831Y-129064013D01*
X150903757Y-129036523D01*
X150886114Y-129036400D01*
X150873886Y-129036400D01*
X150628451Y-129060465D01*
X150392365Y-129131744D01*
X150174620Y-129247521D01*
X149983510Y-129403386D01*
X149826314Y-129593404D01*
X149709020Y-129810335D01*
X149636095Y-130045918D01*
X149610317Y-130291178D01*
X149632668Y-130536775D01*
X149642225Y-130569247D01*
X149550959Y-130660513D01*
X149583905Y-130554082D01*
X149609683Y-130308822D01*
X149587332Y-130063225D01*
X149517704Y-129826647D01*
X149403449Y-129608099D01*
X149248922Y-129415905D01*
X149060006Y-129257387D01*
X148843899Y-129138581D01*
X148608831Y-129064013D01*
X148363757Y-129036523D01*
X148346114Y-129036400D01*
X148333886Y-129036400D01*
X148088451Y-129060465D01*
X147852365Y-129131744D01*
X147634620Y-129247521D01*
X147443510Y-129403386D01*
X147286314Y-129593404D01*
X147169020Y-129810335D01*
X147096095Y-130045918D01*
X147070317Y-130291178D01*
X147092668Y-130536775D01*
X147129512Y-130661960D01*
X146934690Y-130856782D01*
X146970980Y-130789665D01*
X147043905Y-130554082D01*
X147069683Y-130308822D01*
X147047332Y-130063225D01*
X146977704Y-129826647D01*
X146863449Y-129608099D01*
X146708922Y-129415905D01*
X146520006Y-129257387D01*
X146303899Y-129138581D01*
X146068831Y-129064013D01*
X145823757Y-129036523D01*
X145806114Y-129036400D01*
X145793886Y-129036400D01*
X145548451Y-129060465D01*
X145312365Y-129131744D01*
X145094620Y-129247521D01*
X144903510Y-129403386D01*
X144746314Y-129593404D01*
X144629020Y-129810335D01*
X144556095Y-130045918D01*
X144530317Y-130291178D01*
X144552668Y-130536775D01*
X144622296Y-130773353D01*
X144736551Y-130991901D01*
X144891078Y-131184095D01*
X145079994Y-131342613D01*
X145296101Y-131461419D01*
X145531169Y-131535987D01*
X145776243Y-131563477D01*
X145793886Y-131563600D01*
X145806114Y-131563600D01*
X146051549Y-131539535D01*
X146287635Y-131468256D01*
X146363616Y-131427856D01*
X139150000Y-138641472D01*
X139150000Y-138401888D01*
X139186022Y-138321976D01*
X139201935Y-138210000D01*
X139201935Y-137310000D01*
X139196855Y-137246302D01*
X139163398Y-137138262D01*
X139101165Y-137043821D01*
X139015086Y-136970457D01*
X138911976Y-136923978D01*
X138800000Y-136908065D01*
X138300000Y-136908065D01*
X138236302Y-136913145D01*
X138128262Y-136946602D01*
X138033821Y-137008835D01*
X137960457Y-137094914D01*
X137913978Y-137198024D01*
X137898065Y-137310000D01*
X137898065Y-138210000D01*
X137903145Y-138273698D01*
X137936602Y-138381738D01*
X137950000Y-138402070D01*
X137950000Y-139040226D01*
X137883821Y-139083835D01*
X137810457Y-139169914D01*
X137763978Y-139273024D01*
X137748065Y-139385000D01*
X137748065Y-140135000D01*
X137750059Y-140160000D01*
X133421939Y-140160000D01*
X133489825Y-140116918D01*
X133717053Y-139900532D01*
X133897924Y-139644131D01*
X134025548Y-139357482D01*
X134095064Y-139051504D01*
X134100069Y-138693112D01*
X134039123Y-138385311D01*
X134028691Y-138360000D01*
X136429870Y-138360000D01*
X136436602Y-138381738D01*
X136498835Y-138476179D01*
X136584914Y-138549543D01*
X136688024Y-138596022D01*
X136800000Y-138611935D01*
X137300000Y-138611935D01*
X137363698Y-138606855D01*
X137471738Y-138573398D01*
X137566179Y-138511165D01*
X137639543Y-138425086D01*
X137686022Y-138321976D01*
X137701935Y-138210000D01*
X137701935Y-137310000D01*
X137696855Y-137246302D01*
X137663398Y-137138262D01*
X137650000Y-137117930D01*
X137650000Y-136401888D01*
X137686022Y-136321976D01*
X137701935Y-136210000D01*
X137701935Y-135310000D01*
X137696855Y-135246302D01*
X137663398Y-135138262D01*
X137601165Y-135043821D01*
X137515086Y-134970457D01*
X137411976Y-134923978D01*
X137300000Y-134908065D01*
X136800000Y-134908065D01*
X136736302Y-134913145D01*
X136628262Y-134946602D01*
X136533821Y-135008835D01*
X136460457Y-135094914D01*
X136413978Y-135198024D01*
X136398065Y-135310000D01*
X136398065Y-136210000D01*
X136403145Y-136273698D01*
X136436602Y-136381738D01*
X136450000Y-136402070D01*
X136450000Y-137118112D01*
X136431118Y-137160000D01*
X133590000Y-137160000D01*
X133534871Y-137165405D01*
X133479629Y-137170239D01*
X133476600Y-137171119D01*
X133473459Y-137171427D01*
X133420362Y-137187458D01*
X133367179Y-137202909D01*
X133364381Y-137204359D01*
X133361358Y-137205272D01*
X133312427Y-137231289D01*
X133263216Y-137256797D01*
X133260748Y-137258767D01*
X133257965Y-137260247D01*
X133215056Y-137295243D01*
X133171701Y-137329853D01*
X133167309Y-137334184D01*
X133167219Y-137334258D01*
X133167150Y-137334342D01*
X133165736Y-137335736D01*
X133124603Y-137376869D01*
X132975422Y-137314159D01*
X132668055Y-137251065D01*
X132354286Y-137248875D01*
X132046068Y-137307671D01*
X131755140Y-137425213D01*
X131492583Y-137597026D01*
X131400000Y-137687689D01*
X131400000Y-134508528D01*
X132548528Y-133360000D01*
X137751618Y-133360000D01*
X137748065Y-133385000D01*
X137748065Y-134135000D01*
X137753145Y-134198698D01*
X137786602Y-134306738D01*
X137848835Y-134401179D01*
X137934914Y-134474543D01*
X138038024Y-134521022D01*
X138150000Y-134536935D01*
X138924537Y-134536935D01*
X138553407Y-134908065D01*
X138300000Y-134908065D01*
X138236302Y-134913145D01*
X138128262Y-134946602D01*
X138033821Y-135008835D01*
X137960457Y-135094914D01*
X137913978Y-135198024D01*
X137898065Y-135310000D01*
X137898065Y-136210000D01*
X137903145Y-136273698D01*
X137936602Y-136381738D01*
X137998835Y-136476179D01*
X138084914Y-136549543D01*
X138188024Y-136596022D01*
X138300000Y-136611935D01*
X138800000Y-136611935D01*
X138863698Y-136606855D01*
X138971738Y-136573398D01*
X139066179Y-136511165D01*
X139139543Y-136425086D01*
X139186022Y-136321976D01*
X139201935Y-136210000D01*
X139201935Y-135956593D01*
X140224264Y-134934264D01*
X140259439Y-134891441D01*
X140295068Y-134848980D01*
X140296587Y-134846216D01*
X140298591Y-134843777D01*
X140324799Y-134794899D01*
X140351481Y-134746365D01*
X140352434Y-134743360D01*
X140353926Y-134740578D01*
X140370135Y-134687560D01*
X140386889Y-134634747D01*
X140387241Y-134631612D01*
X140388163Y-134628595D01*
X140393759Y-134573496D01*
X140399942Y-134518377D01*
X140399985Y-134512205D01*
X140399996Y-134512094D01*
X140399986Y-134511991D01*
X140400000Y-134510000D01*
X140400000Y-132444786D01*
X140434914Y-132474543D01*
X140538024Y-132521022D01*
X140650000Y-132536935D01*
X141450000Y-132536935D01*
X141513698Y-132531855D01*
X141621738Y-132498398D01*
X141716179Y-132436165D01*
X141789543Y-132350086D01*
X141836022Y-132246976D01*
X141851935Y-132135000D01*
X141851935Y-131385000D01*
X141846855Y-131321302D01*
X141813398Y-131213262D01*
X141751165Y-131118821D01*
X141665086Y-131045457D01*
X141561976Y-130998978D01*
X141450000Y-130983065D01*
X141450000Y-130680815D01*
X141514543Y-130605086D01*
X141561022Y-130501976D01*
X141576935Y-130390000D01*
X141576935Y-129360000D01*
X142023065Y-129360000D01*
X142023065Y-130390000D01*
X142028145Y-130453698D01*
X142061602Y-130561738D01*
X142123835Y-130656179D01*
X142209914Y-130729543D01*
X142313024Y-130776022D01*
X142425000Y-130791935D01*
X143075000Y-130791935D01*
X143138698Y-130786855D01*
X143246738Y-130753398D01*
X143341179Y-130691165D01*
X143414543Y-130605086D01*
X143461022Y-130501976D01*
X143476935Y-130390000D01*
X143476935Y-129330000D01*
X143471855Y-129266302D01*
X143438398Y-129158262D01*
X143376165Y-129063821D01*
X143290086Y-128990457D01*
X143186976Y-128943978D01*
X143075000Y-128928065D01*
X142980463Y-128928065D01*
X143174264Y-128734264D01*
X143209439Y-128691441D01*
X143245068Y-128648980D01*
X143246587Y-128646216D01*
X143248591Y-128643777D01*
X143274799Y-128594899D01*
X143301481Y-128546365D01*
X143302434Y-128543360D01*
X143303926Y-128540578D01*
X143313446Y-128509440D01*
X143341179Y-128491165D01*
X143414543Y-128405086D01*
X143434866Y-128360000D01*
X144688506Y-128360000D01*
X144736551Y-128451901D01*
X144891078Y-128644095D01*
X145079994Y-128802613D01*
X145296101Y-128921419D01*
X145531169Y-128995987D01*
X145776243Y-129023477D01*
X145793886Y-129023600D01*
X145806114Y-129023600D01*
X146051549Y-128999535D01*
X146287635Y-128928256D01*
X146505380Y-128812479D01*
X146692338Y-128660000D01*
X147450033Y-128660000D01*
X147619994Y-128802613D01*
X147836101Y-128921419D01*
X148071169Y-128995987D01*
X148316243Y-129023477D01*
X148333886Y-129023600D01*
X148346114Y-129023600D01*
X148591549Y-128999535D01*
X148827635Y-128928256D01*
X149045380Y-128812479D01*
X149236490Y-128656614D01*
X149393686Y-128466596D01*
X149510980Y-128249665D01*
X149583905Y-128014082D01*
X149609683Y-127768822D01*
X149587332Y-127523225D01*
X149517704Y-127286647D01*
X149403449Y-127068099D01*
X149248922Y-126875905D01*
X149060006Y-126717387D01*
X148843899Y-126598581D01*
X148608831Y-126524013D01*
X148363757Y-126496523D01*
X148346114Y-126496400D01*
X148333886Y-126496400D01*
X148088451Y-126520465D01*
X147852365Y-126591744D01*
X147634620Y-126707521D01*
X147447662Y-126860000D01*
X146689967Y-126860000D01*
X146520006Y-126717387D01*
X146303899Y-126598581D01*
X146068831Y-126524013D01*
X145823757Y-126496523D01*
X145806114Y-126496400D01*
X145793886Y-126496400D01*
X145548451Y-126520465D01*
X145312365Y-126591744D01*
X145094620Y-126707521D01*
X144903510Y-126863386D01*
X144746314Y-127053404D01*
X144688678Y-127160000D01*
X143476935Y-127160000D01*
X143476935Y-127130000D01*
X143471855Y-127066302D01*
X143438398Y-126958262D01*
X143376165Y-126863821D01*
X143350000Y-126841521D01*
X143350000Y-126061935D01*
X143425000Y-126061935D01*
X143488698Y-126056855D01*
X143596738Y-126023398D01*
X143691179Y-125961165D01*
X143764543Y-125875086D01*
X143811022Y-125771976D01*
X143826935Y-125660000D01*
X143826935Y-124860000D01*
X143821855Y-124796302D01*
X143788398Y-124688262D01*
X143726165Y-124593821D01*
X143640086Y-124520457D01*
X143536976Y-124473978D01*
X143425000Y-124458065D01*
X142675000Y-124458065D01*
X142611302Y-124463145D01*
X142503262Y-124496602D01*
X142408821Y-124558835D01*
X142335457Y-124644914D01*
X142288978Y-124748024D01*
X142273065Y-124860000D01*
X142273065Y-125199410D01*
X142254932Y-125221020D01*
X142253413Y-125223784D01*
X142251409Y-125226223D01*
X142225201Y-125275101D01*
X142198519Y-125323635D01*
X142197566Y-125326640D01*
X142196074Y-125329422D01*
X142179865Y-125382440D01*
X142163111Y-125435253D01*
X142162759Y-125438388D01*
X142161837Y-125441405D01*
X142156241Y-125496504D01*
X142150058Y-125551623D01*
X142150015Y-125557795D01*
X142150004Y-125557906D01*
X142150014Y-125558009D01*
X142150000Y-125560000D01*
X142150000Y-126839185D01*
X142085457Y-126914914D01*
X142038978Y-127018024D01*
X142023065Y-127130000D01*
X142023065Y-128160000D01*
X141576935Y-128160000D01*
X141576935Y-127130000D01*
X141571855Y-127066302D01*
X141538398Y-126958262D01*
X141476165Y-126863821D01*
X141450000Y-126841521D01*
X141450000Y-123310000D01*
X141444595Y-123254875D01*
X141439761Y-123199629D01*
X141438881Y-123196600D01*
X141438573Y-123193459D01*
X141422542Y-123140362D01*
X141407091Y-123087179D01*
X141405641Y-123084381D01*
X141404728Y-123081358D01*
X141378711Y-123032427D01*
X141353203Y-122983216D01*
X141351233Y-122980748D01*
X141349753Y-122977965D01*
X141314757Y-122935056D01*
X141280147Y-122891701D01*
X141275816Y-122887309D01*
X141275742Y-122887219D01*
X141275658Y-122887150D01*
X141274264Y-122885736D01*
X139400000Y-121011472D01*
X139400000Y-120664306D01*
X139457990Y-120724357D01*
X139715648Y-120903433D01*
X140003180Y-121029054D01*
X140309637Y-121096432D01*
X140623344Y-121103004D01*
X140932354Y-121048517D01*
X141224895Y-120935048D01*
X141489825Y-120766918D01*
X141717053Y-120550532D01*
X141897924Y-120294131D01*
X142025548Y-120007482D01*
X142095064Y-119701504D01*
X142100069Y-119343112D01*
X142039123Y-119035311D01*
X141973188Y-118875340D01*
X143838528Y-117010000D01*
X145641472Y-117010000D01*
X144624603Y-118026869D01*
G36*
X155456101Y-128921419D02*
X155691169Y-128995987D01*
X155936243Y-129023477D01*
X155953886Y-129023600D01*
X155966114Y-129023600D01*
X156211549Y-128999535D01*
X156318666Y-128967194D01*
X156805736Y-129454264D01*
X156848559Y-129489439D01*
X156891020Y-129525068D01*
X156893784Y-129526587D01*
X156896223Y-129528591D01*
X156945101Y-129554799D01*
X156993635Y-129581481D01*
X156996640Y-129582434D01*
X156999422Y-129583926D01*
X157052440Y-129600135D01*
X157105253Y-129616889D01*
X157108388Y-129617241D01*
X157111405Y-129618163D01*
X157166504Y-129623759D01*
X157221623Y-129629942D01*
X157227795Y-129629985D01*
X157227906Y-129629996D01*
X157228009Y-129629986D01*
X157230000Y-129630000D01*
X157426527Y-129630000D01*
X157329020Y-129810335D01*
X157256095Y-130045918D01*
X157230317Y-130291178D01*
X157252668Y-130536775D01*
X157322296Y-130773353D01*
X157436551Y-130991901D01*
X157591078Y-131184095D01*
X157779994Y-131342613D01*
X157900000Y-131408587D01*
X157900000Y-132010000D01*
X157905409Y-132065170D01*
X157910239Y-132120371D01*
X157911119Y-132123400D01*
X157911427Y-132126541D01*
X157927458Y-132179638D01*
X157942909Y-132232821D01*
X157944359Y-132235619D01*
X157945272Y-132238642D01*
X157971289Y-132287573D01*
X157996797Y-132336784D01*
X157998767Y-132339252D01*
X158000247Y-132342035D01*
X158035248Y-132384950D01*
X158069854Y-132428300D01*
X158074184Y-132432691D01*
X158074258Y-132432781D01*
X158074342Y-132432850D01*
X158075736Y-132434264D01*
X159625736Y-133984264D01*
X159668559Y-134019439D01*
X159711020Y-134055068D01*
X159713784Y-134056587D01*
X159716223Y-134058591D01*
X159765101Y-134084799D01*
X159813635Y-134111481D01*
X159816640Y-134112434D01*
X159819422Y-134113926D01*
X159872440Y-134130135D01*
X159925253Y-134146889D01*
X159928388Y-134147241D01*
X159931405Y-134148163D01*
X159986504Y-134153759D01*
X160041623Y-134159942D01*
X160047795Y-134159985D01*
X160047906Y-134159996D01*
X160048009Y-134159986D01*
X160050000Y-134160000D01*
X164153065Y-134160000D01*
X164153065Y-134310000D01*
X158888528Y-134310000D01*
X155290000Y-130711472D01*
X155290000Y-129030000D01*
X155284591Y-128974830D01*
X155279761Y-128919629D01*
X155278881Y-128916600D01*
X155278573Y-128913459D01*
X155262542Y-128860362D01*
X155247091Y-128807179D01*
X155246609Y-128806250D01*
X155456101Y-128921419D01*
X155456101Y-128921419D01*
G37*
X155456101Y-128921419D02*
X155691169Y-128995987D01*
X155936243Y-129023477D01*
X155953886Y-129023600D01*
X155966114Y-129023600D01*
X156211549Y-128999535D01*
X156318666Y-128967194D01*
X156805736Y-129454264D01*
X156848559Y-129489439D01*
X156891020Y-129525068D01*
X156893784Y-129526587D01*
X156896223Y-129528591D01*
X156945101Y-129554799D01*
X156993635Y-129581481D01*
X156996640Y-129582434D01*
X156999422Y-129583926D01*
X157052440Y-129600135D01*
X157105253Y-129616889D01*
X157108388Y-129617241D01*
X157111405Y-129618163D01*
X157166504Y-129623759D01*
X157221623Y-129629942D01*
X157227795Y-129629985D01*
X157227906Y-129629996D01*
X157228009Y-129629986D01*
X157230000Y-129630000D01*
X157426527Y-129630000D01*
X157329020Y-129810335D01*
X157256095Y-130045918D01*
X157230317Y-130291178D01*
X157252668Y-130536775D01*
X157322296Y-130773353D01*
X157436551Y-130991901D01*
X157591078Y-131184095D01*
X157779994Y-131342613D01*
X157900000Y-131408587D01*
X157900000Y-132010000D01*
X157905409Y-132065170D01*
X157910239Y-132120371D01*
X157911119Y-132123400D01*
X157911427Y-132126541D01*
X157927458Y-132179638D01*
X157942909Y-132232821D01*
X157944359Y-132235619D01*
X157945272Y-132238642D01*
X157971289Y-132287573D01*
X157996797Y-132336784D01*
X157998767Y-132339252D01*
X158000247Y-132342035D01*
X158035248Y-132384950D01*
X158069854Y-132428300D01*
X158074184Y-132432691D01*
X158074258Y-132432781D01*
X158074342Y-132432850D01*
X158075736Y-132434264D01*
X159625736Y-133984264D01*
X159668559Y-134019439D01*
X159711020Y-134055068D01*
X159713784Y-134056587D01*
X159716223Y-134058591D01*
X159765101Y-134084799D01*
X159813635Y-134111481D01*
X159816640Y-134112434D01*
X159819422Y-134113926D01*
X159872440Y-134130135D01*
X159925253Y-134146889D01*
X159928388Y-134147241D01*
X159931405Y-134148163D01*
X159986504Y-134153759D01*
X160041623Y-134159942D01*
X160047795Y-134159985D01*
X160047906Y-134159996D01*
X160048009Y-134159986D01*
X160050000Y-134160000D01*
X164153065Y-134160000D01*
X164153065Y-134310000D01*
X158888528Y-134310000D01*
X155290000Y-130711472D01*
X155290000Y-129030000D01*
X155284591Y-128974830D01*
X155279761Y-128919629D01*
X155278881Y-128916600D01*
X155278573Y-128913459D01*
X155262542Y-128860362D01*
X155247091Y-128807179D01*
X155246609Y-128806250D01*
X155456101Y-128921419D01*
G36*
X175390000Y-118038528D02*
X175390000Y-122771472D01*
X174585736Y-123575736D01*
X174550561Y-123618559D01*
X174514932Y-123661020D01*
X174513413Y-123663784D01*
X174511409Y-123666223D01*
X174485201Y-123715101D01*
X174458519Y-123763635D01*
X174457566Y-123766640D01*
X174456074Y-123769422D01*
X174439865Y-123822440D01*
X174423111Y-123875253D01*
X174422759Y-123878388D01*
X174421837Y-123881405D01*
X174416241Y-123936504D01*
X174410058Y-123991623D01*
X174410015Y-123997795D01*
X174410004Y-123997906D01*
X174410014Y-123998009D01*
X174410000Y-124000000D01*
X174410000Y-126689896D01*
X174243899Y-126598581D01*
X174008831Y-126524013D01*
X173763757Y-126496523D01*
X173746114Y-126496400D01*
X173733886Y-126496400D01*
X173488451Y-126520465D01*
X173252365Y-126591744D01*
X173070000Y-126688709D01*
X173070000Y-118370000D01*
X173064595Y-118314871D01*
X173059761Y-118259629D01*
X173058881Y-118256600D01*
X173058573Y-118253459D01*
X173042552Y-118200395D01*
X173027092Y-118147180D01*
X173025640Y-118144379D01*
X173024728Y-118141358D01*
X172998709Y-118092424D01*
X172973203Y-118043217D01*
X172971234Y-118040751D01*
X172969753Y-118037965D01*
X172934739Y-117995034D01*
X172900147Y-117951701D01*
X172895816Y-117947309D01*
X172895742Y-117947219D01*
X172895658Y-117947150D01*
X172894264Y-117945736D01*
X171308528Y-116360000D01*
X173711472Y-116360000D01*
X175390000Y-118038528D01*
X175390000Y-118038528D01*
G37*
X175390000Y-118038528D02*
X175390000Y-122771472D01*
X174585736Y-123575736D01*
X174550561Y-123618559D01*
X174514932Y-123661020D01*
X174513413Y-123663784D01*
X174511409Y-123666223D01*
X174485201Y-123715101D01*
X174458519Y-123763635D01*
X174457566Y-123766640D01*
X174456074Y-123769422D01*
X174439865Y-123822440D01*
X174423111Y-123875253D01*
X174422759Y-123878388D01*
X174421837Y-123881405D01*
X174416241Y-123936504D01*
X174410058Y-123991623D01*
X174410015Y-123997795D01*
X174410004Y-123997906D01*
X174410014Y-123998009D01*
X174410000Y-124000000D01*
X174410000Y-126689896D01*
X174243899Y-126598581D01*
X174008831Y-126524013D01*
X173763757Y-126496523D01*
X173746114Y-126496400D01*
X173733886Y-126496400D01*
X173488451Y-126520465D01*
X173252365Y-126591744D01*
X173070000Y-126688709D01*
X173070000Y-118370000D01*
X173064595Y-118314871D01*
X173059761Y-118259629D01*
X173058881Y-118256600D01*
X173058573Y-118253459D01*
X173042552Y-118200395D01*
X173027092Y-118147180D01*
X173025640Y-118144379D01*
X173024728Y-118141358D01*
X172998709Y-118092424D01*
X172973203Y-118043217D01*
X172971234Y-118040751D01*
X172969753Y-118037965D01*
X172934739Y-117995034D01*
X172900147Y-117951701D01*
X172895816Y-117947309D01*
X172895742Y-117947219D01*
X172895658Y-117947150D01*
X172894264Y-117945736D01*
X171308528Y-116360000D01*
X173711472Y-116360000D01*
X175390000Y-118038528D01*
M02*
