G04 #@! TF.FileFunction,Soldermask,Bot*
%FSLAX46Y46*%
G04 Gerber Fmt 4.6, Leading zero omitted, Abs format (unit mm)*
G04 Created by KiCad (PCBNEW 4.0.2+dfsg1-stable) date Thu 29 Sep 2016 13:26:16 BST*
%MOMM*%
G01*
G04 APERTURE LIST*
%ADD10C,0.150000*%
%ADD11O,1.727200X1.727200*%
%ADD12R,0.900000X0.500000*%
%ADD13C,2.400000*%
%ADD14R,0.750000X0.800000*%
%ADD15R,0.800000X0.750000*%
%ADD16R,0.800100X0.800100*%
%ADD17R,0.500000X0.900000*%
%ADD18R,0.600000X1.500000*%
%ADD19R,0.650000X1.060000*%
G04 APERTURE END LIST*
D10*
D11*
X145800000Y-130300000D03*
X145800000Y-127760000D03*
X148340000Y-130300000D03*
X148340000Y-127760000D03*
X150880000Y-130300000D03*
X150880000Y-127760000D03*
X153420000Y-130300000D03*
X153420000Y-127760000D03*
X155960000Y-130300000D03*
X155960000Y-127760000D03*
X158500000Y-130300000D03*
X158500000Y-127760000D03*
X161040000Y-130300000D03*
X161040000Y-127760000D03*
X163580000Y-130300000D03*
X163580000Y-127760000D03*
X166120000Y-130300000D03*
X166120000Y-127760000D03*
X168660000Y-130300000D03*
X168660000Y-127760000D03*
X171200000Y-130300000D03*
X171200000Y-127760000D03*
X173740000Y-130300000D03*
X173740000Y-127760000D03*
X176280000Y-130300000D03*
X176280000Y-127760000D03*
D12*
X162300000Y-123010000D03*
X162300000Y-124510000D03*
D13*
X174250000Y-119500000D03*
X170750000Y-119500000D03*
X132500000Y-135350000D03*
X132500000Y-138850000D03*
X132500000Y-127250000D03*
X132500000Y-130750000D03*
X132500000Y-119150000D03*
X132500000Y-122650000D03*
D14*
X143050000Y-125260000D03*
X143050000Y-123760000D03*
D15*
X141050000Y-131760000D03*
X142550000Y-131760000D03*
X138550000Y-127760000D03*
X137050000Y-127760000D03*
X138550000Y-133760000D03*
X137050000Y-133760000D03*
X138550000Y-139760000D03*
X137050000Y-139760000D03*
D14*
X175800000Y-135010000D03*
X175800000Y-133510000D03*
D15*
X173550000Y-141260000D03*
X172050000Y-141260000D03*
D14*
X175800000Y-139010000D03*
X175800000Y-137510000D03*
D15*
X170050000Y-141260000D03*
X168550000Y-141260000D03*
X165050000Y-141260000D03*
X166550000Y-141260000D03*
D13*
X137000000Y-119500000D03*
X151000000Y-119500000D03*
X140500000Y-119500000D03*
X147500000Y-119500000D03*
X144000000Y-119500000D03*
X166300000Y-119500000D03*
X155500000Y-119500000D03*
X162650000Y-119500000D03*
X159150000Y-119500000D03*
D16*
X153050760Y-123560000D03*
X153050760Y-125460000D03*
X151051780Y-124510000D03*
X147050760Y-123560000D03*
X147050760Y-125460000D03*
X145051780Y-124510000D03*
X166300760Y-123560000D03*
X166300760Y-125460000D03*
X164301780Y-124510000D03*
D17*
X138550000Y-123760000D03*
X137050000Y-123760000D03*
X138550000Y-129760000D03*
X137050000Y-129760000D03*
X138550000Y-135760000D03*
X137050000Y-135760000D03*
X138550000Y-125760000D03*
X137050000Y-125760000D03*
X138550000Y-131760000D03*
X137050000Y-131760000D03*
X138550000Y-137760000D03*
X137050000Y-137760000D03*
D12*
X155050000Y-125510000D03*
X155050000Y-124010000D03*
X149050000Y-125510000D03*
X149050000Y-124010000D03*
X168300000Y-125510000D03*
X168300000Y-124010000D03*
D18*
X173745000Y-138960000D03*
X172475000Y-138960000D03*
X171205000Y-138960000D03*
X169935000Y-138960000D03*
X168665000Y-138960000D03*
X167395000Y-138960000D03*
X166125000Y-138960000D03*
X164855000Y-138960000D03*
X164855000Y-133560000D03*
X166125000Y-133560000D03*
X167395000Y-133560000D03*
X168665000Y-133560000D03*
X169935000Y-133560000D03*
X171205000Y-133560000D03*
X172475000Y-133560000D03*
X173745000Y-133560000D03*
D19*
X140850000Y-127660000D03*
X141800000Y-127660000D03*
X142750000Y-127660000D03*
X142750000Y-129860000D03*
X140850000Y-129860000D03*
M02*
