G04 #@! TF.FileFunction,Paste,Top*
%FSLAX46Y46*%
G04 Gerber Fmt 4.6, Leading zero omitted, Abs format (unit mm)*
G04 Created by KiCad (PCBNEW 4.0.2+dfsg1-stable) date Fri 07 Oct 2016 10:28:56 BST*
%MOMM*%
G01*
G04 APERTURE LIST*
%ADD10C,0.150000*%
%ADD11R,1.060000X0.650000*%
%ADD12R,2.032000X3.657600*%
%ADD13R,2.032000X1.016000*%
%ADD14R,0.800000X0.750000*%
%ADD15R,0.750000X0.800000*%
%ADD16R,0.600000X1.500000*%
%ADD17R,2.499360X1.950720*%
G04 APERTURE END LIST*
D10*
D11*
X155600000Y-116950000D03*
X155600000Y-116000000D03*
X155600000Y-115050000D03*
X153400000Y-115050000D03*
X153400000Y-116950000D03*
D12*
X170302000Y-116000000D03*
D13*
X163698000Y-116000000D03*
X163698000Y-118286000D03*
X163698000Y-113714000D03*
D14*
X155250000Y-119000000D03*
X153750000Y-119000000D03*
D15*
X151500000Y-113250000D03*
X151500000Y-114750000D03*
D14*
X149250000Y-111000000D03*
X147750000Y-111000000D03*
X145750000Y-111000000D03*
X144250000Y-111000000D03*
X140750000Y-111000000D03*
X142250000Y-111000000D03*
D16*
X149445000Y-113300000D03*
X148175000Y-113300000D03*
X146905000Y-113300000D03*
X145635000Y-113300000D03*
X144365000Y-113300000D03*
X143095000Y-113300000D03*
X141825000Y-113300000D03*
X140555000Y-113300000D03*
X140555000Y-118700000D03*
X141825000Y-118700000D03*
X143095000Y-118700000D03*
X144365000Y-118700000D03*
X145635000Y-118700000D03*
X146905000Y-118700000D03*
X148175000Y-118700000D03*
X149445000Y-118700000D03*
D17*
X160000000Y-118476000D03*
X160000000Y-121524000D03*
X160000000Y-113524000D03*
X160000000Y-110476000D03*
D14*
X155250000Y-113000000D03*
X153750000Y-113000000D03*
M02*
